%TF.GenerationSoftware,KiCad,Pcbnew,7.0.7*%
%TF.CreationDate,2024-02-09T17:28:07-05:00*%
%TF.ProjectId,m0110a_atmega32_thru_hole_pcb,6d303131-3061-45f6-9174-6d6567613332,rev?*%
%TF.SameCoordinates,Original*%
%TF.FileFunction,Copper,L2,Bot*%
%TF.FilePolarity,Positive*%
%FSLAX46Y46*%
G04 Gerber Fmt 4.6, Leading zero omitted, Abs format (unit mm)*
G04 Created by KiCad (PCBNEW 7.0.7) date 2024-02-09 17:28:07*
%MOMM*%
%LPD*%
G01*
G04 APERTURE LIST*
%TA.AperFunction,ComponentPad*%
%ADD10R,1.600000X1.600000*%
%TD*%
%TA.AperFunction,ComponentPad*%
%ADD11O,1.600000X1.600000*%
%TD*%
%TA.AperFunction,ComponentPad*%
%ADD12R,1.700000X1.700000*%
%TD*%
%TA.AperFunction,ComponentPad*%
%ADD13O,1.700000X1.700000*%
%TD*%
%TA.AperFunction,ViaPad*%
%ADD14C,0.800000*%
%TD*%
%TA.AperFunction,Conductor*%
%ADD15C,0.250000*%
%TD*%
G04 APERTURE END LIST*
D10*
%TO.P,U2,1,PB0*%
%TO.N,/ROW0*%
X127889000Y-70231000D03*
D11*
%TO.P,U2,2,PB1*%
%TO.N,/ROW1*%
X127889000Y-72771000D03*
%TO.P,U2,3,PB2*%
%TO.N,/ROW2*%
X127889000Y-75311000D03*
%TO.P,U2,4,PB3*%
%TO.N,/ROW3*%
X127889000Y-77851000D03*
%TO.P,U2,5,PB4*%
%TO.N,/ROW4*%
X127889000Y-80391000D03*
%TO.P,U2,6,PB5*%
%TO.N,/ROW5*%
X127889000Y-82931000D03*
%TO.P,U2,7,PB6*%
%TO.N,/ROW6*%
X127889000Y-85471000D03*
%TO.P,U2,8,PB7*%
%TO.N,/ROW7*%
X127889000Y-88011000D03*
%TO.P,U2,9,~{RESET}*%
%TO.N,RESET*%
X127889000Y-90551000D03*
%TO.P,U2,10,VCC*%
%TO.N,+5V*%
X127889000Y-93091000D03*
%TO.P,U2,11,GND*%
%TO.N,GNDREF*%
X127889000Y-95631000D03*
%TO.P,U2,12,XTAL2*%
%TO.N,unconnected-(U2-XTAL2-Pad12)*%
X127889000Y-98171000D03*
%TO.P,U2,13,XTAL1*%
%TO.N,unconnected-(U2-XTAL1-Pad13)*%
X127889000Y-100711000D03*
%TO.P,U2,14,PD0*%
%TO.N,/RXD*%
X127889000Y-103251000D03*
%TO.P,U2,15,PD1*%
%TO.N,/TXD*%
X127889000Y-105791000D03*
%TO.P,U2,16,PD2*%
%TO.N,/KB_CLK*%
X127889000Y-108331000D03*
%TO.P,U2,17,PD3*%
%TO.N,/KB_DATA*%
X127889000Y-110871000D03*
%TO.P,U2,18,PD4*%
%TO.N,unconnected-(U2-PD4-Pad18)*%
X127889000Y-113411000D03*
%TO.P,U2,19,PD5*%
%TO.N,unconnected-(U2-PD5-Pad19)*%
X127889000Y-115951000D03*
%TO.P,U2,20,PD6*%
%TO.N,unconnected-(U2-PD6-Pad20)*%
X127889000Y-118491000D03*
%TO.P,U2,21,PD7*%
%TO.N,unconnected-(U2-PD7-Pad21)*%
X143129000Y-118491000D03*
%TO.P,U2,22,PC0*%
%TO.N,/COL7*%
X143129000Y-115951000D03*
%TO.P,U2,23,PC1*%
%TO.N,/COL6*%
X143129000Y-113411000D03*
%TO.P,U2,24,PC2*%
%TO.N,/COL5*%
X143129000Y-110871000D03*
%TO.P,U2,25,PC3*%
%TO.N,/COL4*%
X143129000Y-108331000D03*
%TO.P,U2,26,PC4*%
%TO.N,/COL3*%
X143129000Y-105791000D03*
%TO.P,U2,27,PC5*%
%TO.N,/COL2*%
X143129000Y-103251000D03*
%TO.P,U2,28,PC6*%
%TO.N,/COL1*%
X143129000Y-100711000D03*
%TO.P,U2,29,PC7*%
%TO.N,/COL0*%
X143129000Y-98171000D03*
%TO.P,U2,30,AVCC*%
%TO.N,unconnected-(U2-AVCC-Pad30)*%
X143129000Y-95631000D03*
%TO.P,U2,31,GND*%
%TO.N,GNDREF*%
X143129000Y-93091000D03*
%TO.P,U2,32,AREF*%
%TO.N,unconnected-(U2-AREF-Pad32)*%
X143129000Y-90551000D03*
%TO.P,U2,33,PA7*%
%TO.N,unconnected-(U2-PA7-Pad33)*%
X143129000Y-88011000D03*
%TO.P,U2,34,PA6*%
%TO.N,unconnected-(U2-PA6-Pad34)*%
X143129000Y-85471000D03*
%TO.P,U2,35,PA5*%
%TO.N,/CMD*%
X143129000Y-82931000D03*
%TO.P,U2,36,PA4*%
%TO.N,/OPT*%
X143129000Y-80391000D03*
%TO.P,U2,37,PA3*%
%TO.N,/SHIFT*%
X143129000Y-77851000D03*
%TO.P,U2,38,PA2*%
%TO.N,/LOCK*%
X143129000Y-75311000D03*
%TO.P,U2,39,PA1*%
%TO.N,/ROW9*%
X143129000Y-72771000D03*
%TO.P,U2,40,PA0*%
%TO.N,/ROW8*%
X143129000Y-70231000D03*
%TD*%
D12*
%TO.P,J2,1,Pin_1*%
%TO.N,/ROW6*%
X149606000Y-81661000D03*
D13*
%TO.P,J2,2,Pin_2*%
%TO.N,+5V*%
X152146000Y-81661000D03*
%TO.P,J2,3,Pin_3*%
%TO.N,/ROW7*%
X149606000Y-84201000D03*
%TO.P,J2,4,Pin_4*%
%TO.N,/ROW5*%
X152146000Y-84201000D03*
%TO.P,J2,5,Pin_5*%
%TO.N,RESET*%
X149606000Y-86741000D03*
%TO.P,J2,6,Pin_6*%
%TO.N,GNDREF*%
X152146000Y-86741000D03*
%TD*%
D12*
%TO.P,J3,1,Pin_1*%
%TO.N,/TXD*%
X149606000Y-104521000D03*
D13*
%TO.P,J3,2,Pin_2*%
%TO.N,/RXD*%
X152146000Y-104521000D03*
%TD*%
D10*
%TO.P,J1,1,Pin_1*%
%TO.N,unconnected-(J1-Pin_1-Pad1)*%
X93599000Y-118491000D03*
D11*
%TO.P,J1,2,Pin_2*%
%TO.N,unconnected-(J1-Pin_2-Pad2)*%
X93599000Y-115951000D03*
%TO.P,J1,3,Pin_3*%
%TO.N,unconnected-(J1-Pin_3-Pad3)*%
X93599000Y-113411000D03*
%TO.P,J1,4,Pin_4*%
%TO.N,RESET*%
X93599000Y-110871000D03*
%TO.P,J1,5,Pin_5*%
%TO.N,+5V*%
X93599000Y-108331000D03*
%TO.P,J1,6,Pin_6*%
%TO.N,unconnected-(J1-Pin_6-Pad6)*%
X93599000Y-105791000D03*
%TO.P,J1,7,Pin_7*%
%TO.N,GNDREF*%
X93599000Y-103251000D03*
%TO.P,J1,8,Pin_8*%
%TO.N,unconnected-(J1-Pin_8-Pad8)*%
X93599000Y-100711000D03*
%TO.P,J1,9,Pin_9*%
%TO.N,unconnected-(J1-Pin_9-Pad9)*%
X93599000Y-98171000D03*
%TO.P,J1,10,Pin_10*%
%TO.N,unconnected-(J1-Pin_10-Pad10)*%
X93599000Y-95631000D03*
%TO.P,J1,11,Pin_11*%
%TO.N,unconnected-(J1-Pin_11-Pad11)*%
X93599000Y-93091000D03*
%TO.P,J1,12,Pin_12*%
%TO.N,/COL7*%
X93599000Y-90551000D03*
%TO.P,J1,13,Pin_13*%
%TO.N,/COL6*%
X93599000Y-88011000D03*
%TO.P,J1,14,Pin_14*%
%TO.N,/COL5*%
X93599000Y-85471000D03*
%TO.P,J1,15,Pin_15*%
%TO.N,/COL4*%
X93599000Y-82931000D03*
%TO.P,J1,16,Pin_16*%
%TO.N,/COL3*%
X93599000Y-80391000D03*
%TO.P,J1,17,Pin_17*%
%TO.N,/COL2*%
X93599000Y-77851000D03*
%TO.P,J1,18,Pin_18*%
%TO.N,/COL1*%
X93599000Y-75311000D03*
%TO.P,J1,19,Pin_19*%
%TO.N,/COL0*%
X93599000Y-72771000D03*
%TO.P,J1,20,Pin_20*%
%TO.N,GNDREF*%
X93599000Y-70231000D03*
%TO.P,J1,21,Pin_21*%
%TO.N,/ROW0*%
X108839000Y-70231000D03*
%TO.P,J1,22,Pin_22*%
%TO.N,/ROW1*%
X108839000Y-72771000D03*
%TO.P,J1,23,Pin_23*%
%TO.N,/SHIFT*%
X108839000Y-75311000D03*
%TO.P,J1,24,Pin_24*%
%TO.N,/LOCK*%
X108839000Y-77851000D03*
%TO.P,J1,25,Pin_25*%
%TO.N,unconnected-(J1-Pin_25-Pad25)*%
X108839000Y-80391000D03*
%TO.P,J1,26,Pin_26*%
%TO.N,+5V*%
X108839000Y-82931000D03*
%TO.P,J1,27,Pin_27*%
%TO.N,/ROW2*%
X108839000Y-85471000D03*
%TO.P,J1,28,Pin_28*%
%TO.N,/ROW3*%
X108839000Y-88011000D03*
%TO.P,J1,29,Pin_29*%
%TO.N,/ROW4*%
X108839000Y-90551000D03*
%TO.P,J1,30,Pin_30*%
%TO.N,/ROW5*%
X108839000Y-93091000D03*
%TO.P,J1,31,Pin_31*%
%TO.N,/ROW6*%
X108839000Y-95631000D03*
%TO.P,J1,32,Pin_32*%
%TO.N,/ROW7*%
X108839000Y-98171000D03*
%TO.P,J1,33,Pin_33*%
%TO.N,/ROW8*%
X108839000Y-100711000D03*
%TO.P,J1,34,Pin_34*%
%TO.N,/ROW9*%
X108839000Y-103251000D03*
%TO.P,J1,35,Pin_35*%
%TO.N,/OPT*%
X108839000Y-105791000D03*
%TO.P,J1,36,Pin_36*%
%TO.N,/CMD*%
X108839000Y-108331000D03*
%TO.P,J1,37,Pin_37*%
%TO.N,/KB_CLK*%
X108839000Y-110871000D03*
%TO.P,J1,38,Pin_38*%
%TO.N,/KB_DATA*%
X108839000Y-113411000D03*
%TO.P,J1,39,Pin_39*%
%TO.N,unconnected-(J1-Pin_39-Pad39)*%
X108839000Y-115951000D03*
%TO.P,J1,40,Pin_40*%
%TO.N,+5V*%
X108839000Y-118491000D03*
%TD*%
D14*
%TO.N,RESET*%
X137287000Y-90551000D03*
%TO.N,/ROW5*%
X133985000Y-82931000D03*
%TO.N,/ROW6*%
X132207000Y-85471000D03*
%TO.N,/ROW7*%
X137287000Y-88011000D03*
%TD*%
D15*
%TO.N,GNDREF*%
X95123000Y-70231000D02*
X96393000Y-71501000D01*
X150241000Y-71501000D02*
X150876000Y-72136000D01*
X124383800Y-96901000D02*
X125653800Y-95631000D01*
X93726000Y-103378000D02*
X97028000Y-103378000D01*
X150876000Y-72136000D02*
X150876000Y-85471000D01*
X93599000Y-103251000D02*
X93726000Y-103378000D01*
X93599000Y-70231000D02*
X95123000Y-70231000D01*
X125653800Y-95631000D02*
X127889000Y-95631000D01*
X97028000Y-103378000D02*
X103505000Y-96901000D01*
X150876000Y-85471000D02*
X152146000Y-86741000D01*
X96393000Y-71501000D02*
X150241000Y-71501000D01*
X103505000Y-96901000D02*
X124383800Y-96901000D01*
%TO.N,RESET*%
X124993400Y-90551000D02*
X127889000Y-90551000D01*
X127889000Y-90551000D02*
X137287000Y-90551000D01*
X93599000Y-110871000D02*
X91948000Y-109220000D01*
X123723400Y-91821000D02*
X124993400Y-90551000D01*
X98425000Y-91821000D02*
X123723400Y-91821000D01*
X91948000Y-109220000D02*
X91948000Y-95250000D01*
X91948000Y-95250000D02*
X92837000Y-94361000D01*
X92837000Y-94361000D02*
X95885000Y-94361000D01*
X95885000Y-94361000D02*
X98425000Y-91821000D01*
%TO.N,/COL7*%
X90932000Y-91948000D02*
X92329000Y-90551000D01*
X141706600Y-115951000D02*
X141224000Y-116433600D01*
X92144000Y-121354000D02*
X90932000Y-120142000D01*
X143129000Y-115951000D02*
X141706600Y-115951000D01*
X141224000Y-120802400D02*
X140672400Y-121354000D01*
X90932000Y-120142000D02*
X90932000Y-91948000D01*
X92329000Y-90551000D02*
X93599000Y-90551000D01*
X140672400Y-121354000D02*
X92144000Y-121354000D01*
X141224000Y-116433600D02*
X141224000Y-120802400D01*
%TO.N,/COL6*%
X94742000Y-88011000D02*
X93599000Y-88011000D01*
X140766800Y-120497600D02*
X140360400Y-120904000D01*
X143129000Y-113411000D02*
X141605000Y-113411000D01*
X140766800Y-114249200D02*
X140766800Y-120497600D01*
X141605000Y-113411000D02*
X140766800Y-114249200D01*
X92583000Y-91821000D02*
X94742000Y-91821000D01*
X140360400Y-120904000D02*
X92583000Y-120904000D01*
X94742000Y-91821000D02*
X95250000Y-91313000D01*
X95250000Y-91313000D02*
X95250000Y-88519000D01*
X92583000Y-120904000D02*
X91440000Y-119761000D01*
X91440000Y-92964000D02*
X92583000Y-91821000D01*
X91440000Y-119761000D02*
X91440000Y-92964000D01*
X95250000Y-88519000D02*
X94742000Y-88011000D01*
%TO.N,/COL5*%
X94996000Y-85471000D02*
X96266000Y-86741000D01*
X93599000Y-85471000D02*
X94996000Y-85471000D01*
X138996000Y-110294000D02*
X139573000Y-110871000D01*
X138996000Y-87434000D02*
X138996000Y-110294000D01*
X139573000Y-110871000D02*
X143129000Y-110871000D01*
X96266000Y-86741000D02*
X138303000Y-86741000D01*
X138303000Y-86741000D02*
X138996000Y-87434000D01*
%TO.N,/COL4*%
X139446000Y-107950000D02*
X139446000Y-85979000D01*
X96266000Y-84201000D02*
X94996000Y-82931000D01*
X143129000Y-108331000D02*
X139827000Y-108331000D01*
X139446000Y-85979000D02*
X137668000Y-84201000D01*
X137668000Y-84201000D02*
X96266000Y-84201000D01*
X94996000Y-82931000D02*
X93599000Y-82931000D01*
X139827000Y-108331000D02*
X139446000Y-107950000D01*
%TO.N,/COL3*%
X94996000Y-80391000D02*
X96266000Y-81661000D01*
X137414000Y-81661000D02*
X139896000Y-84143000D01*
X93599000Y-80391000D02*
X94996000Y-80391000D01*
X96266000Y-81661000D02*
X137414000Y-81661000D01*
X140335000Y-105791000D02*
X143129000Y-105791000D01*
X139896000Y-84143000D02*
X139896000Y-105352000D01*
X139896000Y-105352000D02*
X140335000Y-105791000D01*
%TO.N,/COL2*%
X143129000Y-103251000D02*
X140843000Y-103251000D01*
X96266000Y-79121000D02*
X94996000Y-77851000D01*
X140346000Y-102754000D02*
X140346000Y-81799000D01*
X140843000Y-103251000D02*
X140346000Y-102754000D01*
X94996000Y-77851000D02*
X93599000Y-77851000D01*
X137668000Y-79121000D02*
X96266000Y-79121000D01*
X140346000Y-81799000D02*
X137668000Y-79121000D01*
%TO.N,/COL1*%
X94996000Y-75311000D02*
X96266000Y-76581000D01*
X140843000Y-79756000D02*
X140843000Y-100203000D01*
X141351000Y-100711000D02*
X143129000Y-100711000D01*
X96266000Y-76581000D02*
X137668000Y-76581000D01*
X93599000Y-75311000D02*
X94996000Y-75311000D01*
X140843000Y-100203000D02*
X141351000Y-100711000D01*
X137668000Y-76581000D02*
X140843000Y-79756000D01*
%TO.N,/COL0*%
X141859000Y-98171000D02*
X143129000Y-98171000D01*
X94996000Y-72771000D02*
X96266000Y-74041000D01*
X96266000Y-74041000D02*
X137668000Y-74041000D01*
X141351000Y-97663000D02*
X141859000Y-98171000D01*
X141351000Y-77724000D02*
X141351000Y-97663000D01*
X93599000Y-72771000D02*
X94996000Y-72771000D01*
X137668000Y-74041000D02*
X141351000Y-77724000D01*
%TO.N,/ROW0*%
X108839000Y-70231000D02*
X127889000Y-70231000D01*
%TO.N,/ROW1*%
X108839000Y-72771000D02*
X127889000Y-72771000D01*
%TO.N,/ROW5*%
X127889000Y-82931000D02*
X133985000Y-82931000D01*
%TO.N,/ROW6*%
X132207000Y-85471000D02*
X127889000Y-85471000D01*
%TO.N,/ROW7*%
X127889000Y-88011000D02*
X137287000Y-88011000D01*
%TO.N,/KB_CLK*%
X127762000Y-108458000D02*
X127889000Y-108331000D01*
%TD*%
M02*
