%TF.GenerationSoftware,KiCad,Pcbnew,7.0.7*%
%TF.CreationDate,2024-02-09T17:28:07-05:00*%
%TF.ProjectId,m0110a_atmega32_thru_hole_pcb,6d303131-3061-45f6-9174-6d6567613332,rev?*%
%TF.SameCoordinates,Original*%
%TF.FileFunction,Legend,Top*%
%TF.FilePolarity,Positive*%
%FSLAX46Y46*%
G04 Gerber Fmt 4.6, Leading zero omitted, Abs format (unit mm)*
G04 Created by KiCad (PCBNEW 7.0.7) date 2024-02-09 17:28:07*
%MOMM*%
%LPD*%
G01*
G04 APERTURE LIST*
%ADD10C,0.300000*%
%ADD11C,0.152400*%
%ADD12C,0.150000*%
%ADD13C,0.120000*%
%ADD14C,0.010000*%
%ADD15R,1.600000X1.600000*%
%ADD16O,1.600000X1.600000*%
%ADD17R,1.700000X1.700000*%
%ADD18O,1.700000X1.700000*%
G04 APERTURE END LIST*
D10*
X148898828Y-78415774D02*
X148898828Y-79272917D01*
X148898828Y-78844346D02*
X147398828Y-78844346D01*
X147398828Y-78844346D02*
X147613114Y-78987203D01*
X147613114Y-78987203D02*
X147755971Y-79130060D01*
X147755971Y-79130060D02*
X147827400Y-79272917D01*
X148795828Y-102275774D02*
X148795828Y-101418632D01*
X150295828Y-101847203D02*
X148795828Y-101847203D01*
X150295828Y-101061489D02*
X149295828Y-100275775D01*
X149295828Y-101061489D02*
X150295828Y-100275775D01*
X150295828Y-99704346D02*
X148795828Y-99704346D01*
X148795828Y-99704346D02*
X148795828Y-99347203D01*
X148795828Y-99347203D02*
X148867257Y-99132917D01*
X148867257Y-99132917D02*
X149010114Y-98990060D01*
X149010114Y-98990060D02*
X149152971Y-98918631D01*
X149152971Y-98918631D02*
X149438685Y-98847203D01*
X149438685Y-98847203D02*
X149652971Y-98847203D01*
X149652971Y-98847203D02*
X149938685Y-98918631D01*
X149938685Y-98918631D02*
X150081542Y-98990060D01*
X150081542Y-98990060D02*
X150224400Y-99132917D01*
X150224400Y-99132917D02*
X150295828Y-99347203D01*
X150295828Y-99347203D02*
X150295828Y-99704346D01*
X94153510Y-122863828D02*
X94153510Y-121363828D01*
X94796368Y-122863828D02*
X94796368Y-122078114D01*
X94796368Y-122078114D02*
X94724939Y-121935257D01*
X94724939Y-121935257D02*
X94582082Y-121863828D01*
X94582082Y-121863828D02*
X94367796Y-121863828D01*
X94367796Y-121863828D02*
X94224939Y-121935257D01*
X94224939Y-121935257D02*
X94153510Y-122006685D01*
X95296368Y-121863828D02*
X95867796Y-121863828D01*
X95510653Y-121363828D02*
X95510653Y-122649542D01*
X95510653Y-122649542D02*
X95582082Y-122792400D01*
X95582082Y-122792400D02*
X95724939Y-122863828D01*
X95724939Y-122863828D02*
X95867796Y-122863828D01*
X96153511Y-121863828D02*
X96724939Y-121863828D01*
X96367796Y-121363828D02*
X96367796Y-122649542D01*
X96367796Y-122649542D02*
X96439225Y-122792400D01*
X96439225Y-122792400D02*
X96582082Y-122863828D01*
X96582082Y-122863828D02*
X96724939Y-122863828D01*
X97224939Y-121863828D02*
X97224939Y-123363828D01*
X97224939Y-121935257D02*
X97367797Y-121863828D01*
X97367797Y-121863828D02*
X97653511Y-121863828D01*
X97653511Y-121863828D02*
X97796368Y-121935257D01*
X97796368Y-121935257D02*
X97867797Y-122006685D01*
X97867797Y-122006685D02*
X97939225Y-122149542D01*
X97939225Y-122149542D02*
X97939225Y-122578114D01*
X97939225Y-122578114D02*
X97867797Y-122720971D01*
X97867797Y-122720971D02*
X97796368Y-122792400D01*
X97796368Y-122792400D02*
X97653511Y-122863828D01*
X97653511Y-122863828D02*
X97367797Y-122863828D01*
X97367797Y-122863828D02*
X97224939Y-122792400D01*
X98510654Y-122792400D02*
X98653511Y-122863828D01*
X98653511Y-122863828D02*
X98939225Y-122863828D01*
X98939225Y-122863828D02*
X99082082Y-122792400D01*
X99082082Y-122792400D02*
X99153511Y-122649542D01*
X99153511Y-122649542D02*
X99153511Y-122578114D01*
X99153511Y-122578114D02*
X99082082Y-122435257D01*
X99082082Y-122435257D02*
X98939225Y-122363828D01*
X98939225Y-122363828D02*
X98724940Y-122363828D01*
X98724940Y-122363828D02*
X98582082Y-122292400D01*
X98582082Y-122292400D02*
X98510654Y-122149542D01*
X98510654Y-122149542D02*
X98510654Y-122078114D01*
X98510654Y-122078114D02*
X98582082Y-121935257D01*
X98582082Y-121935257D02*
X98724940Y-121863828D01*
X98724940Y-121863828D02*
X98939225Y-121863828D01*
X98939225Y-121863828D02*
X99082082Y-121935257D01*
X99796368Y-122720971D02*
X99867797Y-122792400D01*
X99867797Y-122792400D02*
X99796368Y-122863828D01*
X99796368Y-122863828D02*
X99724940Y-122792400D01*
X99724940Y-122792400D02*
X99796368Y-122720971D01*
X99796368Y-122720971D02*
X99796368Y-122863828D01*
X99796368Y-121935257D02*
X99867797Y-122006685D01*
X99867797Y-122006685D02*
X99796368Y-122078114D01*
X99796368Y-122078114D02*
X99724940Y-122006685D01*
X99724940Y-122006685D02*
X99796368Y-121935257D01*
X99796368Y-121935257D02*
X99796368Y-122078114D01*
X101582083Y-121292400D02*
X100296369Y-123220971D01*
X103153512Y-121292400D02*
X101867798Y-123220971D01*
X104296370Y-121863828D02*
X104296370Y-123078114D01*
X104296370Y-123078114D02*
X104224941Y-123220971D01*
X104224941Y-123220971D02*
X104153512Y-123292400D01*
X104153512Y-123292400D02*
X104010655Y-123363828D01*
X104010655Y-123363828D02*
X103796370Y-123363828D01*
X103796370Y-123363828D02*
X103653512Y-123292400D01*
X104296370Y-122792400D02*
X104153512Y-122863828D01*
X104153512Y-122863828D02*
X103867798Y-122863828D01*
X103867798Y-122863828D02*
X103724941Y-122792400D01*
X103724941Y-122792400D02*
X103653512Y-122720971D01*
X103653512Y-122720971D02*
X103582084Y-122578114D01*
X103582084Y-122578114D02*
X103582084Y-122149542D01*
X103582084Y-122149542D02*
X103653512Y-122006685D01*
X103653512Y-122006685D02*
X103724941Y-121935257D01*
X103724941Y-121935257D02*
X103867798Y-121863828D01*
X103867798Y-121863828D02*
X104153512Y-121863828D01*
X104153512Y-121863828D02*
X104296370Y-121935257D01*
X105010655Y-122863828D02*
X105010655Y-121863828D01*
X105010655Y-121363828D02*
X104939227Y-121435257D01*
X104939227Y-121435257D02*
X105010655Y-121506685D01*
X105010655Y-121506685D02*
X105082084Y-121435257D01*
X105082084Y-121435257D02*
X105010655Y-121363828D01*
X105010655Y-121363828D02*
X105010655Y-121506685D01*
X105510656Y-121863828D02*
X106082084Y-121863828D01*
X105724941Y-121363828D02*
X105724941Y-122649542D01*
X105724941Y-122649542D02*
X105796370Y-122792400D01*
X105796370Y-122792400D02*
X105939227Y-122863828D01*
X105939227Y-122863828D02*
X106082084Y-122863828D01*
X106582084Y-122863828D02*
X106582084Y-121363828D01*
X107224942Y-122863828D02*
X107224942Y-122078114D01*
X107224942Y-122078114D02*
X107153513Y-121935257D01*
X107153513Y-121935257D02*
X107010656Y-121863828D01*
X107010656Y-121863828D02*
X106796370Y-121863828D01*
X106796370Y-121863828D02*
X106653513Y-121935257D01*
X106653513Y-121935257D02*
X106582084Y-122006685D01*
X108582085Y-121863828D02*
X108582085Y-122863828D01*
X107939227Y-121863828D02*
X107939227Y-122649542D01*
X107939227Y-122649542D02*
X108010656Y-122792400D01*
X108010656Y-122792400D02*
X108153513Y-122863828D01*
X108153513Y-122863828D02*
X108367799Y-122863828D01*
X108367799Y-122863828D02*
X108510656Y-122792400D01*
X108510656Y-122792400D02*
X108582085Y-122720971D01*
X109296370Y-122863828D02*
X109296370Y-121363828D01*
X109296370Y-121935257D02*
X109439228Y-121863828D01*
X109439228Y-121863828D02*
X109724942Y-121863828D01*
X109724942Y-121863828D02*
X109867799Y-121935257D01*
X109867799Y-121935257D02*
X109939228Y-122006685D01*
X109939228Y-122006685D02*
X110010656Y-122149542D01*
X110010656Y-122149542D02*
X110010656Y-122578114D01*
X110010656Y-122578114D02*
X109939228Y-122720971D01*
X109939228Y-122720971D02*
X109867799Y-122792400D01*
X109867799Y-122792400D02*
X109724942Y-122863828D01*
X109724942Y-122863828D02*
X109439228Y-122863828D01*
X109439228Y-122863828D02*
X109296370Y-122792400D01*
X110653513Y-122720971D02*
X110724942Y-122792400D01*
X110724942Y-122792400D02*
X110653513Y-122863828D01*
X110653513Y-122863828D02*
X110582085Y-122792400D01*
X110582085Y-122792400D02*
X110653513Y-122720971D01*
X110653513Y-122720971D02*
X110653513Y-122863828D01*
X112010657Y-122792400D02*
X111867799Y-122863828D01*
X111867799Y-122863828D02*
X111582085Y-122863828D01*
X111582085Y-122863828D02*
X111439228Y-122792400D01*
X111439228Y-122792400D02*
X111367799Y-122720971D01*
X111367799Y-122720971D02*
X111296371Y-122578114D01*
X111296371Y-122578114D02*
X111296371Y-122149542D01*
X111296371Y-122149542D02*
X111367799Y-122006685D01*
X111367799Y-122006685D02*
X111439228Y-121935257D01*
X111439228Y-121935257D02*
X111582085Y-121863828D01*
X111582085Y-121863828D02*
X111867799Y-121863828D01*
X111867799Y-121863828D02*
X112010657Y-121935257D01*
X112867799Y-122863828D02*
X112724942Y-122792400D01*
X112724942Y-122792400D02*
X112653513Y-122720971D01*
X112653513Y-122720971D02*
X112582085Y-122578114D01*
X112582085Y-122578114D02*
X112582085Y-122149542D01*
X112582085Y-122149542D02*
X112653513Y-122006685D01*
X112653513Y-122006685D02*
X112724942Y-121935257D01*
X112724942Y-121935257D02*
X112867799Y-121863828D01*
X112867799Y-121863828D02*
X113082085Y-121863828D01*
X113082085Y-121863828D02*
X113224942Y-121935257D01*
X113224942Y-121935257D02*
X113296371Y-122006685D01*
X113296371Y-122006685D02*
X113367799Y-122149542D01*
X113367799Y-122149542D02*
X113367799Y-122578114D01*
X113367799Y-122578114D02*
X113296371Y-122720971D01*
X113296371Y-122720971D02*
X113224942Y-122792400D01*
X113224942Y-122792400D02*
X113082085Y-122863828D01*
X113082085Y-122863828D02*
X112867799Y-122863828D01*
X114010656Y-122863828D02*
X114010656Y-121863828D01*
X114010656Y-122006685D02*
X114082085Y-121935257D01*
X114082085Y-121935257D02*
X114224942Y-121863828D01*
X114224942Y-121863828D02*
X114439228Y-121863828D01*
X114439228Y-121863828D02*
X114582085Y-121935257D01*
X114582085Y-121935257D02*
X114653514Y-122078114D01*
X114653514Y-122078114D02*
X114653514Y-122863828D01*
X114653514Y-122078114D02*
X114724942Y-121935257D01*
X114724942Y-121935257D02*
X114867799Y-121863828D01*
X114867799Y-121863828D02*
X115082085Y-121863828D01*
X115082085Y-121863828D02*
X115224942Y-121935257D01*
X115224942Y-121935257D02*
X115296371Y-122078114D01*
X115296371Y-122078114D02*
X115296371Y-122863828D01*
X117082085Y-121292400D02*
X115796371Y-123220971D01*
X118153514Y-122792400D02*
X118010657Y-122863828D01*
X118010657Y-122863828D02*
X117724943Y-122863828D01*
X117724943Y-122863828D02*
X117582085Y-122792400D01*
X117582085Y-122792400D02*
X117510657Y-122649542D01*
X117510657Y-122649542D02*
X117510657Y-122078114D01*
X117510657Y-122078114D02*
X117582085Y-121935257D01*
X117582085Y-121935257D02*
X117724943Y-121863828D01*
X117724943Y-121863828D02*
X118010657Y-121863828D01*
X118010657Y-121863828D02*
X118153514Y-121935257D01*
X118153514Y-121935257D02*
X118224943Y-122078114D01*
X118224943Y-122078114D02*
X118224943Y-122220971D01*
X118224943Y-122220971D02*
X117510657Y-122363828D01*
X118796371Y-122792400D02*
X118939228Y-122863828D01*
X118939228Y-122863828D02*
X119224942Y-122863828D01*
X119224942Y-122863828D02*
X119367799Y-122792400D01*
X119367799Y-122792400D02*
X119439228Y-122649542D01*
X119439228Y-122649542D02*
X119439228Y-122578114D01*
X119439228Y-122578114D02*
X119367799Y-122435257D01*
X119367799Y-122435257D02*
X119224942Y-122363828D01*
X119224942Y-122363828D02*
X119010657Y-122363828D01*
X119010657Y-122363828D02*
X118867799Y-122292400D01*
X118867799Y-122292400D02*
X118796371Y-122149542D01*
X118796371Y-122149542D02*
X118796371Y-122078114D01*
X118796371Y-122078114D02*
X118867799Y-121935257D01*
X118867799Y-121935257D02*
X119010657Y-121863828D01*
X119010657Y-121863828D02*
X119224942Y-121863828D01*
X119224942Y-121863828D02*
X119367799Y-121935257D01*
X120082085Y-122863828D02*
X120082085Y-121363828D01*
X120724943Y-122863828D02*
X120724943Y-122078114D01*
X120724943Y-122078114D02*
X120653514Y-121935257D01*
X120653514Y-121935257D02*
X120510657Y-121863828D01*
X120510657Y-121863828D02*
X120296371Y-121863828D01*
X120296371Y-121863828D02*
X120153514Y-121935257D01*
X120153514Y-121935257D02*
X120082085Y-122006685D01*
X122010657Y-122792400D02*
X121867800Y-122863828D01*
X121867800Y-122863828D02*
X121582086Y-122863828D01*
X121582086Y-122863828D02*
X121439228Y-122792400D01*
X121439228Y-122792400D02*
X121367800Y-122649542D01*
X121367800Y-122649542D02*
X121367800Y-122078114D01*
X121367800Y-122078114D02*
X121439228Y-121935257D01*
X121439228Y-121935257D02*
X121582086Y-121863828D01*
X121582086Y-121863828D02*
X121867800Y-121863828D01*
X121867800Y-121863828D02*
X122010657Y-121935257D01*
X122010657Y-121935257D02*
X122082086Y-122078114D01*
X122082086Y-122078114D02*
X122082086Y-122220971D01*
X122082086Y-122220971D02*
X121367800Y-122363828D01*
X122510657Y-121863828D02*
X123082085Y-121863828D01*
X122724942Y-122863828D02*
X122724942Y-121578114D01*
X122724942Y-121578114D02*
X122796371Y-121435257D01*
X122796371Y-121435257D02*
X122939228Y-121363828D01*
X122939228Y-121363828D02*
X123082085Y-121363828D01*
X123367800Y-121863828D02*
X123939228Y-121863828D01*
X123582085Y-122863828D02*
X123582085Y-121578114D01*
X123582085Y-121578114D02*
X123653514Y-121435257D01*
X123653514Y-121435257D02*
X123796371Y-121363828D01*
X123796371Y-121363828D02*
X123939228Y-121363828D01*
X124439228Y-122863828D02*
X124439228Y-121863828D01*
X124439228Y-121363828D02*
X124367800Y-121435257D01*
X124367800Y-121435257D02*
X124439228Y-121506685D01*
X124439228Y-121506685D02*
X124510657Y-121435257D01*
X124510657Y-121435257D02*
X124439228Y-121363828D01*
X124439228Y-121363828D02*
X124439228Y-121506685D01*
X125724943Y-122792400D02*
X125582086Y-122863828D01*
X125582086Y-122863828D02*
X125296372Y-122863828D01*
X125296372Y-122863828D02*
X125153514Y-122792400D01*
X125153514Y-122792400D02*
X125082086Y-122649542D01*
X125082086Y-122649542D02*
X125082086Y-122078114D01*
X125082086Y-122078114D02*
X125153514Y-121935257D01*
X125153514Y-121935257D02*
X125296372Y-121863828D01*
X125296372Y-121863828D02*
X125582086Y-121863828D01*
X125582086Y-121863828D02*
X125724943Y-121935257D01*
X125724943Y-121935257D02*
X125796372Y-122078114D01*
X125796372Y-122078114D02*
X125796372Y-122220971D01*
X125796372Y-122220971D02*
X125082086Y-122363828D01*
X126653514Y-122863828D02*
X126510657Y-122792400D01*
X126510657Y-122792400D02*
X126439228Y-122649542D01*
X126439228Y-122649542D02*
X126439228Y-121363828D01*
X127867800Y-122863828D02*
X127867800Y-121363828D01*
X127867800Y-122792400D02*
X127724942Y-122863828D01*
X127724942Y-122863828D02*
X127439228Y-122863828D01*
X127439228Y-122863828D02*
X127296371Y-122792400D01*
X127296371Y-122792400D02*
X127224942Y-122720971D01*
X127224942Y-122720971D02*
X127153514Y-122578114D01*
X127153514Y-122578114D02*
X127153514Y-122149542D01*
X127153514Y-122149542D02*
X127224942Y-122006685D01*
X127224942Y-122006685D02*
X127296371Y-121935257D01*
X127296371Y-121935257D02*
X127439228Y-121863828D01*
X127439228Y-121863828D02*
X127724942Y-121863828D01*
X127724942Y-121863828D02*
X127867800Y-121935257D01*
X129653514Y-121292400D02*
X128367800Y-123220971D01*
X130153514Y-122863828D02*
X130153514Y-121863828D01*
X130153514Y-122006685D02*
X130224943Y-121935257D01*
X130224943Y-121935257D02*
X130367800Y-121863828D01*
X130367800Y-121863828D02*
X130582086Y-121863828D01*
X130582086Y-121863828D02*
X130724943Y-121935257D01*
X130724943Y-121935257D02*
X130796372Y-122078114D01*
X130796372Y-122078114D02*
X130796372Y-122863828D01*
X130796372Y-122078114D02*
X130867800Y-121935257D01*
X130867800Y-121935257D02*
X131010657Y-121863828D01*
X131010657Y-121863828D02*
X131224943Y-121863828D01*
X131224943Y-121863828D02*
X131367800Y-121935257D01*
X131367800Y-121935257D02*
X131439229Y-122078114D01*
X131439229Y-122078114D02*
X131439229Y-122863828D01*
X132439229Y-121363828D02*
X132582086Y-121363828D01*
X132582086Y-121363828D02*
X132724943Y-121435257D01*
X132724943Y-121435257D02*
X132796372Y-121506685D01*
X132796372Y-121506685D02*
X132867800Y-121649542D01*
X132867800Y-121649542D02*
X132939229Y-121935257D01*
X132939229Y-121935257D02*
X132939229Y-122292400D01*
X132939229Y-122292400D02*
X132867800Y-122578114D01*
X132867800Y-122578114D02*
X132796372Y-122720971D01*
X132796372Y-122720971D02*
X132724943Y-122792400D01*
X132724943Y-122792400D02*
X132582086Y-122863828D01*
X132582086Y-122863828D02*
X132439229Y-122863828D01*
X132439229Y-122863828D02*
X132296372Y-122792400D01*
X132296372Y-122792400D02*
X132224943Y-122720971D01*
X132224943Y-122720971D02*
X132153514Y-122578114D01*
X132153514Y-122578114D02*
X132082086Y-122292400D01*
X132082086Y-122292400D02*
X132082086Y-121935257D01*
X132082086Y-121935257D02*
X132153514Y-121649542D01*
X132153514Y-121649542D02*
X132224943Y-121506685D01*
X132224943Y-121506685D02*
X132296372Y-121435257D01*
X132296372Y-121435257D02*
X132439229Y-121363828D01*
X134367800Y-122863828D02*
X133510657Y-122863828D01*
X133939228Y-122863828D02*
X133939228Y-121363828D01*
X133939228Y-121363828D02*
X133796371Y-121578114D01*
X133796371Y-121578114D02*
X133653514Y-121720971D01*
X133653514Y-121720971D02*
X133510657Y-121792400D01*
X135796371Y-122863828D02*
X134939228Y-122863828D01*
X135367799Y-122863828D02*
X135367799Y-121363828D01*
X135367799Y-121363828D02*
X135224942Y-121578114D01*
X135224942Y-121578114D02*
X135082085Y-121720971D01*
X135082085Y-121720971D02*
X134939228Y-121792400D01*
X136724942Y-121363828D02*
X136867799Y-121363828D01*
X136867799Y-121363828D02*
X137010656Y-121435257D01*
X137010656Y-121435257D02*
X137082085Y-121506685D01*
X137082085Y-121506685D02*
X137153513Y-121649542D01*
X137153513Y-121649542D02*
X137224942Y-121935257D01*
X137224942Y-121935257D02*
X137224942Y-122292400D01*
X137224942Y-122292400D02*
X137153513Y-122578114D01*
X137153513Y-122578114D02*
X137082085Y-122720971D01*
X137082085Y-122720971D02*
X137010656Y-122792400D01*
X137010656Y-122792400D02*
X136867799Y-122863828D01*
X136867799Y-122863828D02*
X136724942Y-122863828D01*
X136724942Y-122863828D02*
X136582085Y-122792400D01*
X136582085Y-122792400D02*
X136510656Y-122720971D01*
X136510656Y-122720971D02*
X136439227Y-122578114D01*
X136439227Y-122578114D02*
X136367799Y-122292400D01*
X136367799Y-122292400D02*
X136367799Y-121935257D01*
X136367799Y-121935257D02*
X136439227Y-121649542D01*
X136439227Y-121649542D02*
X136510656Y-121506685D01*
X136510656Y-121506685D02*
X136582085Y-121435257D01*
X136582085Y-121435257D02*
X136724942Y-121363828D01*
X138510656Y-122863828D02*
X138510656Y-122078114D01*
X138510656Y-122078114D02*
X138439227Y-121935257D01*
X138439227Y-121935257D02*
X138296370Y-121863828D01*
X138296370Y-121863828D02*
X138010656Y-121863828D01*
X138010656Y-121863828D02*
X137867798Y-121935257D01*
X138510656Y-122792400D02*
X138367798Y-122863828D01*
X138367798Y-122863828D02*
X138010656Y-122863828D01*
X138010656Y-122863828D02*
X137867798Y-122792400D01*
X137867798Y-122792400D02*
X137796370Y-122649542D01*
X137796370Y-122649542D02*
X137796370Y-122506685D01*
X137796370Y-122506685D02*
X137867798Y-122363828D01*
X137867798Y-122363828D02*
X138010656Y-122292400D01*
X138010656Y-122292400D02*
X138367798Y-122292400D01*
X138367798Y-122292400D02*
X138510656Y-122220971D01*
X139224941Y-122292400D02*
X140367799Y-122292400D01*
X141724942Y-122863828D02*
X141724942Y-122078114D01*
X141724942Y-122078114D02*
X141653513Y-121935257D01*
X141653513Y-121935257D02*
X141510656Y-121863828D01*
X141510656Y-121863828D02*
X141224942Y-121863828D01*
X141224942Y-121863828D02*
X141082084Y-121935257D01*
X141724942Y-122792400D02*
X141582084Y-122863828D01*
X141582084Y-122863828D02*
X141224942Y-122863828D01*
X141224942Y-122863828D02*
X141082084Y-122792400D01*
X141082084Y-122792400D02*
X141010656Y-122649542D01*
X141010656Y-122649542D02*
X141010656Y-122506685D01*
X141010656Y-122506685D02*
X141082084Y-122363828D01*
X141082084Y-122363828D02*
X141224942Y-122292400D01*
X141224942Y-122292400D02*
X141582084Y-122292400D01*
X141582084Y-122292400D02*
X141724942Y-122220971D01*
X142224942Y-121863828D02*
X142796370Y-121863828D01*
X142439227Y-121363828D02*
X142439227Y-122649542D01*
X142439227Y-122649542D02*
X142510656Y-122792400D01*
X142510656Y-122792400D02*
X142653513Y-122863828D01*
X142653513Y-122863828D02*
X142796370Y-122863828D01*
X143296370Y-122863828D02*
X143296370Y-121863828D01*
X143296370Y-122006685D02*
X143367799Y-121935257D01*
X143367799Y-121935257D02*
X143510656Y-121863828D01*
X143510656Y-121863828D02*
X143724942Y-121863828D01*
X143724942Y-121863828D02*
X143867799Y-121935257D01*
X143867799Y-121935257D02*
X143939228Y-122078114D01*
X143939228Y-122078114D02*
X143939228Y-122863828D01*
X143939228Y-122078114D02*
X144010656Y-121935257D01*
X144010656Y-121935257D02*
X144153513Y-121863828D01*
X144153513Y-121863828D02*
X144367799Y-121863828D01*
X144367799Y-121863828D02*
X144510656Y-121935257D01*
X144510656Y-121935257D02*
X144582085Y-122078114D01*
X144582085Y-122078114D02*
X144582085Y-122863828D01*
X145867799Y-122792400D02*
X145724942Y-122863828D01*
X145724942Y-122863828D02*
X145439228Y-122863828D01*
X145439228Y-122863828D02*
X145296370Y-122792400D01*
X145296370Y-122792400D02*
X145224942Y-122649542D01*
X145224942Y-122649542D02*
X145224942Y-122078114D01*
X145224942Y-122078114D02*
X145296370Y-121935257D01*
X145296370Y-121935257D02*
X145439228Y-121863828D01*
X145439228Y-121863828D02*
X145724942Y-121863828D01*
X145724942Y-121863828D02*
X145867799Y-121935257D01*
X145867799Y-121935257D02*
X145939228Y-122078114D01*
X145939228Y-122078114D02*
X145939228Y-122220971D01*
X145939228Y-122220971D02*
X145224942Y-122363828D01*
X147224942Y-121863828D02*
X147224942Y-123078114D01*
X147224942Y-123078114D02*
X147153513Y-123220971D01*
X147153513Y-123220971D02*
X147082084Y-123292400D01*
X147082084Y-123292400D02*
X146939227Y-123363828D01*
X146939227Y-123363828D02*
X146724942Y-123363828D01*
X146724942Y-123363828D02*
X146582084Y-123292400D01*
X147224942Y-122792400D02*
X147082084Y-122863828D01*
X147082084Y-122863828D02*
X146796370Y-122863828D01*
X146796370Y-122863828D02*
X146653513Y-122792400D01*
X146653513Y-122792400D02*
X146582084Y-122720971D01*
X146582084Y-122720971D02*
X146510656Y-122578114D01*
X146510656Y-122578114D02*
X146510656Y-122149542D01*
X146510656Y-122149542D02*
X146582084Y-122006685D01*
X146582084Y-122006685D02*
X146653513Y-121935257D01*
X146653513Y-121935257D02*
X146796370Y-121863828D01*
X146796370Y-121863828D02*
X147082084Y-121863828D01*
X147082084Y-121863828D02*
X147224942Y-121935257D01*
X148582085Y-122863828D02*
X148582085Y-122078114D01*
X148582085Y-122078114D02*
X148510656Y-121935257D01*
X148510656Y-121935257D02*
X148367799Y-121863828D01*
X148367799Y-121863828D02*
X148082085Y-121863828D01*
X148082085Y-121863828D02*
X147939227Y-121935257D01*
X148582085Y-122792400D02*
X148439227Y-122863828D01*
X148439227Y-122863828D02*
X148082085Y-122863828D01*
X148082085Y-122863828D02*
X147939227Y-122792400D01*
X147939227Y-122792400D02*
X147867799Y-122649542D01*
X147867799Y-122649542D02*
X147867799Y-122506685D01*
X147867799Y-122506685D02*
X147939227Y-122363828D01*
X147939227Y-122363828D02*
X148082085Y-122292400D01*
X148082085Y-122292400D02*
X148439227Y-122292400D01*
X148439227Y-122292400D02*
X148582085Y-122220971D01*
X149153513Y-121363828D02*
X150082085Y-121363828D01*
X150082085Y-121363828D02*
X149582085Y-121935257D01*
X149582085Y-121935257D02*
X149796370Y-121935257D01*
X149796370Y-121935257D02*
X149939228Y-122006685D01*
X149939228Y-122006685D02*
X150010656Y-122078114D01*
X150010656Y-122078114D02*
X150082085Y-122220971D01*
X150082085Y-122220971D02*
X150082085Y-122578114D01*
X150082085Y-122578114D02*
X150010656Y-122720971D01*
X150010656Y-122720971D02*
X149939228Y-122792400D01*
X149939228Y-122792400D02*
X149796370Y-122863828D01*
X149796370Y-122863828D02*
X149367799Y-122863828D01*
X149367799Y-122863828D02*
X149224942Y-122792400D01*
X149224942Y-122792400D02*
X149153513Y-122720971D01*
X150653513Y-121506685D02*
X150724941Y-121435257D01*
X150724941Y-121435257D02*
X150867799Y-121363828D01*
X150867799Y-121363828D02*
X151224941Y-121363828D01*
X151224941Y-121363828D02*
X151367799Y-121435257D01*
X151367799Y-121435257D02*
X151439227Y-121506685D01*
X151439227Y-121506685D02*
X151510656Y-121649542D01*
X151510656Y-121649542D02*
X151510656Y-121792400D01*
X151510656Y-121792400D02*
X151439227Y-122006685D01*
X151439227Y-122006685D02*
X150582084Y-122863828D01*
X150582084Y-122863828D02*
X151510656Y-122863828D01*
D11*
X111370362Y-114896494D02*
X111370362Y-114229827D01*
X111370362Y-114325065D02*
X111417981Y-114277446D01*
X111417981Y-114277446D02*
X111513219Y-114229827D01*
X111513219Y-114229827D02*
X111656076Y-114229827D01*
X111656076Y-114229827D02*
X111751314Y-114277446D01*
X111751314Y-114277446D02*
X111798933Y-114372684D01*
X111798933Y-114372684D02*
X111798933Y-114896494D01*
X111798933Y-114372684D02*
X111846552Y-114277446D01*
X111846552Y-114277446D02*
X111941790Y-114229827D01*
X111941790Y-114229827D02*
X112084647Y-114229827D01*
X112084647Y-114229827D02*
X112179886Y-114277446D01*
X112179886Y-114277446D02*
X112227505Y-114372684D01*
X112227505Y-114372684D02*
X112227505Y-114896494D01*
X112894171Y-113896494D02*
X112989409Y-113896494D01*
X112989409Y-113896494D02*
X113084647Y-113944113D01*
X113084647Y-113944113D02*
X113132266Y-113991732D01*
X113132266Y-113991732D02*
X113179885Y-114086970D01*
X113179885Y-114086970D02*
X113227504Y-114277446D01*
X113227504Y-114277446D02*
X113227504Y-114515541D01*
X113227504Y-114515541D02*
X113179885Y-114706017D01*
X113179885Y-114706017D02*
X113132266Y-114801255D01*
X113132266Y-114801255D02*
X113084647Y-114848875D01*
X113084647Y-114848875D02*
X112989409Y-114896494D01*
X112989409Y-114896494D02*
X112894171Y-114896494D01*
X112894171Y-114896494D02*
X112798933Y-114848875D01*
X112798933Y-114848875D02*
X112751314Y-114801255D01*
X112751314Y-114801255D02*
X112703695Y-114706017D01*
X112703695Y-114706017D02*
X112656076Y-114515541D01*
X112656076Y-114515541D02*
X112656076Y-114277446D01*
X112656076Y-114277446D02*
X112703695Y-114086970D01*
X112703695Y-114086970D02*
X112751314Y-113991732D01*
X112751314Y-113991732D02*
X112798933Y-113944113D01*
X112798933Y-113944113D02*
X112894171Y-113896494D01*
X114179885Y-114896494D02*
X113608457Y-114896494D01*
X113894171Y-114896494D02*
X113894171Y-113896494D01*
X113894171Y-113896494D02*
X113798933Y-114039351D01*
X113798933Y-114039351D02*
X113703695Y-114134589D01*
X113703695Y-114134589D02*
X113608457Y-114182208D01*
X115132266Y-114896494D02*
X114560838Y-114896494D01*
X114846552Y-114896494D02*
X114846552Y-113896494D01*
X114846552Y-113896494D02*
X114751314Y-114039351D01*
X114751314Y-114039351D02*
X114656076Y-114134589D01*
X114656076Y-114134589D02*
X114560838Y-114182208D01*
X115751314Y-113896494D02*
X115846552Y-113896494D01*
X115846552Y-113896494D02*
X115941790Y-113944113D01*
X115941790Y-113944113D02*
X115989409Y-113991732D01*
X115989409Y-113991732D02*
X116037028Y-114086970D01*
X116037028Y-114086970D02*
X116084647Y-114277446D01*
X116084647Y-114277446D02*
X116084647Y-114515541D01*
X116084647Y-114515541D02*
X116037028Y-114706017D01*
X116037028Y-114706017D02*
X115989409Y-114801255D01*
X115989409Y-114801255D02*
X115941790Y-114848875D01*
X115941790Y-114848875D02*
X115846552Y-114896494D01*
X115846552Y-114896494D02*
X115751314Y-114896494D01*
X115751314Y-114896494D02*
X115656076Y-114848875D01*
X115656076Y-114848875D02*
X115608457Y-114801255D01*
X115608457Y-114801255D02*
X115560838Y-114706017D01*
X115560838Y-114706017D02*
X115513219Y-114515541D01*
X115513219Y-114515541D02*
X115513219Y-114277446D01*
X115513219Y-114277446D02*
X115560838Y-114086970D01*
X115560838Y-114086970D02*
X115608457Y-113991732D01*
X115608457Y-113991732D02*
X115656076Y-113944113D01*
X115656076Y-113944113D02*
X115751314Y-113896494D01*
X116941790Y-114896494D02*
X116941790Y-114372684D01*
X116941790Y-114372684D02*
X116894171Y-114277446D01*
X116894171Y-114277446D02*
X116798933Y-114229827D01*
X116798933Y-114229827D02*
X116608457Y-114229827D01*
X116608457Y-114229827D02*
X116513219Y-114277446D01*
X116941790Y-114848875D02*
X116846552Y-114896494D01*
X116846552Y-114896494D02*
X116608457Y-114896494D01*
X116608457Y-114896494D02*
X116513219Y-114848875D01*
X116513219Y-114848875D02*
X116465600Y-114753636D01*
X116465600Y-114753636D02*
X116465600Y-114658398D01*
X116465600Y-114658398D02*
X116513219Y-114563160D01*
X116513219Y-114563160D02*
X116608457Y-114515541D01*
X116608457Y-114515541D02*
X116846552Y-114515541D01*
X116846552Y-114515541D02*
X116941790Y-114467922D01*
X117417981Y-114515541D02*
X118179886Y-114515541D01*
X119084647Y-114896494D02*
X119084647Y-114372684D01*
X119084647Y-114372684D02*
X119037028Y-114277446D01*
X119037028Y-114277446D02*
X118941790Y-114229827D01*
X118941790Y-114229827D02*
X118751314Y-114229827D01*
X118751314Y-114229827D02*
X118656076Y-114277446D01*
X119084647Y-114848875D02*
X118989409Y-114896494D01*
X118989409Y-114896494D02*
X118751314Y-114896494D01*
X118751314Y-114896494D02*
X118656076Y-114848875D01*
X118656076Y-114848875D02*
X118608457Y-114753636D01*
X118608457Y-114753636D02*
X118608457Y-114658398D01*
X118608457Y-114658398D02*
X118656076Y-114563160D01*
X118656076Y-114563160D02*
X118751314Y-114515541D01*
X118751314Y-114515541D02*
X118989409Y-114515541D01*
X118989409Y-114515541D02*
X119084647Y-114467922D01*
X119417981Y-114229827D02*
X119798933Y-114229827D01*
X119560838Y-113896494D02*
X119560838Y-114753636D01*
X119560838Y-114753636D02*
X119608457Y-114848875D01*
X119608457Y-114848875D02*
X119703695Y-114896494D01*
X119703695Y-114896494D02*
X119798933Y-114896494D01*
X120132267Y-114896494D02*
X120132267Y-114229827D01*
X120132267Y-114325065D02*
X120179886Y-114277446D01*
X120179886Y-114277446D02*
X120275124Y-114229827D01*
X120275124Y-114229827D02*
X120417981Y-114229827D01*
X120417981Y-114229827D02*
X120513219Y-114277446D01*
X120513219Y-114277446D02*
X120560838Y-114372684D01*
X120560838Y-114372684D02*
X120560838Y-114896494D01*
X120560838Y-114372684D02*
X120608457Y-114277446D01*
X120608457Y-114277446D02*
X120703695Y-114229827D01*
X120703695Y-114229827D02*
X120846552Y-114229827D01*
X120846552Y-114229827D02*
X120941791Y-114277446D01*
X120941791Y-114277446D02*
X120989410Y-114372684D01*
X120989410Y-114372684D02*
X120989410Y-114896494D01*
X121846552Y-114848875D02*
X121751314Y-114896494D01*
X121751314Y-114896494D02*
X121560838Y-114896494D01*
X121560838Y-114896494D02*
X121465600Y-114848875D01*
X121465600Y-114848875D02*
X121417981Y-114753636D01*
X121417981Y-114753636D02*
X121417981Y-114372684D01*
X121417981Y-114372684D02*
X121465600Y-114277446D01*
X121465600Y-114277446D02*
X121560838Y-114229827D01*
X121560838Y-114229827D02*
X121751314Y-114229827D01*
X121751314Y-114229827D02*
X121846552Y-114277446D01*
X121846552Y-114277446D02*
X121894171Y-114372684D01*
X121894171Y-114372684D02*
X121894171Y-114467922D01*
X121894171Y-114467922D02*
X121417981Y-114563160D01*
X122751314Y-114229827D02*
X122751314Y-115039351D01*
X122751314Y-115039351D02*
X122703695Y-115134589D01*
X122703695Y-115134589D02*
X122656076Y-115182208D01*
X122656076Y-115182208D02*
X122560838Y-115229827D01*
X122560838Y-115229827D02*
X122417981Y-115229827D01*
X122417981Y-115229827D02*
X122322743Y-115182208D01*
X122751314Y-114848875D02*
X122656076Y-114896494D01*
X122656076Y-114896494D02*
X122465600Y-114896494D01*
X122465600Y-114896494D02*
X122370362Y-114848875D01*
X122370362Y-114848875D02*
X122322743Y-114801255D01*
X122322743Y-114801255D02*
X122275124Y-114706017D01*
X122275124Y-114706017D02*
X122275124Y-114420303D01*
X122275124Y-114420303D02*
X122322743Y-114325065D01*
X122322743Y-114325065D02*
X122370362Y-114277446D01*
X122370362Y-114277446D02*
X122465600Y-114229827D01*
X122465600Y-114229827D02*
X122656076Y-114229827D01*
X122656076Y-114229827D02*
X122751314Y-114277446D01*
X123656076Y-114896494D02*
X123656076Y-114372684D01*
X123656076Y-114372684D02*
X123608457Y-114277446D01*
X123608457Y-114277446D02*
X123513219Y-114229827D01*
X123513219Y-114229827D02*
X123322743Y-114229827D01*
X123322743Y-114229827D02*
X123227505Y-114277446D01*
X123656076Y-114848875D02*
X123560838Y-114896494D01*
X123560838Y-114896494D02*
X123322743Y-114896494D01*
X123322743Y-114896494D02*
X123227505Y-114848875D01*
X123227505Y-114848875D02*
X123179886Y-114753636D01*
X123179886Y-114753636D02*
X123179886Y-114658398D01*
X123179886Y-114658398D02*
X123227505Y-114563160D01*
X123227505Y-114563160D02*
X123322743Y-114515541D01*
X123322743Y-114515541D02*
X123560838Y-114515541D01*
X123560838Y-114515541D02*
X123656076Y-114467922D01*
X124037029Y-113896494D02*
X124656076Y-113896494D01*
X124656076Y-113896494D02*
X124322743Y-114277446D01*
X124322743Y-114277446D02*
X124465600Y-114277446D01*
X124465600Y-114277446D02*
X124560838Y-114325065D01*
X124560838Y-114325065D02*
X124608457Y-114372684D01*
X124608457Y-114372684D02*
X124656076Y-114467922D01*
X124656076Y-114467922D02*
X124656076Y-114706017D01*
X124656076Y-114706017D02*
X124608457Y-114801255D01*
X124608457Y-114801255D02*
X124560838Y-114848875D01*
X124560838Y-114848875D02*
X124465600Y-114896494D01*
X124465600Y-114896494D02*
X124179886Y-114896494D01*
X124179886Y-114896494D02*
X124084648Y-114848875D01*
X124084648Y-114848875D02*
X124037029Y-114801255D01*
X125037029Y-113991732D02*
X125084648Y-113944113D01*
X125084648Y-113944113D02*
X125179886Y-113896494D01*
X125179886Y-113896494D02*
X125417981Y-113896494D01*
X125417981Y-113896494D02*
X125513219Y-113944113D01*
X125513219Y-113944113D02*
X125560838Y-113991732D01*
X125560838Y-113991732D02*
X125608457Y-114086970D01*
X125608457Y-114086970D02*
X125608457Y-114182208D01*
X125608457Y-114182208D02*
X125560838Y-114325065D01*
X125560838Y-114325065D02*
X124989410Y-114896494D01*
X124989410Y-114896494D02*
X125608457Y-114896494D01*
X114275124Y-115506494D02*
X114608457Y-116506494D01*
X114608457Y-116506494D02*
X114941790Y-115506494D01*
X115656076Y-116458875D02*
X115560838Y-116506494D01*
X115560838Y-116506494D02*
X115370362Y-116506494D01*
X115370362Y-116506494D02*
X115275124Y-116458875D01*
X115275124Y-116458875D02*
X115227505Y-116363636D01*
X115227505Y-116363636D02*
X115227505Y-115982684D01*
X115227505Y-115982684D02*
X115275124Y-115887446D01*
X115275124Y-115887446D02*
X115370362Y-115839827D01*
X115370362Y-115839827D02*
X115560838Y-115839827D01*
X115560838Y-115839827D02*
X115656076Y-115887446D01*
X115656076Y-115887446D02*
X115703695Y-115982684D01*
X115703695Y-115982684D02*
X115703695Y-116077922D01*
X115703695Y-116077922D02*
X115227505Y-116173160D01*
X116132267Y-116506494D02*
X116132267Y-115839827D01*
X116132267Y-116030303D02*
X116179886Y-115935065D01*
X116179886Y-115935065D02*
X116227505Y-115887446D01*
X116227505Y-115887446D02*
X116322743Y-115839827D01*
X116322743Y-115839827D02*
X116417981Y-115839827D01*
X116703696Y-116458875D02*
X116798934Y-116506494D01*
X116798934Y-116506494D02*
X116989410Y-116506494D01*
X116989410Y-116506494D02*
X117084648Y-116458875D01*
X117084648Y-116458875D02*
X117132267Y-116363636D01*
X117132267Y-116363636D02*
X117132267Y-116316017D01*
X117132267Y-116316017D02*
X117084648Y-116220779D01*
X117084648Y-116220779D02*
X116989410Y-116173160D01*
X116989410Y-116173160D02*
X116846553Y-116173160D01*
X116846553Y-116173160D02*
X116751315Y-116125541D01*
X116751315Y-116125541D02*
X116703696Y-116030303D01*
X116703696Y-116030303D02*
X116703696Y-115982684D01*
X116703696Y-115982684D02*
X116751315Y-115887446D01*
X116751315Y-115887446D02*
X116846553Y-115839827D01*
X116846553Y-115839827D02*
X116989410Y-115839827D01*
X116989410Y-115839827D02*
X117084648Y-115887446D01*
X117560839Y-116506494D02*
X117560839Y-115839827D01*
X117560839Y-115506494D02*
X117513220Y-115554113D01*
X117513220Y-115554113D02*
X117560839Y-115601732D01*
X117560839Y-115601732D02*
X117608458Y-115554113D01*
X117608458Y-115554113D02*
X117560839Y-115506494D01*
X117560839Y-115506494D02*
X117560839Y-115601732D01*
X118179886Y-116506494D02*
X118084648Y-116458875D01*
X118084648Y-116458875D02*
X118037029Y-116411255D01*
X118037029Y-116411255D02*
X117989410Y-116316017D01*
X117989410Y-116316017D02*
X117989410Y-116030303D01*
X117989410Y-116030303D02*
X118037029Y-115935065D01*
X118037029Y-115935065D02*
X118084648Y-115887446D01*
X118084648Y-115887446D02*
X118179886Y-115839827D01*
X118179886Y-115839827D02*
X118322743Y-115839827D01*
X118322743Y-115839827D02*
X118417981Y-115887446D01*
X118417981Y-115887446D02*
X118465600Y-115935065D01*
X118465600Y-115935065D02*
X118513219Y-116030303D01*
X118513219Y-116030303D02*
X118513219Y-116316017D01*
X118513219Y-116316017D02*
X118465600Y-116411255D01*
X118465600Y-116411255D02*
X118417981Y-116458875D01*
X118417981Y-116458875D02*
X118322743Y-116506494D01*
X118322743Y-116506494D02*
X118179886Y-116506494D01*
X118941791Y-115839827D02*
X118941791Y-116506494D01*
X118941791Y-115935065D02*
X118989410Y-115887446D01*
X118989410Y-115887446D02*
X119084648Y-115839827D01*
X119084648Y-115839827D02*
X119227505Y-115839827D01*
X119227505Y-115839827D02*
X119322743Y-115887446D01*
X119322743Y-115887446D02*
X119370362Y-115982684D01*
X119370362Y-115982684D02*
X119370362Y-116506494D01*
X120560839Y-115601732D02*
X120608458Y-115554113D01*
X120608458Y-115554113D02*
X120703696Y-115506494D01*
X120703696Y-115506494D02*
X120941791Y-115506494D01*
X120941791Y-115506494D02*
X121037029Y-115554113D01*
X121037029Y-115554113D02*
X121084648Y-115601732D01*
X121084648Y-115601732D02*
X121132267Y-115696970D01*
X121132267Y-115696970D02*
X121132267Y-115792208D01*
X121132267Y-115792208D02*
X121084648Y-115935065D01*
X121084648Y-115935065D02*
X120513220Y-116506494D01*
X120513220Y-116506494D02*
X121132267Y-116506494D01*
X121560839Y-116411255D02*
X121608458Y-116458875D01*
X121608458Y-116458875D02*
X121560839Y-116506494D01*
X121560839Y-116506494D02*
X121513220Y-116458875D01*
X121513220Y-116458875D02*
X121560839Y-116411255D01*
X121560839Y-116411255D02*
X121560839Y-116506494D01*
X122560838Y-116506494D02*
X121989410Y-116506494D01*
X122275124Y-116506494D02*
X122275124Y-115506494D01*
X122275124Y-115506494D02*
X122179886Y-115649351D01*
X122179886Y-115649351D02*
X122084648Y-115744589D01*
X122084648Y-115744589D02*
X121989410Y-115792208D01*
D10*
X153089828Y-101458346D02*
X152375542Y-101958346D01*
X153089828Y-102315489D02*
X151589828Y-102315489D01*
X151589828Y-102315489D02*
X151589828Y-101744060D01*
X151589828Y-101744060D02*
X151661257Y-101601203D01*
X151661257Y-101601203D02*
X151732685Y-101529774D01*
X151732685Y-101529774D02*
X151875542Y-101458346D01*
X151875542Y-101458346D02*
X152089828Y-101458346D01*
X152089828Y-101458346D02*
X152232685Y-101529774D01*
X152232685Y-101529774D02*
X152304114Y-101601203D01*
X152304114Y-101601203D02*
X152375542Y-101744060D01*
X152375542Y-101744060D02*
X152375542Y-102315489D01*
X153089828Y-100958346D02*
X152089828Y-100172632D01*
X152089828Y-100958346D02*
X153089828Y-100172632D01*
X153089828Y-99601203D02*
X151589828Y-99601203D01*
X151589828Y-99601203D02*
X151589828Y-99244060D01*
X151589828Y-99244060D02*
X151661257Y-99029774D01*
X151661257Y-99029774D02*
X151804114Y-98886917D01*
X151804114Y-98886917D02*
X151946971Y-98815488D01*
X151946971Y-98815488D02*
X152232685Y-98744060D01*
X152232685Y-98744060D02*
X152446971Y-98744060D01*
X152446971Y-98744060D02*
X152732685Y-98815488D01*
X152732685Y-98815488D02*
X152875542Y-98886917D01*
X152875542Y-98886917D02*
X153018400Y-99029774D01*
X153018400Y-99029774D02*
X153089828Y-99244060D01*
X153089828Y-99244060D02*
X153089828Y-99601203D01*
D12*
X134747095Y-67355819D02*
X134747095Y-68165342D01*
X134747095Y-68165342D02*
X134794714Y-68260580D01*
X134794714Y-68260580D02*
X134842333Y-68308200D01*
X134842333Y-68308200D02*
X134937571Y-68355819D01*
X134937571Y-68355819D02*
X135128047Y-68355819D01*
X135128047Y-68355819D02*
X135223285Y-68308200D01*
X135223285Y-68308200D02*
X135270904Y-68260580D01*
X135270904Y-68260580D02*
X135318523Y-68165342D01*
X135318523Y-68165342D02*
X135318523Y-67355819D01*
X135747095Y-67451057D02*
X135794714Y-67403438D01*
X135794714Y-67403438D02*
X135889952Y-67355819D01*
X135889952Y-67355819D02*
X136128047Y-67355819D01*
X136128047Y-67355819D02*
X136223285Y-67403438D01*
X136223285Y-67403438D02*
X136270904Y-67451057D01*
X136270904Y-67451057D02*
X136318523Y-67546295D01*
X136318523Y-67546295D02*
X136318523Y-67641533D01*
X136318523Y-67641533D02*
X136270904Y-67784390D01*
X136270904Y-67784390D02*
X135699476Y-68355819D01*
X135699476Y-68355819D02*
X136318523Y-68355819D01*
X146520819Y-84407333D02*
X147235104Y-84407333D01*
X147235104Y-84407333D02*
X147377961Y-84454952D01*
X147377961Y-84454952D02*
X147473200Y-84550190D01*
X147473200Y-84550190D02*
X147520819Y-84693047D01*
X147520819Y-84693047D02*
X147520819Y-84788285D01*
X146616057Y-83978761D02*
X146568438Y-83931142D01*
X146568438Y-83931142D02*
X146520819Y-83835904D01*
X146520819Y-83835904D02*
X146520819Y-83597809D01*
X146520819Y-83597809D02*
X146568438Y-83502571D01*
X146568438Y-83502571D02*
X146616057Y-83454952D01*
X146616057Y-83454952D02*
X146711295Y-83407333D01*
X146711295Y-83407333D02*
X146806533Y-83407333D01*
X146806533Y-83407333D02*
X146949390Y-83454952D01*
X146949390Y-83454952D02*
X147520819Y-84026380D01*
X147520819Y-84026380D02*
X147520819Y-83407333D01*
X146224666Y-103975819D02*
X146224666Y-104690104D01*
X146224666Y-104690104D02*
X146177047Y-104832961D01*
X146177047Y-104832961D02*
X146081809Y-104928200D01*
X146081809Y-104928200D02*
X145938952Y-104975819D01*
X145938952Y-104975819D02*
X145843714Y-104975819D01*
X146605619Y-103975819D02*
X147224666Y-103975819D01*
X147224666Y-103975819D02*
X146891333Y-104356771D01*
X146891333Y-104356771D02*
X147034190Y-104356771D01*
X147034190Y-104356771D02*
X147129428Y-104404390D01*
X147129428Y-104404390D02*
X147177047Y-104452009D01*
X147177047Y-104452009D02*
X147224666Y-104547247D01*
X147224666Y-104547247D02*
X147224666Y-104785342D01*
X147224666Y-104785342D02*
X147177047Y-104880580D01*
X147177047Y-104880580D02*
X147129428Y-104928200D01*
X147129428Y-104928200D02*
X147034190Y-104975819D01*
X147034190Y-104975819D02*
X146748476Y-104975819D01*
X146748476Y-104975819D02*
X146653238Y-104928200D01*
X146653238Y-104928200D02*
X146605619Y-104880580D01*
D13*
%TO.C,U2*%
X129049000Y-68901000D02*
X129049000Y-119821000D01*
X129049000Y-119821000D02*
X141969000Y-119821000D01*
X134509000Y-68901000D02*
X129049000Y-68901000D01*
X141969000Y-68901000D02*
X136509000Y-68901000D01*
X141969000Y-119821000D02*
X141969000Y-68901000D01*
X134509000Y-68901000D02*
G75*
G03*
X136509000Y-68901000I1000000J0D01*
G01*
%TO.C,J2*%
X148276000Y-80331000D02*
X149606000Y-80331000D01*
X148276000Y-81661000D02*
X148276000Y-80331000D01*
X148276000Y-82931000D02*
X148276000Y-88071000D01*
X148276000Y-82931000D02*
X150876000Y-82931000D01*
X148276000Y-88071000D02*
X153476000Y-88071000D01*
X150876000Y-80331000D02*
X153476000Y-80331000D01*
X150876000Y-82931000D02*
X150876000Y-80331000D01*
X153476000Y-80331000D02*
X153476000Y-88071000D01*
%TO.C,REF\u002A\u002A*%
D14*
X123699690Y-111509018D02*
X123734585Y-111524269D01*
X123817877Y-111590235D01*
X123889103Y-111685618D01*
X123933153Y-111787406D01*
X123940322Y-111837587D01*
X123916285Y-111907647D01*
X123863561Y-111944717D01*
X123807031Y-111967164D01*
X123781146Y-111971300D01*
X123768542Y-111941283D01*
X123743654Y-111875961D01*
X123732735Y-111846445D01*
X123671508Y-111744348D01*
X123582861Y-111693423D01*
X123469193Y-111694989D01*
X123460774Y-111696994D01*
X123400088Y-111725767D01*
X123355474Y-111781859D01*
X123325002Y-111872163D01*
X123306744Y-112003571D01*
X123298771Y-112182974D01*
X123298023Y-112278433D01*
X123297652Y-112428913D01*
X123295223Y-112531495D01*
X123288760Y-112596672D01*
X123276288Y-112634938D01*
X123255833Y-112656785D01*
X123225419Y-112672707D01*
X123223661Y-112673509D01*
X123165091Y-112698272D01*
X123136075Y-112707391D01*
X123131616Y-112679822D01*
X123127799Y-112603620D01*
X123124899Y-112488541D01*
X123123191Y-112344341D01*
X123122851Y-112238814D01*
X123124588Y-112034613D01*
X123131382Y-111879697D01*
X123145607Y-111765024D01*
X123169638Y-111681551D01*
X123205848Y-111620236D01*
X123256612Y-111572034D01*
X123306739Y-111538393D01*
X123427275Y-111493619D01*
X123567557Y-111483521D01*
X123699690Y-111509018D01*
G36*
X123699690Y-111509018D02*
G01*
X123734585Y-111524269D01*
X123817877Y-111590235D01*
X123889103Y-111685618D01*
X123933153Y-111787406D01*
X123940322Y-111837587D01*
X123916285Y-111907647D01*
X123863561Y-111944717D01*
X123807031Y-111967164D01*
X123781146Y-111971300D01*
X123768542Y-111941283D01*
X123743654Y-111875961D01*
X123732735Y-111846445D01*
X123671508Y-111744348D01*
X123582861Y-111693423D01*
X123469193Y-111694989D01*
X123460774Y-111696994D01*
X123400088Y-111725767D01*
X123355474Y-111781859D01*
X123325002Y-111872163D01*
X123306744Y-112003571D01*
X123298771Y-112182974D01*
X123298023Y-112278433D01*
X123297652Y-112428913D01*
X123295223Y-112531495D01*
X123288760Y-112596672D01*
X123276288Y-112634938D01*
X123255833Y-112656785D01*
X123225419Y-112672707D01*
X123223661Y-112673509D01*
X123165091Y-112698272D01*
X123136075Y-112707391D01*
X123131616Y-112679822D01*
X123127799Y-112603620D01*
X123124899Y-112488541D01*
X123123191Y-112344341D01*
X123122851Y-112238814D01*
X123124588Y-112034613D01*
X123131382Y-111879697D01*
X123145607Y-111765024D01*
X123169638Y-111681551D01*
X123205848Y-111620236D01*
X123256612Y-111572034D01*
X123306739Y-111538393D01*
X123427275Y-111493619D01*
X123567557Y-111483521D01*
X123699690Y-111509018D01*
G37*
X115781429Y-111446719D02*
X115875123Y-111500914D01*
X115940264Y-111554707D01*
X115987907Y-111611066D01*
X116020728Y-111679987D01*
X116041406Y-111771468D01*
X116052620Y-111895506D01*
X116057049Y-112062098D01*
X116057563Y-112181851D01*
X116057563Y-112622659D01*
X115933483Y-112678283D01*
X115809402Y-112733907D01*
X115794805Y-112251095D01*
X115788773Y-112070779D01*
X115782445Y-111939901D01*
X115774606Y-111849511D01*
X115764037Y-111790664D01*
X115749523Y-111754413D01*
X115729848Y-111731810D01*
X115723535Y-111726917D01*
X115627888Y-111688706D01*
X115531207Y-111703827D01*
X115473655Y-111743943D01*
X115450245Y-111772370D01*
X115434039Y-111809672D01*
X115423741Y-111866223D01*
X115418049Y-111952394D01*
X115415664Y-112078558D01*
X115415264Y-112210042D01*
X115415186Y-112374999D01*
X115412361Y-112491761D01*
X115402907Y-112570510D01*
X115382940Y-112621431D01*
X115348576Y-112654706D01*
X115295932Y-112680520D01*
X115225617Y-112707344D01*
X115148820Y-112736542D01*
X115157962Y-112218346D01*
X115161643Y-112031539D01*
X115165950Y-111893490D01*
X115172123Y-111794568D01*
X115181402Y-111725145D01*
X115195027Y-111675590D01*
X115214239Y-111636273D01*
X115237402Y-111601584D01*
X115349152Y-111490770D01*
X115485513Y-111426689D01*
X115633825Y-111411339D01*
X115781429Y-111446719D01*
G36*
X115781429Y-111446719D02*
G01*
X115875123Y-111500914D01*
X115940264Y-111554707D01*
X115987907Y-111611066D01*
X116020728Y-111679987D01*
X116041406Y-111771468D01*
X116052620Y-111895506D01*
X116057049Y-112062098D01*
X116057563Y-112181851D01*
X116057563Y-112622659D01*
X115933483Y-112678283D01*
X115809402Y-112733907D01*
X115794805Y-112251095D01*
X115788773Y-112070779D01*
X115782445Y-111939901D01*
X115774606Y-111849511D01*
X115764037Y-111790664D01*
X115749523Y-111754413D01*
X115729848Y-111731810D01*
X115723535Y-111726917D01*
X115627888Y-111688706D01*
X115531207Y-111703827D01*
X115473655Y-111743943D01*
X115450245Y-111772370D01*
X115434039Y-111809672D01*
X115423741Y-111866223D01*
X115418049Y-111952394D01*
X115415664Y-112078558D01*
X115415264Y-112210042D01*
X115415186Y-112374999D01*
X115412361Y-112491761D01*
X115402907Y-112570510D01*
X115382940Y-112621431D01*
X115348576Y-112654706D01*
X115295932Y-112680520D01*
X115225617Y-112707344D01*
X115148820Y-112736542D01*
X115157962Y-112218346D01*
X115161643Y-112031539D01*
X115165950Y-111893490D01*
X115172123Y-111794568D01*
X115181402Y-111725145D01*
X115195027Y-111675590D01*
X115214239Y-111636273D01*
X115237402Y-111601584D01*
X115349152Y-111490770D01*
X115485513Y-111426689D01*
X115633825Y-111411339D01*
X115781429Y-111446719D01*
G37*
X119429943Y-111490920D02*
X119562565Y-111539859D01*
X119670010Y-111626419D01*
X119712032Y-111687352D01*
X119757843Y-111799161D01*
X119756891Y-111880006D01*
X119708808Y-111934378D01*
X119691017Y-111943624D01*
X119614204Y-111972450D01*
X119574976Y-111965065D01*
X119561689Y-111916658D01*
X119561012Y-111889920D01*
X119536686Y-111791548D01*
X119473281Y-111722734D01*
X119385154Y-111689498D01*
X119286663Y-111697861D01*
X119206602Y-111741296D01*
X119179561Y-111766072D01*
X119160394Y-111796129D01*
X119147446Y-111841565D01*
X119139064Y-111912476D01*
X119133593Y-112018960D01*
X119129378Y-112171112D01*
X119128287Y-112219287D01*
X119124307Y-112384095D01*
X119119781Y-112500088D01*
X119112995Y-112576833D01*
X119102231Y-112623893D01*
X119085773Y-112650835D01*
X119061906Y-112667223D01*
X119046626Y-112674463D01*
X118981733Y-112699220D01*
X118943534Y-112707391D01*
X118930912Y-112680103D01*
X118923208Y-112597603D01*
X118920380Y-112458941D01*
X118922386Y-112263162D01*
X118923011Y-112232965D01*
X118927421Y-112054349D01*
X118932635Y-111923923D01*
X118940055Y-111831492D01*
X118951082Y-111766858D01*
X118967117Y-111719825D01*
X118989561Y-111680196D01*
X119001302Y-111663215D01*
X119068619Y-111588080D01*
X119143910Y-111529638D01*
X119153128Y-111524536D01*
X119288133Y-111484260D01*
X119429943Y-111490920D01*
G36*
X119429943Y-111490920D02*
G01*
X119562565Y-111539859D01*
X119670010Y-111626419D01*
X119712032Y-111687352D01*
X119757843Y-111799161D01*
X119756891Y-111880006D01*
X119708808Y-111934378D01*
X119691017Y-111943624D01*
X119614204Y-111972450D01*
X119574976Y-111965065D01*
X119561689Y-111916658D01*
X119561012Y-111889920D01*
X119536686Y-111791548D01*
X119473281Y-111722734D01*
X119385154Y-111689498D01*
X119286663Y-111697861D01*
X119206602Y-111741296D01*
X119179561Y-111766072D01*
X119160394Y-111796129D01*
X119147446Y-111841565D01*
X119139064Y-111912476D01*
X119133593Y-112018960D01*
X119129378Y-112171112D01*
X119128287Y-112219287D01*
X119124307Y-112384095D01*
X119119781Y-112500088D01*
X119112995Y-112576833D01*
X119102231Y-112623893D01*
X119085773Y-112650835D01*
X119061906Y-112667223D01*
X119046626Y-112674463D01*
X118981733Y-112699220D01*
X118943534Y-112707391D01*
X118930912Y-112680103D01*
X118923208Y-112597603D01*
X118920380Y-112458941D01*
X118922386Y-112263162D01*
X118923011Y-112232965D01*
X118927421Y-112054349D01*
X118932635Y-111923923D01*
X118940055Y-111831492D01*
X118951082Y-111766858D01*
X118967117Y-111719825D01*
X118989561Y-111680196D01*
X119001302Y-111663215D01*
X119068619Y-111588080D01*
X119143910Y-111529638D01*
X119153128Y-111524536D01*
X119288133Y-111484260D01*
X119429943Y-111490920D01*
G37*
X121944124Y-111508840D02*
X121948579Y-111585653D01*
X121952071Y-111702391D01*
X121954315Y-111849821D01*
X121955035Y-112004455D01*
X121955035Y-112527727D01*
X121862645Y-112620117D01*
X121798978Y-112677047D01*
X121743089Y-112700107D01*
X121666702Y-112698647D01*
X121636380Y-112694934D01*
X121541610Y-112684126D01*
X121463222Y-112677933D01*
X121444115Y-112677361D01*
X121379699Y-112681102D01*
X121287571Y-112690494D01*
X121251850Y-112694934D01*
X121164114Y-112701801D01*
X121105153Y-112686885D01*
X121046690Y-112640835D01*
X121025585Y-112620117D01*
X120933195Y-112527727D01*
X120933195Y-111548947D01*
X121007558Y-111515066D01*
X121071590Y-111489970D01*
X121109052Y-111481184D01*
X121118657Y-111508950D01*
X121127635Y-111586530D01*
X121135386Y-111705348D01*
X121141314Y-111856828D01*
X121144173Y-111984805D01*
X121152161Y-112488425D01*
X121221848Y-112498278D01*
X121285229Y-112491389D01*
X121316286Y-112469083D01*
X121324967Y-112427379D01*
X121332378Y-112338544D01*
X121337931Y-112213834D01*
X121341036Y-112064507D01*
X121341484Y-111987661D01*
X121341931Y-111545287D01*
X121433874Y-111513235D01*
X121498949Y-111491443D01*
X121534347Y-111481281D01*
X121535368Y-111481184D01*
X121538920Y-111508809D01*
X121542823Y-111585411D01*
X121546751Y-111701579D01*
X121550376Y-111847904D01*
X121552908Y-111984805D01*
X121560897Y-112488425D01*
X121736069Y-112488425D01*
X121744107Y-112028965D01*
X121752146Y-111569505D01*
X121837543Y-111525344D01*
X121900593Y-111495019D01*
X121937910Y-111481258D01*
X121938987Y-111481184D01*
X121944124Y-111508840D01*
G36*
X121944124Y-111508840D02*
G01*
X121948579Y-111585653D01*
X121952071Y-111702391D01*
X121954315Y-111849821D01*
X121955035Y-112004455D01*
X121955035Y-112527727D01*
X121862645Y-112620117D01*
X121798978Y-112677047D01*
X121743089Y-112700107D01*
X121666702Y-112698647D01*
X121636380Y-112694934D01*
X121541610Y-112684126D01*
X121463222Y-112677933D01*
X121444115Y-112677361D01*
X121379699Y-112681102D01*
X121287571Y-112690494D01*
X121251850Y-112694934D01*
X121164114Y-112701801D01*
X121105153Y-112686885D01*
X121046690Y-112640835D01*
X121025585Y-112620117D01*
X120933195Y-112527727D01*
X120933195Y-111548947D01*
X121007558Y-111515066D01*
X121071590Y-111489970D01*
X121109052Y-111481184D01*
X121118657Y-111508950D01*
X121127635Y-111586530D01*
X121135386Y-111705348D01*
X121141314Y-111856828D01*
X121144173Y-111984805D01*
X121152161Y-112488425D01*
X121221848Y-112498278D01*
X121285229Y-112491389D01*
X121316286Y-112469083D01*
X121324967Y-112427379D01*
X121332378Y-112338544D01*
X121337931Y-112213834D01*
X121341036Y-112064507D01*
X121341484Y-111987661D01*
X121341931Y-111545287D01*
X121433874Y-111513235D01*
X121498949Y-111491443D01*
X121534347Y-111481281D01*
X121535368Y-111481184D01*
X121538920Y-111508809D01*
X121542823Y-111585411D01*
X121546751Y-111701579D01*
X121550376Y-111847904D01*
X121552908Y-111984805D01*
X121560897Y-112488425D01*
X121736069Y-112488425D01*
X121744107Y-112028965D01*
X121752146Y-111569505D01*
X121837543Y-111525344D01*
X121900593Y-111495019D01*
X121937910Y-111481258D01*
X121938987Y-111481184D01*
X121944124Y-111508840D01*
G37*
X117108598Y-111292857D02*
X117117154Y-111412188D01*
X117126981Y-111482506D01*
X117140599Y-111513179D01*
X117160527Y-111513571D01*
X117166989Y-111509910D01*
X117252940Y-111483398D01*
X117364745Y-111484946D01*
X117478414Y-111512199D01*
X117549510Y-111547455D01*
X117622405Y-111603778D01*
X117675693Y-111667519D01*
X117712275Y-111748510D01*
X117735050Y-111856586D01*
X117746919Y-112001580D01*
X117750782Y-112193326D01*
X117750851Y-112230109D01*
X117750897Y-112643288D01*
X117658954Y-112675339D01*
X117593652Y-112697144D01*
X117557824Y-112707297D01*
X117556770Y-112707391D01*
X117553242Y-112679860D01*
X117550239Y-112603923D01*
X117547990Y-112489565D01*
X117546724Y-112346769D01*
X117546529Y-112259951D01*
X117546123Y-112088773D01*
X117544032Y-111966088D01*
X117538947Y-111882000D01*
X117529560Y-111826614D01*
X117514561Y-111790032D01*
X117492642Y-111762359D01*
X117478957Y-111749032D01*
X117384949Y-111695328D01*
X117282364Y-111691307D01*
X117189290Y-111736725D01*
X117172078Y-111753123D01*
X117146832Y-111783957D01*
X117129320Y-111820531D01*
X117118142Y-111873415D01*
X117111896Y-111953177D01*
X117109182Y-112070385D01*
X117108598Y-112231991D01*
X117108598Y-112643288D01*
X117016655Y-112675339D01*
X116951353Y-112697144D01*
X116915525Y-112707297D01*
X116914471Y-112707391D01*
X116911775Y-112679448D01*
X116909345Y-112600630D01*
X116907278Y-112478453D01*
X116905671Y-112320432D01*
X116904623Y-112134083D01*
X116904231Y-111926920D01*
X116904230Y-111917706D01*
X116904230Y-111128020D01*
X116999115Y-111087997D01*
X117094000Y-111047973D01*
X117108598Y-111292857D01*
G36*
X117108598Y-111292857D02*
G01*
X117117154Y-111412188D01*
X117126981Y-111482506D01*
X117140599Y-111513179D01*
X117160527Y-111513571D01*
X117166989Y-111509910D01*
X117252940Y-111483398D01*
X117364745Y-111484946D01*
X117478414Y-111512199D01*
X117549510Y-111547455D01*
X117622405Y-111603778D01*
X117675693Y-111667519D01*
X117712275Y-111748510D01*
X117735050Y-111856586D01*
X117746919Y-112001580D01*
X117750782Y-112193326D01*
X117750851Y-112230109D01*
X117750897Y-112643288D01*
X117658954Y-112675339D01*
X117593652Y-112697144D01*
X117557824Y-112707297D01*
X117556770Y-112707391D01*
X117553242Y-112679860D01*
X117550239Y-112603923D01*
X117547990Y-112489565D01*
X117546724Y-112346769D01*
X117546529Y-112259951D01*
X117546123Y-112088773D01*
X117544032Y-111966088D01*
X117538947Y-111882000D01*
X117529560Y-111826614D01*
X117514561Y-111790032D01*
X117492642Y-111762359D01*
X117478957Y-111749032D01*
X117384949Y-111695328D01*
X117282364Y-111691307D01*
X117189290Y-111736725D01*
X117172078Y-111753123D01*
X117146832Y-111783957D01*
X117129320Y-111820531D01*
X117118142Y-111873415D01*
X117111896Y-111953177D01*
X117109182Y-112070385D01*
X117108598Y-112231991D01*
X117108598Y-112643288D01*
X117016655Y-112675339D01*
X116951353Y-112697144D01*
X116915525Y-112707297D01*
X116914471Y-112707391D01*
X116911775Y-112679448D01*
X116909345Y-112600630D01*
X116907278Y-112478453D01*
X116905671Y-112320432D01*
X116904623Y-112134083D01*
X116904231Y-111926920D01*
X116904230Y-111917706D01*
X116904230Y-111128020D01*
X116999115Y-111087997D01*
X117094000Y-111047973D01*
X117108598Y-111292857D01*
G37*
X112412221Y-111435015D02*
X112549061Y-111506968D01*
X112650051Y-111622766D01*
X112685925Y-111697213D01*
X112713839Y-111808992D01*
X112728129Y-111950227D01*
X112729484Y-112104371D01*
X112718595Y-112254879D01*
X112696153Y-112385205D01*
X112662850Y-112478803D01*
X112652615Y-112494922D01*
X112531382Y-112615249D01*
X112387387Y-112687317D01*
X112231139Y-112708408D01*
X112073148Y-112675802D01*
X112029180Y-112656253D01*
X111943556Y-112596012D01*
X111868408Y-112516135D01*
X111861306Y-112506004D01*
X111832439Y-112457181D01*
X111813357Y-112404990D01*
X111802084Y-112336285D01*
X111796645Y-112237918D01*
X111795062Y-112096744D01*
X111795035Y-112065092D01*
X111795107Y-112055019D01*
X112086989Y-112055019D01*
X112088687Y-112188256D01*
X112095372Y-112276674D01*
X112109425Y-112333785D01*
X112133229Y-112373102D01*
X112145379Y-112386241D01*
X112215236Y-112436172D01*
X112283059Y-112433895D01*
X112351635Y-112390584D01*
X112392535Y-112344346D01*
X112416758Y-112276857D01*
X112430361Y-112170433D01*
X112431294Y-112158020D01*
X112433616Y-111965147D01*
X112409350Y-111821900D01*
X112358824Y-111729160D01*
X112282368Y-111687807D01*
X112255076Y-111685552D01*
X112183411Y-111696893D01*
X112134390Y-111736184D01*
X112104418Y-111811326D01*
X112089899Y-111930222D01*
X112086989Y-112055019D01*
X111795107Y-112055019D01*
X111796122Y-111914659D01*
X111800688Y-111809549D01*
X111810688Y-111736714D01*
X111828079Y-111683108D01*
X111854816Y-111635681D01*
X111860724Y-111626864D01*
X111960032Y-111508007D01*
X112068242Y-111439008D01*
X112199981Y-111411619D01*
X112244717Y-111410281D01*
X112412221Y-111435015D01*
G36*
X112412221Y-111435015D02*
G01*
X112549061Y-111506968D01*
X112650051Y-111622766D01*
X112685925Y-111697213D01*
X112713839Y-111808992D01*
X112728129Y-111950227D01*
X112729484Y-112104371D01*
X112718595Y-112254879D01*
X112696153Y-112385205D01*
X112662850Y-112478803D01*
X112652615Y-112494922D01*
X112531382Y-112615249D01*
X112387387Y-112687317D01*
X112231139Y-112708408D01*
X112073148Y-112675802D01*
X112029180Y-112656253D01*
X111943556Y-112596012D01*
X111868408Y-112516135D01*
X111861306Y-112506004D01*
X111832439Y-112457181D01*
X111813357Y-112404990D01*
X111802084Y-112336285D01*
X111796645Y-112237918D01*
X111795062Y-112096744D01*
X111795035Y-112065092D01*
X111795107Y-112055019D01*
X112086989Y-112055019D01*
X112088687Y-112188256D01*
X112095372Y-112276674D01*
X112109425Y-112333785D01*
X112133229Y-112373102D01*
X112145379Y-112386241D01*
X112215236Y-112436172D01*
X112283059Y-112433895D01*
X112351635Y-112390584D01*
X112392535Y-112344346D01*
X112416758Y-112276857D01*
X112430361Y-112170433D01*
X112431294Y-112158020D01*
X112433616Y-111965147D01*
X112409350Y-111821900D01*
X112358824Y-111729160D01*
X112282368Y-111687807D01*
X112255076Y-111685552D01*
X112183411Y-111696893D01*
X112134390Y-111736184D01*
X112104418Y-111811326D01*
X112089899Y-111930222D01*
X112086989Y-112055019D01*
X111795107Y-112055019D01*
X111796122Y-111914659D01*
X111800688Y-111809549D01*
X111810688Y-111736714D01*
X111828079Y-111683108D01*
X111854816Y-111635681D01*
X111860724Y-111626864D01*
X111960032Y-111508007D01*
X112068242Y-111439008D01*
X112199981Y-111411619D01*
X112244717Y-111410281D01*
X112412221Y-111435015D01*
G37*
X124707439Y-111525540D02*
X124822950Y-111601034D01*
X124878664Y-111668617D01*
X124922804Y-111791255D01*
X124926309Y-111888298D01*
X124918368Y-112018056D01*
X124619115Y-112149039D01*
X124473611Y-112215958D01*
X124378537Y-112269790D01*
X124329101Y-112316416D01*
X124320511Y-112361720D01*
X124347972Y-112411582D01*
X124378253Y-112444632D01*
X124466363Y-112497633D01*
X124562196Y-112501347D01*
X124650212Y-112460041D01*
X124714869Y-112377983D01*
X124726433Y-112349008D01*
X124781825Y-112258509D01*
X124845553Y-112219940D01*
X124932966Y-112186946D01*
X124932966Y-112312034D01*
X124925238Y-112397156D01*
X124894966Y-112468938D01*
X124831518Y-112551356D01*
X124822088Y-112562066D01*
X124751513Y-112635391D01*
X124690847Y-112674742D01*
X124614950Y-112692845D01*
X124552030Y-112698774D01*
X124439487Y-112700251D01*
X124359370Y-112681535D01*
X124309390Y-112653747D01*
X124230838Y-112592641D01*
X124176463Y-112526554D01*
X124142052Y-112443441D01*
X124123388Y-112331254D01*
X124116256Y-112177946D01*
X124115687Y-112100136D01*
X124117622Y-112006853D01*
X124293899Y-112006853D01*
X124295944Y-112056896D01*
X124301039Y-112065092D01*
X124334666Y-112053958D01*
X124407030Y-112024493D01*
X124503747Y-111982601D01*
X124523973Y-111973597D01*
X124646203Y-111911442D01*
X124713547Y-111856815D01*
X124728348Y-111805649D01*
X124692947Y-111753876D01*
X124663711Y-111731000D01*
X124558216Y-111685250D01*
X124459476Y-111692808D01*
X124376812Y-111748651D01*
X124319548Y-111847753D01*
X124301188Y-111926414D01*
X124293899Y-112006853D01*
X124117622Y-112006853D01*
X124119459Y-111918351D01*
X124133359Y-111783853D01*
X124160894Y-111685916D01*
X124205572Y-111613811D01*
X124270901Y-111556813D01*
X124299383Y-111538393D01*
X124428763Y-111490422D01*
X124570412Y-111487403D01*
X124707439Y-111525540D01*
G36*
X124707439Y-111525540D02*
G01*
X124822950Y-111601034D01*
X124878664Y-111668617D01*
X124922804Y-111791255D01*
X124926309Y-111888298D01*
X124918368Y-112018056D01*
X124619115Y-112149039D01*
X124473611Y-112215958D01*
X124378537Y-112269790D01*
X124329101Y-112316416D01*
X124320511Y-112361720D01*
X124347972Y-112411582D01*
X124378253Y-112444632D01*
X124466363Y-112497633D01*
X124562196Y-112501347D01*
X124650212Y-112460041D01*
X124714869Y-112377983D01*
X124726433Y-112349008D01*
X124781825Y-112258509D01*
X124845553Y-112219940D01*
X124932966Y-112186946D01*
X124932966Y-112312034D01*
X124925238Y-112397156D01*
X124894966Y-112468938D01*
X124831518Y-112551356D01*
X124822088Y-112562066D01*
X124751513Y-112635391D01*
X124690847Y-112674742D01*
X124614950Y-112692845D01*
X124552030Y-112698774D01*
X124439487Y-112700251D01*
X124359370Y-112681535D01*
X124309390Y-112653747D01*
X124230838Y-112592641D01*
X124176463Y-112526554D01*
X124142052Y-112443441D01*
X124123388Y-112331254D01*
X124116256Y-112177946D01*
X124115687Y-112100136D01*
X124117622Y-112006853D01*
X124293899Y-112006853D01*
X124295944Y-112056896D01*
X124301039Y-112065092D01*
X124334666Y-112053958D01*
X124407030Y-112024493D01*
X124503747Y-111982601D01*
X124523973Y-111973597D01*
X124646203Y-111911442D01*
X124713547Y-111856815D01*
X124728348Y-111805649D01*
X124692947Y-111753876D01*
X124663711Y-111731000D01*
X124558216Y-111685250D01*
X124459476Y-111692808D01*
X124376812Y-111748651D01*
X124319548Y-111847753D01*
X124301188Y-111926414D01*
X124293899Y-112006853D01*
X124117622Y-112006853D01*
X124119459Y-111918351D01*
X124133359Y-111783853D01*
X124160894Y-111685916D01*
X124205572Y-111613811D01*
X124270901Y-111556813D01*
X124299383Y-111538393D01*
X124428763Y-111490422D01*
X124570412Y-111487403D01*
X124707439Y-111525540D01*
G37*
X120757914Y-111723455D02*
X120757543Y-111941661D01*
X120756108Y-112109519D01*
X120753002Y-112235070D01*
X120747622Y-112326355D01*
X120739362Y-112391415D01*
X120727616Y-112438291D01*
X120711781Y-112475024D01*
X120699790Y-112495991D01*
X120600490Y-112609694D01*
X120474588Y-112680965D01*
X120335291Y-112706538D01*
X120195805Y-112683150D01*
X120112743Y-112641119D01*
X120025545Y-112568411D01*
X119966117Y-112479612D01*
X119930261Y-112363320D01*
X119913781Y-112208135D01*
X119911447Y-112094287D01*
X119911761Y-112086106D01*
X120115724Y-112086106D01*
X120116970Y-112216657D01*
X120122678Y-112303080D01*
X120135804Y-112359618D01*
X120159306Y-112400514D01*
X120187386Y-112431362D01*
X120281688Y-112490905D01*
X120382940Y-112495992D01*
X120478636Y-112446279D01*
X120486084Y-112439543D01*
X120517874Y-112404502D01*
X120537808Y-112362811D01*
X120548600Y-112300762D01*
X120552965Y-112204644D01*
X120553655Y-112098379D01*
X120552159Y-111964880D01*
X120545964Y-111875822D01*
X120532514Y-111817293D01*
X120509251Y-111775382D01*
X120490175Y-111753123D01*
X120401563Y-111696985D01*
X120299508Y-111690235D01*
X120202095Y-111733114D01*
X120183296Y-111749032D01*
X120151293Y-111784382D01*
X120131318Y-111826502D01*
X120120593Y-111889251D01*
X120116339Y-111986487D01*
X120115724Y-112086106D01*
X119911761Y-112086106D01*
X119918504Y-111910947D01*
X119942472Y-111773195D01*
X119987548Y-111669632D01*
X120057928Y-111588856D01*
X120112743Y-111547455D01*
X120212376Y-111502728D01*
X120327855Y-111481967D01*
X120435199Y-111487525D01*
X120495264Y-111509943D01*
X120518835Y-111516323D01*
X120534477Y-111492535D01*
X120545395Y-111428788D01*
X120553655Y-111331687D01*
X120562699Y-111223541D01*
X120575261Y-111158475D01*
X120598119Y-111121268D01*
X120638051Y-111096699D01*
X120663138Y-111085819D01*
X120758023Y-111046072D01*
X120757914Y-111723455D01*
G36*
X120757914Y-111723455D02*
G01*
X120757543Y-111941661D01*
X120756108Y-112109519D01*
X120753002Y-112235070D01*
X120747622Y-112326355D01*
X120739362Y-112391415D01*
X120727616Y-112438291D01*
X120711781Y-112475024D01*
X120699790Y-112495991D01*
X120600490Y-112609694D01*
X120474588Y-112680965D01*
X120335291Y-112706538D01*
X120195805Y-112683150D01*
X120112743Y-112641119D01*
X120025545Y-112568411D01*
X119966117Y-112479612D01*
X119930261Y-112363320D01*
X119913781Y-112208135D01*
X119911447Y-112094287D01*
X119911761Y-112086106D01*
X120115724Y-112086106D01*
X120116970Y-112216657D01*
X120122678Y-112303080D01*
X120135804Y-112359618D01*
X120159306Y-112400514D01*
X120187386Y-112431362D01*
X120281688Y-112490905D01*
X120382940Y-112495992D01*
X120478636Y-112446279D01*
X120486084Y-112439543D01*
X120517874Y-112404502D01*
X120537808Y-112362811D01*
X120548600Y-112300762D01*
X120552965Y-112204644D01*
X120553655Y-112098379D01*
X120552159Y-111964880D01*
X120545964Y-111875822D01*
X120532514Y-111817293D01*
X120509251Y-111775382D01*
X120490175Y-111753123D01*
X120401563Y-111696985D01*
X120299508Y-111690235D01*
X120202095Y-111733114D01*
X120183296Y-111749032D01*
X120151293Y-111784382D01*
X120131318Y-111826502D01*
X120120593Y-111889251D01*
X120116339Y-111986487D01*
X120115724Y-112086106D01*
X119911761Y-112086106D01*
X119918504Y-111910947D01*
X119942472Y-111773195D01*
X119987548Y-111669632D01*
X120057928Y-111588856D01*
X120112743Y-111547455D01*
X120212376Y-111502728D01*
X120327855Y-111481967D01*
X120435199Y-111487525D01*
X120495264Y-111509943D01*
X120518835Y-111516323D01*
X120534477Y-111492535D01*
X120545395Y-111428788D01*
X120553655Y-111331687D01*
X120562699Y-111223541D01*
X120575261Y-111158475D01*
X120598119Y-111121268D01*
X120638051Y-111096699D01*
X120663138Y-111085819D01*
X120758023Y-111046072D01*
X120757914Y-111723455D01*
G37*
X114679552Y-111453676D02*
X114794658Y-111531111D01*
X114883611Y-111642949D01*
X114936749Y-111785265D01*
X114947497Y-111890015D01*
X114946276Y-111933726D01*
X114936056Y-111967194D01*
X114907961Y-111997179D01*
X114853116Y-112030440D01*
X114762645Y-112073738D01*
X114627672Y-112133833D01*
X114626989Y-112134134D01*
X114502751Y-112191037D01*
X114400873Y-112241565D01*
X114331767Y-112280280D01*
X114305846Y-112301740D01*
X114305839Y-112301913D01*
X114328685Y-112348644D01*
X114382109Y-112400154D01*
X114443442Y-112437261D01*
X114474515Y-112444632D01*
X114559289Y-112419138D01*
X114632293Y-112355291D01*
X114667913Y-112285094D01*
X114702180Y-112233343D01*
X114769303Y-112174409D01*
X114848208Y-112123496D01*
X114917821Y-112095809D01*
X114932377Y-112094287D01*
X114948763Y-112119321D01*
X114949750Y-112183311D01*
X114937708Y-112269593D01*
X114915007Y-112361501D01*
X114884014Y-112442369D01*
X114882448Y-112445509D01*
X114789181Y-112575734D01*
X114668304Y-112664311D01*
X114531027Y-112707786D01*
X114388560Y-112702706D01*
X114252112Y-112645616D01*
X114246045Y-112641602D01*
X114138710Y-112544326D01*
X114068132Y-112417409D01*
X114029074Y-112250526D01*
X114023832Y-112203639D01*
X114014548Y-111982329D01*
X114025678Y-111879124D01*
X114305839Y-111879124D01*
X114309479Y-111943503D01*
X114329389Y-111962291D01*
X114379026Y-111948235D01*
X114457267Y-111915009D01*
X114544726Y-111873359D01*
X114546899Y-111872256D01*
X114621030Y-111833265D01*
X114650781Y-111807244D01*
X114643445Y-111779965D01*
X114612553Y-111744121D01*
X114533960Y-111692251D01*
X114449323Y-111688439D01*
X114373403Y-111726189D01*
X114320965Y-111799001D01*
X114305839Y-111879124D01*
X114025678Y-111879124D01*
X114033644Y-111805261D01*
X114082634Y-111664829D01*
X114150836Y-111566447D01*
X114273935Y-111467030D01*
X114409528Y-111417711D01*
X114547955Y-111414568D01*
X114679552Y-111453676D01*
G36*
X114679552Y-111453676D02*
G01*
X114794658Y-111531111D01*
X114883611Y-111642949D01*
X114936749Y-111785265D01*
X114947497Y-111890015D01*
X114946276Y-111933726D01*
X114936056Y-111967194D01*
X114907961Y-111997179D01*
X114853116Y-112030440D01*
X114762645Y-112073738D01*
X114627672Y-112133833D01*
X114626989Y-112134134D01*
X114502751Y-112191037D01*
X114400873Y-112241565D01*
X114331767Y-112280280D01*
X114305846Y-112301740D01*
X114305839Y-112301913D01*
X114328685Y-112348644D01*
X114382109Y-112400154D01*
X114443442Y-112437261D01*
X114474515Y-112444632D01*
X114559289Y-112419138D01*
X114632293Y-112355291D01*
X114667913Y-112285094D01*
X114702180Y-112233343D01*
X114769303Y-112174409D01*
X114848208Y-112123496D01*
X114917821Y-112095809D01*
X114932377Y-112094287D01*
X114948763Y-112119321D01*
X114949750Y-112183311D01*
X114937708Y-112269593D01*
X114915007Y-112361501D01*
X114884014Y-112442369D01*
X114882448Y-112445509D01*
X114789181Y-112575734D01*
X114668304Y-112664311D01*
X114531027Y-112707786D01*
X114388560Y-112702706D01*
X114252112Y-112645616D01*
X114246045Y-112641602D01*
X114138710Y-112544326D01*
X114068132Y-112417409D01*
X114029074Y-112250526D01*
X114023832Y-112203639D01*
X114014548Y-111982329D01*
X114025678Y-111879124D01*
X114305839Y-111879124D01*
X114309479Y-111943503D01*
X114329389Y-111962291D01*
X114379026Y-111948235D01*
X114457267Y-111915009D01*
X114544726Y-111873359D01*
X114546899Y-111872256D01*
X114621030Y-111833265D01*
X114650781Y-111807244D01*
X114643445Y-111779965D01*
X114612553Y-111744121D01*
X114533960Y-111692251D01*
X114449323Y-111688439D01*
X114373403Y-111726189D01*
X114320965Y-111799001D01*
X114305839Y-111879124D01*
X114025678Y-111879124D01*
X114033644Y-111805261D01*
X114082634Y-111664829D01*
X114150836Y-111566447D01*
X114273935Y-111467030D01*
X114409528Y-111417711D01*
X114547955Y-111414568D01*
X114679552Y-111453676D01*
G37*
X118443944Y-111493360D02*
X118558343Y-111535842D01*
X118559652Y-111536658D01*
X118630403Y-111588730D01*
X118682636Y-111649584D01*
X118719371Y-111728887D01*
X118743634Y-111836309D01*
X118758445Y-111981517D01*
X118766829Y-112174179D01*
X118767564Y-112201628D01*
X118778120Y-112615521D01*
X118689291Y-112661456D01*
X118625018Y-112692498D01*
X118586210Y-112707206D01*
X118584415Y-112707391D01*
X118577700Y-112680250D01*
X118572365Y-112607041D01*
X118569083Y-112500081D01*
X118568368Y-112413469D01*
X118568351Y-112273162D01*
X118561937Y-112185051D01*
X118539580Y-112143025D01*
X118491732Y-112140975D01*
X118408849Y-112172790D01*
X118283713Y-112231272D01*
X118191697Y-112279845D01*
X118144371Y-112321986D01*
X118130458Y-112367916D01*
X118130437Y-112370189D01*
X118153395Y-112449311D01*
X118221370Y-112492055D01*
X118325398Y-112498246D01*
X118400330Y-112497172D01*
X118439839Y-112518753D01*
X118464478Y-112570591D01*
X118478659Y-112636632D01*
X118458223Y-112674104D01*
X118450528Y-112679467D01*
X118378083Y-112701006D01*
X118276633Y-112704055D01*
X118172157Y-112689778D01*
X118098125Y-112663688D01*
X117995772Y-112576785D01*
X117937591Y-112455816D01*
X117926069Y-112361308D01*
X117934862Y-112276062D01*
X117966680Y-112206476D01*
X118029684Y-112144672D01*
X118132031Y-112082772D01*
X118281882Y-112012897D01*
X118291012Y-112008948D01*
X118425997Y-111946588D01*
X118509294Y-111895446D01*
X118544997Y-111849488D01*
X118537203Y-111802683D01*
X118490007Y-111748998D01*
X118475894Y-111736644D01*
X118381359Y-111688741D01*
X118283406Y-111690758D01*
X118198097Y-111737724D01*
X118141496Y-111824669D01*
X118136237Y-111841734D01*
X118085023Y-111924504D01*
X118020037Y-111964372D01*
X117926069Y-112003882D01*
X117926069Y-111901658D01*
X117954653Y-111753072D01*
X118039495Y-111616784D01*
X118083645Y-111571191D01*
X118184005Y-111512674D01*
X118311635Y-111486184D01*
X118443944Y-111493360D01*
G36*
X118443944Y-111493360D02*
G01*
X118558343Y-111535842D01*
X118559652Y-111536658D01*
X118630403Y-111588730D01*
X118682636Y-111649584D01*
X118719371Y-111728887D01*
X118743634Y-111836309D01*
X118758445Y-111981517D01*
X118766829Y-112174179D01*
X118767564Y-112201628D01*
X118778120Y-112615521D01*
X118689291Y-112661456D01*
X118625018Y-112692498D01*
X118586210Y-112707206D01*
X118584415Y-112707391D01*
X118577700Y-112680250D01*
X118572365Y-112607041D01*
X118569083Y-112500081D01*
X118568368Y-112413469D01*
X118568351Y-112273162D01*
X118561937Y-112185051D01*
X118539580Y-112143025D01*
X118491732Y-112140975D01*
X118408849Y-112172790D01*
X118283713Y-112231272D01*
X118191697Y-112279845D01*
X118144371Y-112321986D01*
X118130458Y-112367916D01*
X118130437Y-112370189D01*
X118153395Y-112449311D01*
X118221370Y-112492055D01*
X118325398Y-112498246D01*
X118400330Y-112497172D01*
X118439839Y-112518753D01*
X118464478Y-112570591D01*
X118478659Y-112636632D01*
X118458223Y-112674104D01*
X118450528Y-112679467D01*
X118378083Y-112701006D01*
X118276633Y-112704055D01*
X118172157Y-112689778D01*
X118098125Y-112663688D01*
X117995772Y-112576785D01*
X117937591Y-112455816D01*
X117926069Y-112361308D01*
X117934862Y-112276062D01*
X117966680Y-112206476D01*
X118029684Y-112144672D01*
X118132031Y-112082772D01*
X118281882Y-112012897D01*
X118291012Y-112008948D01*
X118425997Y-111946588D01*
X118509294Y-111895446D01*
X118544997Y-111849488D01*
X118537203Y-111802683D01*
X118490007Y-111748998D01*
X118475894Y-111736644D01*
X118381359Y-111688741D01*
X118283406Y-111690758D01*
X118198097Y-111737724D01*
X118141496Y-111824669D01*
X118136237Y-111841734D01*
X118085023Y-111924504D01*
X118020037Y-111964372D01*
X117926069Y-112003882D01*
X117926069Y-111901658D01*
X117954653Y-111753072D01*
X118039495Y-111616784D01*
X118083645Y-111571191D01*
X118184005Y-111512674D01*
X118311635Y-111486184D01*
X118443944Y-111493360D01*
G37*
X113535900Y-111430903D02*
X113647450Y-111486522D01*
X113745908Y-111588931D01*
X113773023Y-111626864D01*
X113802562Y-111676500D01*
X113821728Y-111730412D01*
X113832693Y-111802364D01*
X113837629Y-111906122D01*
X113838713Y-112043101D01*
X113833818Y-112230815D01*
X113816804Y-112371758D01*
X113784177Y-112476908D01*
X113732442Y-112557243D01*
X113658104Y-112623741D01*
X113652642Y-112627678D01*
X113579380Y-112667953D01*
X113491160Y-112687880D01*
X113378962Y-112692793D01*
X113196567Y-112692793D01*
X113196491Y-112869857D01*
X113194793Y-112968470D01*
X113184450Y-113026314D01*
X113157422Y-113061006D01*
X113105668Y-113090164D01*
X113093239Y-113096121D01*
X113035077Y-113124039D01*
X112990044Y-113141672D01*
X112956559Y-113143194D01*
X112933038Y-113122781D01*
X112917900Y-113074607D01*
X112909563Y-112992846D01*
X112906444Y-112871672D01*
X112906960Y-112705260D01*
X112909529Y-112487785D01*
X112910332Y-112422736D01*
X112913222Y-112198502D01*
X112915812Y-112051821D01*
X113196414Y-112051821D01*
X113197991Y-112176326D01*
X113205000Y-112257787D01*
X113220858Y-112311515D01*
X113248981Y-112352823D01*
X113268075Y-112372971D01*
X113346135Y-112431921D01*
X113415247Y-112436720D01*
X113486560Y-112388038D01*
X113488368Y-112386241D01*
X113517383Y-112348618D01*
X113535033Y-112297484D01*
X113543936Y-112218738D01*
X113546709Y-112098276D01*
X113546759Y-112071588D01*
X113540058Y-111905583D01*
X113518248Y-111790505D01*
X113478765Y-111720254D01*
X113419044Y-111688729D01*
X113384528Y-111685552D01*
X113302611Y-111700460D01*
X113246421Y-111749548D01*
X113212598Y-111839362D01*
X113197780Y-111976445D01*
X113196414Y-112051821D01*
X112915812Y-112051821D01*
X112916287Y-112024952D01*
X112920247Y-111894382D01*
X112925826Y-111799087D01*
X112933746Y-111731364D01*
X112944731Y-111683507D01*
X112959501Y-111647813D01*
X112978782Y-111616578D01*
X112987049Y-111604824D01*
X113096712Y-111493797D01*
X113235365Y-111430847D01*
X113395754Y-111413297D01*
X113535900Y-111430903D01*
G36*
X113535900Y-111430903D02*
G01*
X113647450Y-111486522D01*
X113745908Y-111588931D01*
X113773023Y-111626864D01*
X113802562Y-111676500D01*
X113821728Y-111730412D01*
X113832693Y-111802364D01*
X113837629Y-111906122D01*
X113838713Y-112043101D01*
X113833818Y-112230815D01*
X113816804Y-112371758D01*
X113784177Y-112476908D01*
X113732442Y-112557243D01*
X113658104Y-112623741D01*
X113652642Y-112627678D01*
X113579380Y-112667953D01*
X113491160Y-112687880D01*
X113378962Y-112692793D01*
X113196567Y-112692793D01*
X113196491Y-112869857D01*
X113194793Y-112968470D01*
X113184450Y-113026314D01*
X113157422Y-113061006D01*
X113105668Y-113090164D01*
X113093239Y-113096121D01*
X113035077Y-113124039D01*
X112990044Y-113141672D01*
X112956559Y-113143194D01*
X112933038Y-113122781D01*
X112917900Y-113074607D01*
X112909563Y-112992846D01*
X112906444Y-112871672D01*
X112906960Y-112705260D01*
X112909529Y-112487785D01*
X112910332Y-112422736D01*
X112913222Y-112198502D01*
X112915812Y-112051821D01*
X113196414Y-112051821D01*
X113197991Y-112176326D01*
X113205000Y-112257787D01*
X113220858Y-112311515D01*
X113248981Y-112352823D01*
X113268075Y-112372971D01*
X113346135Y-112431921D01*
X113415247Y-112436720D01*
X113486560Y-112388038D01*
X113488368Y-112386241D01*
X113517383Y-112348618D01*
X113535033Y-112297484D01*
X113543936Y-112218738D01*
X113546709Y-112098276D01*
X113546759Y-112071588D01*
X113540058Y-111905583D01*
X113518248Y-111790505D01*
X113478765Y-111720254D01*
X113419044Y-111688729D01*
X113384528Y-111685552D01*
X113302611Y-111700460D01*
X113246421Y-111749548D01*
X113212598Y-111839362D01*
X113197780Y-111976445D01*
X113196414Y-112051821D01*
X112915812Y-112051821D01*
X112916287Y-112024952D01*
X112920247Y-111894382D01*
X112925826Y-111799087D01*
X112933746Y-111731364D01*
X112944731Y-111683507D01*
X112959501Y-111647813D01*
X112978782Y-111616578D01*
X112987049Y-111604824D01*
X113096712Y-111493797D01*
X113235365Y-111430847D01*
X113395754Y-111413297D01*
X113535900Y-111430903D01*
G37*
X122678406Y-111504156D02*
X122762469Y-111542393D01*
X122828450Y-111588726D01*
X122876794Y-111640532D01*
X122910172Y-111707363D01*
X122931253Y-111798769D01*
X122942707Y-111924301D01*
X122947203Y-112093508D01*
X122947678Y-112204933D01*
X122947678Y-112639627D01*
X122873316Y-112673509D01*
X122814746Y-112698272D01*
X122785730Y-112707391D01*
X122780179Y-112680257D01*
X122775775Y-112607094D01*
X122773078Y-112500263D01*
X122772506Y-112415437D01*
X122770046Y-112292887D01*
X122763412Y-112195668D01*
X122753726Y-112136134D01*
X122746032Y-112123483D01*
X122694311Y-112136402D01*
X122613117Y-112169539D01*
X122519102Y-112214461D01*
X122428917Y-112262735D01*
X122359215Y-112305928D01*
X122326648Y-112335608D01*
X122326519Y-112335929D01*
X122329320Y-112390857D01*
X122354439Y-112443292D01*
X122398541Y-112485881D01*
X122462909Y-112500126D01*
X122517921Y-112498466D01*
X122595835Y-112497245D01*
X122636732Y-112515498D01*
X122661295Y-112563726D01*
X122664392Y-112572820D01*
X122675040Y-112641598D01*
X122646565Y-112683360D01*
X122572344Y-112703263D01*
X122492168Y-112706944D01*
X122347890Y-112679658D01*
X122273203Y-112640690D01*
X122180963Y-112549148D01*
X122132043Y-112436782D01*
X122127654Y-112318051D01*
X122169001Y-112207411D01*
X122231197Y-112138080D01*
X122293294Y-112099265D01*
X122390895Y-112050125D01*
X122504632Y-112000292D01*
X122523590Y-111992677D01*
X122648521Y-111937545D01*
X122720539Y-111888954D01*
X122743700Y-111840647D01*
X122722064Y-111786370D01*
X122684920Y-111743943D01*
X122597127Y-111691702D01*
X122500530Y-111687784D01*
X122411944Y-111728041D01*
X122348186Y-111808326D01*
X122339817Y-111829040D01*
X122291096Y-111905225D01*
X122219965Y-111961785D01*
X122130207Y-112008201D01*
X122130207Y-111876584D01*
X122135490Y-111796168D01*
X122158142Y-111732786D01*
X122208367Y-111665163D01*
X122256582Y-111613076D01*
X122331554Y-111539322D01*
X122389806Y-111499702D01*
X122452372Y-111483810D01*
X122523193Y-111481184D01*
X122678406Y-111504156D01*
G36*
X122678406Y-111504156D02*
G01*
X122762469Y-111542393D01*
X122828450Y-111588726D01*
X122876794Y-111640532D01*
X122910172Y-111707363D01*
X122931253Y-111798769D01*
X122942707Y-111924301D01*
X122947203Y-112093508D01*
X122947678Y-112204933D01*
X122947678Y-112639627D01*
X122873316Y-112673509D01*
X122814746Y-112698272D01*
X122785730Y-112707391D01*
X122780179Y-112680257D01*
X122775775Y-112607094D01*
X122773078Y-112500263D01*
X122772506Y-112415437D01*
X122770046Y-112292887D01*
X122763412Y-112195668D01*
X122753726Y-112136134D01*
X122746032Y-112123483D01*
X122694311Y-112136402D01*
X122613117Y-112169539D01*
X122519102Y-112214461D01*
X122428917Y-112262735D01*
X122359215Y-112305928D01*
X122326648Y-112335608D01*
X122326519Y-112335929D01*
X122329320Y-112390857D01*
X122354439Y-112443292D01*
X122398541Y-112485881D01*
X122462909Y-112500126D01*
X122517921Y-112498466D01*
X122595835Y-112497245D01*
X122636732Y-112515498D01*
X122661295Y-112563726D01*
X122664392Y-112572820D01*
X122675040Y-112641598D01*
X122646565Y-112683360D01*
X122572344Y-112703263D01*
X122492168Y-112706944D01*
X122347890Y-112679658D01*
X122273203Y-112640690D01*
X122180963Y-112549148D01*
X122132043Y-112436782D01*
X122127654Y-112318051D01*
X122169001Y-112207411D01*
X122231197Y-112138080D01*
X122293294Y-112099265D01*
X122390895Y-112050125D01*
X122504632Y-112000292D01*
X122523590Y-111992677D01*
X122648521Y-111937545D01*
X122720539Y-111888954D01*
X122743700Y-111840647D01*
X122722064Y-111786370D01*
X122684920Y-111743943D01*
X122597127Y-111691702D01*
X122500530Y-111687784D01*
X122411944Y-111728041D01*
X122348186Y-111808326D01*
X122339817Y-111829040D01*
X122291096Y-111905225D01*
X122219965Y-111961785D01*
X122130207Y-112008201D01*
X122130207Y-111876584D01*
X122135490Y-111796168D01*
X122158142Y-111732786D01*
X122208367Y-111665163D01*
X122256582Y-111613076D01*
X122331554Y-111539322D01*
X122389806Y-111499702D01*
X122452372Y-111483810D01*
X122523193Y-111481184D01*
X122678406Y-111504156D01*
G37*
X118573014Y-102021998D02*
X118731006Y-102022863D01*
X118845347Y-102025205D01*
X118923407Y-102029762D01*
X118972554Y-102037270D01*
X119000159Y-102048466D01*
X119013592Y-102064088D01*
X119020221Y-102084873D01*
X119020865Y-102087563D01*
X119030935Y-102136113D01*
X119049575Y-102231905D01*
X119074845Y-102364743D01*
X119104807Y-102524431D01*
X119137522Y-102700774D01*
X119138664Y-102706967D01*
X119171433Y-102879782D01*
X119202093Y-103032469D01*
X119228664Y-103155871D01*
X119249167Y-103240831D01*
X119261626Y-103278190D01*
X119262220Y-103278852D01*
X119298919Y-103297095D01*
X119374586Y-103327497D01*
X119472878Y-103363493D01*
X119473425Y-103363685D01*
X119597233Y-103410222D01*
X119743196Y-103469504D01*
X119880781Y-103529109D01*
X119887293Y-103532056D01*
X120111390Y-103633765D01*
X120607619Y-103294897D01*
X120759846Y-103191592D01*
X120897741Y-103099237D01*
X121013315Y-103023084D01*
X121098579Y-102968385D01*
X121145544Y-102940393D01*
X121150004Y-102938317D01*
X121184134Y-102947560D01*
X121247881Y-102992156D01*
X121343731Y-103074209D01*
X121474169Y-103195821D01*
X121607328Y-103325205D01*
X121735694Y-103452702D01*
X121850581Y-103569046D01*
X121945073Y-103667052D01*
X122012253Y-103739536D01*
X122045206Y-103779313D01*
X122046432Y-103781361D01*
X122050074Y-103808656D01*
X122036350Y-103853234D01*
X122001869Y-103921112D01*
X121943239Y-104018311D01*
X121857070Y-104150851D01*
X121742200Y-104321476D01*
X121640254Y-104471655D01*
X121549123Y-104606350D01*
X121474073Y-104717740D01*
X121420369Y-104798005D01*
X121393280Y-104839325D01*
X121391574Y-104842130D01*
X121394882Y-104881721D01*
X121419953Y-104958669D01*
X121461798Y-105058432D01*
X121476712Y-105090291D01*
X121541786Y-105232226D01*
X121611212Y-105393273D01*
X121667609Y-105532621D01*
X121708247Y-105636044D01*
X121740526Y-105714642D01*
X121759178Y-105755720D01*
X121761497Y-105758885D01*
X121795803Y-105764128D01*
X121876669Y-105778494D01*
X121993343Y-105799937D01*
X122135075Y-105826413D01*
X122291110Y-105855877D01*
X122450698Y-105886283D01*
X122603085Y-105915588D01*
X122737521Y-105941745D01*
X122843252Y-105962710D01*
X122909526Y-105976439D01*
X122925782Y-105980320D01*
X122942573Y-105989900D01*
X122955249Y-106011536D01*
X122964378Y-106052531D01*
X122970531Y-106120189D01*
X122974280Y-106221812D01*
X122976192Y-106364703D01*
X122976840Y-106556165D01*
X122976874Y-106634645D01*
X122976874Y-107272906D01*
X122823598Y-107303160D01*
X122738322Y-107319564D01*
X122611070Y-107343509D01*
X122457315Y-107372107D01*
X122292534Y-107402467D01*
X122246989Y-107410806D01*
X122094932Y-107440370D01*
X121962468Y-107469442D01*
X121860714Y-107495329D01*
X121800788Y-107515337D01*
X121790805Y-107521301D01*
X121766293Y-107563534D01*
X121731148Y-107645370D01*
X121692173Y-107750683D01*
X121684442Y-107773368D01*
X121633360Y-107914018D01*
X121569954Y-108072714D01*
X121507904Y-108215225D01*
X121507598Y-108215886D01*
X121404267Y-108439440D01*
X122083961Y-109439232D01*
X121647621Y-109876300D01*
X121515649Y-110006381D01*
X121395279Y-110121048D01*
X121293273Y-110214181D01*
X121216391Y-110279658D01*
X121171393Y-110311357D01*
X121164938Y-110313368D01*
X121127040Y-110297529D01*
X121049708Y-110253496D01*
X120941389Y-110186490D01*
X120810532Y-110101734D01*
X120669052Y-110006816D01*
X120525461Y-109909998D01*
X120397435Y-109825751D01*
X120293105Y-109759258D01*
X120220600Y-109715702D01*
X120188158Y-109700264D01*
X120148576Y-109713328D01*
X120073519Y-109747750D01*
X119978468Y-109796380D01*
X119968392Y-109801785D01*
X119840391Y-109865980D01*
X119752618Y-109897463D01*
X119698028Y-109897798D01*
X119669575Y-109868548D01*
X119669410Y-109868138D01*
X119655188Y-109833498D01*
X119621269Y-109751269D01*
X119570284Y-109627814D01*
X119504862Y-109469498D01*
X119427634Y-109282686D01*
X119341229Y-109073742D01*
X119257551Y-108871446D01*
X119165588Y-108648200D01*
X119081150Y-108441392D01*
X119006769Y-108257362D01*
X118944974Y-108102451D01*
X118898297Y-107982996D01*
X118869268Y-107905339D01*
X118860322Y-107876356D01*
X118882756Y-107843110D01*
X118941439Y-107790123D01*
X119019689Y-107731704D01*
X119242534Y-107546952D01*
X119416718Y-107335182D01*
X119540154Y-107100856D01*
X119610754Y-106848434D01*
X119626431Y-106582377D01*
X119615036Y-106459575D01*
X119552950Y-106204793D01*
X119446023Y-105979801D01*
X119300889Y-105786817D01*
X119124178Y-105628061D01*
X118922522Y-105505750D01*
X118702554Y-105422105D01*
X118470906Y-105379344D01*
X118234209Y-105379687D01*
X117999095Y-105425352D01*
X117772196Y-105518559D01*
X117560144Y-105661527D01*
X117471636Y-105742383D01*
X117301889Y-105950007D01*
X117183699Y-106176895D01*
X117116278Y-106416433D01*
X117098840Y-106662007D01*
X117130598Y-106907003D01*
X117210765Y-107144808D01*
X117338555Y-107368807D01*
X117513180Y-107572387D01*
X117708312Y-107731704D01*
X117789591Y-107792602D01*
X117847009Y-107845015D01*
X117867678Y-107876406D01*
X117856856Y-107910639D01*
X117826077Y-107992419D01*
X117777874Y-108115407D01*
X117714778Y-108273263D01*
X117639322Y-108459649D01*
X117554038Y-108668226D01*
X117470219Y-108871496D01*
X117377745Y-109094933D01*
X117292089Y-109301984D01*
X117215882Y-109486286D01*
X117151753Y-109641475D01*
X117102332Y-109761188D01*
X117070248Y-109839061D01*
X117058359Y-109868138D01*
X117030274Y-109897677D01*
X116975949Y-109897591D01*
X116888395Y-109866326D01*
X116760619Y-109802329D01*
X116759608Y-109801785D01*
X116663402Y-109752121D01*
X116585631Y-109715945D01*
X116541777Y-109700408D01*
X116539842Y-109700264D01*
X116506829Y-109716024D01*
X116433946Y-109759850D01*
X116329322Y-109826557D01*
X116201090Y-109910964D01*
X116058948Y-110006816D01*
X115914233Y-110103867D01*
X115783804Y-110188270D01*
X115676110Y-110254801D01*
X115599598Y-110298238D01*
X115563062Y-110313368D01*
X115529418Y-110293482D01*
X115461776Y-110237903D01*
X115366893Y-110152754D01*
X115251530Y-110044153D01*
X115122445Y-109918221D01*
X115080229Y-109876149D01*
X114643739Y-109438931D01*
X114975977Y-108951340D01*
X115076946Y-108801605D01*
X115165562Y-108667220D01*
X115236854Y-108555969D01*
X115285850Y-108475639D01*
X115307578Y-108434014D01*
X115308215Y-108431053D01*
X115296760Y-108391818D01*
X115265949Y-108312895D01*
X115221116Y-108207509D01*
X115189647Y-108136954D01*
X115130808Y-108001876D01*
X115075396Y-107865409D01*
X115032436Y-107750103D01*
X115020766Y-107714977D01*
X114987611Y-107621174D01*
X114955201Y-107548694D01*
X114937399Y-107521301D01*
X114898114Y-107504536D01*
X114812374Y-107480770D01*
X114691303Y-107452697D01*
X114546027Y-107423009D01*
X114481012Y-107410806D01*
X114315913Y-107380468D01*
X114157552Y-107351093D01*
X114021404Y-107325569D01*
X113922943Y-107306785D01*
X113904402Y-107303160D01*
X113751127Y-107272906D01*
X113751127Y-106634645D01*
X113751471Y-106424770D01*
X113752884Y-106265980D01*
X113755936Y-106150973D01*
X113761197Y-106072446D01*
X113769237Y-106023096D01*
X113780627Y-105995619D01*
X113795937Y-105982713D01*
X113802218Y-105980320D01*
X113840104Y-105971833D01*
X113923805Y-105954900D01*
X114042567Y-105931566D01*
X114185639Y-105903875D01*
X114342268Y-105873873D01*
X114501703Y-105843604D01*
X114653191Y-105815115D01*
X114785981Y-105790449D01*
X114889319Y-105771651D01*
X114952455Y-105760767D01*
X114966503Y-105758885D01*
X114979230Y-105733704D01*
X115007400Y-105666622D01*
X115045748Y-105570333D01*
X115060391Y-105532621D01*
X115119452Y-105386921D01*
X115189000Y-105225951D01*
X115251288Y-105090291D01*
X115297121Y-104986561D01*
X115327613Y-104901326D01*
X115337792Y-104849126D01*
X115336169Y-104842130D01*
X115314657Y-104809102D01*
X115265535Y-104735643D01*
X115194077Y-104629577D01*
X115105555Y-104498726D01*
X115005241Y-104350912D01*
X114985406Y-104321734D01*
X114869012Y-104148863D01*
X114783452Y-104017226D01*
X114725316Y-103920761D01*
X114691192Y-103853408D01*
X114677669Y-103809106D01*
X114681336Y-103781794D01*
X114681430Y-103781620D01*
X114710293Y-103745746D01*
X114774133Y-103676391D01*
X114866031Y-103580745D01*
X114979067Y-103465999D01*
X115106321Y-103339341D01*
X115120672Y-103325205D01*
X115281043Y-103169903D01*
X115404805Y-103055870D01*
X115494445Y-102981002D01*
X115552448Y-102943196D01*
X115577996Y-102938317D01*
X115615282Y-102959603D01*
X115692657Y-103008773D01*
X115802133Y-103080575D01*
X115935720Y-103169755D01*
X116085430Y-103271063D01*
X116120382Y-103294897D01*
X116616610Y-103633765D01*
X116840707Y-103532056D01*
X116976989Y-103472783D01*
X117123276Y-103413170D01*
X117249035Y-103365640D01*
X117254575Y-103363685D01*
X117352943Y-103327677D01*
X117428771Y-103297229D01*
X117465718Y-103278905D01*
X117465780Y-103278852D01*
X117477504Y-103245729D01*
X117497432Y-103164267D01*
X117523587Y-103043625D01*
X117553990Y-102892959D01*
X117586663Y-102721428D01*
X117589336Y-102706967D01*
X117622110Y-102530235D01*
X117652198Y-102369810D01*
X117677661Y-102235888D01*
X117696559Y-102138663D01*
X117706953Y-102088332D01*
X117707135Y-102087563D01*
X117713461Y-102066153D01*
X117725761Y-102049988D01*
X117751406Y-102038331D01*
X117797765Y-102030445D01*
X117872208Y-102025593D01*
X117982105Y-102023039D01*
X118134825Y-102022045D01*
X118337738Y-102021874D01*
X118364000Y-102021874D01*
X118573014Y-102021998D01*
G36*
X118573014Y-102021998D02*
G01*
X118731006Y-102022863D01*
X118845347Y-102025205D01*
X118923407Y-102029762D01*
X118972554Y-102037270D01*
X119000159Y-102048466D01*
X119013592Y-102064088D01*
X119020221Y-102084873D01*
X119020865Y-102087563D01*
X119030935Y-102136113D01*
X119049575Y-102231905D01*
X119074845Y-102364743D01*
X119104807Y-102524431D01*
X119137522Y-102700774D01*
X119138664Y-102706967D01*
X119171433Y-102879782D01*
X119202093Y-103032469D01*
X119228664Y-103155871D01*
X119249167Y-103240831D01*
X119261626Y-103278190D01*
X119262220Y-103278852D01*
X119298919Y-103297095D01*
X119374586Y-103327497D01*
X119472878Y-103363493D01*
X119473425Y-103363685D01*
X119597233Y-103410222D01*
X119743196Y-103469504D01*
X119880781Y-103529109D01*
X119887293Y-103532056D01*
X120111390Y-103633765D01*
X120607619Y-103294897D01*
X120759846Y-103191592D01*
X120897741Y-103099237D01*
X121013315Y-103023084D01*
X121098579Y-102968385D01*
X121145544Y-102940393D01*
X121150004Y-102938317D01*
X121184134Y-102947560D01*
X121247881Y-102992156D01*
X121343731Y-103074209D01*
X121474169Y-103195821D01*
X121607328Y-103325205D01*
X121735694Y-103452702D01*
X121850581Y-103569046D01*
X121945073Y-103667052D01*
X122012253Y-103739536D01*
X122045206Y-103779313D01*
X122046432Y-103781361D01*
X122050074Y-103808656D01*
X122036350Y-103853234D01*
X122001869Y-103921112D01*
X121943239Y-104018311D01*
X121857070Y-104150851D01*
X121742200Y-104321476D01*
X121640254Y-104471655D01*
X121549123Y-104606350D01*
X121474073Y-104717740D01*
X121420369Y-104798005D01*
X121393280Y-104839325D01*
X121391574Y-104842130D01*
X121394882Y-104881721D01*
X121419953Y-104958669D01*
X121461798Y-105058432D01*
X121476712Y-105090291D01*
X121541786Y-105232226D01*
X121611212Y-105393273D01*
X121667609Y-105532621D01*
X121708247Y-105636044D01*
X121740526Y-105714642D01*
X121759178Y-105755720D01*
X121761497Y-105758885D01*
X121795803Y-105764128D01*
X121876669Y-105778494D01*
X121993343Y-105799937D01*
X122135075Y-105826413D01*
X122291110Y-105855877D01*
X122450698Y-105886283D01*
X122603085Y-105915588D01*
X122737521Y-105941745D01*
X122843252Y-105962710D01*
X122909526Y-105976439D01*
X122925782Y-105980320D01*
X122942573Y-105989900D01*
X122955249Y-106011536D01*
X122964378Y-106052531D01*
X122970531Y-106120189D01*
X122974280Y-106221812D01*
X122976192Y-106364703D01*
X122976840Y-106556165D01*
X122976874Y-106634645D01*
X122976874Y-107272906D01*
X122823598Y-107303160D01*
X122738322Y-107319564D01*
X122611070Y-107343509D01*
X122457315Y-107372107D01*
X122292534Y-107402467D01*
X122246989Y-107410806D01*
X122094932Y-107440370D01*
X121962468Y-107469442D01*
X121860714Y-107495329D01*
X121800788Y-107515337D01*
X121790805Y-107521301D01*
X121766293Y-107563534D01*
X121731148Y-107645370D01*
X121692173Y-107750683D01*
X121684442Y-107773368D01*
X121633360Y-107914018D01*
X121569954Y-108072714D01*
X121507904Y-108215225D01*
X121507598Y-108215886D01*
X121404267Y-108439440D01*
X122083961Y-109439232D01*
X121647621Y-109876300D01*
X121515649Y-110006381D01*
X121395279Y-110121048D01*
X121293273Y-110214181D01*
X121216391Y-110279658D01*
X121171393Y-110311357D01*
X121164938Y-110313368D01*
X121127040Y-110297529D01*
X121049708Y-110253496D01*
X120941389Y-110186490D01*
X120810532Y-110101734D01*
X120669052Y-110006816D01*
X120525461Y-109909998D01*
X120397435Y-109825751D01*
X120293105Y-109759258D01*
X120220600Y-109715702D01*
X120188158Y-109700264D01*
X120148576Y-109713328D01*
X120073519Y-109747750D01*
X119978468Y-109796380D01*
X119968392Y-109801785D01*
X119840391Y-109865980D01*
X119752618Y-109897463D01*
X119698028Y-109897798D01*
X119669575Y-109868548D01*
X119669410Y-109868138D01*
X119655188Y-109833498D01*
X119621269Y-109751269D01*
X119570284Y-109627814D01*
X119504862Y-109469498D01*
X119427634Y-109282686D01*
X119341229Y-109073742D01*
X119257551Y-108871446D01*
X119165588Y-108648200D01*
X119081150Y-108441392D01*
X119006769Y-108257362D01*
X118944974Y-108102451D01*
X118898297Y-107982996D01*
X118869268Y-107905339D01*
X118860322Y-107876356D01*
X118882756Y-107843110D01*
X118941439Y-107790123D01*
X119019689Y-107731704D01*
X119242534Y-107546952D01*
X119416718Y-107335182D01*
X119540154Y-107100856D01*
X119610754Y-106848434D01*
X119626431Y-106582377D01*
X119615036Y-106459575D01*
X119552950Y-106204793D01*
X119446023Y-105979801D01*
X119300889Y-105786817D01*
X119124178Y-105628061D01*
X118922522Y-105505750D01*
X118702554Y-105422105D01*
X118470906Y-105379344D01*
X118234209Y-105379687D01*
X117999095Y-105425352D01*
X117772196Y-105518559D01*
X117560144Y-105661527D01*
X117471636Y-105742383D01*
X117301889Y-105950007D01*
X117183699Y-106176895D01*
X117116278Y-106416433D01*
X117098840Y-106662007D01*
X117130598Y-106907003D01*
X117210765Y-107144808D01*
X117338555Y-107368807D01*
X117513180Y-107572387D01*
X117708312Y-107731704D01*
X117789591Y-107792602D01*
X117847009Y-107845015D01*
X117867678Y-107876406D01*
X117856856Y-107910639D01*
X117826077Y-107992419D01*
X117777874Y-108115407D01*
X117714778Y-108273263D01*
X117639322Y-108459649D01*
X117554038Y-108668226D01*
X117470219Y-108871496D01*
X117377745Y-109094933D01*
X117292089Y-109301984D01*
X117215882Y-109486286D01*
X117151753Y-109641475D01*
X117102332Y-109761188D01*
X117070248Y-109839061D01*
X117058359Y-109868138D01*
X117030274Y-109897677D01*
X116975949Y-109897591D01*
X116888395Y-109866326D01*
X116760619Y-109802329D01*
X116759608Y-109801785D01*
X116663402Y-109752121D01*
X116585631Y-109715945D01*
X116541777Y-109700408D01*
X116539842Y-109700264D01*
X116506829Y-109716024D01*
X116433946Y-109759850D01*
X116329322Y-109826557D01*
X116201090Y-109910964D01*
X116058948Y-110006816D01*
X115914233Y-110103867D01*
X115783804Y-110188270D01*
X115676110Y-110254801D01*
X115599598Y-110298238D01*
X115563062Y-110313368D01*
X115529418Y-110293482D01*
X115461776Y-110237903D01*
X115366893Y-110152754D01*
X115251530Y-110044153D01*
X115122445Y-109918221D01*
X115080229Y-109876149D01*
X114643739Y-109438931D01*
X114975977Y-108951340D01*
X115076946Y-108801605D01*
X115165562Y-108667220D01*
X115236854Y-108555969D01*
X115285850Y-108475639D01*
X115307578Y-108434014D01*
X115308215Y-108431053D01*
X115296760Y-108391818D01*
X115265949Y-108312895D01*
X115221116Y-108207509D01*
X115189647Y-108136954D01*
X115130808Y-108001876D01*
X115075396Y-107865409D01*
X115032436Y-107750103D01*
X115020766Y-107714977D01*
X114987611Y-107621174D01*
X114955201Y-107548694D01*
X114937399Y-107521301D01*
X114898114Y-107504536D01*
X114812374Y-107480770D01*
X114691303Y-107452697D01*
X114546027Y-107423009D01*
X114481012Y-107410806D01*
X114315913Y-107380468D01*
X114157552Y-107351093D01*
X114021404Y-107325569D01*
X113922943Y-107306785D01*
X113904402Y-107303160D01*
X113751127Y-107272906D01*
X113751127Y-106634645D01*
X113751471Y-106424770D01*
X113752884Y-106265980D01*
X113755936Y-106150973D01*
X113761197Y-106072446D01*
X113769237Y-106023096D01*
X113780627Y-105995619D01*
X113795937Y-105982713D01*
X113802218Y-105980320D01*
X113840104Y-105971833D01*
X113923805Y-105954900D01*
X114042567Y-105931566D01*
X114185639Y-105903875D01*
X114342268Y-105873873D01*
X114501703Y-105843604D01*
X114653191Y-105815115D01*
X114785981Y-105790449D01*
X114889319Y-105771651D01*
X114952455Y-105760767D01*
X114966503Y-105758885D01*
X114979230Y-105733704D01*
X115007400Y-105666622D01*
X115045748Y-105570333D01*
X115060391Y-105532621D01*
X115119452Y-105386921D01*
X115189000Y-105225951D01*
X115251288Y-105090291D01*
X115297121Y-104986561D01*
X115327613Y-104901326D01*
X115337792Y-104849126D01*
X115336169Y-104842130D01*
X115314657Y-104809102D01*
X115265535Y-104735643D01*
X115194077Y-104629577D01*
X115105555Y-104498726D01*
X115005241Y-104350912D01*
X114985406Y-104321734D01*
X114869012Y-104148863D01*
X114783452Y-104017226D01*
X114725316Y-103920761D01*
X114691192Y-103853408D01*
X114677669Y-103809106D01*
X114681336Y-103781794D01*
X114681430Y-103781620D01*
X114710293Y-103745746D01*
X114774133Y-103676391D01*
X114866031Y-103580745D01*
X114979067Y-103465999D01*
X115106321Y-103339341D01*
X115120672Y-103325205D01*
X115281043Y-103169903D01*
X115404805Y-103055870D01*
X115494445Y-102981002D01*
X115552448Y-102943196D01*
X115577996Y-102938317D01*
X115615282Y-102959603D01*
X115692657Y-103008773D01*
X115802133Y-103080575D01*
X115935720Y-103169755D01*
X116085430Y-103271063D01*
X116120382Y-103294897D01*
X116616610Y-103633765D01*
X116840707Y-103532056D01*
X116976989Y-103472783D01*
X117123276Y-103413170D01*
X117249035Y-103365640D01*
X117254575Y-103363685D01*
X117352943Y-103327677D01*
X117428771Y-103297229D01*
X117465718Y-103278905D01*
X117465780Y-103278852D01*
X117477504Y-103245729D01*
X117497432Y-103164267D01*
X117523587Y-103043625D01*
X117553990Y-102892959D01*
X117586663Y-102721428D01*
X117589336Y-102706967D01*
X117622110Y-102530235D01*
X117652198Y-102369810D01*
X117677661Y-102235888D01*
X117696559Y-102138663D01*
X117706953Y-102088332D01*
X117707135Y-102087563D01*
X117713461Y-102066153D01*
X117725761Y-102049988D01*
X117751406Y-102038331D01*
X117797765Y-102030445D01*
X117872208Y-102025593D01*
X117982105Y-102023039D01*
X118134825Y-102022045D01*
X118337738Y-102021874D01*
X118364000Y-102021874D01*
X118573014Y-102021998D01*
G37*
D13*
%TO.C,J3*%
X148276000Y-105851000D02*
X148276000Y-104521000D01*
X149606000Y-105851000D02*
X148276000Y-105851000D01*
X150876000Y-105851000D02*
X153476000Y-105851000D01*
X150876000Y-105851000D02*
X150876000Y-103191000D01*
X153476000Y-105851000D02*
X153476000Y-103191000D01*
X150876000Y-103191000D02*
X153476000Y-103191000D01*
%TD*%
%LPC*%
D15*
%TO.C,U2*%
X127889000Y-70231000D03*
D16*
X127889000Y-72771000D03*
X127889000Y-75311000D03*
X127889000Y-77851000D03*
X127889000Y-80391000D03*
X127889000Y-82931000D03*
X127889000Y-85471000D03*
X127889000Y-88011000D03*
X127889000Y-90551000D03*
X127889000Y-93091000D03*
X127889000Y-95631000D03*
X127889000Y-98171000D03*
X127889000Y-100711000D03*
X127889000Y-103251000D03*
X127889000Y-105791000D03*
X127889000Y-108331000D03*
X127889000Y-110871000D03*
X127889000Y-113411000D03*
X127889000Y-115951000D03*
X127889000Y-118491000D03*
X143129000Y-118491000D03*
X143129000Y-115951000D03*
X143129000Y-113411000D03*
X143129000Y-110871000D03*
X143129000Y-108331000D03*
X143129000Y-105791000D03*
X143129000Y-103251000D03*
X143129000Y-100711000D03*
X143129000Y-98171000D03*
X143129000Y-95631000D03*
X143129000Y-93091000D03*
X143129000Y-90551000D03*
X143129000Y-88011000D03*
X143129000Y-85471000D03*
X143129000Y-82931000D03*
X143129000Y-80391000D03*
X143129000Y-77851000D03*
X143129000Y-75311000D03*
X143129000Y-72771000D03*
X143129000Y-70231000D03*
%TD*%
D17*
%TO.C,J2*%
X149606000Y-81661000D03*
D18*
X152146000Y-81661000D03*
X149606000Y-84201000D03*
X152146000Y-84201000D03*
X149606000Y-86741000D03*
X152146000Y-86741000D03*
%TD*%
D17*
%TO.C,J3*%
X149606000Y-104521000D03*
D18*
X152146000Y-104521000D03*
%TD*%
D15*
%TO.C,J1*%
X93599000Y-118491000D03*
D16*
X93599000Y-115951000D03*
X93599000Y-113411000D03*
X93599000Y-110871000D03*
X93599000Y-108331000D03*
X93599000Y-105791000D03*
X93599000Y-103251000D03*
X93599000Y-100711000D03*
X93599000Y-98171000D03*
X93599000Y-95631000D03*
X93599000Y-93091000D03*
X93599000Y-90551000D03*
X93599000Y-88011000D03*
X93599000Y-85471000D03*
X93599000Y-82931000D03*
X93599000Y-80391000D03*
X93599000Y-77851000D03*
X93599000Y-75311000D03*
X93599000Y-72771000D03*
X93599000Y-70231000D03*
X108839000Y-70231000D03*
X108839000Y-72771000D03*
X108839000Y-75311000D03*
X108839000Y-77851000D03*
X108839000Y-80391000D03*
X108839000Y-82931000D03*
X108839000Y-85471000D03*
X108839000Y-88011000D03*
X108839000Y-90551000D03*
X108839000Y-93091000D03*
X108839000Y-95631000D03*
X108839000Y-98171000D03*
X108839000Y-100711000D03*
X108839000Y-103251000D03*
X108839000Y-105791000D03*
X108839000Y-108331000D03*
X108839000Y-110871000D03*
X108839000Y-113411000D03*
X108839000Y-115951000D03*
X108839000Y-118491000D03*
%TD*%
%LPD*%
M02*
