%TF.GenerationSoftware,KiCad,Pcbnew,7.0.7*%
%TF.CreationDate,2024-02-24T19:25:05-05:00*%
%TF.ProjectId,m0110a_atmega32_thru_hole_pcb,6d303131-3061-45f6-9174-6d6567613332,rev?*%
%TF.SameCoordinates,Original*%
%TF.FileFunction,Soldermask,Top*%
%TF.FilePolarity,Negative*%
%FSLAX46Y46*%
G04 Gerber Fmt 4.6, Leading zero omitted, Abs format (unit mm)*
G04 Created by KiCad (PCBNEW 7.0.7) date 2024-02-24 19:25:05*
%MOMM*%
%LPD*%
G01*
G04 APERTURE LIST*
G04 APERTURE END LIST*
G36*
X94449000Y-119341000D02*
G01*
X92749000Y-119341000D01*
X92749000Y-117641000D01*
X94449000Y-117641000D01*
X94449000Y-119341000D01*
G37*
G36*
X109101664Y-117682602D02*
G01*
X109264000Y-117754878D01*
X109407761Y-117859327D01*
X109526664Y-117991383D01*
X109615514Y-118145274D01*
X109670425Y-118314275D01*
X109689000Y-118491000D01*
X109670425Y-118667725D01*
X109615514Y-118836726D01*
X109526664Y-118990617D01*
X109407761Y-119122673D01*
X109264000Y-119227122D01*
X109101664Y-119299398D01*
X108927849Y-119336344D01*
X108750151Y-119336344D01*
X108576336Y-119299398D01*
X108414000Y-119227122D01*
X108270239Y-119122673D01*
X108151336Y-118990617D01*
X108062486Y-118836726D01*
X108007575Y-118667725D01*
X107989000Y-118491000D01*
X108007575Y-118314275D01*
X108062486Y-118145274D01*
X108151336Y-117991383D01*
X108270239Y-117859327D01*
X108414000Y-117754878D01*
X108576336Y-117682602D01*
X108750151Y-117645656D01*
X108927849Y-117645656D01*
X109101664Y-117682602D01*
G37*
G36*
X127930367Y-117695661D02*
G01*
X127972593Y-117695661D01*
X128020228Y-117705786D01*
X128067017Y-117711058D01*
X128101039Y-117722962D01*
X128136127Y-117730421D01*
X128186695Y-117752935D01*
X128236107Y-117770225D01*
X128261823Y-117786383D01*
X128288860Y-117798421D01*
X128339275Y-117835050D01*
X128387792Y-117865535D01*
X128405214Y-117882957D01*
X128424117Y-117896691D01*
X128470844Y-117948587D01*
X128514465Y-117992208D01*
X128524499Y-118008177D01*
X128535986Y-118020935D01*
X128575285Y-118089003D01*
X128609775Y-118143893D01*
X128614080Y-118156197D01*
X128619580Y-118165723D01*
X128647740Y-118252392D01*
X128668942Y-118312983D01*
X128669746Y-118320118D01*
X128671244Y-118324729D01*
X128684820Y-118453904D01*
X128689000Y-118491000D01*
X128684819Y-118528098D01*
X128671244Y-118657270D01*
X128669746Y-118661879D01*
X128668942Y-118669017D01*
X128647736Y-118729620D01*
X128619580Y-118816276D01*
X128614081Y-118825799D01*
X128609775Y-118838107D01*
X128575278Y-118893007D01*
X128535986Y-118961064D01*
X128524501Y-118973818D01*
X128514465Y-118989792D01*
X128470835Y-119033421D01*
X128424117Y-119085308D01*
X128405218Y-119099038D01*
X128387792Y-119116465D01*
X128339265Y-119146956D01*
X128288860Y-119183578D01*
X128261829Y-119195612D01*
X128236107Y-119211775D01*
X128186685Y-119229068D01*
X128136127Y-119251578D01*
X128101045Y-119259035D01*
X128067017Y-119270942D01*
X128020225Y-119276214D01*
X127972593Y-119286339D01*
X127930367Y-119286339D01*
X127889000Y-119291000D01*
X127847633Y-119286339D01*
X127805407Y-119286339D01*
X127757774Y-119276214D01*
X127710983Y-119270942D01*
X127676955Y-119259035D01*
X127641872Y-119251578D01*
X127591309Y-119229066D01*
X127541893Y-119211775D01*
X127516173Y-119195614D01*
X127489139Y-119183578D01*
X127438726Y-119146951D01*
X127390208Y-119116465D01*
X127372784Y-119099041D01*
X127353882Y-119085308D01*
X127307154Y-119033411D01*
X127263535Y-118989792D01*
X127253500Y-118973822D01*
X127242013Y-118961064D01*
X127202709Y-118892987D01*
X127168225Y-118838107D01*
X127163919Y-118825803D01*
X127158419Y-118816276D01*
X127130249Y-118729580D01*
X127109058Y-118669017D01*
X127108254Y-118661884D01*
X127106755Y-118657270D01*
X127093165Y-118527966D01*
X127089000Y-118491000D01*
X127093164Y-118454036D01*
X127106755Y-118324729D01*
X127108254Y-118320113D01*
X127109058Y-118312983D01*
X127130245Y-118252432D01*
X127158419Y-118165723D01*
X127163920Y-118156193D01*
X127168225Y-118143893D01*
X127202701Y-118089023D01*
X127242013Y-118020935D01*
X127253502Y-118008174D01*
X127263535Y-117992208D01*
X127307145Y-117948597D01*
X127353882Y-117896691D01*
X127372787Y-117882955D01*
X127390208Y-117865535D01*
X127438721Y-117835052D01*
X127489140Y-117798421D01*
X127516176Y-117786383D01*
X127541893Y-117770225D01*
X127591301Y-117752936D01*
X127641872Y-117730421D01*
X127676961Y-117722962D01*
X127710983Y-117711058D01*
X127757771Y-117705786D01*
X127805407Y-117695661D01*
X127847633Y-117695661D01*
X127889000Y-117691000D01*
X127930367Y-117695661D01*
G37*
G36*
X143170367Y-117695661D02*
G01*
X143212593Y-117695661D01*
X143260228Y-117705786D01*
X143307017Y-117711058D01*
X143341039Y-117722962D01*
X143376127Y-117730421D01*
X143426695Y-117752935D01*
X143476107Y-117770225D01*
X143501823Y-117786383D01*
X143528860Y-117798421D01*
X143579275Y-117835050D01*
X143627792Y-117865535D01*
X143645214Y-117882957D01*
X143664117Y-117896691D01*
X143710844Y-117948587D01*
X143754465Y-117992208D01*
X143764499Y-118008177D01*
X143775986Y-118020935D01*
X143815285Y-118089003D01*
X143849775Y-118143893D01*
X143854080Y-118156197D01*
X143859580Y-118165723D01*
X143887740Y-118252392D01*
X143908942Y-118312983D01*
X143909746Y-118320118D01*
X143911244Y-118324729D01*
X143924820Y-118453904D01*
X143929000Y-118491000D01*
X143924819Y-118528098D01*
X143911244Y-118657270D01*
X143909746Y-118661879D01*
X143908942Y-118669017D01*
X143887736Y-118729620D01*
X143859580Y-118816276D01*
X143854081Y-118825799D01*
X143849775Y-118838107D01*
X143815278Y-118893007D01*
X143775986Y-118961064D01*
X143764501Y-118973818D01*
X143754465Y-118989792D01*
X143710835Y-119033421D01*
X143664117Y-119085308D01*
X143645218Y-119099038D01*
X143627792Y-119116465D01*
X143579265Y-119146956D01*
X143528860Y-119183578D01*
X143501829Y-119195612D01*
X143476107Y-119211775D01*
X143426685Y-119229068D01*
X143376127Y-119251578D01*
X143341045Y-119259035D01*
X143307017Y-119270942D01*
X143260225Y-119276214D01*
X143212593Y-119286339D01*
X143170367Y-119286339D01*
X143129000Y-119291000D01*
X143087633Y-119286339D01*
X143045407Y-119286339D01*
X142997774Y-119276214D01*
X142950983Y-119270942D01*
X142916955Y-119259035D01*
X142881872Y-119251578D01*
X142831309Y-119229066D01*
X142781893Y-119211775D01*
X142756173Y-119195614D01*
X142729139Y-119183578D01*
X142678726Y-119146951D01*
X142630208Y-119116465D01*
X142612784Y-119099041D01*
X142593882Y-119085308D01*
X142547154Y-119033411D01*
X142503535Y-118989792D01*
X142493500Y-118973822D01*
X142482013Y-118961064D01*
X142442709Y-118892987D01*
X142408225Y-118838107D01*
X142403919Y-118825803D01*
X142398419Y-118816276D01*
X142370249Y-118729580D01*
X142349058Y-118669017D01*
X142348254Y-118661884D01*
X142346755Y-118657270D01*
X142333165Y-118527966D01*
X142329000Y-118491000D01*
X142333164Y-118454036D01*
X142346755Y-118324729D01*
X142348254Y-118320113D01*
X142349058Y-118312983D01*
X142370245Y-118252432D01*
X142398419Y-118165723D01*
X142403920Y-118156193D01*
X142408225Y-118143893D01*
X142442701Y-118089023D01*
X142482013Y-118020935D01*
X142493502Y-118008174D01*
X142503535Y-117992208D01*
X142547145Y-117948597D01*
X142593882Y-117896691D01*
X142612787Y-117882955D01*
X142630208Y-117865535D01*
X142678721Y-117835052D01*
X142729140Y-117798421D01*
X142756176Y-117786383D01*
X142781893Y-117770225D01*
X142831301Y-117752936D01*
X142881872Y-117730421D01*
X142916961Y-117722962D01*
X142950983Y-117711058D01*
X142997771Y-117705786D01*
X143045407Y-117695661D01*
X143087633Y-117695661D01*
X143129000Y-117691000D01*
X143170367Y-117695661D01*
G37*
G36*
X93861664Y-115142602D02*
G01*
X94024000Y-115214878D01*
X94167761Y-115319327D01*
X94286664Y-115451383D01*
X94375514Y-115605274D01*
X94430425Y-115774275D01*
X94449000Y-115951000D01*
X94430425Y-116127725D01*
X94375514Y-116296726D01*
X94286664Y-116450617D01*
X94167761Y-116582673D01*
X94024000Y-116687122D01*
X93861664Y-116759398D01*
X93687849Y-116796344D01*
X93510151Y-116796344D01*
X93336336Y-116759398D01*
X93174000Y-116687122D01*
X93030239Y-116582673D01*
X92911336Y-116450617D01*
X92822486Y-116296726D01*
X92767575Y-116127725D01*
X92749000Y-115951000D01*
X92767575Y-115774275D01*
X92822486Y-115605274D01*
X92911336Y-115451383D01*
X93030239Y-115319327D01*
X93174000Y-115214878D01*
X93336336Y-115142602D01*
X93510151Y-115105656D01*
X93687849Y-115105656D01*
X93861664Y-115142602D01*
G37*
G36*
X109101664Y-115142602D02*
G01*
X109264000Y-115214878D01*
X109407761Y-115319327D01*
X109526664Y-115451383D01*
X109615514Y-115605274D01*
X109670425Y-115774275D01*
X109689000Y-115951000D01*
X109670425Y-116127725D01*
X109615514Y-116296726D01*
X109526664Y-116450617D01*
X109407761Y-116582673D01*
X109264000Y-116687122D01*
X109101664Y-116759398D01*
X108927849Y-116796344D01*
X108750151Y-116796344D01*
X108576336Y-116759398D01*
X108414000Y-116687122D01*
X108270239Y-116582673D01*
X108151336Y-116450617D01*
X108062486Y-116296726D01*
X108007575Y-116127725D01*
X107989000Y-115951000D01*
X108007575Y-115774275D01*
X108062486Y-115605274D01*
X108151336Y-115451383D01*
X108270239Y-115319327D01*
X108414000Y-115214878D01*
X108576336Y-115142602D01*
X108750151Y-115105656D01*
X108927849Y-115105656D01*
X109101664Y-115142602D01*
G37*
G36*
X127930367Y-115155661D02*
G01*
X127972593Y-115155661D01*
X128020228Y-115165786D01*
X128067017Y-115171058D01*
X128101039Y-115182962D01*
X128136127Y-115190421D01*
X128186695Y-115212935D01*
X128236107Y-115230225D01*
X128261823Y-115246383D01*
X128288860Y-115258421D01*
X128339275Y-115295050D01*
X128387792Y-115325535D01*
X128405214Y-115342957D01*
X128424117Y-115356691D01*
X128470844Y-115408587D01*
X128514465Y-115452208D01*
X128524499Y-115468177D01*
X128535986Y-115480935D01*
X128575285Y-115549003D01*
X128609775Y-115603893D01*
X128614080Y-115616197D01*
X128619580Y-115625723D01*
X128647740Y-115712392D01*
X128668942Y-115772983D01*
X128669746Y-115780118D01*
X128671244Y-115784729D01*
X128684820Y-115913904D01*
X128689000Y-115951000D01*
X128684819Y-115988098D01*
X128671244Y-116117270D01*
X128669746Y-116121879D01*
X128668942Y-116129017D01*
X128647736Y-116189620D01*
X128619580Y-116276276D01*
X128614081Y-116285799D01*
X128609775Y-116298107D01*
X128575278Y-116353007D01*
X128535986Y-116421064D01*
X128524501Y-116433818D01*
X128514465Y-116449792D01*
X128470835Y-116493421D01*
X128424117Y-116545308D01*
X128405218Y-116559038D01*
X128387792Y-116576465D01*
X128339265Y-116606956D01*
X128288860Y-116643578D01*
X128261829Y-116655612D01*
X128236107Y-116671775D01*
X128186685Y-116689068D01*
X128136127Y-116711578D01*
X128101045Y-116719035D01*
X128067017Y-116730942D01*
X128020225Y-116736214D01*
X127972593Y-116746339D01*
X127930367Y-116746339D01*
X127889000Y-116751000D01*
X127847633Y-116746339D01*
X127805407Y-116746339D01*
X127757774Y-116736214D01*
X127710983Y-116730942D01*
X127676955Y-116719035D01*
X127641872Y-116711578D01*
X127591309Y-116689066D01*
X127541893Y-116671775D01*
X127516173Y-116655614D01*
X127489139Y-116643578D01*
X127438726Y-116606951D01*
X127390208Y-116576465D01*
X127372784Y-116559041D01*
X127353882Y-116545308D01*
X127307154Y-116493411D01*
X127263535Y-116449792D01*
X127253500Y-116433822D01*
X127242013Y-116421064D01*
X127202709Y-116352987D01*
X127168225Y-116298107D01*
X127163919Y-116285803D01*
X127158419Y-116276276D01*
X127130249Y-116189580D01*
X127109058Y-116129017D01*
X127108254Y-116121884D01*
X127106755Y-116117270D01*
X127093165Y-115987966D01*
X127089000Y-115951000D01*
X127093164Y-115914036D01*
X127106755Y-115784729D01*
X127108254Y-115780113D01*
X127109058Y-115772983D01*
X127130245Y-115712432D01*
X127158419Y-115625723D01*
X127163920Y-115616193D01*
X127168225Y-115603893D01*
X127202701Y-115549023D01*
X127242013Y-115480935D01*
X127253502Y-115468174D01*
X127263535Y-115452208D01*
X127307145Y-115408597D01*
X127353882Y-115356691D01*
X127372787Y-115342955D01*
X127390208Y-115325535D01*
X127438721Y-115295052D01*
X127489140Y-115258421D01*
X127516176Y-115246383D01*
X127541893Y-115230225D01*
X127591301Y-115212936D01*
X127641872Y-115190421D01*
X127676961Y-115182962D01*
X127710983Y-115171058D01*
X127757771Y-115165786D01*
X127805407Y-115155661D01*
X127847633Y-115155661D01*
X127889000Y-115151000D01*
X127930367Y-115155661D01*
G37*
G36*
X143170367Y-115155661D02*
G01*
X143212593Y-115155661D01*
X143260228Y-115165786D01*
X143307017Y-115171058D01*
X143341039Y-115182962D01*
X143376127Y-115190421D01*
X143426695Y-115212935D01*
X143476107Y-115230225D01*
X143501823Y-115246383D01*
X143528860Y-115258421D01*
X143579275Y-115295050D01*
X143627792Y-115325535D01*
X143645214Y-115342957D01*
X143664117Y-115356691D01*
X143710844Y-115408587D01*
X143754465Y-115452208D01*
X143764499Y-115468177D01*
X143775986Y-115480935D01*
X143815285Y-115549003D01*
X143849775Y-115603893D01*
X143854080Y-115616197D01*
X143859580Y-115625723D01*
X143887740Y-115712392D01*
X143908942Y-115772983D01*
X143909746Y-115780118D01*
X143911244Y-115784729D01*
X143924820Y-115913904D01*
X143929000Y-115951000D01*
X143924819Y-115988098D01*
X143911244Y-116117270D01*
X143909746Y-116121879D01*
X143908942Y-116129017D01*
X143887736Y-116189620D01*
X143859580Y-116276276D01*
X143854081Y-116285799D01*
X143849775Y-116298107D01*
X143815278Y-116353007D01*
X143775986Y-116421064D01*
X143764501Y-116433818D01*
X143754465Y-116449792D01*
X143710835Y-116493421D01*
X143664117Y-116545308D01*
X143645218Y-116559038D01*
X143627792Y-116576465D01*
X143579265Y-116606956D01*
X143528860Y-116643578D01*
X143501829Y-116655612D01*
X143476107Y-116671775D01*
X143426685Y-116689068D01*
X143376127Y-116711578D01*
X143341045Y-116719035D01*
X143307017Y-116730942D01*
X143260225Y-116736214D01*
X143212593Y-116746339D01*
X143170367Y-116746339D01*
X143129000Y-116751000D01*
X143087633Y-116746339D01*
X143045407Y-116746339D01*
X142997774Y-116736214D01*
X142950983Y-116730942D01*
X142916955Y-116719035D01*
X142881872Y-116711578D01*
X142831309Y-116689066D01*
X142781893Y-116671775D01*
X142756173Y-116655614D01*
X142729139Y-116643578D01*
X142678726Y-116606951D01*
X142630208Y-116576465D01*
X142612784Y-116559041D01*
X142593882Y-116545308D01*
X142547154Y-116493411D01*
X142503535Y-116449792D01*
X142493500Y-116433822D01*
X142482013Y-116421064D01*
X142442709Y-116352987D01*
X142408225Y-116298107D01*
X142403919Y-116285803D01*
X142398419Y-116276276D01*
X142370249Y-116189580D01*
X142349058Y-116129017D01*
X142348254Y-116121884D01*
X142346755Y-116117270D01*
X142333165Y-115987966D01*
X142329000Y-115951000D01*
X142333164Y-115914036D01*
X142346755Y-115784729D01*
X142348254Y-115780113D01*
X142349058Y-115772983D01*
X142370245Y-115712432D01*
X142398419Y-115625723D01*
X142403920Y-115616193D01*
X142408225Y-115603893D01*
X142442701Y-115549023D01*
X142482013Y-115480935D01*
X142493502Y-115468174D01*
X142503535Y-115452208D01*
X142547145Y-115408597D01*
X142593882Y-115356691D01*
X142612787Y-115342955D01*
X142630208Y-115325535D01*
X142678721Y-115295052D01*
X142729140Y-115258421D01*
X142756176Y-115246383D01*
X142781893Y-115230225D01*
X142831301Y-115212936D01*
X142881872Y-115190421D01*
X142916961Y-115182962D01*
X142950983Y-115171058D01*
X142997771Y-115165786D01*
X143045407Y-115155661D01*
X143087633Y-115155661D01*
X143129000Y-115151000D01*
X143170367Y-115155661D01*
G37*
G36*
X93861664Y-112602602D02*
G01*
X94024000Y-112674878D01*
X94167761Y-112779327D01*
X94286664Y-112911383D01*
X94375514Y-113065274D01*
X94430425Y-113234275D01*
X94449000Y-113411000D01*
X94430425Y-113587725D01*
X94375514Y-113756726D01*
X94286664Y-113910617D01*
X94167761Y-114042673D01*
X94024000Y-114147122D01*
X93861664Y-114219398D01*
X93687849Y-114256344D01*
X93510151Y-114256344D01*
X93336336Y-114219398D01*
X93174000Y-114147122D01*
X93030239Y-114042673D01*
X92911336Y-113910617D01*
X92822486Y-113756726D01*
X92767575Y-113587725D01*
X92749000Y-113411000D01*
X92767575Y-113234275D01*
X92822486Y-113065274D01*
X92911336Y-112911383D01*
X93030239Y-112779327D01*
X93174000Y-112674878D01*
X93336336Y-112602602D01*
X93510151Y-112565656D01*
X93687849Y-112565656D01*
X93861664Y-112602602D01*
G37*
G36*
X109101664Y-112602602D02*
G01*
X109264000Y-112674878D01*
X109407761Y-112779327D01*
X109526664Y-112911383D01*
X109615514Y-113065274D01*
X109670425Y-113234275D01*
X109689000Y-113411000D01*
X109670425Y-113587725D01*
X109615514Y-113756726D01*
X109526664Y-113910617D01*
X109407761Y-114042673D01*
X109264000Y-114147122D01*
X109101664Y-114219398D01*
X108927849Y-114256344D01*
X108750151Y-114256344D01*
X108576336Y-114219398D01*
X108414000Y-114147122D01*
X108270239Y-114042673D01*
X108151336Y-113910617D01*
X108062486Y-113756726D01*
X108007575Y-113587725D01*
X107989000Y-113411000D01*
X108007575Y-113234275D01*
X108062486Y-113065274D01*
X108151336Y-112911383D01*
X108270239Y-112779327D01*
X108414000Y-112674878D01*
X108576336Y-112602602D01*
X108750151Y-112565656D01*
X108927849Y-112565656D01*
X109101664Y-112602602D01*
G37*
G36*
X127930367Y-112615661D02*
G01*
X127972593Y-112615661D01*
X128020228Y-112625786D01*
X128067017Y-112631058D01*
X128101039Y-112642962D01*
X128136127Y-112650421D01*
X128186695Y-112672935D01*
X128236107Y-112690225D01*
X128261823Y-112706383D01*
X128288860Y-112718421D01*
X128339275Y-112755050D01*
X128387792Y-112785535D01*
X128405214Y-112802957D01*
X128424117Y-112816691D01*
X128470844Y-112868587D01*
X128514465Y-112912208D01*
X128524499Y-112928177D01*
X128535986Y-112940935D01*
X128575285Y-113009003D01*
X128609775Y-113063893D01*
X128614080Y-113076197D01*
X128619580Y-113085723D01*
X128647740Y-113172392D01*
X128668942Y-113232983D01*
X128669746Y-113240118D01*
X128671244Y-113244729D01*
X128684820Y-113373904D01*
X128689000Y-113411000D01*
X128684819Y-113448098D01*
X128671244Y-113577270D01*
X128669746Y-113581879D01*
X128668942Y-113589017D01*
X128647736Y-113649620D01*
X128619580Y-113736276D01*
X128614081Y-113745799D01*
X128609775Y-113758107D01*
X128575278Y-113813007D01*
X128535986Y-113881064D01*
X128524501Y-113893818D01*
X128514465Y-113909792D01*
X128470835Y-113953421D01*
X128424117Y-114005308D01*
X128405218Y-114019038D01*
X128387792Y-114036465D01*
X128339265Y-114066956D01*
X128288860Y-114103578D01*
X128261829Y-114115612D01*
X128236107Y-114131775D01*
X128186685Y-114149068D01*
X128136127Y-114171578D01*
X128101045Y-114179035D01*
X128067017Y-114190942D01*
X128020225Y-114196214D01*
X127972593Y-114206339D01*
X127930367Y-114206339D01*
X127889000Y-114211000D01*
X127847633Y-114206339D01*
X127805407Y-114206339D01*
X127757774Y-114196214D01*
X127710983Y-114190942D01*
X127676955Y-114179035D01*
X127641872Y-114171578D01*
X127591309Y-114149066D01*
X127541893Y-114131775D01*
X127516173Y-114115614D01*
X127489139Y-114103578D01*
X127438726Y-114066951D01*
X127390208Y-114036465D01*
X127372784Y-114019041D01*
X127353882Y-114005308D01*
X127307154Y-113953411D01*
X127263535Y-113909792D01*
X127253500Y-113893822D01*
X127242013Y-113881064D01*
X127202709Y-113812987D01*
X127168225Y-113758107D01*
X127163919Y-113745803D01*
X127158419Y-113736276D01*
X127130249Y-113649580D01*
X127109058Y-113589017D01*
X127108254Y-113581884D01*
X127106755Y-113577270D01*
X127093165Y-113447966D01*
X127089000Y-113411000D01*
X127093164Y-113374036D01*
X127106755Y-113244729D01*
X127108254Y-113240113D01*
X127109058Y-113232983D01*
X127130245Y-113172432D01*
X127158419Y-113085723D01*
X127163920Y-113076193D01*
X127168225Y-113063893D01*
X127202701Y-113009023D01*
X127242013Y-112940935D01*
X127253502Y-112928174D01*
X127263535Y-112912208D01*
X127307145Y-112868597D01*
X127353882Y-112816691D01*
X127372787Y-112802955D01*
X127390208Y-112785535D01*
X127438721Y-112755052D01*
X127489140Y-112718421D01*
X127516176Y-112706383D01*
X127541893Y-112690225D01*
X127591301Y-112672936D01*
X127641872Y-112650421D01*
X127676961Y-112642962D01*
X127710983Y-112631058D01*
X127757771Y-112625786D01*
X127805407Y-112615661D01*
X127847633Y-112615661D01*
X127889000Y-112611000D01*
X127930367Y-112615661D01*
G37*
G36*
X143170367Y-112615661D02*
G01*
X143212593Y-112615661D01*
X143260228Y-112625786D01*
X143307017Y-112631058D01*
X143341039Y-112642962D01*
X143376127Y-112650421D01*
X143426695Y-112672935D01*
X143476107Y-112690225D01*
X143501823Y-112706383D01*
X143528860Y-112718421D01*
X143579275Y-112755050D01*
X143627792Y-112785535D01*
X143645214Y-112802957D01*
X143664117Y-112816691D01*
X143710844Y-112868587D01*
X143754465Y-112912208D01*
X143764499Y-112928177D01*
X143775986Y-112940935D01*
X143815285Y-113009003D01*
X143849775Y-113063893D01*
X143854080Y-113076197D01*
X143859580Y-113085723D01*
X143887740Y-113172392D01*
X143908942Y-113232983D01*
X143909746Y-113240118D01*
X143911244Y-113244729D01*
X143924820Y-113373904D01*
X143929000Y-113411000D01*
X143924819Y-113448098D01*
X143911244Y-113577270D01*
X143909746Y-113581879D01*
X143908942Y-113589017D01*
X143887736Y-113649620D01*
X143859580Y-113736276D01*
X143854081Y-113745799D01*
X143849775Y-113758107D01*
X143815278Y-113813007D01*
X143775986Y-113881064D01*
X143764501Y-113893818D01*
X143754465Y-113909792D01*
X143710835Y-113953421D01*
X143664117Y-114005308D01*
X143645218Y-114019038D01*
X143627792Y-114036465D01*
X143579265Y-114066956D01*
X143528860Y-114103578D01*
X143501829Y-114115612D01*
X143476107Y-114131775D01*
X143426685Y-114149068D01*
X143376127Y-114171578D01*
X143341045Y-114179035D01*
X143307017Y-114190942D01*
X143260225Y-114196214D01*
X143212593Y-114206339D01*
X143170367Y-114206339D01*
X143129000Y-114211000D01*
X143087633Y-114206339D01*
X143045407Y-114206339D01*
X142997774Y-114196214D01*
X142950983Y-114190942D01*
X142916955Y-114179035D01*
X142881872Y-114171578D01*
X142831309Y-114149066D01*
X142781893Y-114131775D01*
X142756173Y-114115614D01*
X142729139Y-114103578D01*
X142678726Y-114066951D01*
X142630208Y-114036465D01*
X142612784Y-114019041D01*
X142593882Y-114005308D01*
X142547154Y-113953411D01*
X142503535Y-113909792D01*
X142493500Y-113893822D01*
X142482013Y-113881064D01*
X142442709Y-113812987D01*
X142408225Y-113758107D01*
X142403919Y-113745803D01*
X142398419Y-113736276D01*
X142370249Y-113649580D01*
X142349058Y-113589017D01*
X142348254Y-113581884D01*
X142346755Y-113577270D01*
X142333165Y-113447966D01*
X142329000Y-113411000D01*
X142333164Y-113374036D01*
X142346755Y-113244729D01*
X142348254Y-113240113D01*
X142349058Y-113232983D01*
X142370245Y-113172432D01*
X142398419Y-113085723D01*
X142403920Y-113076193D01*
X142408225Y-113063893D01*
X142442701Y-113009023D01*
X142482013Y-112940935D01*
X142493502Y-112928174D01*
X142503535Y-112912208D01*
X142547145Y-112868597D01*
X142593882Y-112816691D01*
X142612787Y-112802955D01*
X142630208Y-112785535D01*
X142678721Y-112755052D01*
X142729140Y-112718421D01*
X142756176Y-112706383D01*
X142781893Y-112690225D01*
X142831301Y-112672936D01*
X142881872Y-112650421D01*
X142916961Y-112642962D01*
X142950983Y-112631058D01*
X142997771Y-112625786D01*
X143045407Y-112615661D01*
X143087633Y-112615661D01*
X143129000Y-112611000D01*
X143170367Y-112615661D01*
G37*
G36*
X93861664Y-110062602D02*
G01*
X94024000Y-110134878D01*
X94167761Y-110239327D01*
X94286664Y-110371383D01*
X94375514Y-110525274D01*
X94430425Y-110694275D01*
X94449000Y-110871000D01*
X94430425Y-111047725D01*
X94375514Y-111216726D01*
X94286664Y-111370617D01*
X94167761Y-111502673D01*
X94024000Y-111607122D01*
X93861664Y-111679398D01*
X93687849Y-111716344D01*
X93510151Y-111716344D01*
X93336336Y-111679398D01*
X93174000Y-111607122D01*
X93030239Y-111502673D01*
X92911336Y-111370617D01*
X92822486Y-111216726D01*
X92767575Y-111047725D01*
X92749000Y-110871000D01*
X92767575Y-110694275D01*
X92822486Y-110525274D01*
X92911336Y-110371383D01*
X93030239Y-110239327D01*
X93174000Y-110134878D01*
X93336336Y-110062602D01*
X93510151Y-110025656D01*
X93687849Y-110025656D01*
X93861664Y-110062602D01*
G37*
G36*
X109101664Y-110062602D02*
G01*
X109264000Y-110134878D01*
X109407761Y-110239327D01*
X109526664Y-110371383D01*
X109615514Y-110525274D01*
X109670425Y-110694275D01*
X109689000Y-110871000D01*
X109670425Y-111047725D01*
X109615514Y-111216726D01*
X109526664Y-111370617D01*
X109407761Y-111502673D01*
X109264000Y-111607122D01*
X109101664Y-111679398D01*
X108927849Y-111716344D01*
X108750151Y-111716344D01*
X108576336Y-111679398D01*
X108414000Y-111607122D01*
X108270239Y-111502673D01*
X108151336Y-111370617D01*
X108062486Y-111216726D01*
X108007575Y-111047725D01*
X107989000Y-110871000D01*
X108007575Y-110694275D01*
X108062486Y-110525274D01*
X108151336Y-110371383D01*
X108270239Y-110239327D01*
X108414000Y-110134878D01*
X108576336Y-110062602D01*
X108750151Y-110025656D01*
X108927849Y-110025656D01*
X109101664Y-110062602D01*
G37*
G36*
X127930367Y-110075661D02*
G01*
X127972593Y-110075661D01*
X128020228Y-110085786D01*
X128067017Y-110091058D01*
X128101039Y-110102962D01*
X128136127Y-110110421D01*
X128186695Y-110132935D01*
X128236107Y-110150225D01*
X128261823Y-110166383D01*
X128288860Y-110178421D01*
X128339275Y-110215050D01*
X128387792Y-110245535D01*
X128405214Y-110262957D01*
X128424117Y-110276691D01*
X128470844Y-110328587D01*
X128514465Y-110372208D01*
X128524499Y-110388177D01*
X128535986Y-110400935D01*
X128575285Y-110469003D01*
X128609775Y-110523893D01*
X128614080Y-110536197D01*
X128619580Y-110545723D01*
X128647740Y-110632392D01*
X128668942Y-110692983D01*
X128669746Y-110700118D01*
X128671244Y-110704729D01*
X128684820Y-110833904D01*
X128689000Y-110871000D01*
X128684819Y-110908098D01*
X128671244Y-111037270D01*
X128669746Y-111041879D01*
X128668942Y-111049017D01*
X128647736Y-111109620D01*
X128619580Y-111196276D01*
X128614081Y-111205799D01*
X128609775Y-111218107D01*
X128575278Y-111273007D01*
X128535986Y-111341064D01*
X128524501Y-111353818D01*
X128514465Y-111369792D01*
X128470835Y-111413421D01*
X128424117Y-111465308D01*
X128405218Y-111479038D01*
X128387792Y-111496465D01*
X128339265Y-111526956D01*
X128288860Y-111563578D01*
X128261829Y-111575612D01*
X128236107Y-111591775D01*
X128186685Y-111609068D01*
X128136127Y-111631578D01*
X128101045Y-111639035D01*
X128067017Y-111650942D01*
X128020225Y-111656214D01*
X127972593Y-111666339D01*
X127930367Y-111666339D01*
X127889000Y-111671000D01*
X127847633Y-111666339D01*
X127805407Y-111666339D01*
X127757774Y-111656214D01*
X127710983Y-111650942D01*
X127676955Y-111639035D01*
X127641872Y-111631578D01*
X127591309Y-111609066D01*
X127541893Y-111591775D01*
X127516173Y-111575614D01*
X127489139Y-111563578D01*
X127438726Y-111526951D01*
X127390208Y-111496465D01*
X127372784Y-111479041D01*
X127353882Y-111465308D01*
X127307154Y-111413411D01*
X127263535Y-111369792D01*
X127253500Y-111353822D01*
X127242013Y-111341064D01*
X127202709Y-111272987D01*
X127168225Y-111218107D01*
X127163919Y-111205803D01*
X127158419Y-111196276D01*
X127130249Y-111109580D01*
X127109058Y-111049017D01*
X127108254Y-111041884D01*
X127106755Y-111037270D01*
X127093165Y-110907966D01*
X127089000Y-110871000D01*
X127093164Y-110834036D01*
X127106755Y-110704729D01*
X127108254Y-110700113D01*
X127109058Y-110692983D01*
X127130245Y-110632432D01*
X127158419Y-110545723D01*
X127163920Y-110536193D01*
X127168225Y-110523893D01*
X127202701Y-110469023D01*
X127242013Y-110400935D01*
X127253502Y-110388174D01*
X127263535Y-110372208D01*
X127307145Y-110328597D01*
X127353882Y-110276691D01*
X127372787Y-110262955D01*
X127390208Y-110245535D01*
X127438721Y-110215052D01*
X127489140Y-110178421D01*
X127516176Y-110166383D01*
X127541893Y-110150225D01*
X127591301Y-110132936D01*
X127641872Y-110110421D01*
X127676961Y-110102962D01*
X127710983Y-110091058D01*
X127757771Y-110085786D01*
X127805407Y-110075661D01*
X127847633Y-110075661D01*
X127889000Y-110071000D01*
X127930367Y-110075661D01*
G37*
G36*
X143170367Y-110075661D02*
G01*
X143212593Y-110075661D01*
X143260228Y-110085786D01*
X143307017Y-110091058D01*
X143341039Y-110102962D01*
X143376127Y-110110421D01*
X143426695Y-110132935D01*
X143476107Y-110150225D01*
X143501823Y-110166383D01*
X143528860Y-110178421D01*
X143579275Y-110215050D01*
X143627792Y-110245535D01*
X143645214Y-110262957D01*
X143664117Y-110276691D01*
X143710844Y-110328587D01*
X143754465Y-110372208D01*
X143764499Y-110388177D01*
X143775986Y-110400935D01*
X143815285Y-110469003D01*
X143849775Y-110523893D01*
X143854080Y-110536197D01*
X143859580Y-110545723D01*
X143887740Y-110632392D01*
X143908942Y-110692983D01*
X143909746Y-110700118D01*
X143911244Y-110704729D01*
X143924820Y-110833904D01*
X143929000Y-110871000D01*
X143924819Y-110908098D01*
X143911244Y-111037270D01*
X143909746Y-111041879D01*
X143908942Y-111049017D01*
X143887736Y-111109620D01*
X143859580Y-111196276D01*
X143854081Y-111205799D01*
X143849775Y-111218107D01*
X143815278Y-111273007D01*
X143775986Y-111341064D01*
X143764501Y-111353818D01*
X143754465Y-111369792D01*
X143710835Y-111413421D01*
X143664117Y-111465308D01*
X143645218Y-111479038D01*
X143627792Y-111496465D01*
X143579265Y-111526956D01*
X143528860Y-111563578D01*
X143501829Y-111575612D01*
X143476107Y-111591775D01*
X143426685Y-111609068D01*
X143376127Y-111631578D01*
X143341045Y-111639035D01*
X143307017Y-111650942D01*
X143260225Y-111656214D01*
X143212593Y-111666339D01*
X143170367Y-111666339D01*
X143129000Y-111671000D01*
X143087633Y-111666339D01*
X143045407Y-111666339D01*
X142997774Y-111656214D01*
X142950983Y-111650942D01*
X142916955Y-111639035D01*
X142881872Y-111631578D01*
X142831309Y-111609066D01*
X142781893Y-111591775D01*
X142756173Y-111575614D01*
X142729139Y-111563578D01*
X142678726Y-111526951D01*
X142630208Y-111496465D01*
X142612784Y-111479041D01*
X142593882Y-111465308D01*
X142547154Y-111413411D01*
X142503535Y-111369792D01*
X142493500Y-111353822D01*
X142482013Y-111341064D01*
X142442709Y-111272987D01*
X142408225Y-111218107D01*
X142403919Y-111205803D01*
X142398419Y-111196276D01*
X142370249Y-111109580D01*
X142349058Y-111049017D01*
X142348254Y-111041884D01*
X142346755Y-111037270D01*
X142333165Y-110907966D01*
X142329000Y-110871000D01*
X142333164Y-110834036D01*
X142346755Y-110704729D01*
X142348254Y-110700113D01*
X142349058Y-110692983D01*
X142370245Y-110632432D01*
X142398419Y-110545723D01*
X142403920Y-110536193D01*
X142408225Y-110523893D01*
X142442701Y-110469023D01*
X142482013Y-110400935D01*
X142493502Y-110388174D01*
X142503535Y-110372208D01*
X142547145Y-110328597D01*
X142593882Y-110276691D01*
X142612787Y-110262955D01*
X142630208Y-110245535D01*
X142678721Y-110215052D01*
X142729140Y-110178421D01*
X142756176Y-110166383D01*
X142781893Y-110150225D01*
X142831301Y-110132936D01*
X142881872Y-110110421D01*
X142916961Y-110102962D01*
X142950983Y-110091058D01*
X142997771Y-110085786D01*
X143045407Y-110075661D01*
X143087633Y-110075661D01*
X143129000Y-110071000D01*
X143170367Y-110075661D01*
G37*
G36*
X93861664Y-107522602D02*
G01*
X94024000Y-107594878D01*
X94167761Y-107699327D01*
X94286664Y-107831383D01*
X94375514Y-107985274D01*
X94430425Y-108154275D01*
X94449000Y-108331000D01*
X94430425Y-108507725D01*
X94375514Y-108676726D01*
X94286664Y-108830617D01*
X94167761Y-108962673D01*
X94024000Y-109067122D01*
X93861664Y-109139398D01*
X93687849Y-109176344D01*
X93510151Y-109176344D01*
X93336336Y-109139398D01*
X93174000Y-109067122D01*
X93030239Y-108962673D01*
X92911336Y-108830617D01*
X92822486Y-108676726D01*
X92767575Y-108507725D01*
X92749000Y-108331000D01*
X92767575Y-108154275D01*
X92822486Y-107985274D01*
X92911336Y-107831383D01*
X93030239Y-107699327D01*
X93174000Y-107594878D01*
X93336336Y-107522602D01*
X93510151Y-107485656D01*
X93687849Y-107485656D01*
X93861664Y-107522602D01*
G37*
G36*
X109101664Y-107522602D02*
G01*
X109264000Y-107594878D01*
X109407761Y-107699327D01*
X109526664Y-107831383D01*
X109615514Y-107985274D01*
X109670425Y-108154275D01*
X109689000Y-108331000D01*
X109670425Y-108507725D01*
X109615514Y-108676726D01*
X109526664Y-108830617D01*
X109407761Y-108962673D01*
X109264000Y-109067122D01*
X109101664Y-109139398D01*
X108927849Y-109176344D01*
X108750151Y-109176344D01*
X108576336Y-109139398D01*
X108414000Y-109067122D01*
X108270239Y-108962673D01*
X108151336Y-108830617D01*
X108062486Y-108676726D01*
X108007575Y-108507725D01*
X107989000Y-108331000D01*
X108007575Y-108154275D01*
X108062486Y-107985274D01*
X108151336Y-107831383D01*
X108270239Y-107699327D01*
X108414000Y-107594878D01*
X108576336Y-107522602D01*
X108750151Y-107485656D01*
X108927849Y-107485656D01*
X109101664Y-107522602D01*
G37*
G36*
X127930367Y-107535661D02*
G01*
X127972593Y-107535661D01*
X128020228Y-107545786D01*
X128067017Y-107551058D01*
X128101039Y-107562962D01*
X128136127Y-107570421D01*
X128186695Y-107592935D01*
X128236107Y-107610225D01*
X128261823Y-107626383D01*
X128288860Y-107638421D01*
X128339275Y-107675050D01*
X128387792Y-107705535D01*
X128405214Y-107722957D01*
X128424117Y-107736691D01*
X128470844Y-107788587D01*
X128514465Y-107832208D01*
X128524499Y-107848177D01*
X128535986Y-107860935D01*
X128575285Y-107929003D01*
X128609775Y-107983893D01*
X128614080Y-107996197D01*
X128619580Y-108005723D01*
X128647740Y-108092392D01*
X128668942Y-108152983D01*
X128669746Y-108160118D01*
X128671244Y-108164729D01*
X128684820Y-108293904D01*
X128689000Y-108331000D01*
X128684819Y-108368098D01*
X128671244Y-108497270D01*
X128669746Y-108501879D01*
X128668942Y-108509017D01*
X128647736Y-108569620D01*
X128619580Y-108656276D01*
X128614081Y-108665799D01*
X128609775Y-108678107D01*
X128575278Y-108733007D01*
X128535986Y-108801064D01*
X128524501Y-108813818D01*
X128514465Y-108829792D01*
X128470835Y-108873421D01*
X128424117Y-108925308D01*
X128405218Y-108939038D01*
X128387792Y-108956465D01*
X128339265Y-108986956D01*
X128288860Y-109023578D01*
X128261829Y-109035612D01*
X128236107Y-109051775D01*
X128186685Y-109069068D01*
X128136127Y-109091578D01*
X128101045Y-109099035D01*
X128067017Y-109110942D01*
X128020225Y-109116214D01*
X127972593Y-109126339D01*
X127930367Y-109126339D01*
X127889000Y-109131000D01*
X127847633Y-109126339D01*
X127805407Y-109126339D01*
X127757774Y-109116214D01*
X127710983Y-109110942D01*
X127676955Y-109099035D01*
X127641872Y-109091578D01*
X127591309Y-109069066D01*
X127541893Y-109051775D01*
X127516173Y-109035614D01*
X127489139Y-109023578D01*
X127438726Y-108986951D01*
X127390208Y-108956465D01*
X127372784Y-108939041D01*
X127353882Y-108925308D01*
X127307154Y-108873411D01*
X127263535Y-108829792D01*
X127253500Y-108813822D01*
X127242013Y-108801064D01*
X127202709Y-108732987D01*
X127168225Y-108678107D01*
X127163919Y-108665803D01*
X127158419Y-108656276D01*
X127130249Y-108569580D01*
X127109058Y-108509017D01*
X127108254Y-108501884D01*
X127106755Y-108497270D01*
X127093165Y-108367966D01*
X127089000Y-108331000D01*
X127093164Y-108294036D01*
X127106755Y-108164729D01*
X127108254Y-108160113D01*
X127109058Y-108152983D01*
X127130245Y-108092432D01*
X127158419Y-108005723D01*
X127163920Y-107996193D01*
X127168225Y-107983893D01*
X127202701Y-107929023D01*
X127242013Y-107860935D01*
X127253502Y-107848174D01*
X127263535Y-107832208D01*
X127307145Y-107788597D01*
X127353882Y-107736691D01*
X127372787Y-107722955D01*
X127390208Y-107705535D01*
X127438721Y-107675052D01*
X127489140Y-107638421D01*
X127516176Y-107626383D01*
X127541893Y-107610225D01*
X127591301Y-107592936D01*
X127641872Y-107570421D01*
X127676961Y-107562962D01*
X127710983Y-107551058D01*
X127757771Y-107545786D01*
X127805407Y-107535661D01*
X127847633Y-107535661D01*
X127889000Y-107531000D01*
X127930367Y-107535661D01*
G37*
G36*
X143170367Y-107535661D02*
G01*
X143212593Y-107535661D01*
X143260228Y-107545786D01*
X143307017Y-107551058D01*
X143341039Y-107562962D01*
X143376127Y-107570421D01*
X143426695Y-107592935D01*
X143476107Y-107610225D01*
X143501823Y-107626383D01*
X143528860Y-107638421D01*
X143579275Y-107675050D01*
X143627792Y-107705535D01*
X143645214Y-107722957D01*
X143664117Y-107736691D01*
X143710844Y-107788587D01*
X143754465Y-107832208D01*
X143764499Y-107848177D01*
X143775986Y-107860935D01*
X143815285Y-107929003D01*
X143849775Y-107983893D01*
X143854080Y-107996197D01*
X143859580Y-108005723D01*
X143887740Y-108092392D01*
X143908942Y-108152983D01*
X143909746Y-108160118D01*
X143911244Y-108164729D01*
X143924820Y-108293904D01*
X143929000Y-108331000D01*
X143924819Y-108368098D01*
X143911244Y-108497270D01*
X143909746Y-108501879D01*
X143908942Y-108509017D01*
X143887736Y-108569620D01*
X143859580Y-108656276D01*
X143854081Y-108665799D01*
X143849775Y-108678107D01*
X143815278Y-108733007D01*
X143775986Y-108801064D01*
X143764501Y-108813818D01*
X143754465Y-108829792D01*
X143710835Y-108873421D01*
X143664117Y-108925308D01*
X143645218Y-108939038D01*
X143627792Y-108956465D01*
X143579265Y-108986956D01*
X143528860Y-109023578D01*
X143501829Y-109035612D01*
X143476107Y-109051775D01*
X143426685Y-109069068D01*
X143376127Y-109091578D01*
X143341045Y-109099035D01*
X143307017Y-109110942D01*
X143260225Y-109116214D01*
X143212593Y-109126339D01*
X143170367Y-109126339D01*
X143129000Y-109131000D01*
X143087633Y-109126339D01*
X143045407Y-109126339D01*
X142997774Y-109116214D01*
X142950983Y-109110942D01*
X142916955Y-109099035D01*
X142881872Y-109091578D01*
X142831309Y-109069066D01*
X142781893Y-109051775D01*
X142756173Y-109035614D01*
X142729139Y-109023578D01*
X142678726Y-108986951D01*
X142630208Y-108956465D01*
X142612784Y-108939041D01*
X142593882Y-108925308D01*
X142547154Y-108873411D01*
X142503535Y-108829792D01*
X142493500Y-108813822D01*
X142482013Y-108801064D01*
X142442709Y-108732987D01*
X142408225Y-108678107D01*
X142403919Y-108665803D01*
X142398419Y-108656276D01*
X142370249Y-108569580D01*
X142349058Y-108509017D01*
X142348254Y-108501884D01*
X142346755Y-108497270D01*
X142333165Y-108367966D01*
X142329000Y-108331000D01*
X142333164Y-108294036D01*
X142346755Y-108164729D01*
X142348254Y-108160113D01*
X142349058Y-108152983D01*
X142370245Y-108092432D01*
X142398419Y-108005723D01*
X142403920Y-107996193D01*
X142408225Y-107983893D01*
X142442701Y-107929023D01*
X142482013Y-107860935D01*
X142493502Y-107848174D01*
X142503535Y-107832208D01*
X142547145Y-107788597D01*
X142593882Y-107736691D01*
X142612787Y-107722955D01*
X142630208Y-107705535D01*
X142678721Y-107675052D01*
X142729140Y-107638421D01*
X142756176Y-107626383D01*
X142781893Y-107610225D01*
X142831301Y-107592936D01*
X142881872Y-107570421D01*
X142916961Y-107562962D01*
X142950983Y-107551058D01*
X142997771Y-107545786D01*
X143045407Y-107535661D01*
X143087633Y-107535661D01*
X143129000Y-107531000D01*
X143170367Y-107535661D01*
G37*
G36*
X93861664Y-104982602D02*
G01*
X94024000Y-105054878D01*
X94167761Y-105159327D01*
X94286664Y-105291383D01*
X94375514Y-105445274D01*
X94430425Y-105614275D01*
X94449000Y-105791000D01*
X94430425Y-105967725D01*
X94375514Y-106136726D01*
X94286664Y-106290617D01*
X94167761Y-106422673D01*
X94024000Y-106527122D01*
X93861664Y-106599398D01*
X93687849Y-106636344D01*
X93510151Y-106636344D01*
X93336336Y-106599398D01*
X93174000Y-106527122D01*
X93030239Y-106422673D01*
X92911336Y-106290617D01*
X92822486Y-106136726D01*
X92767575Y-105967725D01*
X92749000Y-105791000D01*
X92767575Y-105614275D01*
X92822486Y-105445274D01*
X92911336Y-105291383D01*
X93030239Y-105159327D01*
X93174000Y-105054878D01*
X93336336Y-104982602D01*
X93510151Y-104945656D01*
X93687849Y-104945656D01*
X93861664Y-104982602D01*
G37*
G36*
X109101664Y-104982602D02*
G01*
X109264000Y-105054878D01*
X109407761Y-105159327D01*
X109526664Y-105291383D01*
X109615514Y-105445274D01*
X109670425Y-105614275D01*
X109689000Y-105791000D01*
X109670425Y-105967725D01*
X109615514Y-106136726D01*
X109526664Y-106290617D01*
X109407761Y-106422673D01*
X109264000Y-106527122D01*
X109101664Y-106599398D01*
X108927849Y-106636344D01*
X108750151Y-106636344D01*
X108576336Y-106599398D01*
X108414000Y-106527122D01*
X108270239Y-106422673D01*
X108151336Y-106290617D01*
X108062486Y-106136726D01*
X108007575Y-105967725D01*
X107989000Y-105791000D01*
X108007575Y-105614275D01*
X108062486Y-105445274D01*
X108151336Y-105291383D01*
X108270239Y-105159327D01*
X108414000Y-105054878D01*
X108576336Y-104982602D01*
X108750151Y-104945656D01*
X108927849Y-104945656D01*
X109101664Y-104982602D01*
G37*
G36*
X127930367Y-104995661D02*
G01*
X127972593Y-104995661D01*
X128020228Y-105005786D01*
X128067017Y-105011058D01*
X128101039Y-105022962D01*
X128136127Y-105030421D01*
X128186695Y-105052935D01*
X128236107Y-105070225D01*
X128261823Y-105086383D01*
X128288860Y-105098421D01*
X128339275Y-105135050D01*
X128387792Y-105165535D01*
X128405214Y-105182957D01*
X128424117Y-105196691D01*
X128470844Y-105248587D01*
X128514465Y-105292208D01*
X128524499Y-105308177D01*
X128535986Y-105320935D01*
X128575285Y-105389003D01*
X128609775Y-105443893D01*
X128614080Y-105456197D01*
X128619580Y-105465723D01*
X128647740Y-105552392D01*
X128668942Y-105612983D01*
X128669746Y-105620118D01*
X128671244Y-105624729D01*
X128684820Y-105753904D01*
X128689000Y-105791000D01*
X128684819Y-105828098D01*
X128671244Y-105957270D01*
X128669746Y-105961879D01*
X128668942Y-105969017D01*
X128647736Y-106029620D01*
X128619580Y-106116276D01*
X128614081Y-106125799D01*
X128609775Y-106138107D01*
X128575278Y-106193007D01*
X128535986Y-106261064D01*
X128524501Y-106273818D01*
X128514465Y-106289792D01*
X128470835Y-106333421D01*
X128424117Y-106385308D01*
X128405218Y-106399038D01*
X128387792Y-106416465D01*
X128339265Y-106446956D01*
X128288860Y-106483578D01*
X128261829Y-106495612D01*
X128236107Y-106511775D01*
X128186685Y-106529068D01*
X128136127Y-106551578D01*
X128101045Y-106559035D01*
X128067017Y-106570942D01*
X128020225Y-106576214D01*
X127972593Y-106586339D01*
X127930367Y-106586339D01*
X127889000Y-106591000D01*
X127847633Y-106586339D01*
X127805407Y-106586339D01*
X127757774Y-106576214D01*
X127710983Y-106570942D01*
X127676955Y-106559035D01*
X127641872Y-106551578D01*
X127591309Y-106529066D01*
X127541893Y-106511775D01*
X127516173Y-106495614D01*
X127489139Y-106483578D01*
X127438726Y-106446951D01*
X127390208Y-106416465D01*
X127372784Y-106399041D01*
X127353882Y-106385308D01*
X127307154Y-106333411D01*
X127263535Y-106289792D01*
X127253500Y-106273822D01*
X127242013Y-106261064D01*
X127202709Y-106192987D01*
X127168225Y-106138107D01*
X127163919Y-106125803D01*
X127158419Y-106116276D01*
X127130249Y-106029580D01*
X127109058Y-105969017D01*
X127108254Y-105961884D01*
X127106755Y-105957270D01*
X127093165Y-105827966D01*
X127089000Y-105791000D01*
X127093164Y-105754036D01*
X127106755Y-105624729D01*
X127108254Y-105620113D01*
X127109058Y-105612983D01*
X127130245Y-105552432D01*
X127158419Y-105465723D01*
X127163920Y-105456193D01*
X127168225Y-105443893D01*
X127202701Y-105389023D01*
X127242013Y-105320935D01*
X127253502Y-105308174D01*
X127263535Y-105292208D01*
X127307145Y-105248597D01*
X127353882Y-105196691D01*
X127372787Y-105182955D01*
X127390208Y-105165535D01*
X127438721Y-105135052D01*
X127489140Y-105098421D01*
X127516176Y-105086383D01*
X127541893Y-105070225D01*
X127591301Y-105052936D01*
X127641872Y-105030421D01*
X127676961Y-105022962D01*
X127710983Y-105011058D01*
X127757771Y-105005786D01*
X127805407Y-104995661D01*
X127847633Y-104995661D01*
X127889000Y-104991000D01*
X127930367Y-104995661D01*
G37*
G36*
X143170367Y-104995661D02*
G01*
X143212593Y-104995661D01*
X143260228Y-105005786D01*
X143307017Y-105011058D01*
X143341039Y-105022962D01*
X143376127Y-105030421D01*
X143426695Y-105052935D01*
X143476107Y-105070225D01*
X143501823Y-105086383D01*
X143528860Y-105098421D01*
X143579275Y-105135050D01*
X143627792Y-105165535D01*
X143645214Y-105182957D01*
X143664117Y-105196691D01*
X143710844Y-105248587D01*
X143754465Y-105292208D01*
X143764499Y-105308177D01*
X143775986Y-105320935D01*
X143815285Y-105389003D01*
X143849775Y-105443893D01*
X143854080Y-105456197D01*
X143859580Y-105465723D01*
X143887740Y-105552392D01*
X143908942Y-105612983D01*
X143909746Y-105620118D01*
X143911244Y-105624729D01*
X143924820Y-105753904D01*
X143929000Y-105791000D01*
X143924819Y-105828098D01*
X143911244Y-105957270D01*
X143909746Y-105961879D01*
X143908942Y-105969017D01*
X143887736Y-106029620D01*
X143859580Y-106116276D01*
X143854081Y-106125799D01*
X143849775Y-106138107D01*
X143815278Y-106193007D01*
X143775986Y-106261064D01*
X143764501Y-106273818D01*
X143754465Y-106289792D01*
X143710835Y-106333421D01*
X143664117Y-106385308D01*
X143645218Y-106399038D01*
X143627792Y-106416465D01*
X143579265Y-106446956D01*
X143528860Y-106483578D01*
X143501829Y-106495612D01*
X143476107Y-106511775D01*
X143426685Y-106529068D01*
X143376127Y-106551578D01*
X143341045Y-106559035D01*
X143307017Y-106570942D01*
X143260225Y-106576214D01*
X143212593Y-106586339D01*
X143170367Y-106586339D01*
X143129000Y-106591000D01*
X143087633Y-106586339D01*
X143045407Y-106586339D01*
X142997774Y-106576214D01*
X142950983Y-106570942D01*
X142916955Y-106559035D01*
X142881872Y-106551578D01*
X142831309Y-106529066D01*
X142781893Y-106511775D01*
X142756173Y-106495614D01*
X142729139Y-106483578D01*
X142678726Y-106446951D01*
X142630208Y-106416465D01*
X142612784Y-106399041D01*
X142593882Y-106385308D01*
X142547154Y-106333411D01*
X142503535Y-106289792D01*
X142493500Y-106273822D01*
X142482013Y-106261064D01*
X142442709Y-106192987D01*
X142408225Y-106138107D01*
X142403919Y-106125803D01*
X142398419Y-106116276D01*
X142370249Y-106029580D01*
X142349058Y-105969017D01*
X142348254Y-105961884D01*
X142346755Y-105957270D01*
X142333165Y-105827966D01*
X142329000Y-105791000D01*
X142333164Y-105754036D01*
X142346755Y-105624729D01*
X142348254Y-105620113D01*
X142349058Y-105612983D01*
X142370245Y-105552432D01*
X142398419Y-105465723D01*
X142403920Y-105456193D01*
X142408225Y-105443893D01*
X142442701Y-105389023D01*
X142482013Y-105320935D01*
X142493502Y-105308174D01*
X142503535Y-105292208D01*
X142547145Y-105248597D01*
X142593882Y-105196691D01*
X142612787Y-105182955D01*
X142630208Y-105165535D01*
X142678721Y-105135052D01*
X142729140Y-105098421D01*
X142756176Y-105086383D01*
X142781893Y-105070225D01*
X142831301Y-105052936D01*
X142881872Y-105030421D01*
X142916961Y-105022962D01*
X142950983Y-105011058D01*
X142997771Y-105005786D01*
X143045407Y-104995661D01*
X143087633Y-104995661D01*
X143129000Y-104991000D01*
X143170367Y-104995661D01*
G37*
G36*
X149490800Y-105371000D02*
G01*
X147790800Y-105371000D01*
X147790800Y-103671000D01*
X149490800Y-103671000D01*
X149490800Y-105371000D01*
G37*
G36*
X151443464Y-103712602D02*
G01*
X151605800Y-103784878D01*
X151749561Y-103889327D01*
X151868464Y-104021383D01*
X151957314Y-104175274D01*
X152012225Y-104344275D01*
X152030800Y-104521000D01*
X152012225Y-104697725D01*
X151957314Y-104866726D01*
X151868464Y-105020617D01*
X151749561Y-105152673D01*
X151605800Y-105257122D01*
X151443464Y-105329398D01*
X151269649Y-105366344D01*
X151091951Y-105366344D01*
X150918136Y-105329398D01*
X150755800Y-105257122D01*
X150612039Y-105152673D01*
X150493136Y-105020617D01*
X150404286Y-104866726D01*
X150349375Y-104697725D01*
X150330800Y-104521000D01*
X150349375Y-104344275D01*
X150404286Y-104175274D01*
X150493136Y-104021383D01*
X150612039Y-103889327D01*
X150755800Y-103784878D01*
X150918136Y-103712602D01*
X151091951Y-103675656D01*
X151269649Y-103675656D01*
X151443464Y-103712602D01*
G37*
G36*
X93861664Y-102442602D02*
G01*
X94024000Y-102514878D01*
X94167761Y-102619327D01*
X94286664Y-102751383D01*
X94375514Y-102905274D01*
X94430425Y-103074275D01*
X94449000Y-103251000D01*
X94430425Y-103427725D01*
X94375514Y-103596726D01*
X94286664Y-103750617D01*
X94167761Y-103882673D01*
X94024000Y-103987122D01*
X93861664Y-104059398D01*
X93687849Y-104096344D01*
X93510151Y-104096344D01*
X93336336Y-104059398D01*
X93174000Y-103987122D01*
X93030239Y-103882673D01*
X92911336Y-103750617D01*
X92822486Y-103596726D01*
X92767575Y-103427725D01*
X92749000Y-103251000D01*
X92767575Y-103074275D01*
X92822486Y-102905274D01*
X92911336Y-102751383D01*
X93030239Y-102619327D01*
X93174000Y-102514878D01*
X93336336Y-102442602D01*
X93510151Y-102405656D01*
X93687849Y-102405656D01*
X93861664Y-102442602D01*
G37*
G36*
X109101664Y-102442602D02*
G01*
X109264000Y-102514878D01*
X109407761Y-102619327D01*
X109526664Y-102751383D01*
X109615514Y-102905274D01*
X109670425Y-103074275D01*
X109689000Y-103251000D01*
X109670425Y-103427725D01*
X109615514Y-103596726D01*
X109526664Y-103750617D01*
X109407761Y-103882673D01*
X109264000Y-103987122D01*
X109101664Y-104059398D01*
X108927849Y-104096344D01*
X108750151Y-104096344D01*
X108576336Y-104059398D01*
X108414000Y-103987122D01*
X108270239Y-103882673D01*
X108151336Y-103750617D01*
X108062486Y-103596726D01*
X108007575Y-103427725D01*
X107989000Y-103251000D01*
X108007575Y-103074275D01*
X108062486Y-102905274D01*
X108151336Y-102751383D01*
X108270239Y-102619327D01*
X108414000Y-102514878D01*
X108576336Y-102442602D01*
X108750151Y-102405656D01*
X108927849Y-102405656D01*
X109101664Y-102442602D01*
G37*
G36*
X127930367Y-102455661D02*
G01*
X127972593Y-102455661D01*
X128020228Y-102465786D01*
X128067017Y-102471058D01*
X128101039Y-102482962D01*
X128136127Y-102490421D01*
X128186695Y-102512935D01*
X128236107Y-102530225D01*
X128261823Y-102546383D01*
X128288860Y-102558421D01*
X128339275Y-102595050D01*
X128387792Y-102625535D01*
X128405214Y-102642957D01*
X128424117Y-102656691D01*
X128470844Y-102708587D01*
X128514465Y-102752208D01*
X128524499Y-102768177D01*
X128535986Y-102780935D01*
X128575285Y-102849003D01*
X128609775Y-102903893D01*
X128614080Y-102916197D01*
X128619580Y-102925723D01*
X128647740Y-103012392D01*
X128668942Y-103072983D01*
X128669746Y-103080118D01*
X128671244Y-103084729D01*
X128684820Y-103213904D01*
X128689000Y-103251000D01*
X128684819Y-103288098D01*
X128671244Y-103417270D01*
X128669746Y-103421879D01*
X128668942Y-103429017D01*
X128647736Y-103489620D01*
X128619580Y-103576276D01*
X128614081Y-103585799D01*
X128609775Y-103598107D01*
X128575278Y-103653007D01*
X128535986Y-103721064D01*
X128524501Y-103733818D01*
X128514465Y-103749792D01*
X128470835Y-103793421D01*
X128424117Y-103845308D01*
X128405218Y-103859038D01*
X128387792Y-103876465D01*
X128339265Y-103906956D01*
X128288860Y-103943578D01*
X128261829Y-103955612D01*
X128236107Y-103971775D01*
X128186685Y-103989068D01*
X128136127Y-104011578D01*
X128101045Y-104019035D01*
X128067017Y-104030942D01*
X128020225Y-104036214D01*
X127972593Y-104046339D01*
X127930367Y-104046339D01*
X127889000Y-104051000D01*
X127847633Y-104046339D01*
X127805407Y-104046339D01*
X127757774Y-104036214D01*
X127710983Y-104030942D01*
X127676955Y-104019035D01*
X127641872Y-104011578D01*
X127591309Y-103989066D01*
X127541893Y-103971775D01*
X127516173Y-103955614D01*
X127489139Y-103943578D01*
X127438726Y-103906951D01*
X127390208Y-103876465D01*
X127372784Y-103859041D01*
X127353882Y-103845308D01*
X127307154Y-103793411D01*
X127263535Y-103749792D01*
X127253500Y-103733822D01*
X127242013Y-103721064D01*
X127202709Y-103652987D01*
X127168225Y-103598107D01*
X127163919Y-103585803D01*
X127158419Y-103576276D01*
X127130249Y-103489580D01*
X127109058Y-103429017D01*
X127108254Y-103421884D01*
X127106755Y-103417270D01*
X127093165Y-103287966D01*
X127089000Y-103251000D01*
X127093164Y-103214036D01*
X127106755Y-103084729D01*
X127108254Y-103080113D01*
X127109058Y-103072983D01*
X127130245Y-103012432D01*
X127158419Y-102925723D01*
X127163920Y-102916193D01*
X127168225Y-102903893D01*
X127202701Y-102849023D01*
X127242013Y-102780935D01*
X127253502Y-102768174D01*
X127263535Y-102752208D01*
X127307145Y-102708597D01*
X127353882Y-102656691D01*
X127372787Y-102642955D01*
X127390208Y-102625535D01*
X127438721Y-102595052D01*
X127489140Y-102558421D01*
X127516176Y-102546383D01*
X127541893Y-102530225D01*
X127591301Y-102512936D01*
X127641872Y-102490421D01*
X127676961Y-102482962D01*
X127710983Y-102471058D01*
X127757771Y-102465786D01*
X127805407Y-102455661D01*
X127847633Y-102455661D01*
X127889000Y-102451000D01*
X127930367Y-102455661D01*
G37*
G36*
X143170367Y-102455661D02*
G01*
X143212593Y-102455661D01*
X143260228Y-102465786D01*
X143307017Y-102471058D01*
X143341039Y-102482962D01*
X143376127Y-102490421D01*
X143426695Y-102512935D01*
X143476107Y-102530225D01*
X143501823Y-102546383D01*
X143528860Y-102558421D01*
X143579275Y-102595050D01*
X143627792Y-102625535D01*
X143645214Y-102642957D01*
X143664117Y-102656691D01*
X143710844Y-102708587D01*
X143754465Y-102752208D01*
X143764499Y-102768177D01*
X143775986Y-102780935D01*
X143815285Y-102849003D01*
X143849775Y-102903893D01*
X143854080Y-102916197D01*
X143859580Y-102925723D01*
X143887740Y-103012392D01*
X143908942Y-103072983D01*
X143909746Y-103080118D01*
X143911244Y-103084729D01*
X143924820Y-103213904D01*
X143929000Y-103251000D01*
X143924819Y-103288098D01*
X143911244Y-103417270D01*
X143909746Y-103421879D01*
X143908942Y-103429017D01*
X143887736Y-103489620D01*
X143859580Y-103576276D01*
X143854081Y-103585799D01*
X143849775Y-103598107D01*
X143815278Y-103653007D01*
X143775986Y-103721064D01*
X143764501Y-103733818D01*
X143754465Y-103749792D01*
X143710835Y-103793421D01*
X143664117Y-103845308D01*
X143645218Y-103859038D01*
X143627792Y-103876465D01*
X143579265Y-103906956D01*
X143528860Y-103943578D01*
X143501829Y-103955612D01*
X143476107Y-103971775D01*
X143426685Y-103989068D01*
X143376127Y-104011578D01*
X143341045Y-104019035D01*
X143307017Y-104030942D01*
X143260225Y-104036214D01*
X143212593Y-104046339D01*
X143170367Y-104046339D01*
X143129000Y-104051000D01*
X143087633Y-104046339D01*
X143045407Y-104046339D01*
X142997774Y-104036214D01*
X142950983Y-104030942D01*
X142916955Y-104019035D01*
X142881872Y-104011578D01*
X142831309Y-103989066D01*
X142781893Y-103971775D01*
X142756173Y-103955614D01*
X142729139Y-103943578D01*
X142678726Y-103906951D01*
X142630208Y-103876465D01*
X142612784Y-103859041D01*
X142593882Y-103845308D01*
X142547154Y-103793411D01*
X142503535Y-103749792D01*
X142493500Y-103733822D01*
X142482013Y-103721064D01*
X142442709Y-103652987D01*
X142408225Y-103598107D01*
X142403919Y-103585803D01*
X142398419Y-103576276D01*
X142370249Y-103489580D01*
X142349058Y-103429017D01*
X142348254Y-103421884D01*
X142346755Y-103417270D01*
X142333165Y-103287966D01*
X142329000Y-103251000D01*
X142333164Y-103214036D01*
X142346755Y-103084729D01*
X142348254Y-103080113D01*
X142349058Y-103072983D01*
X142370245Y-103012432D01*
X142398419Y-102925723D01*
X142403920Y-102916193D01*
X142408225Y-102903893D01*
X142442701Y-102849023D01*
X142482013Y-102780935D01*
X142493502Y-102768174D01*
X142503535Y-102752208D01*
X142547145Y-102708597D01*
X142593882Y-102656691D01*
X142612787Y-102642955D01*
X142630208Y-102625535D01*
X142678721Y-102595052D01*
X142729140Y-102558421D01*
X142756176Y-102546383D01*
X142781893Y-102530225D01*
X142831301Y-102512936D01*
X142881872Y-102490421D01*
X142916961Y-102482962D01*
X142950983Y-102471058D01*
X142997771Y-102465786D01*
X143045407Y-102455661D01*
X143087633Y-102455661D01*
X143129000Y-102451000D01*
X143170367Y-102455661D01*
G37*
G36*
X93861664Y-99902602D02*
G01*
X94024000Y-99974878D01*
X94167761Y-100079327D01*
X94286664Y-100211383D01*
X94375514Y-100365274D01*
X94430425Y-100534275D01*
X94449000Y-100711000D01*
X94430425Y-100887725D01*
X94375514Y-101056726D01*
X94286664Y-101210617D01*
X94167761Y-101342673D01*
X94024000Y-101447122D01*
X93861664Y-101519398D01*
X93687849Y-101556344D01*
X93510151Y-101556344D01*
X93336336Y-101519398D01*
X93174000Y-101447122D01*
X93030239Y-101342673D01*
X92911336Y-101210617D01*
X92822486Y-101056726D01*
X92767575Y-100887725D01*
X92749000Y-100711000D01*
X92767575Y-100534275D01*
X92822486Y-100365274D01*
X92911336Y-100211383D01*
X93030239Y-100079327D01*
X93174000Y-99974878D01*
X93336336Y-99902602D01*
X93510151Y-99865656D01*
X93687849Y-99865656D01*
X93861664Y-99902602D01*
G37*
G36*
X109101664Y-99902602D02*
G01*
X109264000Y-99974878D01*
X109407761Y-100079327D01*
X109526664Y-100211383D01*
X109615514Y-100365274D01*
X109670425Y-100534275D01*
X109689000Y-100711000D01*
X109670425Y-100887725D01*
X109615514Y-101056726D01*
X109526664Y-101210617D01*
X109407761Y-101342673D01*
X109264000Y-101447122D01*
X109101664Y-101519398D01*
X108927849Y-101556344D01*
X108750151Y-101556344D01*
X108576336Y-101519398D01*
X108414000Y-101447122D01*
X108270239Y-101342673D01*
X108151336Y-101210617D01*
X108062486Y-101056726D01*
X108007575Y-100887725D01*
X107989000Y-100711000D01*
X108007575Y-100534275D01*
X108062486Y-100365274D01*
X108151336Y-100211383D01*
X108270239Y-100079327D01*
X108414000Y-99974878D01*
X108576336Y-99902602D01*
X108750151Y-99865656D01*
X108927849Y-99865656D01*
X109101664Y-99902602D01*
G37*
G36*
X127930367Y-99915661D02*
G01*
X127972593Y-99915661D01*
X128020228Y-99925786D01*
X128067017Y-99931058D01*
X128101039Y-99942962D01*
X128136127Y-99950421D01*
X128186695Y-99972935D01*
X128236107Y-99990225D01*
X128261823Y-100006383D01*
X128288860Y-100018421D01*
X128339275Y-100055050D01*
X128387792Y-100085535D01*
X128405214Y-100102957D01*
X128424117Y-100116691D01*
X128470844Y-100168587D01*
X128514465Y-100212208D01*
X128524499Y-100228177D01*
X128535986Y-100240935D01*
X128575285Y-100309003D01*
X128609775Y-100363893D01*
X128614080Y-100376197D01*
X128619580Y-100385723D01*
X128647740Y-100472392D01*
X128668942Y-100532983D01*
X128669746Y-100540118D01*
X128671244Y-100544729D01*
X128684820Y-100673904D01*
X128689000Y-100711000D01*
X128684819Y-100748098D01*
X128671244Y-100877270D01*
X128669746Y-100881879D01*
X128668942Y-100889017D01*
X128647736Y-100949620D01*
X128619580Y-101036276D01*
X128614081Y-101045799D01*
X128609775Y-101058107D01*
X128575278Y-101113007D01*
X128535986Y-101181064D01*
X128524501Y-101193818D01*
X128514465Y-101209792D01*
X128470835Y-101253421D01*
X128424117Y-101305308D01*
X128405218Y-101319038D01*
X128387792Y-101336465D01*
X128339265Y-101366956D01*
X128288860Y-101403578D01*
X128261829Y-101415612D01*
X128236107Y-101431775D01*
X128186685Y-101449068D01*
X128136127Y-101471578D01*
X128101045Y-101479035D01*
X128067017Y-101490942D01*
X128020225Y-101496214D01*
X127972593Y-101506339D01*
X127930367Y-101506339D01*
X127889000Y-101511000D01*
X127847633Y-101506339D01*
X127805407Y-101506339D01*
X127757774Y-101496214D01*
X127710983Y-101490942D01*
X127676955Y-101479035D01*
X127641872Y-101471578D01*
X127591309Y-101449066D01*
X127541893Y-101431775D01*
X127516173Y-101415614D01*
X127489139Y-101403578D01*
X127438726Y-101366951D01*
X127390208Y-101336465D01*
X127372784Y-101319041D01*
X127353882Y-101305308D01*
X127307154Y-101253411D01*
X127263535Y-101209792D01*
X127253500Y-101193822D01*
X127242013Y-101181064D01*
X127202709Y-101112987D01*
X127168225Y-101058107D01*
X127163919Y-101045803D01*
X127158419Y-101036276D01*
X127130249Y-100949580D01*
X127109058Y-100889017D01*
X127108254Y-100881884D01*
X127106755Y-100877270D01*
X127093165Y-100747966D01*
X127089000Y-100711000D01*
X127093164Y-100674036D01*
X127106755Y-100544729D01*
X127108254Y-100540113D01*
X127109058Y-100532983D01*
X127130245Y-100472432D01*
X127158419Y-100385723D01*
X127163920Y-100376193D01*
X127168225Y-100363893D01*
X127202701Y-100309023D01*
X127242013Y-100240935D01*
X127253502Y-100228174D01*
X127263535Y-100212208D01*
X127307145Y-100168597D01*
X127353882Y-100116691D01*
X127372787Y-100102955D01*
X127390208Y-100085535D01*
X127438721Y-100055052D01*
X127489140Y-100018421D01*
X127516176Y-100006383D01*
X127541893Y-99990225D01*
X127591301Y-99972936D01*
X127641872Y-99950421D01*
X127676961Y-99942962D01*
X127710983Y-99931058D01*
X127757771Y-99925786D01*
X127805407Y-99915661D01*
X127847633Y-99915661D01*
X127889000Y-99911000D01*
X127930367Y-99915661D01*
G37*
G36*
X143170367Y-99915661D02*
G01*
X143212593Y-99915661D01*
X143260228Y-99925786D01*
X143307017Y-99931058D01*
X143341039Y-99942962D01*
X143376127Y-99950421D01*
X143426695Y-99972935D01*
X143476107Y-99990225D01*
X143501823Y-100006383D01*
X143528860Y-100018421D01*
X143579275Y-100055050D01*
X143627792Y-100085535D01*
X143645214Y-100102957D01*
X143664117Y-100116691D01*
X143710844Y-100168587D01*
X143754465Y-100212208D01*
X143764499Y-100228177D01*
X143775986Y-100240935D01*
X143815285Y-100309003D01*
X143849775Y-100363893D01*
X143854080Y-100376197D01*
X143859580Y-100385723D01*
X143887740Y-100472392D01*
X143908942Y-100532983D01*
X143909746Y-100540118D01*
X143911244Y-100544729D01*
X143924820Y-100673904D01*
X143929000Y-100711000D01*
X143924819Y-100748098D01*
X143911244Y-100877270D01*
X143909746Y-100881879D01*
X143908942Y-100889017D01*
X143887736Y-100949620D01*
X143859580Y-101036276D01*
X143854081Y-101045799D01*
X143849775Y-101058107D01*
X143815278Y-101113007D01*
X143775986Y-101181064D01*
X143764501Y-101193818D01*
X143754465Y-101209792D01*
X143710835Y-101253421D01*
X143664117Y-101305308D01*
X143645218Y-101319038D01*
X143627792Y-101336465D01*
X143579265Y-101366956D01*
X143528860Y-101403578D01*
X143501829Y-101415612D01*
X143476107Y-101431775D01*
X143426685Y-101449068D01*
X143376127Y-101471578D01*
X143341045Y-101479035D01*
X143307017Y-101490942D01*
X143260225Y-101496214D01*
X143212593Y-101506339D01*
X143170367Y-101506339D01*
X143129000Y-101511000D01*
X143087633Y-101506339D01*
X143045407Y-101506339D01*
X142997774Y-101496214D01*
X142950983Y-101490942D01*
X142916955Y-101479035D01*
X142881872Y-101471578D01*
X142831309Y-101449066D01*
X142781893Y-101431775D01*
X142756173Y-101415614D01*
X142729139Y-101403578D01*
X142678726Y-101366951D01*
X142630208Y-101336465D01*
X142612784Y-101319041D01*
X142593882Y-101305308D01*
X142547154Y-101253411D01*
X142503535Y-101209792D01*
X142493500Y-101193822D01*
X142482013Y-101181064D01*
X142442709Y-101112987D01*
X142408225Y-101058107D01*
X142403919Y-101045803D01*
X142398419Y-101036276D01*
X142370249Y-100949580D01*
X142349058Y-100889017D01*
X142348254Y-100881884D01*
X142346755Y-100877270D01*
X142333165Y-100747966D01*
X142329000Y-100711000D01*
X142333164Y-100674036D01*
X142346755Y-100544729D01*
X142348254Y-100540113D01*
X142349058Y-100532983D01*
X142370245Y-100472432D01*
X142398419Y-100385723D01*
X142403920Y-100376193D01*
X142408225Y-100363893D01*
X142442701Y-100309023D01*
X142482013Y-100240935D01*
X142493502Y-100228174D01*
X142503535Y-100212208D01*
X142547145Y-100168597D01*
X142593882Y-100116691D01*
X142612787Y-100102955D01*
X142630208Y-100085535D01*
X142678721Y-100055052D01*
X142729140Y-100018421D01*
X142756176Y-100006383D01*
X142781893Y-99990225D01*
X142831301Y-99972936D01*
X142881872Y-99950421D01*
X142916961Y-99942962D01*
X142950983Y-99931058D01*
X142997771Y-99925786D01*
X143045407Y-99915661D01*
X143087633Y-99915661D01*
X143129000Y-99911000D01*
X143170367Y-99915661D01*
G37*
G36*
X93861664Y-97362602D02*
G01*
X94024000Y-97434878D01*
X94167761Y-97539327D01*
X94286664Y-97671383D01*
X94375514Y-97825274D01*
X94430425Y-97994275D01*
X94449000Y-98171000D01*
X94430425Y-98347725D01*
X94375514Y-98516726D01*
X94286664Y-98670617D01*
X94167761Y-98802673D01*
X94024000Y-98907122D01*
X93861664Y-98979398D01*
X93687849Y-99016344D01*
X93510151Y-99016344D01*
X93336336Y-98979398D01*
X93174000Y-98907122D01*
X93030239Y-98802673D01*
X92911336Y-98670617D01*
X92822486Y-98516726D01*
X92767575Y-98347725D01*
X92749000Y-98171000D01*
X92767575Y-97994275D01*
X92822486Y-97825274D01*
X92911336Y-97671383D01*
X93030239Y-97539327D01*
X93174000Y-97434878D01*
X93336336Y-97362602D01*
X93510151Y-97325656D01*
X93687849Y-97325656D01*
X93861664Y-97362602D01*
G37*
G36*
X109101664Y-97362602D02*
G01*
X109264000Y-97434878D01*
X109407761Y-97539327D01*
X109526664Y-97671383D01*
X109615514Y-97825274D01*
X109670425Y-97994275D01*
X109689000Y-98171000D01*
X109670425Y-98347725D01*
X109615514Y-98516726D01*
X109526664Y-98670617D01*
X109407761Y-98802673D01*
X109264000Y-98907122D01*
X109101664Y-98979398D01*
X108927849Y-99016344D01*
X108750151Y-99016344D01*
X108576336Y-98979398D01*
X108414000Y-98907122D01*
X108270239Y-98802673D01*
X108151336Y-98670617D01*
X108062486Y-98516726D01*
X108007575Y-98347725D01*
X107989000Y-98171000D01*
X108007575Y-97994275D01*
X108062486Y-97825274D01*
X108151336Y-97671383D01*
X108270239Y-97539327D01*
X108414000Y-97434878D01*
X108576336Y-97362602D01*
X108750151Y-97325656D01*
X108927849Y-97325656D01*
X109101664Y-97362602D01*
G37*
G36*
X127930367Y-97375661D02*
G01*
X127972593Y-97375661D01*
X128020228Y-97385786D01*
X128067017Y-97391058D01*
X128101039Y-97402962D01*
X128136127Y-97410421D01*
X128186695Y-97432935D01*
X128236107Y-97450225D01*
X128261823Y-97466383D01*
X128288860Y-97478421D01*
X128339275Y-97515050D01*
X128387792Y-97545535D01*
X128405214Y-97562957D01*
X128424117Y-97576691D01*
X128470844Y-97628587D01*
X128514465Y-97672208D01*
X128524499Y-97688177D01*
X128535986Y-97700935D01*
X128575285Y-97769003D01*
X128609775Y-97823893D01*
X128614080Y-97836197D01*
X128619580Y-97845723D01*
X128647740Y-97932392D01*
X128668942Y-97992983D01*
X128669746Y-98000118D01*
X128671244Y-98004729D01*
X128684820Y-98133904D01*
X128689000Y-98171000D01*
X128684819Y-98208098D01*
X128671244Y-98337270D01*
X128669746Y-98341879D01*
X128668942Y-98349017D01*
X128647736Y-98409620D01*
X128619580Y-98496276D01*
X128614081Y-98505799D01*
X128609775Y-98518107D01*
X128575278Y-98573007D01*
X128535986Y-98641064D01*
X128524501Y-98653818D01*
X128514465Y-98669792D01*
X128470835Y-98713421D01*
X128424117Y-98765308D01*
X128405218Y-98779038D01*
X128387792Y-98796465D01*
X128339265Y-98826956D01*
X128288860Y-98863578D01*
X128261829Y-98875612D01*
X128236107Y-98891775D01*
X128186685Y-98909068D01*
X128136127Y-98931578D01*
X128101045Y-98939035D01*
X128067017Y-98950942D01*
X128020225Y-98956214D01*
X127972593Y-98966339D01*
X127930367Y-98966339D01*
X127889000Y-98971000D01*
X127847633Y-98966339D01*
X127805407Y-98966339D01*
X127757774Y-98956214D01*
X127710983Y-98950942D01*
X127676955Y-98939035D01*
X127641872Y-98931578D01*
X127591309Y-98909066D01*
X127541893Y-98891775D01*
X127516173Y-98875614D01*
X127489139Y-98863578D01*
X127438726Y-98826951D01*
X127390208Y-98796465D01*
X127372784Y-98779041D01*
X127353882Y-98765308D01*
X127307154Y-98713411D01*
X127263535Y-98669792D01*
X127253500Y-98653822D01*
X127242013Y-98641064D01*
X127202709Y-98572987D01*
X127168225Y-98518107D01*
X127163919Y-98505803D01*
X127158419Y-98496276D01*
X127130249Y-98409580D01*
X127109058Y-98349017D01*
X127108254Y-98341884D01*
X127106755Y-98337270D01*
X127093165Y-98207966D01*
X127089000Y-98171000D01*
X127093164Y-98134036D01*
X127106755Y-98004729D01*
X127108254Y-98000113D01*
X127109058Y-97992983D01*
X127130245Y-97932432D01*
X127158419Y-97845723D01*
X127163920Y-97836193D01*
X127168225Y-97823893D01*
X127202701Y-97769023D01*
X127242013Y-97700935D01*
X127253502Y-97688174D01*
X127263535Y-97672208D01*
X127307145Y-97628597D01*
X127353882Y-97576691D01*
X127372787Y-97562955D01*
X127390208Y-97545535D01*
X127438721Y-97515052D01*
X127489140Y-97478421D01*
X127516176Y-97466383D01*
X127541893Y-97450225D01*
X127591301Y-97432936D01*
X127641872Y-97410421D01*
X127676961Y-97402962D01*
X127710983Y-97391058D01*
X127757771Y-97385786D01*
X127805407Y-97375661D01*
X127847633Y-97375661D01*
X127889000Y-97371000D01*
X127930367Y-97375661D01*
G37*
G36*
X143170367Y-97375661D02*
G01*
X143212593Y-97375661D01*
X143260228Y-97385786D01*
X143307017Y-97391058D01*
X143341039Y-97402962D01*
X143376127Y-97410421D01*
X143426695Y-97432935D01*
X143476107Y-97450225D01*
X143501823Y-97466383D01*
X143528860Y-97478421D01*
X143579275Y-97515050D01*
X143627792Y-97545535D01*
X143645214Y-97562957D01*
X143664117Y-97576691D01*
X143710844Y-97628587D01*
X143754465Y-97672208D01*
X143764499Y-97688177D01*
X143775986Y-97700935D01*
X143815285Y-97769003D01*
X143849775Y-97823893D01*
X143854080Y-97836197D01*
X143859580Y-97845723D01*
X143887740Y-97932392D01*
X143908942Y-97992983D01*
X143909746Y-98000118D01*
X143911244Y-98004729D01*
X143924820Y-98133904D01*
X143929000Y-98171000D01*
X143924819Y-98208098D01*
X143911244Y-98337270D01*
X143909746Y-98341879D01*
X143908942Y-98349017D01*
X143887736Y-98409620D01*
X143859580Y-98496276D01*
X143854081Y-98505799D01*
X143849775Y-98518107D01*
X143815278Y-98573007D01*
X143775986Y-98641064D01*
X143764501Y-98653818D01*
X143754465Y-98669792D01*
X143710835Y-98713421D01*
X143664117Y-98765308D01*
X143645218Y-98779038D01*
X143627792Y-98796465D01*
X143579265Y-98826956D01*
X143528860Y-98863578D01*
X143501829Y-98875612D01*
X143476107Y-98891775D01*
X143426685Y-98909068D01*
X143376127Y-98931578D01*
X143341045Y-98939035D01*
X143307017Y-98950942D01*
X143260225Y-98956214D01*
X143212593Y-98966339D01*
X143170367Y-98966339D01*
X143129000Y-98971000D01*
X143087633Y-98966339D01*
X143045407Y-98966339D01*
X142997774Y-98956214D01*
X142950983Y-98950942D01*
X142916955Y-98939035D01*
X142881872Y-98931578D01*
X142831309Y-98909066D01*
X142781893Y-98891775D01*
X142756173Y-98875614D01*
X142729139Y-98863578D01*
X142678726Y-98826951D01*
X142630208Y-98796465D01*
X142612784Y-98779041D01*
X142593882Y-98765308D01*
X142547154Y-98713411D01*
X142503535Y-98669792D01*
X142493500Y-98653822D01*
X142482013Y-98641064D01*
X142442709Y-98572987D01*
X142408225Y-98518107D01*
X142403919Y-98505803D01*
X142398419Y-98496276D01*
X142370249Y-98409580D01*
X142349058Y-98349017D01*
X142348254Y-98341884D01*
X142346755Y-98337270D01*
X142333165Y-98207966D01*
X142329000Y-98171000D01*
X142333164Y-98134036D01*
X142346755Y-98004729D01*
X142348254Y-98000113D01*
X142349058Y-97992983D01*
X142370245Y-97932432D01*
X142398419Y-97845723D01*
X142403920Y-97836193D01*
X142408225Y-97823893D01*
X142442701Y-97769023D01*
X142482013Y-97700935D01*
X142493502Y-97688174D01*
X142503535Y-97672208D01*
X142547145Y-97628597D01*
X142593882Y-97576691D01*
X142612787Y-97562955D01*
X142630208Y-97545535D01*
X142678721Y-97515052D01*
X142729140Y-97478421D01*
X142756176Y-97466383D01*
X142781893Y-97450225D01*
X142831301Y-97432936D01*
X142881872Y-97410421D01*
X142916961Y-97402962D01*
X142950983Y-97391058D01*
X142997771Y-97385786D01*
X143045407Y-97375661D01*
X143087633Y-97375661D01*
X143129000Y-97371000D01*
X143170367Y-97375661D01*
G37*
G36*
X93861664Y-94822602D02*
G01*
X94024000Y-94894878D01*
X94167761Y-94999327D01*
X94286664Y-95131383D01*
X94375514Y-95285274D01*
X94430425Y-95454275D01*
X94449000Y-95631000D01*
X94430425Y-95807725D01*
X94375514Y-95976726D01*
X94286664Y-96130617D01*
X94167761Y-96262673D01*
X94024000Y-96367122D01*
X93861664Y-96439398D01*
X93687849Y-96476344D01*
X93510151Y-96476344D01*
X93336336Y-96439398D01*
X93174000Y-96367122D01*
X93030239Y-96262673D01*
X92911336Y-96130617D01*
X92822486Y-95976726D01*
X92767575Y-95807725D01*
X92749000Y-95631000D01*
X92767575Y-95454275D01*
X92822486Y-95285274D01*
X92911336Y-95131383D01*
X93030239Y-94999327D01*
X93174000Y-94894878D01*
X93336336Y-94822602D01*
X93510151Y-94785656D01*
X93687849Y-94785656D01*
X93861664Y-94822602D01*
G37*
G36*
X109101664Y-94822602D02*
G01*
X109264000Y-94894878D01*
X109407761Y-94999327D01*
X109526664Y-95131383D01*
X109615514Y-95285274D01*
X109670425Y-95454275D01*
X109689000Y-95631000D01*
X109670425Y-95807725D01*
X109615514Y-95976726D01*
X109526664Y-96130617D01*
X109407761Y-96262673D01*
X109264000Y-96367122D01*
X109101664Y-96439398D01*
X108927849Y-96476344D01*
X108750151Y-96476344D01*
X108576336Y-96439398D01*
X108414000Y-96367122D01*
X108270239Y-96262673D01*
X108151336Y-96130617D01*
X108062486Y-95976726D01*
X108007575Y-95807725D01*
X107989000Y-95631000D01*
X108007575Y-95454275D01*
X108062486Y-95285274D01*
X108151336Y-95131383D01*
X108270239Y-94999327D01*
X108414000Y-94894878D01*
X108576336Y-94822602D01*
X108750151Y-94785656D01*
X108927849Y-94785656D01*
X109101664Y-94822602D01*
G37*
G36*
X127930367Y-94835661D02*
G01*
X127972593Y-94835661D01*
X128020228Y-94845786D01*
X128067017Y-94851058D01*
X128101039Y-94862962D01*
X128136127Y-94870421D01*
X128186695Y-94892935D01*
X128236107Y-94910225D01*
X128261823Y-94926383D01*
X128288860Y-94938421D01*
X128339275Y-94975050D01*
X128387792Y-95005535D01*
X128405214Y-95022957D01*
X128424117Y-95036691D01*
X128470844Y-95088587D01*
X128514465Y-95132208D01*
X128524499Y-95148177D01*
X128535986Y-95160935D01*
X128575285Y-95229003D01*
X128609775Y-95283893D01*
X128614080Y-95296197D01*
X128619580Y-95305723D01*
X128647740Y-95392392D01*
X128668942Y-95452983D01*
X128669746Y-95460118D01*
X128671244Y-95464729D01*
X128684820Y-95593904D01*
X128689000Y-95631000D01*
X128684819Y-95668098D01*
X128671244Y-95797270D01*
X128669746Y-95801879D01*
X128668942Y-95809017D01*
X128647736Y-95869620D01*
X128619580Y-95956276D01*
X128614081Y-95965799D01*
X128609775Y-95978107D01*
X128575278Y-96033007D01*
X128535986Y-96101064D01*
X128524501Y-96113818D01*
X128514465Y-96129792D01*
X128470835Y-96173421D01*
X128424117Y-96225308D01*
X128405218Y-96239038D01*
X128387792Y-96256465D01*
X128339265Y-96286956D01*
X128288860Y-96323578D01*
X128261829Y-96335612D01*
X128236107Y-96351775D01*
X128186685Y-96369068D01*
X128136127Y-96391578D01*
X128101045Y-96399035D01*
X128067017Y-96410942D01*
X128020225Y-96416214D01*
X127972593Y-96426339D01*
X127930367Y-96426339D01*
X127889000Y-96431000D01*
X127847633Y-96426339D01*
X127805407Y-96426339D01*
X127757774Y-96416214D01*
X127710983Y-96410942D01*
X127676955Y-96399035D01*
X127641872Y-96391578D01*
X127591309Y-96369066D01*
X127541893Y-96351775D01*
X127516173Y-96335614D01*
X127489139Y-96323578D01*
X127438726Y-96286951D01*
X127390208Y-96256465D01*
X127372784Y-96239041D01*
X127353882Y-96225308D01*
X127307154Y-96173411D01*
X127263535Y-96129792D01*
X127253500Y-96113822D01*
X127242013Y-96101064D01*
X127202709Y-96032987D01*
X127168225Y-95978107D01*
X127163919Y-95965803D01*
X127158419Y-95956276D01*
X127130249Y-95869580D01*
X127109058Y-95809017D01*
X127108254Y-95801884D01*
X127106755Y-95797270D01*
X127093165Y-95667966D01*
X127089000Y-95631000D01*
X127093164Y-95594036D01*
X127106755Y-95464729D01*
X127108254Y-95460113D01*
X127109058Y-95452983D01*
X127130245Y-95392432D01*
X127158419Y-95305723D01*
X127163920Y-95296193D01*
X127168225Y-95283893D01*
X127202701Y-95229023D01*
X127242013Y-95160935D01*
X127253502Y-95148174D01*
X127263535Y-95132208D01*
X127307145Y-95088597D01*
X127353882Y-95036691D01*
X127372787Y-95022955D01*
X127390208Y-95005535D01*
X127438721Y-94975052D01*
X127489140Y-94938421D01*
X127516176Y-94926383D01*
X127541893Y-94910225D01*
X127591301Y-94892936D01*
X127641872Y-94870421D01*
X127676961Y-94862962D01*
X127710983Y-94851058D01*
X127757771Y-94845786D01*
X127805407Y-94835661D01*
X127847633Y-94835661D01*
X127889000Y-94831000D01*
X127930367Y-94835661D01*
G37*
G36*
X143170367Y-94835661D02*
G01*
X143212593Y-94835661D01*
X143260228Y-94845786D01*
X143307017Y-94851058D01*
X143341039Y-94862962D01*
X143376127Y-94870421D01*
X143426695Y-94892935D01*
X143476107Y-94910225D01*
X143501823Y-94926383D01*
X143528860Y-94938421D01*
X143579275Y-94975050D01*
X143627792Y-95005535D01*
X143645214Y-95022957D01*
X143664117Y-95036691D01*
X143710844Y-95088587D01*
X143754465Y-95132208D01*
X143764499Y-95148177D01*
X143775986Y-95160935D01*
X143815285Y-95229003D01*
X143849775Y-95283893D01*
X143854080Y-95296197D01*
X143859580Y-95305723D01*
X143887740Y-95392392D01*
X143908942Y-95452983D01*
X143909746Y-95460118D01*
X143911244Y-95464729D01*
X143924820Y-95593904D01*
X143929000Y-95631000D01*
X143924819Y-95668098D01*
X143911244Y-95797270D01*
X143909746Y-95801879D01*
X143908942Y-95809017D01*
X143887736Y-95869620D01*
X143859580Y-95956276D01*
X143854081Y-95965799D01*
X143849775Y-95978107D01*
X143815278Y-96033007D01*
X143775986Y-96101064D01*
X143764501Y-96113818D01*
X143754465Y-96129792D01*
X143710835Y-96173421D01*
X143664117Y-96225308D01*
X143645218Y-96239038D01*
X143627792Y-96256465D01*
X143579265Y-96286956D01*
X143528860Y-96323578D01*
X143501829Y-96335612D01*
X143476107Y-96351775D01*
X143426685Y-96369068D01*
X143376127Y-96391578D01*
X143341045Y-96399035D01*
X143307017Y-96410942D01*
X143260225Y-96416214D01*
X143212593Y-96426339D01*
X143170367Y-96426339D01*
X143129000Y-96431000D01*
X143087633Y-96426339D01*
X143045407Y-96426339D01*
X142997774Y-96416214D01*
X142950983Y-96410942D01*
X142916955Y-96399035D01*
X142881872Y-96391578D01*
X142831309Y-96369066D01*
X142781893Y-96351775D01*
X142756173Y-96335614D01*
X142729139Y-96323578D01*
X142678726Y-96286951D01*
X142630208Y-96256465D01*
X142612784Y-96239041D01*
X142593882Y-96225308D01*
X142547154Y-96173411D01*
X142503535Y-96129792D01*
X142493500Y-96113822D01*
X142482013Y-96101064D01*
X142442709Y-96032987D01*
X142408225Y-95978107D01*
X142403919Y-95965803D01*
X142398419Y-95956276D01*
X142370249Y-95869580D01*
X142349058Y-95809017D01*
X142348254Y-95801884D01*
X142346755Y-95797270D01*
X142333165Y-95667966D01*
X142329000Y-95631000D01*
X142333164Y-95594036D01*
X142346755Y-95464729D01*
X142348254Y-95460113D01*
X142349058Y-95452983D01*
X142370245Y-95392432D01*
X142398419Y-95305723D01*
X142403920Y-95296193D01*
X142408225Y-95283893D01*
X142442701Y-95229023D01*
X142482013Y-95160935D01*
X142493502Y-95148174D01*
X142503535Y-95132208D01*
X142547145Y-95088597D01*
X142593882Y-95036691D01*
X142612787Y-95022955D01*
X142630208Y-95005535D01*
X142678721Y-94975052D01*
X142729140Y-94938421D01*
X142756176Y-94926383D01*
X142781893Y-94910225D01*
X142831301Y-94892936D01*
X142881872Y-94870421D01*
X142916961Y-94862962D01*
X142950983Y-94851058D01*
X142997771Y-94845786D01*
X143045407Y-94835661D01*
X143087633Y-94835661D01*
X143129000Y-94831000D01*
X143170367Y-94835661D01*
G37*
G36*
X93861664Y-92282602D02*
G01*
X94024000Y-92354878D01*
X94167761Y-92459327D01*
X94286664Y-92591383D01*
X94375514Y-92745274D01*
X94430425Y-92914275D01*
X94449000Y-93091000D01*
X94430425Y-93267725D01*
X94375514Y-93436726D01*
X94286664Y-93590617D01*
X94167761Y-93722673D01*
X94024000Y-93827122D01*
X93861664Y-93899398D01*
X93687849Y-93936344D01*
X93510151Y-93936344D01*
X93336336Y-93899398D01*
X93174000Y-93827122D01*
X93030239Y-93722673D01*
X92911336Y-93590617D01*
X92822486Y-93436726D01*
X92767575Y-93267725D01*
X92749000Y-93091000D01*
X92767575Y-92914275D01*
X92822486Y-92745274D01*
X92911336Y-92591383D01*
X93030239Y-92459327D01*
X93174000Y-92354878D01*
X93336336Y-92282602D01*
X93510151Y-92245656D01*
X93687849Y-92245656D01*
X93861664Y-92282602D01*
G37*
G36*
X109101664Y-92282602D02*
G01*
X109264000Y-92354878D01*
X109407761Y-92459327D01*
X109526664Y-92591383D01*
X109615514Y-92745274D01*
X109670425Y-92914275D01*
X109689000Y-93091000D01*
X109670425Y-93267725D01*
X109615514Y-93436726D01*
X109526664Y-93590617D01*
X109407761Y-93722673D01*
X109264000Y-93827122D01*
X109101664Y-93899398D01*
X108927849Y-93936344D01*
X108750151Y-93936344D01*
X108576336Y-93899398D01*
X108414000Y-93827122D01*
X108270239Y-93722673D01*
X108151336Y-93590617D01*
X108062486Y-93436726D01*
X108007575Y-93267725D01*
X107989000Y-93091000D01*
X108007575Y-92914275D01*
X108062486Y-92745274D01*
X108151336Y-92591383D01*
X108270239Y-92459327D01*
X108414000Y-92354878D01*
X108576336Y-92282602D01*
X108750151Y-92245656D01*
X108927849Y-92245656D01*
X109101664Y-92282602D01*
G37*
G36*
X127930367Y-92295661D02*
G01*
X127972593Y-92295661D01*
X128020228Y-92305786D01*
X128067017Y-92311058D01*
X128101039Y-92322962D01*
X128136127Y-92330421D01*
X128186695Y-92352935D01*
X128236107Y-92370225D01*
X128261823Y-92386383D01*
X128288860Y-92398421D01*
X128339275Y-92435050D01*
X128387792Y-92465535D01*
X128405214Y-92482957D01*
X128424117Y-92496691D01*
X128470844Y-92548587D01*
X128514465Y-92592208D01*
X128524499Y-92608177D01*
X128535986Y-92620935D01*
X128575285Y-92689003D01*
X128609775Y-92743893D01*
X128614080Y-92756197D01*
X128619580Y-92765723D01*
X128647740Y-92852392D01*
X128668942Y-92912983D01*
X128669746Y-92920118D01*
X128671244Y-92924729D01*
X128684820Y-93053904D01*
X128689000Y-93091000D01*
X128684819Y-93128098D01*
X128671244Y-93257270D01*
X128669746Y-93261879D01*
X128668942Y-93269017D01*
X128647736Y-93329620D01*
X128619580Y-93416276D01*
X128614081Y-93425799D01*
X128609775Y-93438107D01*
X128575278Y-93493007D01*
X128535986Y-93561064D01*
X128524501Y-93573818D01*
X128514465Y-93589792D01*
X128470835Y-93633421D01*
X128424117Y-93685308D01*
X128405218Y-93699038D01*
X128387792Y-93716465D01*
X128339265Y-93746956D01*
X128288860Y-93783578D01*
X128261829Y-93795612D01*
X128236107Y-93811775D01*
X128186685Y-93829068D01*
X128136127Y-93851578D01*
X128101045Y-93859035D01*
X128067017Y-93870942D01*
X128020225Y-93876214D01*
X127972593Y-93886339D01*
X127930367Y-93886339D01*
X127889000Y-93891000D01*
X127847633Y-93886339D01*
X127805407Y-93886339D01*
X127757774Y-93876214D01*
X127710983Y-93870942D01*
X127676955Y-93859035D01*
X127641872Y-93851578D01*
X127591309Y-93829066D01*
X127541893Y-93811775D01*
X127516173Y-93795614D01*
X127489139Y-93783578D01*
X127438726Y-93746951D01*
X127390208Y-93716465D01*
X127372784Y-93699041D01*
X127353882Y-93685308D01*
X127307154Y-93633411D01*
X127263535Y-93589792D01*
X127253500Y-93573822D01*
X127242013Y-93561064D01*
X127202709Y-93492987D01*
X127168225Y-93438107D01*
X127163919Y-93425803D01*
X127158419Y-93416276D01*
X127130249Y-93329580D01*
X127109058Y-93269017D01*
X127108254Y-93261884D01*
X127106755Y-93257270D01*
X127093165Y-93127966D01*
X127089000Y-93091000D01*
X127093164Y-93054036D01*
X127106755Y-92924729D01*
X127108254Y-92920113D01*
X127109058Y-92912983D01*
X127130245Y-92852432D01*
X127158419Y-92765723D01*
X127163920Y-92756193D01*
X127168225Y-92743893D01*
X127202701Y-92689023D01*
X127242013Y-92620935D01*
X127253502Y-92608174D01*
X127263535Y-92592208D01*
X127307145Y-92548597D01*
X127353882Y-92496691D01*
X127372787Y-92482955D01*
X127390208Y-92465535D01*
X127438721Y-92435052D01*
X127489140Y-92398421D01*
X127516176Y-92386383D01*
X127541893Y-92370225D01*
X127591301Y-92352936D01*
X127641872Y-92330421D01*
X127676961Y-92322962D01*
X127710983Y-92311058D01*
X127757771Y-92305786D01*
X127805407Y-92295661D01*
X127847633Y-92295661D01*
X127889000Y-92291000D01*
X127930367Y-92295661D01*
G37*
G36*
X143170367Y-92295661D02*
G01*
X143212593Y-92295661D01*
X143260228Y-92305786D01*
X143307017Y-92311058D01*
X143341039Y-92322962D01*
X143376127Y-92330421D01*
X143426695Y-92352935D01*
X143476107Y-92370225D01*
X143501823Y-92386383D01*
X143528860Y-92398421D01*
X143579275Y-92435050D01*
X143627792Y-92465535D01*
X143645214Y-92482957D01*
X143664117Y-92496691D01*
X143710844Y-92548587D01*
X143754465Y-92592208D01*
X143764499Y-92608177D01*
X143775986Y-92620935D01*
X143815285Y-92689003D01*
X143849775Y-92743893D01*
X143854080Y-92756197D01*
X143859580Y-92765723D01*
X143887740Y-92852392D01*
X143908942Y-92912983D01*
X143909746Y-92920118D01*
X143911244Y-92924729D01*
X143924820Y-93053904D01*
X143929000Y-93091000D01*
X143924819Y-93128098D01*
X143911244Y-93257270D01*
X143909746Y-93261879D01*
X143908942Y-93269017D01*
X143887736Y-93329620D01*
X143859580Y-93416276D01*
X143854081Y-93425799D01*
X143849775Y-93438107D01*
X143815278Y-93493007D01*
X143775986Y-93561064D01*
X143764501Y-93573818D01*
X143754465Y-93589792D01*
X143710835Y-93633421D01*
X143664117Y-93685308D01*
X143645218Y-93699038D01*
X143627792Y-93716465D01*
X143579265Y-93746956D01*
X143528860Y-93783578D01*
X143501829Y-93795612D01*
X143476107Y-93811775D01*
X143426685Y-93829068D01*
X143376127Y-93851578D01*
X143341045Y-93859035D01*
X143307017Y-93870942D01*
X143260225Y-93876214D01*
X143212593Y-93886339D01*
X143170367Y-93886339D01*
X143129000Y-93891000D01*
X143087633Y-93886339D01*
X143045407Y-93886339D01*
X142997774Y-93876214D01*
X142950983Y-93870942D01*
X142916955Y-93859035D01*
X142881872Y-93851578D01*
X142831309Y-93829066D01*
X142781893Y-93811775D01*
X142756173Y-93795614D01*
X142729139Y-93783578D01*
X142678726Y-93746951D01*
X142630208Y-93716465D01*
X142612784Y-93699041D01*
X142593882Y-93685308D01*
X142547154Y-93633411D01*
X142503535Y-93589792D01*
X142493500Y-93573822D01*
X142482013Y-93561064D01*
X142442709Y-93492987D01*
X142408225Y-93438107D01*
X142403919Y-93425803D01*
X142398419Y-93416276D01*
X142370249Y-93329580D01*
X142349058Y-93269017D01*
X142348254Y-93261884D01*
X142346755Y-93257270D01*
X142333165Y-93127966D01*
X142329000Y-93091000D01*
X142333164Y-93054036D01*
X142346755Y-92924729D01*
X142348254Y-92920113D01*
X142349058Y-92912983D01*
X142370245Y-92852432D01*
X142398419Y-92765723D01*
X142403920Y-92756193D01*
X142408225Y-92743893D01*
X142442701Y-92689023D01*
X142482013Y-92620935D01*
X142493502Y-92608174D01*
X142503535Y-92592208D01*
X142547145Y-92548597D01*
X142593882Y-92496691D01*
X142612787Y-92482955D01*
X142630208Y-92465535D01*
X142678721Y-92435052D01*
X142729140Y-92398421D01*
X142756176Y-92386383D01*
X142781893Y-92370225D01*
X142831301Y-92352936D01*
X142881872Y-92330421D01*
X142916961Y-92322962D01*
X142950983Y-92311058D01*
X142997771Y-92305786D01*
X143045407Y-92295661D01*
X143087633Y-92295661D01*
X143129000Y-92291000D01*
X143170367Y-92295661D01*
G37*
G36*
X93861664Y-89742602D02*
G01*
X94024000Y-89814878D01*
X94167761Y-89919327D01*
X94286664Y-90051383D01*
X94375514Y-90205274D01*
X94430425Y-90374275D01*
X94449000Y-90551000D01*
X94430425Y-90727725D01*
X94375514Y-90896726D01*
X94286664Y-91050617D01*
X94167761Y-91182673D01*
X94024000Y-91287122D01*
X93861664Y-91359398D01*
X93687849Y-91396344D01*
X93510151Y-91396344D01*
X93336336Y-91359398D01*
X93174000Y-91287122D01*
X93030239Y-91182673D01*
X92911336Y-91050617D01*
X92822486Y-90896726D01*
X92767575Y-90727725D01*
X92749000Y-90551000D01*
X92767575Y-90374275D01*
X92822486Y-90205274D01*
X92911336Y-90051383D01*
X93030239Y-89919327D01*
X93174000Y-89814878D01*
X93336336Y-89742602D01*
X93510151Y-89705656D01*
X93687849Y-89705656D01*
X93861664Y-89742602D01*
G37*
G36*
X109101664Y-89742602D02*
G01*
X109264000Y-89814878D01*
X109407761Y-89919327D01*
X109526664Y-90051383D01*
X109615514Y-90205274D01*
X109670425Y-90374275D01*
X109689000Y-90551000D01*
X109670425Y-90727725D01*
X109615514Y-90896726D01*
X109526664Y-91050617D01*
X109407761Y-91182673D01*
X109264000Y-91287122D01*
X109101664Y-91359398D01*
X108927849Y-91396344D01*
X108750151Y-91396344D01*
X108576336Y-91359398D01*
X108414000Y-91287122D01*
X108270239Y-91182673D01*
X108151336Y-91050617D01*
X108062486Y-90896726D01*
X108007575Y-90727725D01*
X107989000Y-90551000D01*
X108007575Y-90374275D01*
X108062486Y-90205274D01*
X108151336Y-90051383D01*
X108270239Y-89919327D01*
X108414000Y-89814878D01*
X108576336Y-89742602D01*
X108750151Y-89705656D01*
X108927849Y-89705656D01*
X109101664Y-89742602D01*
G37*
G36*
X127930367Y-89755661D02*
G01*
X127972593Y-89755661D01*
X128020228Y-89765786D01*
X128067017Y-89771058D01*
X128101039Y-89782962D01*
X128136127Y-89790421D01*
X128186695Y-89812935D01*
X128236107Y-89830225D01*
X128261823Y-89846383D01*
X128288860Y-89858421D01*
X128339275Y-89895050D01*
X128387792Y-89925535D01*
X128405214Y-89942957D01*
X128424117Y-89956691D01*
X128470844Y-90008587D01*
X128514465Y-90052208D01*
X128524499Y-90068177D01*
X128535986Y-90080935D01*
X128575285Y-90149003D01*
X128609775Y-90203893D01*
X128614080Y-90216197D01*
X128619580Y-90225723D01*
X128647740Y-90312392D01*
X128668942Y-90372983D01*
X128669746Y-90380118D01*
X128671244Y-90384729D01*
X128684820Y-90513904D01*
X128689000Y-90551000D01*
X128684819Y-90588098D01*
X128671244Y-90717270D01*
X128669746Y-90721879D01*
X128668942Y-90729017D01*
X128647736Y-90789620D01*
X128619580Y-90876276D01*
X128614081Y-90885799D01*
X128609775Y-90898107D01*
X128575278Y-90953007D01*
X128535986Y-91021064D01*
X128524501Y-91033818D01*
X128514465Y-91049792D01*
X128470835Y-91093421D01*
X128424117Y-91145308D01*
X128405218Y-91159038D01*
X128387792Y-91176465D01*
X128339265Y-91206956D01*
X128288860Y-91243578D01*
X128261829Y-91255612D01*
X128236107Y-91271775D01*
X128186685Y-91289068D01*
X128136127Y-91311578D01*
X128101045Y-91319035D01*
X128067017Y-91330942D01*
X128020225Y-91336214D01*
X127972593Y-91346339D01*
X127930367Y-91346339D01*
X127889000Y-91351000D01*
X127847633Y-91346339D01*
X127805407Y-91346339D01*
X127757774Y-91336214D01*
X127710983Y-91330942D01*
X127676955Y-91319035D01*
X127641872Y-91311578D01*
X127591309Y-91289066D01*
X127541893Y-91271775D01*
X127516173Y-91255614D01*
X127489139Y-91243578D01*
X127438726Y-91206951D01*
X127390208Y-91176465D01*
X127372784Y-91159041D01*
X127353882Y-91145308D01*
X127307154Y-91093411D01*
X127263535Y-91049792D01*
X127253500Y-91033822D01*
X127242013Y-91021064D01*
X127202709Y-90952987D01*
X127168225Y-90898107D01*
X127163919Y-90885803D01*
X127158419Y-90876276D01*
X127130249Y-90789580D01*
X127109058Y-90729017D01*
X127108254Y-90721884D01*
X127106755Y-90717270D01*
X127093165Y-90587966D01*
X127089000Y-90551000D01*
X127093164Y-90514036D01*
X127106755Y-90384729D01*
X127108254Y-90380113D01*
X127109058Y-90372983D01*
X127130245Y-90312432D01*
X127158419Y-90225723D01*
X127163920Y-90216193D01*
X127168225Y-90203893D01*
X127202701Y-90149023D01*
X127242013Y-90080935D01*
X127253502Y-90068174D01*
X127263535Y-90052208D01*
X127307145Y-90008597D01*
X127353882Y-89956691D01*
X127372787Y-89942955D01*
X127390208Y-89925535D01*
X127438721Y-89895052D01*
X127489140Y-89858421D01*
X127516176Y-89846383D01*
X127541893Y-89830225D01*
X127591301Y-89812936D01*
X127641872Y-89790421D01*
X127676961Y-89782962D01*
X127710983Y-89771058D01*
X127757771Y-89765786D01*
X127805407Y-89755661D01*
X127847633Y-89755661D01*
X127889000Y-89751000D01*
X127930367Y-89755661D01*
G37*
G36*
X143170367Y-89755661D02*
G01*
X143212593Y-89755661D01*
X143260228Y-89765786D01*
X143307017Y-89771058D01*
X143341039Y-89782962D01*
X143376127Y-89790421D01*
X143426695Y-89812935D01*
X143476107Y-89830225D01*
X143501823Y-89846383D01*
X143528860Y-89858421D01*
X143579275Y-89895050D01*
X143627792Y-89925535D01*
X143645214Y-89942957D01*
X143664117Y-89956691D01*
X143710844Y-90008587D01*
X143754465Y-90052208D01*
X143764499Y-90068177D01*
X143775986Y-90080935D01*
X143815285Y-90149003D01*
X143849775Y-90203893D01*
X143854080Y-90216197D01*
X143859580Y-90225723D01*
X143887740Y-90312392D01*
X143908942Y-90372983D01*
X143909746Y-90380118D01*
X143911244Y-90384729D01*
X143924820Y-90513904D01*
X143929000Y-90551000D01*
X143924819Y-90588098D01*
X143911244Y-90717270D01*
X143909746Y-90721879D01*
X143908942Y-90729017D01*
X143887736Y-90789620D01*
X143859580Y-90876276D01*
X143854081Y-90885799D01*
X143849775Y-90898107D01*
X143815278Y-90953007D01*
X143775986Y-91021064D01*
X143764501Y-91033818D01*
X143754465Y-91049792D01*
X143710835Y-91093421D01*
X143664117Y-91145308D01*
X143645218Y-91159038D01*
X143627792Y-91176465D01*
X143579265Y-91206956D01*
X143528860Y-91243578D01*
X143501829Y-91255612D01*
X143476107Y-91271775D01*
X143426685Y-91289068D01*
X143376127Y-91311578D01*
X143341045Y-91319035D01*
X143307017Y-91330942D01*
X143260225Y-91336214D01*
X143212593Y-91346339D01*
X143170367Y-91346339D01*
X143129000Y-91351000D01*
X143087633Y-91346339D01*
X143045407Y-91346339D01*
X142997774Y-91336214D01*
X142950983Y-91330942D01*
X142916955Y-91319035D01*
X142881872Y-91311578D01*
X142831309Y-91289066D01*
X142781893Y-91271775D01*
X142756173Y-91255614D01*
X142729139Y-91243578D01*
X142678726Y-91206951D01*
X142630208Y-91176465D01*
X142612784Y-91159041D01*
X142593882Y-91145308D01*
X142547154Y-91093411D01*
X142503535Y-91049792D01*
X142493500Y-91033822D01*
X142482013Y-91021064D01*
X142442709Y-90952987D01*
X142408225Y-90898107D01*
X142403919Y-90885803D01*
X142398419Y-90876276D01*
X142370249Y-90789580D01*
X142349058Y-90729017D01*
X142348254Y-90721884D01*
X142346755Y-90717270D01*
X142333165Y-90587966D01*
X142329000Y-90551000D01*
X142333164Y-90514036D01*
X142346755Y-90384729D01*
X142348254Y-90380113D01*
X142349058Y-90372983D01*
X142370245Y-90312432D01*
X142398419Y-90225723D01*
X142403920Y-90216193D01*
X142408225Y-90203893D01*
X142442701Y-90149023D01*
X142482013Y-90080935D01*
X142493502Y-90068174D01*
X142503535Y-90052208D01*
X142547145Y-90008597D01*
X142593882Y-89956691D01*
X142612787Y-89942955D01*
X142630208Y-89925535D01*
X142678721Y-89895052D01*
X142729140Y-89858421D01*
X142756176Y-89846383D01*
X142781893Y-89830225D01*
X142831301Y-89812936D01*
X142881872Y-89790421D01*
X142916961Y-89782962D01*
X142950983Y-89771058D01*
X142997771Y-89765786D01*
X143045407Y-89755661D01*
X143087633Y-89755661D01*
X143129000Y-89751000D01*
X143170367Y-89755661D01*
G37*
G36*
X93861664Y-87202602D02*
G01*
X94024000Y-87274878D01*
X94167761Y-87379327D01*
X94286664Y-87511383D01*
X94375514Y-87665274D01*
X94430425Y-87834275D01*
X94449000Y-88011000D01*
X94430425Y-88187725D01*
X94375514Y-88356726D01*
X94286664Y-88510617D01*
X94167761Y-88642673D01*
X94024000Y-88747122D01*
X93861664Y-88819398D01*
X93687849Y-88856344D01*
X93510151Y-88856344D01*
X93336336Y-88819398D01*
X93174000Y-88747122D01*
X93030239Y-88642673D01*
X92911336Y-88510617D01*
X92822486Y-88356726D01*
X92767575Y-88187725D01*
X92749000Y-88011000D01*
X92767575Y-87834275D01*
X92822486Y-87665274D01*
X92911336Y-87511383D01*
X93030239Y-87379327D01*
X93174000Y-87274878D01*
X93336336Y-87202602D01*
X93510151Y-87165656D01*
X93687849Y-87165656D01*
X93861664Y-87202602D01*
G37*
G36*
X109101664Y-87202602D02*
G01*
X109264000Y-87274878D01*
X109407761Y-87379327D01*
X109526664Y-87511383D01*
X109615514Y-87665274D01*
X109670425Y-87834275D01*
X109689000Y-88011000D01*
X109670425Y-88187725D01*
X109615514Y-88356726D01*
X109526664Y-88510617D01*
X109407761Y-88642673D01*
X109264000Y-88747122D01*
X109101664Y-88819398D01*
X108927849Y-88856344D01*
X108750151Y-88856344D01*
X108576336Y-88819398D01*
X108414000Y-88747122D01*
X108270239Y-88642673D01*
X108151336Y-88510617D01*
X108062486Y-88356726D01*
X108007575Y-88187725D01*
X107989000Y-88011000D01*
X108007575Y-87834275D01*
X108062486Y-87665274D01*
X108151336Y-87511383D01*
X108270239Y-87379327D01*
X108414000Y-87274878D01*
X108576336Y-87202602D01*
X108750151Y-87165656D01*
X108927849Y-87165656D01*
X109101664Y-87202602D01*
G37*
G36*
X127930367Y-87215661D02*
G01*
X127972593Y-87215661D01*
X128020228Y-87225786D01*
X128067017Y-87231058D01*
X128101039Y-87242962D01*
X128136127Y-87250421D01*
X128186695Y-87272935D01*
X128236107Y-87290225D01*
X128261823Y-87306383D01*
X128288860Y-87318421D01*
X128339275Y-87355050D01*
X128387792Y-87385535D01*
X128405214Y-87402957D01*
X128424117Y-87416691D01*
X128470844Y-87468587D01*
X128514465Y-87512208D01*
X128524499Y-87528177D01*
X128535986Y-87540935D01*
X128575285Y-87609003D01*
X128609775Y-87663893D01*
X128614080Y-87676197D01*
X128619580Y-87685723D01*
X128647740Y-87772392D01*
X128668942Y-87832983D01*
X128669746Y-87840118D01*
X128671244Y-87844729D01*
X128684820Y-87973904D01*
X128689000Y-88011000D01*
X128684819Y-88048098D01*
X128671244Y-88177270D01*
X128669746Y-88181879D01*
X128668942Y-88189017D01*
X128647736Y-88249620D01*
X128619580Y-88336276D01*
X128614081Y-88345799D01*
X128609775Y-88358107D01*
X128575278Y-88413007D01*
X128535986Y-88481064D01*
X128524501Y-88493818D01*
X128514465Y-88509792D01*
X128470835Y-88553421D01*
X128424117Y-88605308D01*
X128405218Y-88619038D01*
X128387792Y-88636465D01*
X128339265Y-88666956D01*
X128288860Y-88703578D01*
X128261829Y-88715612D01*
X128236107Y-88731775D01*
X128186685Y-88749068D01*
X128136127Y-88771578D01*
X128101045Y-88779035D01*
X128067017Y-88790942D01*
X128020225Y-88796214D01*
X127972593Y-88806339D01*
X127930367Y-88806339D01*
X127889000Y-88811000D01*
X127847633Y-88806339D01*
X127805407Y-88806339D01*
X127757774Y-88796214D01*
X127710983Y-88790942D01*
X127676955Y-88779035D01*
X127641872Y-88771578D01*
X127591309Y-88749066D01*
X127541893Y-88731775D01*
X127516173Y-88715614D01*
X127489139Y-88703578D01*
X127438726Y-88666951D01*
X127390208Y-88636465D01*
X127372784Y-88619041D01*
X127353882Y-88605308D01*
X127307154Y-88553411D01*
X127263535Y-88509792D01*
X127253500Y-88493822D01*
X127242013Y-88481064D01*
X127202709Y-88412987D01*
X127168225Y-88358107D01*
X127163919Y-88345803D01*
X127158419Y-88336276D01*
X127130249Y-88249580D01*
X127109058Y-88189017D01*
X127108254Y-88181884D01*
X127106755Y-88177270D01*
X127093165Y-88047966D01*
X127089000Y-88011000D01*
X127093164Y-87974036D01*
X127106755Y-87844729D01*
X127108254Y-87840113D01*
X127109058Y-87832983D01*
X127130245Y-87772432D01*
X127158419Y-87685723D01*
X127163920Y-87676193D01*
X127168225Y-87663893D01*
X127202701Y-87609023D01*
X127242013Y-87540935D01*
X127253502Y-87528174D01*
X127263535Y-87512208D01*
X127307145Y-87468597D01*
X127353882Y-87416691D01*
X127372787Y-87402955D01*
X127390208Y-87385535D01*
X127438721Y-87355052D01*
X127489140Y-87318421D01*
X127516176Y-87306383D01*
X127541893Y-87290225D01*
X127591301Y-87272936D01*
X127641872Y-87250421D01*
X127676961Y-87242962D01*
X127710983Y-87231058D01*
X127757771Y-87225786D01*
X127805407Y-87215661D01*
X127847633Y-87215661D01*
X127889000Y-87211000D01*
X127930367Y-87215661D01*
G37*
G36*
X143170367Y-87215661D02*
G01*
X143212593Y-87215661D01*
X143260228Y-87225786D01*
X143307017Y-87231058D01*
X143341039Y-87242962D01*
X143376127Y-87250421D01*
X143426695Y-87272935D01*
X143476107Y-87290225D01*
X143501823Y-87306383D01*
X143528860Y-87318421D01*
X143579275Y-87355050D01*
X143627792Y-87385535D01*
X143645214Y-87402957D01*
X143664117Y-87416691D01*
X143710844Y-87468587D01*
X143754465Y-87512208D01*
X143764499Y-87528177D01*
X143775986Y-87540935D01*
X143815285Y-87609003D01*
X143849775Y-87663893D01*
X143854080Y-87676197D01*
X143859580Y-87685723D01*
X143887740Y-87772392D01*
X143908942Y-87832983D01*
X143909746Y-87840118D01*
X143911244Y-87844729D01*
X143924820Y-87973904D01*
X143929000Y-88011000D01*
X143924819Y-88048098D01*
X143911244Y-88177270D01*
X143909746Y-88181879D01*
X143908942Y-88189017D01*
X143887736Y-88249620D01*
X143859580Y-88336276D01*
X143854081Y-88345799D01*
X143849775Y-88358107D01*
X143815278Y-88413007D01*
X143775986Y-88481064D01*
X143764501Y-88493818D01*
X143754465Y-88509792D01*
X143710835Y-88553421D01*
X143664117Y-88605308D01*
X143645218Y-88619038D01*
X143627792Y-88636465D01*
X143579265Y-88666956D01*
X143528860Y-88703578D01*
X143501829Y-88715612D01*
X143476107Y-88731775D01*
X143426685Y-88749068D01*
X143376127Y-88771578D01*
X143341045Y-88779035D01*
X143307017Y-88790942D01*
X143260225Y-88796214D01*
X143212593Y-88806339D01*
X143170367Y-88806339D01*
X143129000Y-88811000D01*
X143087633Y-88806339D01*
X143045407Y-88806339D01*
X142997774Y-88796214D01*
X142950983Y-88790942D01*
X142916955Y-88779035D01*
X142881872Y-88771578D01*
X142831309Y-88749066D01*
X142781893Y-88731775D01*
X142756173Y-88715614D01*
X142729139Y-88703578D01*
X142678726Y-88666951D01*
X142630208Y-88636465D01*
X142612784Y-88619041D01*
X142593882Y-88605308D01*
X142547154Y-88553411D01*
X142503535Y-88509792D01*
X142493500Y-88493822D01*
X142482013Y-88481064D01*
X142442709Y-88412987D01*
X142408225Y-88358107D01*
X142403919Y-88345803D01*
X142398419Y-88336276D01*
X142370249Y-88249580D01*
X142349058Y-88189017D01*
X142348254Y-88181884D01*
X142346755Y-88177270D01*
X142333165Y-88047966D01*
X142329000Y-88011000D01*
X142333164Y-87974036D01*
X142346755Y-87844729D01*
X142348254Y-87840113D01*
X142349058Y-87832983D01*
X142370245Y-87772432D01*
X142398419Y-87685723D01*
X142403920Y-87676193D01*
X142408225Y-87663893D01*
X142442701Y-87609023D01*
X142482013Y-87540935D01*
X142493502Y-87528174D01*
X142503535Y-87512208D01*
X142547145Y-87468597D01*
X142593882Y-87416691D01*
X142612787Y-87402955D01*
X142630208Y-87385535D01*
X142678721Y-87355052D01*
X142729140Y-87318421D01*
X142756176Y-87306383D01*
X142781893Y-87290225D01*
X142831301Y-87272936D01*
X142881872Y-87250421D01*
X142916961Y-87242962D01*
X142950983Y-87231058D01*
X142997771Y-87225786D01*
X143045407Y-87215661D01*
X143087633Y-87215661D01*
X143129000Y-87211000D01*
X143170367Y-87215661D01*
G37*
G36*
X148903464Y-85932602D02*
G01*
X149065800Y-86004878D01*
X149209561Y-86109327D01*
X149328464Y-86241383D01*
X149417314Y-86395274D01*
X149472225Y-86564275D01*
X149490800Y-86741000D01*
X149472225Y-86917725D01*
X149417314Y-87086726D01*
X149328464Y-87240617D01*
X149209561Y-87372673D01*
X149065800Y-87477122D01*
X148903464Y-87549398D01*
X148729649Y-87586344D01*
X148551951Y-87586344D01*
X148378136Y-87549398D01*
X148215800Y-87477122D01*
X148072039Y-87372673D01*
X147953136Y-87240617D01*
X147864286Y-87086726D01*
X147809375Y-86917725D01*
X147790800Y-86741000D01*
X147809375Y-86564275D01*
X147864286Y-86395274D01*
X147953136Y-86241383D01*
X148072039Y-86109327D01*
X148215800Y-86004878D01*
X148378136Y-85932602D01*
X148551951Y-85895656D01*
X148729649Y-85895656D01*
X148903464Y-85932602D01*
G37*
G36*
X151443464Y-85932602D02*
G01*
X151605800Y-86004878D01*
X151749561Y-86109327D01*
X151868464Y-86241383D01*
X151957314Y-86395274D01*
X152012225Y-86564275D01*
X152030800Y-86741000D01*
X152012225Y-86917725D01*
X151957314Y-87086726D01*
X151868464Y-87240617D01*
X151749561Y-87372673D01*
X151605800Y-87477122D01*
X151443464Y-87549398D01*
X151269649Y-87586344D01*
X151091951Y-87586344D01*
X150918136Y-87549398D01*
X150755800Y-87477122D01*
X150612039Y-87372673D01*
X150493136Y-87240617D01*
X150404286Y-87086726D01*
X150349375Y-86917725D01*
X150330800Y-86741000D01*
X150349375Y-86564275D01*
X150404286Y-86395274D01*
X150493136Y-86241383D01*
X150612039Y-86109327D01*
X150755800Y-86004878D01*
X150918136Y-85932602D01*
X151091951Y-85895656D01*
X151269649Y-85895656D01*
X151443464Y-85932602D01*
G37*
G36*
X93861664Y-84662602D02*
G01*
X94024000Y-84734878D01*
X94167761Y-84839327D01*
X94286664Y-84971383D01*
X94375514Y-85125274D01*
X94430425Y-85294275D01*
X94449000Y-85471000D01*
X94430425Y-85647725D01*
X94375514Y-85816726D01*
X94286664Y-85970617D01*
X94167761Y-86102673D01*
X94024000Y-86207122D01*
X93861664Y-86279398D01*
X93687849Y-86316344D01*
X93510151Y-86316344D01*
X93336336Y-86279398D01*
X93174000Y-86207122D01*
X93030239Y-86102673D01*
X92911336Y-85970617D01*
X92822486Y-85816726D01*
X92767575Y-85647725D01*
X92749000Y-85471000D01*
X92767575Y-85294275D01*
X92822486Y-85125274D01*
X92911336Y-84971383D01*
X93030239Y-84839327D01*
X93174000Y-84734878D01*
X93336336Y-84662602D01*
X93510151Y-84625656D01*
X93687849Y-84625656D01*
X93861664Y-84662602D01*
G37*
G36*
X109101664Y-84662602D02*
G01*
X109264000Y-84734878D01*
X109407761Y-84839327D01*
X109526664Y-84971383D01*
X109615514Y-85125274D01*
X109670425Y-85294275D01*
X109689000Y-85471000D01*
X109670425Y-85647725D01*
X109615514Y-85816726D01*
X109526664Y-85970617D01*
X109407761Y-86102673D01*
X109264000Y-86207122D01*
X109101664Y-86279398D01*
X108927849Y-86316344D01*
X108750151Y-86316344D01*
X108576336Y-86279398D01*
X108414000Y-86207122D01*
X108270239Y-86102673D01*
X108151336Y-85970617D01*
X108062486Y-85816726D01*
X108007575Y-85647725D01*
X107989000Y-85471000D01*
X108007575Y-85294275D01*
X108062486Y-85125274D01*
X108151336Y-84971383D01*
X108270239Y-84839327D01*
X108414000Y-84734878D01*
X108576336Y-84662602D01*
X108750151Y-84625656D01*
X108927849Y-84625656D01*
X109101664Y-84662602D01*
G37*
G36*
X127930367Y-84675661D02*
G01*
X127972593Y-84675661D01*
X128020228Y-84685786D01*
X128067017Y-84691058D01*
X128101039Y-84702962D01*
X128136127Y-84710421D01*
X128186695Y-84732935D01*
X128236107Y-84750225D01*
X128261823Y-84766383D01*
X128288860Y-84778421D01*
X128339275Y-84815050D01*
X128387792Y-84845535D01*
X128405214Y-84862957D01*
X128424117Y-84876691D01*
X128470844Y-84928587D01*
X128514465Y-84972208D01*
X128524499Y-84988177D01*
X128535986Y-85000935D01*
X128575285Y-85069003D01*
X128609775Y-85123893D01*
X128614080Y-85136197D01*
X128619580Y-85145723D01*
X128647740Y-85232392D01*
X128668942Y-85292983D01*
X128669746Y-85300118D01*
X128671244Y-85304729D01*
X128684820Y-85433904D01*
X128689000Y-85471000D01*
X128684819Y-85508098D01*
X128671244Y-85637270D01*
X128669746Y-85641879D01*
X128668942Y-85649017D01*
X128647736Y-85709620D01*
X128619580Y-85796276D01*
X128614081Y-85805799D01*
X128609775Y-85818107D01*
X128575278Y-85873007D01*
X128535986Y-85941064D01*
X128524501Y-85953818D01*
X128514465Y-85969792D01*
X128470835Y-86013421D01*
X128424117Y-86065308D01*
X128405218Y-86079038D01*
X128387792Y-86096465D01*
X128339265Y-86126956D01*
X128288860Y-86163578D01*
X128261829Y-86175612D01*
X128236107Y-86191775D01*
X128186685Y-86209068D01*
X128136127Y-86231578D01*
X128101045Y-86239035D01*
X128067017Y-86250942D01*
X128020225Y-86256214D01*
X127972593Y-86266339D01*
X127930367Y-86266339D01*
X127889000Y-86271000D01*
X127847633Y-86266339D01*
X127805407Y-86266339D01*
X127757774Y-86256214D01*
X127710983Y-86250942D01*
X127676955Y-86239035D01*
X127641872Y-86231578D01*
X127591309Y-86209066D01*
X127541893Y-86191775D01*
X127516173Y-86175614D01*
X127489139Y-86163578D01*
X127438726Y-86126951D01*
X127390208Y-86096465D01*
X127372784Y-86079041D01*
X127353882Y-86065308D01*
X127307154Y-86013411D01*
X127263535Y-85969792D01*
X127253500Y-85953822D01*
X127242013Y-85941064D01*
X127202709Y-85872987D01*
X127168225Y-85818107D01*
X127163919Y-85805803D01*
X127158419Y-85796276D01*
X127130249Y-85709580D01*
X127109058Y-85649017D01*
X127108254Y-85641884D01*
X127106755Y-85637270D01*
X127093165Y-85507966D01*
X127089000Y-85471000D01*
X127093164Y-85434036D01*
X127106755Y-85304729D01*
X127108254Y-85300113D01*
X127109058Y-85292983D01*
X127130245Y-85232432D01*
X127158419Y-85145723D01*
X127163920Y-85136193D01*
X127168225Y-85123893D01*
X127202701Y-85069023D01*
X127242013Y-85000935D01*
X127253502Y-84988174D01*
X127263535Y-84972208D01*
X127307145Y-84928597D01*
X127353882Y-84876691D01*
X127372787Y-84862955D01*
X127390208Y-84845535D01*
X127438721Y-84815052D01*
X127489140Y-84778421D01*
X127516176Y-84766383D01*
X127541893Y-84750225D01*
X127591301Y-84732936D01*
X127641872Y-84710421D01*
X127676961Y-84702962D01*
X127710983Y-84691058D01*
X127757771Y-84685786D01*
X127805407Y-84675661D01*
X127847633Y-84675661D01*
X127889000Y-84671000D01*
X127930367Y-84675661D01*
G37*
G36*
X143170367Y-84675661D02*
G01*
X143212593Y-84675661D01*
X143260228Y-84685786D01*
X143307017Y-84691058D01*
X143341039Y-84702962D01*
X143376127Y-84710421D01*
X143426695Y-84732935D01*
X143476107Y-84750225D01*
X143501823Y-84766383D01*
X143528860Y-84778421D01*
X143579275Y-84815050D01*
X143627792Y-84845535D01*
X143645214Y-84862957D01*
X143664117Y-84876691D01*
X143710844Y-84928587D01*
X143754465Y-84972208D01*
X143764499Y-84988177D01*
X143775986Y-85000935D01*
X143815285Y-85069003D01*
X143849775Y-85123893D01*
X143854080Y-85136197D01*
X143859580Y-85145723D01*
X143887740Y-85232392D01*
X143908942Y-85292983D01*
X143909746Y-85300118D01*
X143911244Y-85304729D01*
X143924820Y-85433904D01*
X143929000Y-85471000D01*
X143924819Y-85508098D01*
X143911244Y-85637270D01*
X143909746Y-85641879D01*
X143908942Y-85649017D01*
X143887736Y-85709620D01*
X143859580Y-85796276D01*
X143854081Y-85805799D01*
X143849775Y-85818107D01*
X143815278Y-85873007D01*
X143775986Y-85941064D01*
X143764501Y-85953818D01*
X143754465Y-85969792D01*
X143710835Y-86013421D01*
X143664117Y-86065308D01*
X143645218Y-86079038D01*
X143627792Y-86096465D01*
X143579265Y-86126956D01*
X143528860Y-86163578D01*
X143501829Y-86175612D01*
X143476107Y-86191775D01*
X143426685Y-86209068D01*
X143376127Y-86231578D01*
X143341045Y-86239035D01*
X143307017Y-86250942D01*
X143260225Y-86256214D01*
X143212593Y-86266339D01*
X143170367Y-86266339D01*
X143129000Y-86271000D01*
X143087633Y-86266339D01*
X143045407Y-86266339D01*
X142997774Y-86256214D01*
X142950983Y-86250942D01*
X142916955Y-86239035D01*
X142881872Y-86231578D01*
X142831309Y-86209066D01*
X142781893Y-86191775D01*
X142756173Y-86175614D01*
X142729139Y-86163578D01*
X142678726Y-86126951D01*
X142630208Y-86096465D01*
X142612784Y-86079041D01*
X142593882Y-86065308D01*
X142547154Y-86013411D01*
X142503535Y-85969792D01*
X142493500Y-85953822D01*
X142482013Y-85941064D01*
X142442709Y-85872987D01*
X142408225Y-85818107D01*
X142403919Y-85805803D01*
X142398419Y-85796276D01*
X142370249Y-85709580D01*
X142349058Y-85649017D01*
X142348254Y-85641884D01*
X142346755Y-85637270D01*
X142333165Y-85507966D01*
X142329000Y-85471000D01*
X142333164Y-85434036D01*
X142346755Y-85304729D01*
X142348254Y-85300113D01*
X142349058Y-85292983D01*
X142370245Y-85232432D01*
X142398419Y-85145723D01*
X142403920Y-85136193D01*
X142408225Y-85123893D01*
X142442701Y-85069023D01*
X142482013Y-85000935D01*
X142493502Y-84988174D01*
X142503535Y-84972208D01*
X142547145Y-84928597D01*
X142593882Y-84876691D01*
X142612787Y-84862955D01*
X142630208Y-84845535D01*
X142678721Y-84815052D01*
X142729140Y-84778421D01*
X142756176Y-84766383D01*
X142781893Y-84750225D01*
X142831301Y-84732936D01*
X142881872Y-84710421D01*
X142916961Y-84702962D01*
X142950983Y-84691058D01*
X142997771Y-84685786D01*
X143045407Y-84675661D01*
X143087633Y-84675661D01*
X143129000Y-84671000D01*
X143170367Y-84675661D01*
G37*
G36*
X148903464Y-83392602D02*
G01*
X149065800Y-83464878D01*
X149209561Y-83569327D01*
X149328464Y-83701383D01*
X149417314Y-83855274D01*
X149472225Y-84024275D01*
X149490800Y-84201000D01*
X149472225Y-84377725D01*
X149417314Y-84546726D01*
X149328464Y-84700617D01*
X149209561Y-84832673D01*
X149065800Y-84937122D01*
X148903464Y-85009398D01*
X148729649Y-85046344D01*
X148551951Y-85046344D01*
X148378136Y-85009398D01*
X148215800Y-84937122D01*
X148072039Y-84832673D01*
X147953136Y-84700617D01*
X147864286Y-84546726D01*
X147809375Y-84377725D01*
X147790800Y-84201000D01*
X147809375Y-84024275D01*
X147864286Y-83855274D01*
X147953136Y-83701383D01*
X148072039Y-83569327D01*
X148215800Y-83464878D01*
X148378136Y-83392602D01*
X148551951Y-83355656D01*
X148729649Y-83355656D01*
X148903464Y-83392602D01*
G37*
G36*
X151443464Y-83392602D02*
G01*
X151605800Y-83464878D01*
X151749561Y-83569327D01*
X151868464Y-83701383D01*
X151957314Y-83855274D01*
X152012225Y-84024275D01*
X152030800Y-84201000D01*
X152012225Y-84377725D01*
X151957314Y-84546726D01*
X151868464Y-84700617D01*
X151749561Y-84832673D01*
X151605800Y-84937122D01*
X151443464Y-85009398D01*
X151269649Y-85046344D01*
X151091951Y-85046344D01*
X150918136Y-85009398D01*
X150755800Y-84937122D01*
X150612039Y-84832673D01*
X150493136Y-84700617D01*
X150404286Y-84546726D01*
X150349375Y-84377725D01*
X150330800Y-84201000D01*
X150349375Y-84024275D01*
X150404286Y-83855274D01*
X150493136Y-83701383D01*
X150612039Y-83569327D01*
X150755800Y-83464878D01*
X150918136Y-83392602D01*
X151091951Y-83355656D01*
X151269649Y-83355656D01*
X151443464Y-83392602D01*
G37*
G36*
X93861664Y-82122602D02*
G01*
X94024000Y-82194878D01*
X94167761Y-82299327D01*
X94286664Y-82431383D01*
X94375514Y-82585274D01*
X94430425Y-82754275D01*
X94449000Y-82931000D01*
X94430425Y-83107725D01*
X94375514Y-83276726D01*
X94286664Y-83430617D01*
X94167761Y-83562673D01*
X94024000Y-83667122D01*
X93861664Y-83739398D01*
X93687849Y-83776344D01*
X93510151Y-83776344D01*
X93336336Y-83739398D01*
X93174000Y-83667122D01*
X93030239Y-83562673D01*
X92911336Y-83430617D01*
X92822486Y-83276726D01*
X92767575Y-83107725D01*
X92749000Y-82931000D01*
X92767575Y-82754275D01*
X92822486Y-82585274D01*
X92911336Y-82431383D01*
X93030239Y-82299327D01*
X93174000Y-82194878D01*
X93336336Y-82122602D01*
X93510151Y-82085656D01*
X93687849Y-82085656D01*
X93861664Y-82122602D01*
G37*
G36*
X109101664Y-82122602D02*
G01*
X109264000Y-82194878D01*
X109407761Y-82299327D01*
X109526664Y-82431383D01*
X109615514Y-82585274D01*
X109670425Y-82754275D01*
X109689000Y-82931000D01*
X109670425Y-83107725D01*
X109615514Y-83276726D01*
X109526664Y-83430617D01*
X109407761Y-83562673D01*
X109264000Y-83667122D01*
X109101664Y-83739398D01*
X108927849Y-83776344D01*
X108750151Y-83776344D01*
X108576336Y-83739398D01*
X108414000Y-83667122D01*
X108270239Y-83562673D01*
X108151336Y-83430617D01*
X108062486Y-83276726D01*
X108007575Y-83107725D01*
X107989000Y-82931000D01*
X108007575Y-82754275D01*
X108062486Y-82585274D01*
X108151336Y-82431383D01*
X108270239Y-82299327D01*
X108414000Y-82194878D01*
X108576336Y-82122602D01*
X108750151Y-82085656D01*
X108927849Y-82085656D01*
X109101664Y-82122602D01*
G37*
G36*
X127930367Y-82135661D02*
G01*
X127972593Y-82135661D01*
X128020228Y-82145786D01*
X128067017Y-82151058D01*
X128101039Y-82162962D01*
X128136127Y-82170421D01*
X128186695Y-82192935D01*
X128236107Y-82210225D01*
X128261823Y-82226383D01*
X128288860Y-82238421D01*
X128339275Y-82275050D01*
X128387792Y-82305535D01*
X128405214Y-82322957D01*
X128424117Y-82336691D01*
X128470844Y-82388587D01*
X128514465Y-82432208D01*
X128524499Y-82448177D01*
X128535986Y-82460935D01*
X128575285Y-82529003D01*
X128609775Y-82583893D01*
X128614080Y-82596197D01*
X128619580Y-82605723D01*
X128647740Y-82692392D01*
X128668942Y-82752983D01*
X128669746Y-82760118D01*
X128671244Y-82764729D01*
X128684820Y-82893904D01*
X128689000Y-82931000D01*
X128684819Y-82968098D01*
X128671244Y-83097270D01*
X128669746Y-83101879D01*
X128668942Y-83109017D01*
X128647736Y-83169620D01*
X128619580Y-83256276D01*
X128614081Y-83265799D01*
X128609775Y-83278107D01*
X128575278Y-83333007D01*
X128535986Y-83401064D01*
X128524501Y-83413818D01*
X128514465Y-83429792D01*
X128470835Y-83473421D01*
X128424117Y-83525308D01*
X128405218Y-83539038D01*
X128387792Y-83556465D01*
X128339265Y-83586956D01*
X128288860Y-83623578D01*
X128261829Y-83635612D01*
X128236107Y-83651775D01*
X128186685Y-83669068D01*
X128136127Y-83691578D01*
X128101045Y-83699035D01*
X128067017Y-83710942D01*
X128020225Y-83716214D01*
X127972593Y-83726339D01*
X127930367Y-83726339D01*
X127889000Y-83731000D01*
X127847633Y-83726339D01*
X127805407Y-83726339D01*
X127757774Y-83716214D01*
X127710983Y-83710942D01*
X127676955Y-83699035D01*
X127641872Y-83691578D01*
X127591309Y-83669066D01*
X127541893Y-83651775D01*
X127516173Y-83635614D01*
X127489139Y-83623578D01*
X127438726Y-83586951D01*
X127390208Y-83556465D01*
X127372784Y-83539041D01*
X127353882Y-83525308D01*
X127307154Y-83473411D01*
X127263535Y-83429792D01*
X127253500Y-83413822D01*
X127242013Y-83401064D01*
X127202709Y-83332987D01*
X127168225Y-83278107D01*
X127163919Y-83265803D01*
X127158419Y-83256276D01*
X127130249Y-83169580D01*
X127109058Y-83109017D01*
X127108254Y-83101884D01*
X127106755Y-83097270D01*
X127093165Y-82967966D01*
X127089000Y-82931000D01*
X127093164Y-82894036D01*
X127106755Y-82764729D01*
X127108254Y-82760113D01*
X127109058Y-82752983D01*
X127130245Y-82692432D01*
X127158419Y-82605723D01*
X127163920Y-82596193D01*
X127168225Y-82583893D01*
X127202701Y-82529023D01*
X127242013Y-82460935D01*
X127253502Y-82448174D01*
X127263535Y-82432208D01*
X127307145Y-82388597D01*
X127353882Y-82336691D01*
X127372787Y-82322955D01*
X127390208Y-82305535D01*
X127438721Y-82275052D01*
X127489140Y-82238421D01*
X127516176Y-82226383D01*
X127541893Y-82210225D01*
X127591301Y-82192936D01*
X127641872Y-82170421D01*
X127676961Y-82162962D01*
X127710983Y-82151058D01*
X127757771Y-82145786D01*
X127805407Y-82135661D01*
X127847633Y-82135661D01*
X127889000Y-82131000D01*
X127930367Y-82135661D01*
G37*
G36*
X143170367Y-82135661D02*
G01*
X143212593Y-82135661D01*
X143260228Y-82145786D01*
X143307017Y-82151058D01*
X143341039Y-82162962D01*
X143376127Y-82170421D01*
X143426695Y-82192935D01*
X143476107Y-82210225D01*
X143501823Y-82226383D01*
X143528860Y-82238421D01*
X143579275Y-82275050D01*
X143627792Y-82305535D01*
X143645214Y-82322957D01*
X143664117Y-82336691D01*
X143710844Y-82388587D01*
X143754465Y-82432208D01*
X143764499Y-82448177D01*
X143775986Y-82460935D01*
X143815285Y-82529003D01*
X143849775Y-82583893D01*
X143854080Y-82596197D01*
X143859580Y-82605723D01*
X143887740Y-82692392D01*
X143908942Y-82752983D01*
X143909746Y-82760118D01*
X143911244Y-82764729D01*
X143924820Y-82893904D01*
X143929000Y-82931000D01*
X143924819Y-82968098D01*
X143911244Y-83097270D01*
X143909746Y-83101879D01*
X143908942Y-83109017D01*
X143887736Y-83169620D01*
X143859580Y-83256276D01*
X143854081Y-83265799D01*
X143849775Y-83278107D01*
X143815278Y-83333007D01*
X143775986Y-83401064D01*
X143764501Y-83413818D01*
X143754465Y-83429792D01*
X143710835Y-83473421D01*
X143664117Y-83525308D01*
X143645218Y-83539038D01*
X143627792Y-83556465D01*
X143579265Y-83586956D01*
X143528860Y-83623578D01*
X143501829Y-83635612D01*
X143476107Y-83651775D01*
X143426685Y-83669068D01*
X143376127Y-83691578D01*
X143341045Y-83699035D01*
X143307017Y-83710942D01*
X143260225Y-83716214D01*
X143212593Y-83726339D01*
X143170367Y-83726339D01*
X143129000Y-83731000D01*
X143087633Y-83726339D01*
X143045407Y-83726339D01*
X142997774Y-83716214D01*
X142950983Y-83710942D01*
X142916955Y-83699035D01*
X142881872Y-83691578D01*
X142831309Y-83669066D01*
X142781893Y-83651775D01*
X142756173Y-83635614D01*
X142729139Y-83623578D01*
X142678726Y-83586951D01*
X142630208Y-83556465D01*
X142612784Y-83539041D01*
X142593882Y-83525308D01*
X142547154Y-83473411D01*
X142503535Y-83429792D01*
X142493500Y-83413822D01*
X142482013Y-83401064D01*
X142442709Y-83332987D01*
X142408225Y-83278107D01*
X142403919Y-83265803D01*
X142398419Y-83256276D01*
X142370249Y-83169580D01*
X142349058Y-83109017D01*
X142348254Y-83101884D01*
X142346755Y-83097270D01*
X142333165Y-82967966D01*
X142329000Y-82931000D01*
X142333164Y-82894036D01*
X142346755Y-82764729D01*
X142348254Y-82760113D01*
X142349058Y-82752983D01*
X142370245Y-82692432D01*
X142398419Y-82605723D01*
X142403920Y-82596193D01*
X142408225Y-82583893D01*
X142442701Y-82529023D01*
X142482013Y-82460935D01*
X142493502Y-82448174D01*
X142503535Y-82432208D01*
X142547145Y-82388597D01*
X142593882Y-82336691D01*
X142612787Y-82322955D01*
X142630208Y-82305535D01*
X142678721Y-82275052D01*
X142729140Y-82238421D01*
X142756176Y-82226383D01*
X142781893Y-82210225D01*
X142831301Y-82192936D01*
X142881872Y-82170421D01*
X142916961Y-82162962D01*
X142950983Y-82151058D01*
X142997771Y-82145786D01*
X143045407Y-82135661D01*
X143087633Y-82135661D01*
X143129000Y-82131000D01*
X143170367Y-82135661D01*
G37*
G36*
X149490800Y-82511000D02*
G01*
X147790800Y-82511000D01*
X147790800Y-80811000D01*
X149490800Y-80811000D01*
X149490800Y-82511000D01*
G37*
G36*
X151443464Y-80852602D02*
G01*
X151605800Y-80924878D01*
X151749561Y-81029327D01*
X151868464Y-81161383D01*
X151957314Y-81315274D01*
X152012225Y-81484275D01*
X152030800Y-81661000D01*
X152012225Y-81837725D01*
X151957314Y-82006726D01*
X151868464Y-82160617D01*
X151749561Y-82292673D01*
X151605800Y-82397122D01*
X151443464Y-82469398D01*
X151269649Y-82506344D01*
X151091951Y-82506344D01*
X150918136Y-82469398D01*
X150755800Y-82397122D01*
X150612039Y-82292673D01*
X150493136Y-82160617D01*
X150404286Y-82006726D01*
X150349375Y-81837725D01*
X150330800Y-81661000D01*
X150349375Y-81484275D01*
X150404286Y-81315274D01*
X150493136Y-81161383D01*
X150612039Y-81029327D01*
X150755800Y-80924878D01*
X150918136Y-80852602D01*
X151091951Y-80815656D01*
X151269649Y-80815656D01*
X151443464Y-80852602D01*
G37*
G36*
X93861664Y-79582602D02*
G01*
X94024000Y-79654878D01*
X94167761Y-79759327D01*
X94286664Y-79891383D01*
X94375514Y-80045274D01*
X94430425Y-80214275D01*
X94449000Y-80391000D01*
X94430425Y-80567725D01*
X94375514Y-80736726D01*
X94286664Y-80890617D01*
X94167761Y-81022673D01*
X94024000Y-81127122D01*
X93861664Y-81199398D01*
X93687849Y-81236344D01*
X93510151Y-81236344D01*
X93336336Y-81199398D01*
X93174000Y-81127122D01*
X93030239Y-81022673D01*
X92911336Y-80890617D01*
X92822486Y-80736726D01*
X92767575Y-80567725D01*
X92749000Y-80391000D01*
X92767575Y-80214275D01*
X92822486Y-80045274D01*
X92911336Y-79891383D01*
X93030239Y-79759327D01*
X93174000Y-79654878D01*
X93336336Y-79582602D01*
X93510151Y-79545656D01*
X93687849Y-79545656D01*
X93861664Y-79582602D01*
G37*
G36*
X109101664Y-79582602D02*
G01*
X109264000Y-79654878D01*
X109407761Y-79759327D01*
X109526664Y-79891383D01*
X109615514Y-80045274D01*
X109670425Y-80214275D01*
X109689000Y-80391000D01*
X109670425Y-80567725D01*
X109615514Y-80736726D01*
X109526664Y-80890617D01*
X109407761Y-81022673D01*
X109264000Y-81127122D01*
X109101664Y-81199398D01*
X108927849Y-81236344D01*
X108750151Y-81236344D01*
X108576336Y-81199398D01*
X108414000Y-81127122D01*
X108270239Y-81022673D01*
X108151336Y-80890617D01*
X108062486Y-80736726D01*
X108007575Y-80567725D01*
X107989000Y-80391000D01*
X108007575Y-80214275D01*
X108062486Y-80045274D01*
X108151336Y-79891383D01*
X108270239Y-79759327D01*
X108414000Y-79654878D01*
X108576336Y-79582602D01*
X108750151Y-79545656D01*
X108927849Y-79545656D01*
X109101664Y-79582602D01*
G37*
G36*
X127930367Y-79595661D02*
G01*
X127972593Y-79595661D01*
X128020228Y-79605786D01*
X128067017Y-79611058D01*
X128101039Y-79622962D01*
X128136127Y-79630421D01*
X128186695Y-79652935D01*
X128236107Y-79670225D01*
X128261823Y-79686383D01*
X128288860Y-79698421D01*
X128339275Y-79735050D01*
X128387792Y-79765535D01*
X128405214Y-79782957D01*
X128424117Y-79796691D01*
X128470844Y-79848587D01*
X128514465Y-79892208D01*
X128524499Y-79908177D01*
X128535986Y-79920935D01*
X128575285Y-79989003D01*
X128609775Y-80043893D01*
X128614080Y-80056197D01*
X128619580Y-80065723D01*
X128647740Y-80152392D01*
X128668942Y-80212983D01*
X128669746Y-80220118D01*
X128671244Y-80224729D01*
X128684820Y-80353904D01*
X128689000Y-80391000D01*
X128684819Y-80428098D01*
X128671244Y-80557270D01*
X128669746Y-80561879D01*
X128668942Y-80569017D01*
X128647736Y-80629620D01*
X128619580Y-80716276D01*
X128614081Y-80725799D01*
X128609775Y-80738107D01*
X128575278Y-80793007D01*
X128535986Y-80861064D01*
X128524501Y-80873818D01*
X128514465Y-80889792D01*
X128470835Y-80933421D01*
X128424117Y-80985308D01*
X128405218Y-80999038D01*
X128387792Y-81016465D01*
X128339265Y-81046956D01*
X128288860Y-81083578D01*
X128261829Y-81095612D01*
X128236107Y-81111775D01*
X128186685Y-81129068D01*
X128136127Y-81151578D01*
X128101045Y-81159035D01*
X128067017Y-81170942D01*
X128020225Y-81176214D01*
X127972593Y-81186339D01*
X127930367Y-81186339D01*
X127889000Y-81191000D01*
X127847633Y-81186339D01*
X127805407Y-81186339D01*
X127757774Y-81176214D01*
X127710983Y-81170942D01*
X127676955Y-81159035D01*
X127641872Y-81151578D01*
X127591309Y-81129066D01*
X127541893Y-81111775D01*
X127516173Y-81095614D01*
X127489139Y-81083578D01*
X127438726Y-81046951D01*
X127390208Y-81016465D01*
X127372784Y-80999041D01*
X127353882Y-80985308D01*
X127307154Y-80933411D01*
X127263535Y-80889792D01*
X127253500Y-80873822D01*
X127242013Y-80861064D01*
X127202709Y-80792987D01*
X127168225Y-80738107D01*
X127163919Y-80725803D01*
X127158419Y-80716276D01*
X127130249Y-80629580D01*
X127109058Y-80569017D01*
X127108254Y-80561884D01*
X127106755Y-80557270D01*
X127093165Y-80427966D01*
X127089000Y-80391000D01*
X127093164Y-80354036D01*
X127106755Y-80224729D01*
X127108254Y-80220113D01*
X127109058Y-80212983D01*
X127130245Y-80152432D01*
X127158419Y-80065723D01*
X127163920Y-80056193D01*
X127168225Y-80043893D01*
X127202701Y-79989023D01*
X127242013Y-79920935D01*
X127253502Y-79908174D01*
X127263535Y-79892208D01*
X127307145Y-79848597D01*
X127353882Y-79796691D01*
X127372787Y-79782955D01*
X127390208Y-79765535D01*
X127438721Y-79735052D01*
X127489140Y-79698421D01*
X127516176Y-79686383D01*
X127541893Y-79670225D01*
X127591301Y-79652936D01*
X127641872Y-79630421D01*
X127676961Y-79622962D01*
X127710983Y-79611058D01*
X127757771Y-79605786D01*
X127805407Y-79595661D01*
X127847633Y-79595661D01*
X127889000Y-79591000D01*
X127930367Y-79595661D01*
G37*
G36*
X143170367Y-79595661D02*
G01*
X143212593Y-79595661D01*
X143260228Y-79605786D01*
X143307017Y-79611058D01*
X143341039Y-79622962D01*
X143376127Y-79630421D01*
X143426695Y-79652935D01*
X143476107Y-79670225D01*
X143501823Y-79686383D01*
X143528860Y-79698421D01*
X143579275Y-79735050D01*
X143627792Y-79765535D01*
X143645214Y-79782957D01*
X143664117Y-79796691D01*
X143710844Y-79848587D01*
X143754465Y-79892208D01*
X143764499Y-79908177D01*
X143775986Y-79920935D01*
X143815285Y-79989003D01*
X143849775Y-80043893D01*
X143854080Y-80056197D01*
X143859580Y-80065723D01*
X143887740Y-80152392D01*
X143908942Y-80212983D01*
X143909746Y-80220118D01*
X143911244Y-80224729D01*
X143924820Y-80353904D01*
X143929000Y-80391000D01*
X143924819Y-80428098D01*
X143911244Y-80557270D01*
X143909746Y-80561879D01*
X143908942Y-80569017D01*
X143887736Y-80629620D01*
X143859580Y-80716276D01*
X143854081Y-80725799D01*
X143849775Y-80738107D01*
X143815278Y-80793007D01*
X143775986Y-80861064D01*
X143764501Y-80873818D01*
X143754465Y-80889792D01*
X143710835Y-80933421D01*
X143664117Y-80985308D01*
X143645218Y-80999038D01*
X143627792Y-81016465D01*
X143579265Y-81046956D01*
X143528860Y-81083578D01*
X143501829Y-81095612D01*
X143476107Y-81111775D01*
X143426685Y-81129068D01*
X143376127Y-81151578D01*
X143341045Y-81159035D01*
X143307017Y-81170942D01*
X143260225Y-81176214D01*
X143212593Y-81186339D01*
X143170367Y-81186339D01*
X143129000Y-81191000D01*
X143087633Y-81186339D01*
X143045407Y-81186339D01*
X142997774Y-81176214D01*
X142950983Y-81170942D01*
X142916955Y-81159035D01*
X142881872Y-81151578D01*
X142831309Y-81129066D01*
X142781893Y-81111775D01*
X142756173Y-81095614D01*
X142729139Y-81083578D01*
X142678726Y-81046951D01*
X142630208Y-81016465D01*
X142612784Y-80999041D01*
X142593882Y-80985308D01*
X142547154Y-80933411D01*
X142503535Y-80889792D01*
X142493500Y-80873822D01*
X142482013Y-80861064D01*
X142442709Y-80792987D01*
X142408225Y-80738107D01*
X142403919Y-80725803D01*
X142398419Y-80716276D01*
X142370249Y-80629580D01*
X142349058Y-80569017D01*
X142348254Y-80561884D01*
X142346755Y-80557270D01*
X142333165Y-80427966D01*
X142329000Y-80391000D01*
X142333164Y-80354036D01*
X142346755Y-80224729D01*
X142348254Y-80220113D01*
X142349058Y-80212983D01*
X142370245Y-80152432D01*
X142398419Y-80065723D01*
X142403920Y-80056193D01*
X142408225Y-80043893D01*
X142442701Y-79989023D01*
X142482013Y-79920935D01*
X142493502Y-79908174D01*
X142503535Y-79892208D01*
X142547145Y-79848597D01*
X142593882Y-79796691D01*
X142612787Y-79782955D01*
X142630208Y-79765535D01*
X142678721Y-79735052D01*
X142729140Y-79698421D01*
X142756176Y-79686383D01*
X142781893Y-79670225D01*
X142831301Y-79652936D01*
X142881872Y-79630421D01*
X142916961Y-79622962D01*
X142950983Y-79611058D01*
X142997771Y-79605786D01*
X143045407Y-79595661D01*
X143087633Y-79595661D01*
X143129000Y-79591000D01*
X143170367Y-79595661D01*
G37*
G36*
X93861664Y-77042602D02*
G01*
X94024000Y-77114878D01*
X94167761Y-77219327D01*
X94286664Y-77351383D01*
X94375514Y-77505274D01*
X94430425Y-77674275D01*
X94449000Y-77851000D01*
X94430425Y-78027725D01*
X94375514Y-78196726D01*
X94286664Y-78350617D01*
X94167761Y-78482673D01*
X94024000Y-78587122D01*
X93861664Y-78659398D01*
X93687849Y-78696344D01*
X93510151Y-78696344D01*
X93336336Y-78659398D01*
X93174000Y-78587122D01*
X93030239Y-78482673D01*
X92911336Y-78350617D01*
X92822486Y-78196726D01*
X92767575Y-78027725D01*
X92749000Y-77851000D01*
X92767575Y-77674275D01*
X92822486Y-77505274D01*
X92911336Y-77351383D01*
X93030239Y-77219327D01*
X93174000Y-77114878D01*
X93336336Y-77042602D01*
X93510151Y-77005656D01*
X93687849Y-77005656D01*
X93861664Y-77042602D01*
G37*
G36*
X109101664Y-77042602D02*
G01*
X109264000Y-77114878D01*
X109407761Y-77219327D01*
X109526664Y-77351383D01*
X109615514Y-77505274D01*
X109670425Y-77674275D01*
X109689000Y-77851000D01*
X109670425Y-78027725D01*
X109615514Y-78196726D01*
X109526664Y-78350617D01*
X109407761Y-78482673D01*
X109264000Y-78587122D01*
X109101664Y-78659398D01*
X108927849Y-78696344D01*
X108750151Y-78696344D01*
X108576336Y-78659398D01*
X108414000Y-78587122D01*
X108270239Y-78482673D01*
X108151336Y-78350617D01*
X108062486Y-78196726D01*
X108007575Y-78027725D01*
X107989000Y-77851000D01*
X108007575Y-77674275D01*
X108062486Y-77505274D01*
X108151336Y-77351383D01*
X108270239Y-77219327D01*
X108414000Y-77114878D01*
X108576336Y-77042602D01*
X108750151Y-77005656D01*
X108927849Y-77005656D01*
X109101664Y-77042602D01*
G37*
G36*
X127930367Y-77055661D02*
G01*
X127972593Y-77055661D01*
X128020228Y-77065786D01*
X128067017Y-77071058D01*
X128101039Y-77082962D01*
X128136127Y-77090421D01*
X128186695Y-77112935D01*
X128236107Y-77130225D01*
X128261823Y-77146383D01*
X128288860Y-77158421D01*
X128339275Y-77195050D01*
X128387792Y-77225535D01*
X128405214Y-77242957D01*
X128424117Y-77256691D01*
X128470844Y-77308587D01*
X128514465Y-77352208D01*
X128524499Y-77368177D01*
X128535986Y-77380935D01*
X128575285Y-77449003D01*
X128609775Y-77503893D01*
X128614080Y-77516197D01*
X128619580Y-77525723D01*
X128647740Y-77612392D01*
X128668942Y-77672983D01*
X128669746Y-77680118D01*
X128671244Y-77684729D01*
X128684820Y-77813904D01*
X128689000Y-77851000D01*
X128684819Y-77888098D01*
X128671244Y-78017270D01*
X128669746Y-78021879D01*
X128668942Y-78029017D01*
X128647736Y-78089620D01*
X128619580Y-78176276D01*
X128614081Y-78185799D01*
X128609775Y-78198107D01*
X128575278Y-78253007D01*
X128535986Y-78321064D01*
X128524501Y-78333818D01*
X128514465Y-78349792D01*
X128470835Y-78393421D01*
X128424117Y-78445308D01*
X128405218Y-78459038D01*
X128387792Y-78476465D01*
X128339265Y-78506956D01*
X128288860Y-78543578D01*
X128261829Y-78555612D01*
X128236107Y-78571775D01*
X128186685Y-78589068D01*
X128136127Y-78611578D01*
X128101045Y-78619035D01*
X128067017Y-78630942D01*
X128020225Y-78636214D01*
X127972593Y-78646339D01*
X127930367Y-78646339D01*
X127889000Y-78651000D01*
X127847633Y-78646339D01*
X127805407Y-78646339D01*
X127757774Y-78636214D01*
X127710983Y-78630942D01*
X127676955Y-78619035D01*
X127641872Y-78611578D01*
X127591309Y-78589066D01*
X127541893Y-78571775D01*
X127516173Y-78555614D01*
X127489139Y-78543578D01*
X127438726Y-78506951D01*
X127390208Y-78476465D01*
X127372784Y-78459041D01*
X127353882Y-78445308D01*
X127307154Y-78393411D01*
X127263535Y-78349792D01*
X127253500Y-78333822D01*
X127242013Y-78321064D01*
X127202709Y-78252987D01*
X127168225Y-78198107D01*
X127163919Y-78185803D01*
X127158419Y-78176276D01*
X127130249Y-78089580D01*
X127109058Y-78029017D01*
X127108254Y-78021884D01*
X127106755Y-78017270D01*
X127093165Y-77887966D01*
X127089000Y-77851000D01*
X127093164Y-77814036D01*
X127106755Y-77684729D01*
X127108254Y-77680113D01*
X127109058Y-77672983D01*
X127130245Y-77612432D01*
X127158419Y-77525723D01*
X127163920Y-77516193D01*
X127168225Y-77503893D01*
X127202701Y-77449023D01*
X127242013Y-77380935D01*
X127253502Y-77368174D01*
X127263535Y-77352208D01*
X127307145Y-77308597D01*
X127353882Y-77256691D01*
X127372787Y-77242955D01*
X127390208Y-77225535D01*
X127438721Y-77195052D01*
X127489140Y-77158421D01*
X127516176Y-77146383D01*
X127541893Y-77130225D01*
X127591301Y-77112936D01*
X127641872Y-77090421D01*
X127676961Y-77082962D01*
X127710983Y-77071058D01*
X127757771Y-77065786D01*
X127805407Y-77055661D01*
X127847633Y-77055661D01*
X127889000Y-77051000D01*
X127930367Y-77055661D01*
G37*
G36*
X143170367Y-77055661D02*
G01*
X143212593Y-77055661D01*
X143260228Y-77065786D01*
X143307017Y-77071058D01*
X143341039Y-77082962D01*
X143376127Y-77090421D01*
X143426695Y-77112935D01*
X143476107Y-77130225D01*
X143501823Y-77146383D01*
X143528860Y-77158421D01*
X143579275Y-77195050D01*
X143627792Y-77225535D01*
X143645214Y-77242957D01*
X143664117Y-77256691D01*
X143710844Y-77308587D01*
X143754465Y-77352208D01*
X143764499Y-77368177D01*
X143775986Y-77380935D01*
X143815285Y-77449003D01*
X143849775Y-77503893D01*
X143854080Y-77516197D01*
X143859580Y-77525723D01*
X143887740Y-77612392D01*
X143908942Y-77672983D01*
X143909746Y-77680118D01*
X143911244Y-77684729D01*
X143924820Y-77813904D01*
X143929000Y-77851000D01*
X143924819Y-77888098D01*
X143911244Y-78017270D01*
X143909746Y-78021879D01*
X143908942Y-78029017D01*
X143887736Y-78089620D01*
X143859580Y-78176276D01*
X143854081Y-78185799D01*
X143849775Y-78198107D01*
X143815278Y-78253007D01*
X143775986Y-78321064D01*
X143764501Y-78333818D01*
X143754465Y-78349792D01*
X143710835Y-78393421D01*
X143664117Y-78445308D01*
X143645218Y-78459038D01*
X143627792Y-78476465D01*
X143579265Y-78506956D01*
X143528860Y-78543578D01*
X143501829Y-78555612D01*
X143476107Y-78571775D01*
X143426685Y-78589068D01*
X143376127Y-78611578D01*
X143341045Y-78619035D01*
X143307017Y-78630942D01*
X143260225Y-78636214D01*
X143212593Y-78646339D01*
X143170367Y-78646339D01*
X143129000Y-78651000D01*
X143087633Y-78646339D01*
X143045407Y-78646339D01*
X142997774Y-78636214D01*
X142950983Y-78630942D01*
X142916955Y-78619035D01*
X142881872Y-78611578D01*
X142831309Y-78589066D01*
X142781893Y-78571775D01*
X142756173Y-78555614D01*
X142729139Y-78543578D01*
X142678726Y-78506951D01*
X142630208Y-78476465D01*
X142612784Y-78459041D01*
X142593882Y-78445308D01*
X142547154Y-78393411D01*
X142503535Y-78349792D01*
X142493500Y-78333822D01*
X142482013Y-78321064D01*
X142442709Y-78252987D01*
X142408225Y-78198107D01*
X142403919Y-78185803D01*
X142398419Y-78176276D01*
X142370249Y-78089580D01*
X142349058Y-78029017D01*
X142348254Y-78021884D01*
X142346755Y-78017270D01*
X142333165Y-77887966D01*
X142329000Y-77851000D01*
X142333164Y-77814036D01*
X142346755Y-77684729D01*
X142348254Y-77680113D01*
X142349058Y-77672983D01*
X142370245Y-77612432D01*
X142398419Y-77525723D01*
X142403920Y-77516193D01*
X142408225Y-77503893D01*
X142442701Y-77449023D01*
X142482013Y-77380935D01*
X142493502Y-77368174D01*
X142503535Y-77352208D01*
X142547145Y-77308597D01*
X142593882Y-77256691D01*
X142612787Y-77242955D01*
X142630208Y-77225535D01*
X142678721Y-77195052D01*
X142729140Y-77158421D01*
X142756176Y-77146383D01*
X142781893Y-77130225D01*
X142831301Y-77112936D01*
X142881872Y-77090421D01*
X142916961Y-77082962D01*
X142950983Y-77071058D01*
X142997771Y-77065786D01*
X143045407Y-77055661D01*
X143087633Y-77055661D01*
X143129000Y-77051000D01*
X143170367Y-77055661D01*
G37*
G36*
X93861664Y-74502602D02*
G01*
X94024000Y-74574878D01*
X94167761Y-74679327D01*
X94286664Y-74811383D01*
X94375514Y-74965274D01*
X94430425Y-75134275D01*
X94449000Y-75311000D01*
X94430425Y-75487725D01*
X94375514Y-75656726D01*
X94286664Y-75810617D01*
X94167761Y-75942673D01*
X94024000Y-76047122D01*
X93861664Y-76119398D01*
X93687849Y-76156344D01*
X93510151Y-76156344D01*
X93336336Y-76119398D01*
X93174000Y-76047122D01*
X93030239Y-75942673D01*
X92911336Y-75810617D01*
X92822486Y-75656726D01*
X92767575Y-75487725D01*
X92749000Y-75311000D01*
X92767575Y-75134275D01*
X92822486Y-74965274D01*
X92911336Y-74811383D01*
X93030239Y-74679327D01*
X93174000Y-74574878D01*
X93336336Y-74502602D01*
X93510151Y-74465656D01*
X93687849Y-74465656D01*
X93861664Y-74502602D01*
G37*
G36*
X109101664Y-74502602D02*
G01*
X109264000Y-74574878D01*
X109407761Y-74679327D01*
X109526664Y-74811383D01*
X109615514Y-74965274D01*
X109670425Y-75134275D01*
X109689000Y-75311000D01*
X109670425Y-75487725D01*
X109615514Y-75656726D01*
X109526664Y-75810617D01*
X109407761Y-75942673D01*
X109264000Y-76047122D01*
X109101664Y-76119398D01*
X108927849Y-76156344D01*
X108750151Y-76156344D01*
X108576336Y-76119398D01*
X108414000Y-76047122D01*
X108270239Y-75942673D01*
X108151336Y-75810617D01*
X108062486Y-75656726D01*
X108007575Y-75487725D01*
X107989000Y-75311000D01*
X108007575Y-75134275D01*
X108062486Y-74965274D01*
X108151336Y-74811383D01*
X108270239Y-74679327D01*
X108414000Y-74574878D01*
X108576336Y-74502602D01*
X108750151Y-74465656D01*
X108927849Y-74465656D01*
X109101664Y-74502602D01*
G37*
G36*
X127930367Y-74515661D02*
G01*
X127972593Y-74515661D01*
X128020228Y-74525786D01*
X128067017Y-74531058D01*
X128101039Y-74542962D01*
X128136127Y-74550421D01*
X128186695Y-74572935D01*
X128236107Y-74590225D01*
X128261823Y-74606383D01*
X128288860Y-74618421D01*
X128339275Y-74655050D01*
X128387792Y-74685535D01*
X128405214Y-74702957D01*
X128424117Y-74716691D01*
X128470844Y-74768587D01*
X128514465Y-74812208D01*
X128524499Y-74828177D01*
X128535986Y-74840935D01*
X128575285Y-74909003D01*
X128609775Y-74963893D01*
X128614080Y-74976197D01*
X128619580Y-74985723D01*
X128647740Y-75072392D01*
X128668942Y-75132983D01*
X128669746Y-75140118D01*
X128671244Y-75144729D01*
X128684820Y-75273904D01*
X128689000Y-75311000D01*
X128684819Y-75348098D01*
X128671244Y-75477270D01*
X128669746Y-75481879D01*
X128668942Y-75489017D01*
X128647736Y-75549620D01*
X128619580Y-75636276D01*
X128614081Y-75645799D01*
X128609775Y-75658107D01*
X128575278Y-75713007D01*
X128535986Y-75781064D01*
X128524501Y-75793818D01*
X128514465Y-75809792D01*
X128470835Y-75853421D01*
X128424117Y-75905308D01*
X128405218Y-75919038D01*
X128387792Y-75936465D01*
X128339265Y-75966956D01*
X128288860Y-76003578D01*
X128261829Y-76015612D01*
X128236107Y-76031775D01*
X128186685Y-76049068D01*
X128136127Y-76071578D01*
X128101045Y-76079035D01*
X128067017Y-76090942D01*
X128020225Y-76096214D01*
X127972593Y-76106339D01*
X127930367Y-76106339D01*
X127889000Y-76111000D01*
X127847633Y-76106339D01*
X127805407Y-76106339D01*
X127757774Y-76096214D01*
X127710983Y-76090942D01*
X127676955Y-76079035D01*
X127641872Y-76071578D01*
X127591309Y-76049066D01*
X127541893Y-76031775D01*
X127516173Y-76015614D01*
X127489139Y-76003578D01*
X127438726Y-75966951D01*
X127390208Y-75936465D01*
X127372784Y-75919041D01*
X127353882Y-75905308D01*
X127307154Y-75853411D01*
X127263535Y-75809792D01*
X127253500Y-75793822D01*
X127242013Y-75781064D01*
X127202709Y-75712987D01*
X127168225Y-75658107D01*
X127163919Y-75645803D01*
X127158419Y-75636276D01*
X127130249Y-75549580D01*
X127109058Y-75489017D01*
X127108254Y-75481884D01*
X127106755Y-75477270D01*
X127093165Y-75347966D01*
X127089000Y-75311000D01*
X127093164Y-75274036D01*
X127106755Y-75144729D01*
X127108254Y-75140113D01*
X127109058Y-75132983D01*
X127130245Y-75072432D01*
X127158419Y-74985723D01*
X127163920Y-74976193D01*
X127168225Y-74963893D01*
X127202701Y-74909023D01*
X127242013Y-74840935D01*
X127253502Y-74828174D01*
X127263535Y-74812208D01*
X127307145Y-74768597D01*
X127353882Y-74716691D01*
X127372787Y-74702955D01*
X127390208Y-74685535D01*
X127438721Y-74655052D01*
X127489140Y-74618421D01*
X127516176Y-74606383D01*
X127541893Y-74590225D01*
X127591301Y-74572936D01*
X127641872Y-74550421D01*
X127676961Y-74542962D01*
X127710983Y-74531058D01*
X127757771Y-74525786D01*
X127805407Y-74515661D01*
X127847633Y-74515661D01*
X127889000Y-74511000D01*
X127930367Y-74515661D01*
G37*
G36*
X143170367Y-74515661D02*
G01*
X143212593Y-74515661D01*
X143260228Y-74525786D01*
X143307017Y-74531058D01*
X143341039Y-74542962D01*
X143376127Y-74550421D01*
X143426695Y-74572935D01*
X143476107Y-74590225D01*
X143501823Y-74606383D01*
X143528860Y-74618421D01*
X143579275Y-74655050D01*
X143627792Y-74685535D01*
X143645214Y-74702957D01*
X143664117Y-74716691D01*
X143710844Y-74768587D01*
X143754465Y-74812208D01*
X143764499Y-74828177D01*
X143775986Y-74840935D01*
X143815285Y-74909003D01*
X143849775Y-74963893D01*
X143854080Y-74976197D01*
X143859580Y-74985723D01*
X143887740Y-75072392D01*
X143908942Y-75132983D01*
X143909746Y-75140118D01*
X143911244Y-75144729D01*
X143924820Y-75273904D01*
X143929000Y-75311000D01*
X143924819Y-75348098D01*
X143911244Y-75477270D01*
X143909746Y-75481879D01*
X143908942Y-75489017D01*
X143887736Y-75549620D01*
X143859580Y-75636276D01*
X143854081Y-75645799D01*
X143849775Y-75658107D01*
X143815278Y-75713007D01*
X143775986Y-75781064D01*
X143764501Y-75793818D01*
X143754465Y-75809792D01*
X143710835Y-75853421D01*
X143664117Y-75905308D01*
X143645218Y-75919038D01*
X143627792Y-75936465D01*
X143579265Y-75966956D01*
X143528860Y-76003578D01*
X143501829Y-76015612D01*
X143476107Y-76031775D01*
X143426685Y-76049068D01*
X143376127Y-76071578D01*
X143341045Y-76079035D01*
X143307017Y-76090942D01*
X143260225Y-76096214D01*
X143212593Y-76106339D01*
X143170367Y-76106339D01*
X143129000Y-76111000D01*
X143087633Y-76106339D01*
X143045407Y-76106339D01*
X142997774Y-76096214D01*
X142950983Y-76090942D01*
X142916955Y-76079035D01*
X142881872Y-76071578D01*
X142831309Y-76049066D01*
X142781893Y-76031775D01*
X142756173Y-76015614D01*
X142729139Y-76003578D01*
X142678726Y-75966951D01*
X142630208Y-75936465D01*
X142612784Y-75919041D01*
X142593882Y-75905308D01*
X142547154Y-75853411D01*
X142503535Y-75809792D01*
X142493500Y-75793822D01*
X142482013Y-75781064D01*
X142442709Y-75712987D01*
X142408225Y-75658107D01*
X142403919Y-75645803D01*
X142398419Y-75636276D01*
X142370249Y-75549580D01*
X142349058Y-75489017D01*
X142348254Y-75481884D01*
X142346755Y-75477270D01*
X142333165Y-75347966D01*
X142329000Y-75311000D01*
X142333164Y-75274036D01*
X142346755Y-75144729D01*
X142348254Y-75140113D01*
X142349058Y-75132983D01*
X142370245Y-75072432D01*
X142398419Y-74985723D01*
X142403920Y-74976193D01*
X142408225Y-74963893D01*
X142442701Y-74909023D01*
X142482013Y-74840935D01*
X142493502Y-74828174D01*
X142503535Y-74812208D01*
X142547145Y-74768597D01*
X142593882Y-74716691D01*
X142612787Y-74702955D01*
X142630208Y-74685535D01*
X142678721Y-74655052D01*
X142729140Y-74618421D01*
X142756176Y-74606383D01*
X142781893Y-74590225D01*
X142831301Y-74572936D01*
X142881872Y-74550421D01*
X142916961Y-74542962D01*
X142950983Y-74531058D01*
X142997771Y-74525786D01*
X143045407Y-74515661D01*
X143087633Y-74515661D01*
X143129000Y-74511000D01*
X143170367Y-74515661D01*
G37*
G36*
X93861664Y-71962602D02*
G01*
X94024000Y-72034878D01*
X94167761Y-72139327D01*
X94286664Y-72271383D01*
X94375514Y-72425274D01*
X94430425Y-72594275D01*
X94449000Y-72771000D01*
X94430425Y-72947725D01*
X94375514Y-73116726D01*
X94286664Y-73270617D01*
X94167761Y-73402673D01*
X94024000Y-73507122D01*
X93861664Y-73579398D01*
X93687849Y-73616344D01*
X93510151Y-73616344D01*
X93336336Y-73579398D01*
X93174000Y-73507122D01*
X93030239Y-73402673D01*
X92911336Y-73270617D01*
X92822486Y-73116726D01*
X92767575Y-72947725D01*
X92749000Y-72771000D01*
X92767575Y-72594275D01*
X92822486Y-72425274D01*
X92911336Y-72271383D01*
X93030239Y-72139327D01*
X93174000Y-72034878D01*
X93336336Y-71962602D01*
X93510151Y-71925656D01*
X93687849Y-71925656D01*
X93861664Y-71962602D01*
G37*
G36*
X109101664Y-71962602D02*
G01*
X109264000Y-72034878D01*
X109407761Y-72139327D01*
X109526664Y-72271383D01*
X109615514Y-72425274D01*
X109670425Y-72594275D01*
X109689000Y-72771000D01*
X109670425Y-72947725D01*
X109615514Y-73116726D01*
X109526664Y-73270617D01*
X109407761Y-73402673D01*
X109264000Y-73507122D01*
X109101664Y-73579398D01*
X108927849Y-73616344D01*
X108750151Y-73616344D01*
X108576336Y-73579398D01*
X108414000Y-73507122D01*
X108270239Y-73402673D01*
X108151336Y-73270617D01*
X108062486Y-73116726D01*
X108007575Y-72947725D01*
X107989000Y-72771000D01*
X108007575Y-72594275D01*
X108062486Y-72425274D01*
X108151336Y-72271383D01*
X108270239Y-72139327D01*
X108414000Y-72034878D01*
X108576336Y-71962602D01*
X108750151Y-71925656D01*
X108927849Y-71925656D01*
X109101664Y-71962602D01*
G37*
G36*
X127930367Y-71975661D02*
G01*
X127972593Y-71975661D01*
X128020228Y-71985786D01*
X128067017Y-71991058D01*
X128101039Y-72002962D01*
X128136127Y-72010421D01*
X128186695Y-72032935D01*
X128236107Y-72050225D01*
X128261823Y-72066383D01*
X128288860Y-72078421D01*
X128339275Y-72115050D01*
X128387792Y-72145535D01*
X128405214Y-72162957D01*
X128424117Y-72176691D01*
X128470844Y-72228587D01*
X128514465Y-72272208D01*
X128524499Y-72288177D01*
X128535986Y-72300935D01*
X128575285Y-72369003D01*
X128609775Y-72423893D01*
X128614080Y-72436197D01*
X128619580Y-72445723D01*
X128647740Y-72532392D01*
X128668942Y-72592983D01*
X128669746Y-72600118D01*
X128671244Y-72604729D01*
X128684820Y-72733904D01*
X128689000Y-72771000D01*
X128684819Y-72808098D01*
X128671244Y-72937270D01*
X128669746Y-72941879D01*
X128668942Y-72949017D01*
X128647736Y-73009620D01*
X128619580Y-73096276D01*
X128614081Y-73105799D01*
X128609775Y-73118107D01*
X128575278Y-73173007D01*
X128535986Y-73241064D01*
X128524501Y-73253818D01*
X128514465Y-73269792D01*
X128470835Y-73313421D01*
X128424117Y-73365308D01*
X128405218Y-73379038D01*
X128387792Y-73396465D01*
X128339265Y-73426956D01*
X128288860Y-73463578D01*
X128261829Y-73475612D01*
X128236107Y-73491775D01*
X128186685Y-73509068D01*
X128136127Y-73531578D01*
X128101045Y-73539035D01*
X128067017Y-73550942D01*
X128020225Y-73556214D01*
X127972593Y-73566339D01*
X127930367Y-73566339D01*
X127889000Y-73571000D01*
X127847633Y-73566339D01*
X127805407Y-73566339D01*
X127757774Y-73556214D01*
X127710983Y-73550942D01*
X127676955Y-73539035D01*
X127641872Y-73531578D01*
X127591309Y-73509066D01*
X127541893Y-73491775D01*
X127516173Y-73475614D01*
X127489139Y-73463578D01*
X127438726Y-73426951D01*
X127390208Y-73396465D01*
X127372784Y-73379041D01*
X127353882Y-73365308D01*
X127307154Y-73313411D01*
X127263535Y-73269792D01*
X127253500Y-73253822D01*
X127242013Y-73241064D01*
X127202709Y-73172987D01*
X127168225Y-73118107D01*
X127163919Y-73105803D01*
X127158419Y-73096276D01*
X127130249Y-73009580D01*
X127109058Y-72949017D01*
X127108254Y-72941884D01*
X127106755Y-72937270D01*
X127093165Y-72807966D01*
X127089000Y-72771000D01*
X127093164Y-72734036D01*
X127106755Y-72604729D01*
X127108254Y-72600113D01*
X127109058Y-72592983D01*
X127130245Y-72532432D01*
X127158419Y-72445723D01*
X127163920Y-72436193D01*
X127168225Y-72423893D01*
X127202701Y-72369023D01*
X127242013Y-72300935D01*
X127253502Y-72288174D01*
X127263535Y-72272208D01*
X127307145Y-72228597D01*
X127353882Y-72176691D01*
X127372787Y-72162955D01*
X127390208Y-72145535D01*
X127438721Y-72115052D01*
X127489140Y-72078421D01*
X127516176Y-72066383D01*
X127541893Y-72050225D01*
X127591301Y-72032936D01*
X127641872Y-72010421D01*
X127676961Y-72002962D01*
X127710983Y-71991058D01*
X127757771Y-71985786D01*
X127805407Y-71975661D01*
X127847633Y-71975661D01*
X127889000Y-71971000D01*
X127930367Y-71975661D01*
G37*
G36*
X143170367Y-71975661D02*
G01*
X143212593Y-71975661D01*
X143260228Y-71985786D01*
X143307017Y-71991058D01*
X143341039Y-72002962D01*
X143376127Y-72010421D01*
X143426695Y-72032935D01*
X143476107Y-72050225D01*
X143501823Y-72066383D01*
X143528860Y-72078421D01*
X143579275Y-72115050D01*
X143627792Y-72145535D01*
X143645214Y-72162957D01*
X143664117Y-72176691D01*
X143710844Y-72228587D01*
X143754465Y-72272208D01*
X143764499Y-72288177D01*
X143775986Y-72300935D01*
X143815285Y-72369003D01*
X143849775Y-72423893D01*
X143854080Y-72436197D01*
X143859580Y-72445723D01*
X143887740Y-72532392D01*
X143908942Y-72592983D01*
X143909746Y-72600118D01*
X143911244Y-72604729D01*
X143924820Y-72733904D01*
X143929000Y-72771000D01*
X143924819Y-72808098D01*
X143911244Y-72937270D01*
X143909746Y-72941879D01*
X143908942Y-72949017D01*
X143887736Y-73009620D01*
X143859580Y-73096276D01*
X143854081Y-73105799D01*
X143849775Y-73118107D01*
X143815278Y-73173007D01*
X143775986Y-73241064D01*
X143764501Y-73253818D01*
X143754465Y-73269792D01*
X143710835Y-73313421D01*
X143664117Y-73365308D01*
X143645218Y-73379038D01*
X143627792Y-73396465D01*
X143579265Y-73426956D01*
X143528860Y-73463578D01*
X143501829Y-73475612D01*
X143476107Y-73491775D01*
X143426685Y-73509068D01*
X143376127Y-73531578D01*
X143341045Y-73539035D01*
X143307017Y-73550942D01*
X143260225Y-73556214D01*
X143212593Y-73566339D01*
X143170367Y-73566339D01*
X143129000Y-73571000D01*
X143087633Y-73566339D01*
X143045407Y-73566339D01*
X142997774Y-73556214D01*
X142950983Y-73550942D01*
X142916955Y-73539035D01*
X142881872Y-73531578D01*
X142831309Y-73509066D01*
X142781893Y-73491775D01*
X142756173Y-73475614D01*
X142729139Y-73463578D01*
X142678726Y-73426951D01*
X142630208Y-73396465D01*
X142612784Y-73379041D01*
X142593882Y-73365308D01*
X142547154Y-73313411D01*
X142503535Y-73269792D01*
X142493500Y-73253822D01*
X142482013Y-73241064D01*
X142442709Y-73172987D01*
X142408225Y-73118107D01*
X142403919Y-73105803D01*
X142398419Y-73096276D01*
X142370249Y-73009580D01*
X142349058Y-72949017D01*
X142348254Y-72941884D01*
X142346755Y-72937270D01*
X142333165Y-72807966D01*
X142329000Y-72771000D01*
X142333164Y-72734036D01*
X142346755Y-72604729D01*
X142348254Y-72600113D01*
X142349058Y-72592983D01*
X142370245Y-72532432D01*
X142398419Y-72445723D01*
X142403920Y-72436193D01*
X142408225Y-72423893D01*
X142442701Y-72369023D01*
X142482013Y-72300935D01*
X142493502Y-72288174D01*
X142503535Y-72272208D01*
X142547145Y-72228597D01*
X142593882Y-72176691D01*
X142612787Y-72162955D01*
X142630208Y-72145535D01*
X142678721Y-72115052D01*
X142729140Y-72078421D01*
X142756176Y-72066383D01*
X142781893Y-72050225D01*
X142831301Y-72032936D01*
X142881872Y-72010421D01*
X142916961Y-72002962D01*
X142950983Y-71991058D01*
X142997771Y-71985786D01*
X143045407Y-71975661D01*
X143087633Y-71975661D01*
X143129000Y-71971000D01*
X143170367Y-71975661D01*
G37*
G36*
X93861664Y-69422602D02*
G01*
X94024000Y-69494878D01*
X94167761Y-69599327D01*
X94286664Y-69731383D01*
X94375514Y-69885274D01*
X94430425Y-70054275D01*
X94449000Y-70231000D01*
X94430425Y-70407725D01*
X94375514Y-70576726D01*
X94286664Y-70730617D01*
X94167761Y-70862673D01*
X94024000Y-70967122D01*
X93861664Y-71039398D01*
X93687849Y-71076344D01*
X93510151Y-71076344D01*
X93336336Y-71039398D01*
X93174000Y-70967122D01*
X93030239Y-70862673D01*
X92911336Y-70730617D01*
X92822486Y-70576726D01*
X92767575Y-70407725D01*
X92749000Y-70231000D01*
X92767575Y-70054275D01*
X92822486Y-69885274D01*
X92911336Y-69731383D01*
X93030239Y-69599327D01*
X93174000Y-69494878D01*
X93336336Y-69422602D01*
X93510151Y-69385656D01*
X93687849Y-69385656D01*
X93861664Y-69422602D01*
G37*
G36*
X109101664Y-69422602D02*
G01*
X109264000Y-69494878D01*
X109407761Y-69599327D01*
X109526664Y-69731383D01*
X109615514Y-69885274D01*
X109670425Y-70054275D01*
X109689000Y-70231000D01*
X109670425Y-70407725D01*
X109615514Y-70576726D01*
X109526664Y-70730617D01*
X109407761Y-70862673D01*
X109264000Y-70967122D01*
X109101664Y-71039398D01*
X108927849Y-71076344D01*
X108750151Y-71076344D01*
X108576336Y-71039398D01*
X108414000Y-70967122D01*
X108270239Y-70862673D01*
X108151336Y-70730617D01*
X108062486Y-70576726D01*
X108007575Y-70407725D01*
X107989000Y-70231000D01*
X108007575Y-70054275D01*
X108062486Y-69885274D01*
X108151336Y-69731383D01*
X108270239Y-69599327D01*
X108414000Y-69494878D01*
X108576336Y-69422602D01*
X108750151Y-69385656D01*
X108927849Y-69385656D01*
X109101664Y-69422602D01*
G37*
G36*
X128689000Y-71031000D02*
G01*
X127089000Y-71031000D01*
X127089000Y-69431000D01*
X128689000Y-69431000D01*
X128689000Y-71031000D01*
G37*
G36*
X143170367Y-69435661D02*
G01*
X143212593Y-69435661D01*
X143260228Y-69445786D01*
X143307017Y-69451058D01*
X143341039Y-69462962D01*
X143376127Y-69470421D01*
X143426695Y-69492935D01*
X143476107Y-69510225D01*
X143501823Y-69526383D01*
X143528860Y-69538421D01*
X143579275Y-69575050D01*
X143627792Y-69605535D01*
X143645214Y-69622957D01*
X143664117Y-69636691D01*
X143710844Y-69688587D01*
X143754465Y-69732208D01*
X143764499Y-69748177D01*
X143775986Y-69760935D01*
X143815285Y-69829003D01*
X143849775Y-69883893D01*
X143854080Y-69896197D01*
X143859580Y-69905723D01*
X143887740Y-69992392D01*
X143908942Y-70052983D01*
X143909746Y-70060118D01*
X143911244Y-70064729D01*
X143924820Y-70193904D01*
X143929000Y-70231000D01*
X143924819Y-70268098D01*
X143911244Y-70397270D01*
X143909746Y-70401879D01*
X143908942Y-70409017D01*
X143887736Y-70469620D01*
X143859580Y-70556276D01*
X143854081Y-70565799D01*
X143849775Y-70578107D01*
X143815278Y-70633007D01*
X143775986Y-70701064D01*
X143764501Y-70713818D01*
X143754465Y-70729792D01*
X143710835Y-70773421D01*
X143664117Y-70825308D01*
X143645218Y-70839038D01*
X143627792Y-70856465D01*
X143579265Y-70886956D01*
X143528860Y-70923578D01*
X143501829Y-70935612D01*
X143476107Y-70951775D01*
X143426685Y-70969068D01*
X143376127Y-70991578D01*
X143341045Y-70999035D01*
X143307017Y-71010942D01*
X143260225Y-71016214D01*
X143212593Y-71026339D01*
X143170367Y-71026339D01*
X143129000Y-71031000D01*
X143087633Y-71026339D01*
X143045407Y-71026339D01*
X142997774Y-71016214D01*
X142950983Y-71010942D01*
X142916955Y-70999035D01*
X142881872Y-70991578D01*
X142831309Y-70969066D01*
X142781893Y-70951775D01*
X142756173Y-70935614D01*
X142729139Y-70923578D01*
X142678726Y-70886951D01*
X142630208Y-70856465D01*
X142612784Y-70839041D01*
X142593882Y-70825308D01*
X142547154Y-70773411D01*
X142503535Y-70729792D01*
X142493500Y-70713822D01*
X142482013Y-70701064D01*
X142442709Y-70632987D01*
X142408225Y-70578107D01*
X142403919Y-70565803D01*
X142398419Y-70556276D01*
X142370249Y-70469580D01*
X142349058Y-70409017D01*
X142348254Y-70401884D01*
X142346755Y-70397270D01*
X142333165Y-70267966D01*
X142329000Y-70231000D01*
X142333164Y-70194036D01*
X142346755Y-70064729D01*
X142348254Y-70060113D01*
X142349058Y-70052983D01*
X142370245Y-69992432D01*
X142398419Y-69905723D01*
X142403920Y-69896193D01*
X142408225Y-69883893D01*
X142442701Y-69829023D01*
X142482013Y-69760935D01*
X142493502Y-69748174D01*
X142503535Y-69732208D01*
X142547145Y-69688597D01*
X142593882Y-69636691D01*
X142612787Y-69622955D01*
X142630208Y-69605535D01*
X142678721Y-69575052D01*
X142729140Y-69538421D01*
X142756176Y-69526383D01*
X142781893Y-69510225D01*
X142831301Y-69492936D01*
X142881872Y-69470421D01*
X142916961Y-69462962D01*
X142950983Y-69451058D01*
X142997771Y-69445786D01*
X143045407Y-69435661D01*
X143087633Y-69435661D01*
X143129000Y-69431000D01*
X143170367Y-69435661D01*
G37*
M02*
