%TF.GenerationSoftware,KiCad,Pcbnew,7.0.7*%
%TF.CreationDate,2024-02-09T17:28:07-05:00*%
%TF.ProjectId,m0110a_atmega32_thru_hole_pcb,6d303131-3061-45f6-9174-6d6567613332,rev?*%
%TF.SameCoordinates,Original*%
%TF.FileFunction,Copper,L1,Top*%
%TF.FilePolarity,Positive*%
%FSLAX46Y46*%
G04 Gerber Fmt 4.6, Leading zero omitted, Abs format (unit mm)*
G04 Created by KiCad (PCBNEW 7.0.7) date 2024-02-09 17:28:07*
%MOMM*%
%LPD*%
G01*
G04 APERTURE LIST*
%TA.AperFunction,ComponentPad*%
%ADD10R,1.600000X1.600000*%
%TD*%
%TA.AperFunction,ComponentPad*%
%ADD11O,1.600000X1.600000*%
%TD*%
%TA.AperFunction,ComponentPad*%
%ADD12R,1.700000X1.700000*%
%TD*%
%TA.AperFunction,ComponentPad*%
%ADD13O,1.700000X1.700000*%
%TD*%
%TA.AperFunction,ViaPad*%
%ADD14C,0.800000*%
%TD*%
%TA.AperFunction,Conductor*%
%ADD15C,0.250000*%
%TD*%
G04 APERTURE END LIST*
D10*
%TO.P,U2,1,PB0*%
%TO.N,/ROW0*%
X127889000Y-70231000D03*
D11*
%TO.P,U2,2,PB1*%
%TO.N,/ROW1*%
X127889000Y-72771000D03*
%TO.P,U2,3,PB2*%
%TO.N,/ROW2*%
X127889000Y-75311000D03*
%TO.P,U2,4,PB3*%
%TO.N,/ROW3*%
X127889000Y-77851000D03*
%TO.P,U2,5,PB4*%
%TO.N,/ROW4*%
X127889000Y-80391000D03*
%TO.P,U2,6,PB5*%
%TO.N,/ROW5*%
X127889000Y-82931000D03*
%TO.P,U2,7,PB6*%
%TO.N,/ROW6*%
X127889000Y-85471000D03*
%TO.P,U2,8,PB7*%
%TO.N,/ROW7*%
X127889000Y-88011000D03*
%TO.P,U2,9,~{RESET}*%
%TO.N,RESET*%
X127889000Y-90551000D03*
%TO.P,U2,10,VCC*%
%TO.N,+5V*%
X127889000Y-93091000D03*
%TO.P,U2,11,GND*%
%TO.N,GNDREF*%
X127889000Y-95631000D03*
%TO.P,U2,12,XTAL2*%
%TO.N,unconnected-(U2-XTAL2-Pad12)*%
X127889000Y-98171000D03*
%TO.P,U2,13,XTAL1*%
%TO.N,unconnected-(U2-XTAL1-Pad13)*%
X127889000Y-100711000D03*
%TO.P,U2,14,PD0*%
%TO.N,/RXD*%
X127889000Y-103251000D03*
%TO.P,U2,15,PD1*%
%TO.N,/TXD*%
X127889000Y-105791000D03*
%TO.P,U2,16,PD2*%
%TO.N,/KB_CLK*%
X127889000Y-108331000D03*
%TO.P,U2,17,PD3*%
%TO.N,/KB_DATA*%
X127889000Y-110871000D03*
%TO.P,U2,18,PD4*%
%TO.N,unconnected-(U2-PD4-Pad18)*%
X127889000Y-113411000D03*
%TO.P,U2,19,PD5*%
%TO.N,unconnected-(U2-PD5-Pad19)*%
X127889000Y-115951000D03*
%TO.P,U2,20,PD6*%
%TO.N,unconnected-(U2-PD6-Pad20)*%
X127889000Y-118491000D03*
%TO.P,U2,21,PD7*%
%TO.N,unconnected-(U2-PD7-Pad21)*%
X143129000Y-118491000D03*
%TO.P,U2,22,PC0*%
%TO.N,/COL7*%
X143129000Y-115951000D03*
%TO.P,U2,23,PC1*%
%TO.N,/COL6*%
X143129000Y-113411000D03*
%TO.P,U2,24,PC2*%
%TO.N,/COL5*%
X143129000Y-110871000D03*
%TO.P,U2,25,PC3*%
%TO.N,/COL4*%
X143129000Y-108331000D03*
%TO.P,U2,26,PC4*%
%TO.N,/COL3*%
X143129000Y-105791000D03*
%TO.P,U2,27,PC5*%
%TO.N,/COL2*%
X143129000Y-103251000D03*
%TO.P,U2,28,PC6*%
%TO.N,/COL1*%
X143129000Y-100711000D03*
%TO.P,U2,29,PC7*%
%TO.N,/COL0*%
X143129000Y-98171000D03*
%TO.P,U2,30,AVCC*%
%TO.N,unconnected-(U2-AVCC-Pad30)*%
X143129000Y-95631000D03*
%TO.P,U2,31,GND*%
%TO.N,GNDREF*%
X143129000Y-93091000D03*
%TO.P,U2,32,AREF*%
%TO.N,unconnected-(U2-AREF-Pad32)*%
X143129000Y-90551000D03*
%TO.P,U2,33,PA7*%
%TO.N,unconnected-(U2-PA7-Pad33)*%
X143129000Y-88011000D03*
%TO.P,U2,34,PA6*%
%TO.N,unconnected-(U2-PA6-Pad34)*%
X143129000Y-85471000D03*
%TO.P,U2,35,PA5*%
%TO.N,/CMD*%
X143129000Y-82931000D03*
%TO.P,U2,36,PA4*%
%TO.N,/OPT*%
X143129000Y-80391000D03*
%TO.P,U2,37,PA3*%
%TO.N,/SHIFT*%
X143129000Y-77851000D03*
%TO.P,U2,38,PA2*%
%TO.N,/LOCK*%
X143129000Y-75311000D03*
%TO.P,U2,39,PA1*%
%TO.N,/ROW9*%
X143129000Y-72771000D03*
%TO.P,U2,40,PA0*%
%TO.N,/ROW8*%
X143129000Y-70231000D03*
%TD*%
D12*
%TO.P,J2,1,Pin_1*%
%TO.N,/ROW6*%
X149606000Y-81661000D03*
D13*
%TO.P,J2,2,Pin_2*%
%TO.N,+5V*%
X152146000Y-81661000D03*
%TO.P,J2,3,Pin_3*%
%TO.N,/ROW7*%
X149606000Y-84201000D03*
%TO.P,J2,4,Pin_4*%
%TO.N,/ROW5*%
X152146000Y-84201000D03*
%TO.P,J2,5,Pin_5*%
%TO.N,RESET*%
X149606000Y-86741000D03*
%TO.P,J2,6,Pin_6*%
%TO.N,GNDREF*%
X152146000Y-86741000D03*
%TD*%
D12*
%TO.P,J3,1,Pin_1*%
%TO.N,/TXD*%
X149606000Y-104521000D03*
D13*
%TO.P,J3,2,Pin_2*%
%TO.N,/RXD*%
X152146000Y-104521000D03*
%TD*%
D10*
%TO.P,J1,1,Pin_1*%
%TO.N,unconnected-(J1-Pin_1-Pad1)*%
X93599000Y-118491000D03*
D11*
%TO.P,J1,2,Pin_2*%
%TO.N,unconnected-(J1-Pin_2-Pad2)*%
X93599000Y-115951000D03*
%TO.P,J1,3,Pin_3*%
%TO.N,unconnected-(J1-Pin_3-Pad3)*%
X93599000Y-113411000D03*
%TO.P,J1,4,Pin_4*%
%TO.N,RESET*%
X93599000Y-110871000D03*
%TO.P,J1,5,Pin_5*%
%TO.N,+5V*%
X93599000Y-108331000D03*
%TO.P,J1,6,Pin_6*%
%TO.N,unconnected-(J1-Pin_6-Pad6)*%
X93599000Y-105791000D03*
%TO.P,J1,7,Pin_7*%
%TO.N,GNDREF*%
X93599000Y-103251000D03*
%TO.P,J1,8,Pin_8*%
%TO.N,unconnected-(J1-Pin_8-Pad8)*%
X93599000Y-100711000D03*
%TO.P,J1,9,Pin_9*%
%TO.N,unconnected-(J1-Pin_9-Pad9)*%
X93599000Y-98171000D03*
%TO.P,J1,10,Pin_10*%
%TO.N,unconnected-(J1-Pin_10-Pad10)*%
X93599000Y-95631000D03*
%TO.P,J1,11,Pin_11*%
%TO.N,unconnected-(J1-Pin_11-Pad11)*%
X93599000Y-93091000D03*
%TO.P,J1,12,Pin_12*%
%TO.N,/COL7*%
X93599000Y-90551000D03*
%TO.P,J1,13,Pin_13*%
%TO.N,/COL6*%
X93599000Y-88011000D03*
%TO.P,J1,14,Pin_14*%
%TO.N,/COL5*%
X93599000Y-85471000D03*
%TO.P,J1,15,Pin_15*%
%TO.N,/COL4*%
X93599000Y-82931000D03*
%TO.P,J1,16,Pin_16*%
%TO.N,/COL3*%
X93599000Y-80391000D03*
%TO.P,J1,17,Pin_17*%
%TO.N,/COL2*%
X93599000Y-77851000D03*
%TO.P,J1,18,Pin_18*%
%TO.N,/COL1*%
X93599000Y-75311000D03*
%TO.P,J1,19,Pin_19*%
%TO.N,/COL0*%
X93599000Y-72771000D03*
%TO.P,J1,20,Pin_20*%
%TO.N,GNDREF*%
X93599000Y-70231000D03*
%TO.P,J1,21,Pin_21*%
%TO.N,/ROW0*%
X108839000Y-70231000D03*
%TO.P,J1,22,Pin_22*%
%TO.N,/ROW1*%
X108839000Y-72771000D03*
%TO.P,J1,23,Pin_23*%
%TO.N,/SHIFT*%
X108839000Y-75311000D03*
%TO.P,J1,24,Pin_24*%
%TO.N,/LOCK*%
X108839000Y-77851000D03*
%TO.P,J1,25,Pin_25*%
%TO.N,unconnected-(J1-Pin_25-Pad25)*%
X108839000Y-80391000D03*
%TO.P,J1,26,Pin_26*%
%TO.N,+5V*%
X108839000Y-82931000D03*
%TO.P,J1,27,Pin_27*%
%TO.N,/ROW2*%
X108839000Y-85471000D03*
%TO.P,J1,28,Pin_28*%
%TO.N,/ROW3*%
X108839000Y-88011000D03*
%TO.P,J1,29,Pin_29*%
%TO.N,/ROW4*%
X108839000Y-90551000D03*
%TO.P,J1,30,Pin_30*%
%TO.N,/ROW5*%
X108839000Y-93091000D03*
%TO.P,J1,31,Pin_31*%
%TO.N,/ROW6*%
X108839000Y-95631000D03*
%TO.P,J1,32,Pin_32*%
%TO.N,/ROW7*%
X108839000Y-98171000D03*
%TO.P,J1,33,Pin_33*%
%TO.N,/ROW8*%
X108839000Y-100711000D03*
%TO.P,J1,34,Pin_34*%
%TO.N,/ROW9*%
X108839000Y-103251000D03*
%TO.P,J1,35,Pin_35*%
%TO.N,/OPT*%
X108839000Y-105791000D03*
%TO.P,J1,36,Pin_36*%
%TO.N,/CMD*%
X108839000Y-108331000D03*
%TO.P,J1,37,Pin_37*%
%TO.N,/KB_CLK*%
X108839000Y-110871000D03*
%TO.P,J1,38,Pin_38*%
%TO.N,/KB_DATA*%
X108839000Y-113411000D03*
%TO.P,J1,39,Pin_39*%
%TO.N,unconnected-(J1-Pin_39-Pad39)*%
X108839000Y-115951000D03*
%TO.P,J1,40,Pin_40*%
%TO.N,+5V*%
X108839000Y-118491000D03*
%TD*%
D14*
%TO.N,RESET*%
X137287000Y-90551000D03*
%TO.N,/ROW5*%
X133985000Y-82931000D03*
%TO.N,/ROW6*%
X132207000Y-85471000D03*
%TO.N,/ROW7*%
X137287000Y-88011000D03*
%TD*%
D15*
%TO.N,GNDREF*%
X93599000Y-70231000D02*
X92329000Y-70231000D01*
X150876000Y-93091000D02*
X152146000Y-91821000D01*
X152146000Y-91821000D02*
X152146000Y-86741000D01*
X91567000Y-102489000D02*
X92329000Y-103251000D01*
X92329000Y-103251000D02*
X93599000Y-103251000D01*
X92329000Y-70231000D02*
X91567000Y-70993000D01*
X91567000Y-70993000D02*
X91567000Y-102489000D01*
X143129000Y-93091000D02*
X150876000Y-93091000D01*
%TO.N,RESET*%
X138049000Y-90551000D02*
X141859000Y-86741000D01*
X141859000Y-86741000D02*
X149606000Y-86741000D01*
X137287000Y-90551000D02*
X138049000Y-90551000D01*
%TO.N,+5V*%
X105410000Y-104521000D02*
X105410000Y-117856000D01*
X152146000Y-81661000D02*
X153644600Y-81661000D01*
X152781000Y-120904000D02*
X109474000Y-120904000D01*
X153644600Y-81661000D02*
X154178000Y-82194400D01*
X125476000Y-93091000D02*
X114046000Y-104521000D01*
X109474000Y-120904000D02*
X108839000Y-120269000D01*
X108839000Y-82931000D02*
X105943400Y-82931000D01*
X114046000Y-104521000D02*
X105410000Y-104521000D01*
X108839000Y-120269000D02*
X108839000Y-118491000D01*
X105410000Y-83464400D02*
X105410000Y-104521000D01*
X105410000Y-108331000D02*
X93599000Y-108331000D01*
X154178000Y-82194400D02*
X154178000Y-119507000D01*
X105410000Y-117856000D02*
X106045000Y-118491000D01*
X105943400Y-82931000D02*
X105410000Y-83464400D01*
X106045000Y-118491000D02*
X108839000Y-118491000D01*
X154178000Y-119507000D02*
X152781000Y-120904000D01*
X127889000Y-93091000D02*
X125476000Y-93091000D01*
%TO.N,/SHIFT*%
X107188000Y-75311000D02*
X106807000Y-74930000D01*
X108839000Y-75311000D02*
X107188000Y-75311000D01*
X145288000Y-66167000D02*
X146558000Y-67437000D01*
X145034000Y-77851000D02*
X143129000Y-77851000D01*
X108077000Y-66167000D02*
X145288000Y-66167000D01*
X106807000Y-67437000D02*
X108077000Y-66167000D01*
X146558000Y-67437000D02*
X146558000Y-76327000D01*
X106807000Y-74930000D02*
X106807000Y-67437000D01*
X146558000Y-76327000D02*
X145034000Y-77851000D01*
%TO.N,/LOCK*%
X109855000Y-77851000D02*
X110490000Y-77216000D01*
X145669000Y-68072000D02*
X145669000Y-74549000D01*
X108839000Y-77851000D02*
X109855000Y-77851000D01*
X144907000Y-75311000D02*
X143129000Y-75311000D01*
X110490000Y-77216000D02*
X110490000Y-67945000D01*
X145669000Y-74549000D02*
X144907000Y-75311000D01*
X111379000Y-67056000D02*
X144653000Y-67056000D01*
X110490000Y-67945000D02*
X111379000Y-67056000D01*
X144653000Y-67056000D02*
X145669000Y-68072000D01*
%TO.N,/ROW2*%
X123063000Y-75311000D02*
X127889000Y-75311000D01*
X112903000Y-85471000D02*
X123063000Y-75311000D01*
X108839000Y-85471000D02*
X112903000Y-85471000D01*
%TO.N,/ROW3*%
X123444000Y-77851000D02*
X127889000Y-77851000D01*
X113284000Y-88011000D02*
X123444000Y-77851000D01*
X108839000Y-88011000D02*
X113284000Y-88011000D01*
%TO.N,/ROW4*%
X113411000Y-90551000D02*
X123571000Y-80391000D01*
X123571000Y-80391000D02*
X127889000Y-80391000D01*
X108839000Y-90551000D02*
X113411000Y-90551000D01*
%TO.N,/ROW5*%
X146272000Y-83026000D02*
X150971000Y-83026000D01*
X113665000Y-93091000D02*
X123825000Y-82931000D01*
X108839000Y-93091000D02*
X113665000Y-93091000D01*
X133985000Y-82931000D02*
X135255000Y-81661000D01*
X135255000Y-81661000D02*
X144907000Y-81661000D01*
X123825000Y-82931000D02*
X127889000Y-82931000D01*
X150971000Y-83026000D02*
X152146000Y-84201000D01*
X144907000Y-81661000D02*
X146272000Y-83026000D01*
%TO.N,/ROW6*%
X124333000Y-85471000D02*
X127889000Y-85471000D01*
X147447000Y-81661000D02*
X149606000Y-81661000D01*
X108839000Y-95631000D02*
X114173000Y-95631000D01*
X114173000Y-95631000D02*
X124333000Y-85471000D01*
X144907000Y-79121000D02*
X147447000Y-81661000D01*
X132969000Y-79121000D02*
X144907000Y-79121000D01*
X132207000Y-85471000D02*
X132207000Y-79883000D01*
X132207000Y-79883000D02*
X132969000Y-79121000D01*
%TO.N,/ROW7*%
X138049000Y-88011000D02*
X141859000Y-84201000D01*
X108839000Y-98171000D02*
X114554000Y-98171000D01*
X124714000Y-88011000D02*
X127889000Y-88011000D01*
X141859000Y-84201000D02*
X149606000Y-84201000D01*
X137287000Y-88011000D02*
X138049000Y-88011000D01*
X114554000Y-98171000D02*
X124714000Y-88011000D01*
%TO.N,/ROW8*%
X113792000Y-100711000D02*
X125222000Y-89281000D01*
X129540000Y-89281000D02*
X130302000Y-88519000D01*
X125222000Y-89281000D02*
X129540000Y-89281000D01*
X130302000Y-88519000D02*
X130302000Y-71120000D01*
X108839000Y-100711000D02*
X113792000Y-100711000D01*
X131191000Y-70231000D02*
X143129000Y-70231000D01*
X130302000Y-71120000D02*
X131191000Y-70231000D01*
%TO.N,/ROW9*%
X113284000Y-103251000D02*
X124714000Y-91821000D01*
X131318000Y-90297000D02*
X131318000Y-73660000D01*
X108839000Y-103251000D02*
X113284000Y-103251000D01*
X131318000Y-73660000D02*
X132207000Y-72771000D01*
X132207000Y-72771000D02*
X143129000Y-72771000D01*
X124714000Y-91821000D02*
X129794000Y-91821000D01*
X129794000Y-91821000D02*
X131318000Y-90297000D01*
%TO.N,/OPT*%
X143129000Y-80391000D02*
X133731000Y-80391000D01*
X133731000Y-80391000D02*
X133096000Y-81026000D01*
X114681000Y-105791000D02*
X108839000Y-105791000D01*
X133096000Y-81026000D02*
X133096000Y-93345000D01*
X126111000Y-94361000D02*
X114681000Y-105791000D01*
X133096000Y-93345000D02*
X132080000Y-94361000D01*
X132080000Y-94361000D02*
X126111000Y-94361000D01*
%TO.N,/CMD*%
X133858000Y-84455000D02*
X133858000Y-94742000D01*
X131554000Y-97046000D02*
X124950000Y-97046000D01*
X124950000Y-97046000D02*
X113665000Y-108331000D01*
X133858000Y-94742000D02*
X131554000Y-97046000D01*
X143129000Y-82931000D02*
X135382000Y-82931000D01*
X113665000Y-108331000D02*
X108839000Y-108331000D01*
X135382000Y-82931000D02*
X133858000Y-84455000D01*
%TO.N,/KB_CLK*%
X126466600Y-108331000D02*
X127889000Y-108331000D01*
X123926600Y-110871000D02*
X126466600Y-108331000D01*
X108839000Y-110871000D02*
X123926600Y-110871000D01*
%TO.N,/KB_DATA*%
X126466600Y-110871000D02*
X123926600Y-113411000D01*
X123926600Y-113411000D02*
X108839000Y-113411000D01*
X127889000Y-110871000D02*
X126466600Y-110871000D01*
%TO.N,/TXD*%
X127889000Y-105791000D02*
X129768600Y-105791000D01*
X131038600Y-104521000D02*
X149606000Y-104521000D01*
X129768600Y-105791000D02*
X131038600Y-104521000D01*
%TO.N,/RXD*%
X127889000Y-103251000D02*
X129717800Y-103251000D01*
X152146000Y-102717600D02*
X152146000Y-104521000D01*
X130987800Y-101981000D02*
X151409400Y-101981000D01*
X129717800Y-103251000D02*
X130987800Y-101981000D01*
X151409400Y-101981000D02*
X152146000Y-102717600D01*
%TD*%
M02*
