M48
; DRILL file {KiCad 7.0.7} date Sat Feb 24 19:25:09 2024
; FORMAT={-:-/ absolute / metric / decimal}
; #@! TF.CreationDate,2024-02-24T19:25:09-05:00
; #@! TF.GenerationSoftware,Kicad,Pcbnew,7.0.7
; #@! TF.FileFunction,Plated,1,2,PTH
FMAT,2
METRIC
; #@! TA.AperFunction,Plated,PTH,ViaDrill
T1C0.400
; #@! TA.AperFunction,Plated,PTH,ComponentDrill
T2C0.800
; #@! TA.AperFunction,Plated,PTH,ComponentDrill
T3C1.000
%
G90
G05
T1
X132.207Y-85.471
X133.985Y-82.931
X137.287Y-88.011
X137.287Y-90.551
T2
X127.889Y-70.231
X127.889Y-72.771
X127.889Y-75.311
X127.889Y-77.851
X127.889Y-80.391
X127.889Y-82.931
X127.889Y-85.471
X127.889Y-88.011
X127.889Y-90.551
X127.889Y-93.091
X127.889Y-95.631
X127.889Y-98.171
X127.889Y-100.711
X127.889Y-103.251
X127.889Y-105.791
X127.889Y-108.331
X127.889Y-110.871
X127.889Y-113.411
X127.889Y-115.951
X127.889Y-118.491
X143.129Y-70.231
X143.129Y-72.771
X143.129Y-75.311
X143.129Y-77.851
X143.129Y-80.391
X143.129Y-82.931
X143.129Y-85.471
X143.129Y-88.011
X143.129Y-90.551
X143.129Y-93.091
X143.129Y-95.631
X143.129Y-98.171
X143.129Y-100.711
X143.129Y-103.251
X143.129Y-105.791
X143.129Y-108.331
X143.129Y-110.871
X143.129Y-113.411
X143.129Y-115.951
X143.129Y-118.491
T3
X93.599Y-70.231
X93.599Y-72.771
X93.599Y-75.311
X93.599Y-77.851
X93.599Y-80.391
X93.599Y-82.931
X93.599Y-85.471
X93.599Y-88.011
X93.599Y-90.551
X93.599Y-93.091
X93.599Y-95.631
X93.599Y-98.171
X93.599Y-100.711
X93.599Y-103.251
X93.599Y-105.791
X93.599Y-108.331
X93.599Y-110.871
X93.599Y-113.411
X93.599Y-115.951
X93.599Y-118.491
X108.839Y-70.231
X108.839Y-72.771
X108.839Y-75.311
X108.839Y-77.851
X108.839Y-80.391
X108.839Y-82.931
X108.839Y-85.471
X108.839Y-88.011
X108.839Y-90.551
X108.839Y-93.091
X108.839Y-95.631
X108.839Y-98.171
X108.839Y-100.711
X108.839Y-103.251
X108.839Y-105.791
X108.839Y-108.331
X108.839Y-110.871
X108.839Y-113.411
X108.839Y-115.951
X108.839Y-118.491
X148.641Y-81.661
X148.641Y-84.201
X148.641Y-86.741
X148.641Y-104.521
X151.181Y-81.661
X151.181Y-84.201
X151.181Y-86.741
X151.181Y-104.521
T0
M30
