%TF.GenerationSoftware,KiCad,Pcbnew,7.0.7*%
%TF.CreationDate,2024-02-24T19:25:05-05:00*%
%TF.ProjectId,m0110a_atmega32_thru_hole_pcb,6d303131-3061-45f6-9174-6d6567613332,rev?*%
%TF.SameCoordinates,Original*%
%TF.FileFunction,Legend,Bot*%
%TF.FilePolarity,Positive*%
%FSLAX46Y46*%
G04 Gerber Fmt 4.6, Leading zero omitted, Abs format (unit mm)*
G04 Created by KiCad (PCBNEW 7.0.7) date 2024-02-24 19:25:05*
%MOMM*%
%LPD*%
G01*
G04 APERTURE LIST*
%ADD10R,1.700000X1.700000*%
%ADD11O,1.700000X1.700000*%
%ADD12R,1.600000X1.600000*%
%ADD13O,1.600000X1.600000*%
G04 APERTURE END LIST*
%LPC*%
D10*
%TO.C,J1*%
X93599000Y-118491000D03*
D11*
X93599000Y-115951000D03*
X93599000Y-113411000D03*
X93599000Y-110871000D03*
X93599000Y-108331000D03*
X93599000Y-105791000D03*
X93599000Y-103251000D03*
X93599000Y-100711000D03*
X93599000Y-98171000D03*
X93599000Y-95631000D03*
X93599000Y-93091000D03*
X93599000Y-90551000D03*
X93599000Y-88011000D03*
X93599000Y-85471000D03*
X93599000Y-82931000D03*
X93599000Y-80391000D03*
X93599000Y-77851000D03*
X93599000Y-75311000D03*
X93599000Y-72771000D03*
X93599000Y-70231000D03*
X108839000Y-70231000D03*
X108839000Y-72771000D03*
X108839000Y-75311000D03*
X108839000Y-77851000D03*
X108839000Y-80391000D03*
X108839000Y-82931000D03*
X108839000Y-85471000D03*
X108839000Y-88011000D03*
X108839000Y-90551000D03*
X108839000Y-93091000D03*
X108839000Y-95631000D03*
X108839000Y-98171000D03*
X108839000Y-100711000D03*
X108839000Y-103251000D03*
X108839000Y-105791000D03*
X108839000Y-108331000D03*
X108839000Y-110871000D03*
X108839000Y-113411000D03*
X108839000Y-115951000D03*
X108839000Y-118491000D03*
%TD*%
D12*
%TO.C,U2*%
X127889000Y-70231000D03*
D13*
X127889000Y-72771000D03*
X127889000Y-75311000D03*
X127889000Y-77851000D03*
X127889000Y-80391000D03*
X127889000Y-82931000D03*
X127889000Y-85471000D03*
X127889000Y-88011000D03*
X127889000Y-90551000D03*
X127889000Y-93091000D03*
X127889000Y-95631000D03*
X127889000Y-98171000D03*
X127889000Y-100711000D03*
X127889000Y-103251000D03*
X127889000Y-105791000D03*
X127889000Y-108331000D03*
X127889000Y-110871000D03*
X127889000Y-113411000D03*
X127889000Y-115951000D03*
X127889000Y-118491000D03*
X143129000Y-118491000D03*
X143129000Y-115951000D03*
X143129000Y-113411000D03*
X143129000Y-110871000D03*
X143129000Y-108331000D03*
X143129000Y-105791000D03*
X143129000Y-103251000D03*
X143129000Y-100711000D03*
X143129000Y-98171000D03*
X143129000Y-95631000D03*
X143129000Y-93091000D03*
X143129000Y-90551000D03*
X143129000Y-88011000D03*
X143129000Y-85471000D03*
X143129000Y-82931000D03*
X143129000Y-80391000D03*
X143129000Y-77851000D03*
X143129000Y-75311000D03*
X143129000Y-72771000D03*
X143129000Y-70231000D03*
%TD*%
D10*
%TO.C,J2*%
X148640800Y-81661000D03*
D11*
X151180800Y-81661000D03*
X148640800Y-84201000D03*
X151180800Y-84201000D03*
X148640800Y-86741000D03*
X151180800Y-86741000D03*
%TD*%
D10*
%TO.C,J3*%
X148640800Y-104521000D03*
D11*
X151180800Y-104521000D03*
%TD*%
%LPD*%
M02*
