M48
; DRILL file {KiCad 7.0.7} date Fri Feb  9 17:05:23 2024
; FORMAT={-:-/ absolute / metric / decimal}
; #@! TF.CreationDate,2024-02-09T17:05:23-05:00
; #@! TF.GenerationSoftware,Kicad,Pcbnew,7.0.7
; #@! TF.FileFunction,Plated,1,2,PTH
FMAT,2
METRIC
; #@! TA.AperFunction,Plated,PTH,ViaDrill
T1C0.400
; #@! TA.AperFunction,Plated,PTH,ComponentDrill
T2C0.800
; #@! TA.AperFunction,Plated,PTH,ComponentDrill
T3C1.000
%
G90
G05
T1
X146.431Y-97.0
X151.37Y-92.456
X152.273Y-102.87
X153.289Y-102.87
X153.721Y-80.228
X153.797Y-87.63
X154.146Y-91.005
X154.861Y-92.151
X155.211Y-104.775
X155.789Y-97.51
X156.21Y-106.045
X156.305Y-104.788
X156.629Y-96.969
T2
X143.51Y-67.31
X143.51Y-69.85
X143.51Y-72.39
X143.51Y-74.93
X143.51Y-77.47
X143.51Y-80.01
X143.51Y-82.55
X143.51Y-85.09
X143.51Y-87.63
X143.51Y-90.17
X143.51Y-92.71
X143.51Y-95.25
X143.51Y-97.79
X143.51Y-100.33
X143.51Y-102.87
X143.51Y-105.41
X143.51Y-107.95
X143.51Y-110.49
X143.51Y-113.03
X143.51Y-115.57
X158.75Y-67.31
X158.75Y-69.85
X158.75Y-72.39
X158.75Y-74.93
X158.75Y-77.47
X158.75Y-80.01
X158.75Y-82.55
X158.75Y-85.09
X158.75Y-87.63
X158.75Y-90.17
X158.75Y-92.71
X158.75Y-95.25
X158.75Y-97.79
X158.75Y-100.33
X158.75Y-102.87
X158.75Y-105.41
X158.75Y-107.95
X158.75Y-110.49
X158.75Y-113.03
X158.75Y-115.57
T3
X148.641Y-72.288
X148.641Y-74.828
X149.606Y-86.055
X149.606Y-88.595
X151.181Y-72.288
X151.181Y-74.828
X153.721Y-72.288
X153.721Y-74.828
T0
M30
