%TF.GenerationSoftware,KiCad,Pcbnew,7.0.7*%
%TF.CreationDate,2024-02-24T18:58:31-05:00*%
%TF.ProjectId,m0110a_atmega32_pcb,6d303131-3061-45f6-9174-6d6567613332,rev?*%
%TF.SameCoordinates,Original*%
%TF.FileFunction,Legend,Bot*%
%TF.FilePolarity,Positive*%
%FSLAX46Y46*%
G04 Gerber Fmt 4.6, Leading zero omitted, Abs format (unit mm)*
G04 Created by KiCad (PCBNEW 7.0.7) date 2024-02-24 18:58:31*
%MOMM*%
%LPD*%
G01*
G04 APERTURE LIST*
%ADD10C,0.300000*%
%ADD11R,1.700000X1.700000*%
%ADD12O,1.700000X1.700000*%
G04 APERTURE END LIST*
D10*
X145485828Y-68253368D02*
X146700114Y-68253368D01*
X146700114Y-68253368D02*
X146842971Y-68181939D01*
X146842971Y-68181939D02*
X146914400Y-68110510D01*
X146914400Y-68110510D02*
X146985828Y-67967653D01*
X146985828Y-67967653D02*
X146985828Y-67753368D01*
X146985828Y-67753368D02*
X146914400Y-67610510D01*
X146414400Y-68253368D02*
X146485828Y-68110510D01*
X146485828Y-68110510D02*
X146485828Y-67824796D01*
X146485828Y-67824796D02*
X146414400Y-67681939D01*
X146414400Y-67681939D02*
X146342971Y-67610510D01*
X146342971Y-67610510D02*
X146200114Y-67539082D01*
X146200114Y-67539082D02*
X145771542Y-67539082D01*
X145771542Y-67539082D02*
X145628685Y-67610510D01*
X145628685Y-67610510D02*
X145557257Y-67681939D01*
X145557257Y-67681939D02*
X145485828Y-67824796D01*
X145485828Y-67824796D02*
X145485828Y-68110510D01*
X145485828Y-68110510D02*
X145557257Y-68253368D01*
X146485828Y-68967653D02*
X145485828Y-68967653D01*
X144985828Y-68967653D02*
X145057257Y-68896225D01*
X145057257Y-68896225D02*
X145128685Y-68967653D01*
X145128685Y-68967653D02*
X145057257Y-69039082D01*
X145057257Y-69039082D02*
X144985828Y-68967653D01*
X144985828Y-68967653D02*
X145128685Y-68967653D01*
X145485828Y-69467654D02*
X145485828Y-70039082D01*
X144985828Y-69681939D02*
X146271542Y-69681939D01*
X146271542Y-69681939D02*
X146414400Y-69753368D01*
X146414400Y-69753368D02*
X146485828Y-69896225D01*
X146485828Y-69896225D02*
X146485828Y-70039082D01*
X146485828Y-70539082D02*
X144985828Y-70539082D01*
X146485828Y-71181940D02*
X145700114Y-71181940D01*
X145700114Y-71181940D02*
X145557257Y-71110511D01*
X145557257Y-71110511D02*
X145485828Y-70967654D01*
X145485828Y-70967654D02*
X145485828Y-70753368D01*
X145485828Y-70753368D02*
X145557257Y-70610511D01*
X145557257Y-70610511D02*
X145628685Y-70539082D01*
X145485828Y-72539083D02*
X146485828Y-72539083D01*
X145485828Y-71896225D02*
X146271542Y-71896225D01*
X146271542Y-71896225D02*
X146414400Y-71967654D01*
X146414400Y-71967654D02*
X146485828Y-72110511D01*
X146485828Y-72110511D02*
X146485828Y-72324797D01*
X146485828Y-72324797D02*
X146414400Y-72467654D01*
X146414400Y-72467654D02*
X146342971Y-72539083D01*
X146485828Y-73253368D02*
X144985828Y-73253368D01*
X145557257Y-73253368D02*
X145485828Y-73396226D01*
X145485828Y-73396226D02*
X145485828Y-73681940D01*
X145485828Y-73681940D02*
X145557257Y-73824797D01*
X145557257Y-73824797D02*
X145628685Y-73896226D01*
X145628685Y-73896226D02*
X145771542Y-73967654D01*
X145771542Y-73967654D02*
X146200114Y-73967654D01*
X146200114Y-73967654D02*
X146342971Y-73896226D01*
X146342971Y-73896226D02*
X146414400Y-73824797D01*
X146414400Y-73824797D02*
X146485828Y-73681940D01*
X146485828Y-73681940D02*
X146485828Y-73396226D01*
X146485828Y-73396226D02*
X146414400Y-73253368D01*
X146342971Y-74610511D02*
X146414400Y-74681940D01*
X146414400Y-74681940D02*
X146485828Y-74610511D01*
X146485828Y-74610511D02*
X146414400Y-74539083D01*
X146414400Y-74539083D02*
X146342971Y-74610511D01*
X146342971Y-74610511D02*
X146485828Y-74610511D01*
X146414400Y-75967655D02*
X146485828Y-75824797D01*
X146485828Y-75824797D02*
X146485828Y-75539083D01*
X146485828Y-75539083D02*
X146414400Y-75396226D01*
X146414400Y-75396226D02*
X146342971Y-75324797D01*
X146342971Y-75324797D02*
X146200114Y-75253369D01*
X146200114Y-75253369D02*
X145771542Y-75253369D01*
X145771542Y-75253369D02*
X145628685Y-75324797D01*
X145628685Y-75324797D02*
X145557257Y-75396226D01*
X145557257Y-75396226D02*
X145485828Y-75539083D01*
X145485828Y-75539083D02*
X145485828Y-75824797D01*
X145485828Y-75824797D02*
X145557257Y-75967655D01*
X146485828Y-76824797D02*
X146414400Y-76681940D01*
X146414400Y-76681940D02*
X146342971Y-76610511D01*
X146342971Y-76610511D02*
X146200114Y-76539083D01*
X146200114Y-76539083D02*
X145771542Y-76539083D01*
X145771542Y-76539083D02*
X145628685Y-76610511D01*
X145628685Y-76610511D02*
X145557257Y-76681940D01*
X145557257Y-76681940D02*
X145485828Y-76824797D01*
X145485828Y-76824797D02*
X145485828Y-77039083D01*
X145485828Y-77039083D02*
X145557257Y-77181940D01*
X145557257Y-77181940D02*
X145628685Y-77253369D01*
X145628685Y-77253369D02*
X145771542Y-77324797D01*
X145771542Y-77324797D02*
X146200114Y-77324797D01*
X146200114Y-77324797D02*
X146342971Y-77253369D01*
X146342971Y-77253369D02*
X146414400Y-77181940D01*
X146414400Y-77181940D02*
X146485828Y-77039083D01*
X146485828Y-77039083D02*
X146485828Y-76824797D01*
X146485828Y-77967654D02*
X145485828Y-77967654D01*
X145628685Y-77967654D02*
X145557257Y-78039083D01*
X145557257Y-78039083D02*
X145485828Y-78181940D01*
X145485828Y-78181940D02*
X145485828Y-78396226D01*
X145485828Y-78396226D02*
X145557257Y-78539083D01*
X145557257Y-78539083D02*
X145700114Y-78610512D01*
X145700114Y-78610512D02*
X146485828Y-78610512D01*
X145700114Y-78610512D02*
X145557257Y-78681940D01*
X145557257Y-78681940D02*
X145485828Y-78824797D01*
X145485828Y-78824797D02*
X145485828Y-79039083D01*
X145485828Y-79039083D02*
X145557257Y-79181940D01*
X145557257Y-79181940D02*
X145700114Y-79253369D01*
X145700114Y-79253369D02*
X146485828Y-79253369D01*
X144914400Y-81039083D02*
X146842971Y-79753369D01*
X146414400Y-82110512D02*
X146485828Y-81967655D01*
X146485828Y-81967655D02*
X146485828Y-81681941D01*
X146485828Y-81681941D02*
X146414400Y-81539083D01*
X146414400Y-81539083D02*
X146271542Y-81467655D01*
X146271542Y-81467655D02*
X145700114Y-81467655D01*
X145700114Y-81467655D02*
X145557257Y-81539083D01*
X145557257Y-81539083D02*
X145485828Y-81681941D01*
X145485828Y-81681941D02*
X145485828Y-81967655D01*
X145485828Y-81967655D02*
X145557257Y-82110512D01*
X145557257Y-82110512D02*
X145700114Y-82181941D01*
X145700114Y-82181941D02*
X145842971Y-82181941D01*
X145842971Y-82181941D02*
X145985828Y-81467655D01*
X146414400Y-82753369D02*
X146485828Y-82896226D01*
X146485828Y-82896226D02*
X146485828Y-83181940D01*
X146485828Y-83181940D02*
X146414400Y-83324797D01*
X146414400Y-83324797D02*
X146271542Y-83396226D01*
X146271542Y-83396226D02*
X146200114Y-83396226D01*
X146200114Y-83396226D02*
X146057257Y-83324797D01*
X146057257Y-83324797D02*
X145985828Y-83181940D01*
X145985828Y-83181940D02*
X145985828Y-82967655D01*
X145985828Y-82967655D02*
X145914400Y-82824797D01*
X145914400Y-82824797D02*
X145771542Y-82753369D01*
X145771542Y-82753369D02*
X145700114Y-82753369D01*
X145700114Y-82753369D02*
X145557257Y-82824797D01*
X145557257Y-82824797D02*
X145485828Y-82967655D01*
X145485828Y-82967655D02*
X145485828Y-83181940D01*
X145485828Y-83181940D02*
X145557257Y-83324797D01*
X146485828Y-84039083D02*
X144985828Y-84039083D01*
X146485828Y-84681941D02*
X145700114Y-84681941D01*
X145700114Y-84681941D02*
X145557257Y-84610512D01*
X145557257Y-84610512D02*
X145485828Y-84467655D01*
X145485828Y-84467655D02*
X145485828Y-84253369D01*
X145485828Y-84253369D02*
X145557257Y-84110512D01*
X145557257Y-84110512D02*
X145628685Y-84039083D01*
X146414400Y-85967655D02*
X146485828Y-85824798D01*
X146485828Y-85824798D02*
X146485828Y-85539084D01*
X146485828Y-85539084D02*
X146414400Y-85396226D01*
X146414400Y-85396226D02*
X146271542Y-85324798D01*
X146271542Y-85324798D02*
X145700114Y-85324798D01*
X145700114Y-85324798D02*
X145557257Y-85396226D01*
X145557257Y-85396226D02*
X145485828Y-85539084D01*
X145485828Y-85539084D02*
X145485828Y-85824798D01*
X145485828Y-85824798D02*
X145557257Y-85967655D01*
X145557257Y-85967655D02*
X145700114Y-86039084D01*
X145700114Y-86039084D02*
X145842971Y-86039084D01*
X145842971Y-86039084D02*
X145985828Y-85324798D01*
X145485828Y-86467655D02*
X145485828Y-87039083D01*
X146485828Y-86681940D02*
X145200114Y-86681940D01*
X145200114Y-86681940D02*
X145057257Y-86753369D01*
X145057257Y-86753369D02*
X144985828Y-86896226D01*
X144985828Y-86896226D02*
X144985828Y-87039083D01*
X145485828Y-87324798D02*
X145485828Y-87896226D01*
X146485828Y-87539083D02*
X145200114Y-87539083D01*
X145200114Y-87539083D02*
X145057257Y-87610512D01*
X145057257Y-87610512D02*
X144985828Y-87753369D01*
X144985828Y-87753369D02*
X144985828Y-87896226D01*
X146485828Y-88396226D02*
X145485828Y-88396226D01*
X144985828Y-88396226D02*
X145057257Y-88324798D01*
X145057257Y-88324798D02*
X145128685Y-88396226D01*
X145128685Y-88396226D02*
X145057257Y-88467655D01*
X145057257Y-88467655D02*
X144985828Y-88396226D01*
X144985828Y-88396226D02*
X145128685Y-88396226D01*
X146414400Y-89681941D02*
X146485828Y-89539084D01*
X146485828Y-89539084D02*
X146485828Y-89253370D01*
X146485828Y-89253370D02*
X146414400Y-89110512D01*
X146414400Y-89110512D02*
X146271542Y-89039084D01*
X146271542Y-89039084D02*
X145700114Y-89039084D01*
X145700114Y-89039084D02*
X145557257Y-89110512D01*
X145557257Y-89110512D02*
X145485828Y-89253370D01*
X145485828Y-89253370D02*
X145485828Y-89539084D01*
X145485828Y-89539084D02*
X145557257Y-89681941D01*
X145557257Y-89681941D02*
X145700114Y-89753370D01*
X145700114Y-89753370D02*
X145842971Y-89753370D01*
X145842971Y-89753370D02*
X145985828Y-89039084D01*
X146485828Y-90610512D02*
X146414400Y-90467655D01*
X146414400Y-90467655D02*
X146271542Y-90396226D01*
X146271542Y-90396226D02*
X144985828Y-90396226D01*
X146485828Y-91824798D02*
X144985828Y-91824798D01*
X146414400Y-91824798D02*
X146485828Y-91681940D01*
X146485828Y-91681940D02*
X146485828Y-91396226D01*
X146485828Y-91396226D02*
X146414400Y-91253369D01*
X146414400Y-91253369D02*
X146342971Y-91181940D01*
X146342971Y-91181940D02*
X146200114Y-91110512D01*
X146200114Y-91110512D02*
X145771542Y-91110512D01*
X145771542Y-91110512D02*
X145628685Y-91181940D01*
X145628685Y-91181940D02*
X145557257Y-91253369D01*
X145557257Y-91253369D02*
X145485828Y-91396226D01*
X145485828Y-91396226D02*
X145485828Y-91681940D01*
X145485828Y-91681940D02*
X145557257Y-91824798D01*
X144914400Y-93610512D02*
X146842971Y-92324798D01*
X146485828Y-94110512D02*
X145485828Y-94110512D01*
X145628685Y-94110512D02*
X145557257Y-94181941D01*
X145557257Y-94181941D02*
X145485828Y-94324798D01*
X145485828Y-94324798D02*
X145485828Y-94539084D01*
X145485828Y-94539084D02*
X145557257Y-94681941D01*
X145557257Y-94681941D02*
X145700114Y-94753370D01*
X145700114Y-94753370D02*
X146485828Y-94753370D01*
X145700114Y-94753370D02*
X145557257Y-94824798D01*
X145557257Y-94824798D02*
X145485828Y-94967655D01*
X145485828Y-94967655D02*
X145485828Y-95181941D01*
X145485828Y-95181941D02*
X145557257Y-95324798D01*
X145557257Y-95324798D02*
X145700114Y-95396227D01*
X145700114Y-95396227D02*
X146485828Y-95396227D01*
X144985828Y-96396227D02*
X144985828Y-96539084D01*
X144985828Y-96539084D02*
X145057257Y-96681941D01*
X145057257Y-96681941D02*
X145128685Y-96753370D01*
X145128685Y-96753370D02*
X145271542Y-96824798D01*
X145271542Y-96824798D02*
X145557257Y-96896227D01*
X145557257Y-96896227D02*
X145914400Y-96896227D01*
X145914400Y-96896227D02*
X146200114Y-96824798D01*
X146200114Y-96824798D02*
X146342971Y-96753370D01*
X146342971Y-96753370D02*
X146414400Y-96681941D01*
X146414400Y-96681941D02*
X146485828Y-96539084D01*
X146485828Y-96539084D02*
X146485828Y-96396227D01*
X146485828Y-96396227D02*
X146414400Y-96253370D01*
X146414400Y-96253370D02*
X146342971Y-96181941D01*
X146342971Y-96181941D02*
X146200114Y-96110512D01*
X146200114Y-96110512D02*
X145914400Y-96039084D01*
X145914400Y-96039084D02*
X145557257Y-96039084D01*
X145557257Y-96039084D02*
X145271542Y-96110512D01*
X145271542Y-96110512D02*
X145128685Y-96181941D01*
X145128685Y-96181941D02*
X145057257Y-96253370D01*
X145057257Y-96253370D02*
X144985828Y-96396227D01*
X146485828Y-98324798D02*
X146485828Y-97467655D01*
X146485828Y-97896226D02*
X144985828Y-97896226D01*
X144985828Y-97896226D02*
X145200114Y-97753369D01*
X145200114Y-97753369D02*
X145342971Y-97610512D01*
X145342971Y-97610512D02*
X145414400Y-97467655D01*
X146485828Y-99753369D02*
X146485828Y-98896226D01*
X146485828Y-99324797D02*
X144985828Y-99324797D01*
X144985828Y-99324797D02*
X145200114Y-99181940D01*
X145200114Y-99181940D02*
X145342971Y-99039083D01*
X145342971Y-99039083D02*
X145414400Y-98896226D01*
X144985828Y-100681940D02*
X144985828Y-100824797D01*
X144985828Y-100824797D02*
X145057257Y-100967654D01*
X145057257Y-100967654D02*
X145128685Y-101039083D01*
X145128685Y-101039083D02*
X145271542Y-101110511D01*
X145271542Y-101110511D02*
X145557257Y-101181940D01*
X145557257Y-101181940D02*
X145914400Y-101181940D01*
X145914400Y-101181940D02*
X146200114Y-101110511D01*
X146200114Y-101110511D02*
X146342971Y-101039083D01*
X146342971Y-101039083D02*
X146414400Y-100967654D01*
X146414400Y-100967654D02*
X146485828Y-100824797D01*
X146485828Y-100824797D02*
X146485828Y-100681940D01*
X146485828Y-100681940D02*
X146414400Y-100539083D01*
X146414400Y-100539083D02*
X146342971Y-100467654D01*
X146342971Y-100467654D02*
X146200114Y-100396225D01*
X146200114Y-100396225D02*
X145914400Y-100324797D01*
X145914400Y-100324797D02*
X145557257Y-100324797D01*
X145557257Y-100324797D02*
X145271542Y-100396225D01*
X145271542Y-100396225D02*
X145128685Y-100467654D01*
X145128685Y-100467654D02*
X145057257Y-100539083D01*
X145057257Y-100539083D02*
X144985828Y-100681940D01*
X146485828Y-102467654D02*
X145700114Y-102467654D01*
X145700114Y-102467654D02*
X145557257Y-102396225D01*
X145557257Y-102396225D02*
X145485828Y-102253368D01*
X145485828Y-102253368D02*
X145485828Y-101967654D01*
X145485828Y-101967654D02*
X145557257Y-101824796D01*
X146414400Y-102467654D02*
X146485828Y-102324796D01*
X146485828Y-102324796D02*
X146485828Y-101967654D01*
X146485828Y-101967654D02*
X146414400Y-101824796D01*
X146414400Y-101824796D02*
X146271542Y-101753368D01*
X146271542Y-101753368D02*
X146128685Y-101753368D01*
X146128685Y-101753368D02*
X145985828Y-101824796D01*
X145985828Y-101824796D02*
X145914400Y-101967654D01*
X145914400Y-101967654D02*
X145914400Y-102324796D01*
X145914400Y-102324796D02*
X145842971Y-102467654D01*
X145914400Y-103181939D02*
X145914400Y-104324797D01*
X146485828Y-105681940D02*
X145700114Y-105681940D01*
X145700114Y-105681940D02*
X145557257Y-105610511D01*
X145557257Y-105610511D02*
X145485828Y-105467654D01*
X145485828Y-105467654D02*
X145485828Y-105181940D01*
X145485828Y-105181940D02*
X145557257Y-105039082D01*
X146414400Y-105681940D02*
X146485828Y-105539082D01*
X146485828Y-105539082D02*
X146485828Y-105181940D01*
X146485828Y-105181940D02*
X146414400Y-105039082D01*
X146414400Y-105039082D02*
X146271542Y-104967654D01*
X146271542Y-104967654D02*
X146128685Y-104967654D01*
X146128685Y-104967654D02*
X145985828Y-105039082D01*
X145985828Y-105039082D02*
X145914400Y-105181940D01*
X145914400Y-105181940D02*
X145914400Y-105539082D01*
X145914400Y-105539082D02*
X145842971Y-105681940D01*
X145485828Y-106181940D02*
X145485828Y-106753368D01*
X144985828Y-106396225D02*
X146271542Y-106396225D01*
X146271542Y-106396225D02*
X146414400Y-106467654D01*
X146414400Y-106467654D02*
X146485828Y-106610511D01*
X146485828Y-106610511D02*
X146485828Y-106753368D01*
X146485828Y-107253368D02*
X145485828Y-107253368D01*
X145628685Y-107253368D02*
X145557257Y-107324797D01*
X145557257Y-107324797D02*
X145485828Y-107467654D01*
X145485828Y-107467654D02*
X145485828Y-107681940D01*
X145485828Y-107681940D02*
X145557257Y-107824797D01*
X145557257Y-107824797D02*
X145700114Y-107896226D01*
X145700114Y-107896226D02*
X146485828Y-107896226D01*
X145700114Y-107896226D02*
X145557257Y-107967654D01*
X145557257Y-107967654D02*
X145485828Y-108110511D01*
X145485828Y-108110511D02*
X145485828Y-108324797D01*
X145485828Y-108324797D02*
X145557257Y-108467654D01*
X145557257Y-108467654D02*
X145700114Y-108539083D01*
X145700114Y-108539083D02*
X146485828Y-108539083D01*
X146414400Y-109824797D02*
X146485828Y-109681940D01*
X146485828Y-109681940D02*
X146485828Y-109396226D01*
X146485828Y-109396226D02*
X146414400Y-109253368D01*
X146414400Y-109253368D02*
X146271542Y-109181940D01*
X146271542Y-109181940D02*
X145700114Y-109181940D01*
X145700114Y-109181940D02*
X145557257Y-109253368D01*
X145557257Y-109253368D02*
X145485828Y-109396226D01*
X145485828Y-109396226D02*
X145485828Y-109681940D01*
X145485828Y-109681940D02*
X145557257Y-109824797D01*
X145557257Y-109824797D02*
X145700114Y-109896226D01*
X145700114Y-109896226D02*
X145842971Y-109896226D01*
X145842971Y-109896226D02*
X145985828Y-109181940D01*
X145485828Y-111181940D02*
X146700114Y-111181940D01*
X146700114Y-111181940D02*
X146842971Y-111110511D01*
X146842971Y-111110511D02*
X146914400Y-111039082D01*
X146914400Y-111039082D02*
X146985828Y-110896225D01*
X146985828Y-110896225D02*
X146985828Y-110681940D01*
X146985828Y-110681940D02*
X146914400Y-110539082D01*
X146414400Y-111181940D02*
X146485828Y-111039082D01*
X146485828Y-111039082D02*
X146485828Y-110753368D01*
X146485828Y-110753368D02*
X146414400Y-110610511D01*
X146414400Y-110610511D02*
X146342971Y-110539082D01*
X146342971Y-110539082D02*
X146200114Y-110467654D01*
X146200114Y-110467654D02*
X145771542Y-110467654D01*
X145771542Y-110467654D02*
X145628685Y-110539082D01*
X145628685Y-110539082D02*
X145557257Y-110610511D01*
X145557257Y-110610511D02*
X145485828Y-110753368D01*
X145485828Y-110753368D02*
X145485828Y-111039082D01*
X145485828Y-111039082D02*
X145557257Y-111181940D01*
X146485828Y-112539083D02*
X145700114Y-112539083D01*
X145700114Y-112539083D02*
X145557257Y-112467654D01*
X145557257Y-112467654D02*
X145485828Y-112324797D01*
X145485828Y-112324797D02*
X145485828Y-112039083D01*
X145485828Y-112039083D02*
X145557257Y-111896225D01*
X146414400Y-112539083D02*
X146485828Y-112396225D01*
X146485828Y-112396225D02*
X146485828Y-112039083D01*
X146485828Y-112039083D02*
X146414400Y-111896225D01*
X146414400Y-111896225D02*
X146271542Y-111824797D01*
X146271542Y-111824797D02*
X146128685Y-111824797D01*
X146128685Y-111824797D02*
X145985828Y-111896225D01*
X145985828Y-111896225D02*
X145914400Y-112039083D01*
X145914400Y-112039083D02*
X145914400Y-112396225D01*
X145914400Y-112396225D02*
X145842971Y-112539083D01*
X144985828Y-113110511D02*
X144985828Y-114039083D01*
X144985828Y-114039083D02*
X145557257Y-113539083D01*
X145557257Y-113539083D02*
X145557257Y-113753368D01*
X145557257Y-113753368D02*
X145628685Y-113896226D01*
X145628685Y-113896226D02*
X145700114Y-113967654D01*
X145700114Y-113967654D02*
X145842971Y-114039083D01*
X145842971Y-114039083D02*
X146200114Y-114039083D01*
X146200114Y-114039083D02*
X146342971Y-113967654D01*
X146342971Y-113967654D02*
X146414400Y-113896226D01*
X146414400Y-113896226D02*
X146485828Y-113753368D01*
X146485828Y-113753368D02*
X146485828Y-113324797D01*
X146485828Y-113324797D02*
X146414400Y-113181940D01*
X146414400Y-113181940D02*
X146342971Y-113110511D01*
X145128685Y-114610511D02*
X145057257Y-114681939D01*
X145057257Y-114681939D02*
X144985828Y-114824797D01*
X144985828Y-114824797D02*
X144985828Y-115181939D01*
X144985828Y-115181939D02*
X145057257Y-115324797D01*
X145057257Y-115324797D02*
X145128685Y-115396225D01*
X145128685Y-115396225D02*
X145271542Y-115467654D01*
X145271542Y-115467654D02*
X145414400Y-115467654D01*
X145414400Y-115467654D02*
X145628685Y-115396225D01*
X145628685Y-115396225D02*
X146485828Y-114539082D01*
X146485828Y-114539082D02*
X146485828Y-115467654D01*
%LPC*%
D11*
%TO.C,J1*%
X143510000Y-67310000D03*
D12*
X143510000Y-69850000D03*
X143510000Y-72390000D03*
X143510000Y-74930000D03*
X143510000Y-77470000D03*
X143510000Y-80010000D03*
X143510000Y-82550000D03*
X143510000Y-85090000D03*
X143510000Y-87630000D03*
X143510000Y-90170000D03*
X143510000Y-92710000D03*
X143510000Y-95250000D03*
X143510000Y-97790000D03*
X143510000Y-100330000D03*
X143510000Y-102870000D03*
X143510000Y-105410000D03*
X143510000Y-107950000D03*
X143510000Y-110490000D03*
X143510000Y-113030000D03*
X143510000Y-115570000D03*
X158750000Y-115570000D03*
X158750000Y-113030000D03*
X158750000Y-110490000D03*
X158750000Y-107950000D03*
X158750000Y-105410000D03*
X158750000Y-102870000D03*
X158750000Y-100330000D03*
X158750000Y-97790000D03*
X158750000Y-95250000D03*
X158750000Y-92710000D03*
X158750000Y-90170000D03*
X158750000Y-87630000D03*
X158750000Y-85090000D03*
X158750000Y-82550000D03*
X158750000Y-80010000D03*
X158750000Y-77470000D03*
X158750000Y-74930000D03*
X158750000Y-72390000D03*
X158750000Y-69850000D03*
X158750000Y-67310000D03*
%TD*%
D11*
%TO.C,J2*%
X149199600Y-78892400D03*
D12*
X149199600Y-76352400D03*
X151739600Y-78892400D03*
X151739600Y-76352400D03*
X154279600Y-78892400D03*
X154279600Y-76352400D03*
%TD*%
D11*
%TO.C,J3*%
X148640800Y-88239600D03*
D12*
X151180800Y-88239600D03*
%TD*%
%LPD*%
M02*
