%TF.GenerationSoftware,KiCad,Pcbnew,7.0.7*%
%TF.CreationDate,2024-02-09T17:04:24-05:00*%
%TF.ProjectId,m0110a_atmega32_pcb,6d303131-3061-45f6-9174-6d6567613332,rev?*%
%TF.SameCoordinates,Original*%
%TF.FileFunction,Legend,Top*%
%TF.FilePolarity,Positive*%
%FSLAX46Y46*%
G04 Gerber Fmt 4.6, Leading zero omitted, Abs format (unit mm)*
G04 Created by KiCad (PCBNEW 7.0.7) date 2024-02-09 17:04:24*
%MOMM*%
%LPD*%
G01*
G04 APERTURE LIST*
G04 Aperture macros list*
%AMRoundRect*
0 Rectangle with rounded corners*
0 $1 Rounding radius*
0 $2 $3 $4 $5 $6 $7 $8 $9 X,Y pos of 4 corners*
0 Add a 4 corners polygon primitive as box body*
4,1,4,$2,$3,$4,$5,$6,$7,$8,$9,$2,$3,0*
0 Add four circle primitives for the rounded corners*
1,1,$1+$1,$2,$3*
1,1,$1+$1,$4,$5*
1,1,$1+$1,$6,$7*
1,1,$1+$1,$8,$9*
0 Add four rect primitives between the rounded corners*
20,1,$1+$1,$2,$3,$4,$5,0*
20,1,$1+$1,$4,$5,$6,$7,0*
20,1,$1+$1,$6,$7,$8,$9,0*
20,1,$1+$1,$8,$9,$2,$3,0*%
G04 Aperture macros list end*
%ADD10C,0.575000*%
%ADD11C,0.150000*%
%ADD12C,0.152400*%
%ADD13C,0.010000*%
%ADD14C,0.120000*%
%ADD15R,1.700000X1.700000*%
%ADD16O,1.700000X1.700000*%
%ADD17R,1.600000X1.600000*%
%ADD18O,1.600000X1.600000*%
%ADD19RoundRect,0.062500X-0.062500X0.475000X-0.062500X-0.475000X0.062500X-0.475000X0.062500X0.475000X0*%
%ADD20RoundRect,0.062500X-0.475000X0.062500X-0.475000X-0.062500X0.475000X-0.062500X0.475000X0.062500X0*%
%ADD21R,5.200000X5.200000*%
G04 APERTURE END LIST*
D10*
X155862500Y-92710000D02*
G75*
G03*
X155862500Y-92710000I-287500J0D01*
G01*
D11*
X156892619Y-74339220D02*
X155892619Y-74339220D01*
X156845000Y-73910649D02*
X156892619Y-73767792D01*
X156892619Y-73767792D02*
X156892619Y-73529697D01*
X156892619Y-73529697D02*
X156845000Y-73434459D01*
X156845000Y-73434459D02*
X156797380Y-73386840D01*
X156797380Y-73386840D02*
X156702142Y-73339221D01*
X156702142Y-73339221D02*
X156606904Y-73339221D01*
X156606904Y-73339221D02*
X156511666Y-73386840D01*
X156511666Y-73386840D02*
X156464047Y-73434459D01*
X156464047Y-73434459D02*
X156416428Y-73529697D01*
X156416428Y-73529697D02*
X156368809Y-73720173D01*
X156368809Y-73720173D02*
X156321190Y-73815411D01*
X156321190Y-73815411D02*
X156273571Y-73863030D01*
X156273571Y-73863030D02*
X156178333Y-73910649D01*
X156178333Y-73910649D02*
X156083095Y-73910649D01*
X156083095Y-73910649D02*
X155987857Y-73863030D01*
X155987857Y-73863030D02*
X155940238Y-73815411D01*
X155940238Y-73815411D02*
X155892619Y-73720173D01*
X155892619Y-73720173D02*
X155892619Y-73482078D01*
X155892619Y-73482078D02*
X155940238Y-73339221D01*
X156892619Y-72910649D02*
X155892619Y-72910649D01*
X155892619Y-72910649D02*
X155892619Y-72529697D01*
X155892619Y-72529697D02*
X155940238Y-72434459D01*
X155940238Y-72434459D02*
X155987857Y-72386840D01*
X155987857Y-72386840D02*
X156083095Y-72339221D01*
X156083095Y-72339221D02*
X156225952Y-72339221D01*
X156225952Y-72339221D02*
X156321190Y-72386840D01*
X156321190Y-72386840D02*
X156368809Y-72434459D01*
X156368809Y-72434459D02*
X156416428Y-72529697D01*
X156416428Y-72529697D02*
X156416428Y-72910649D01*
X148069419Y-70062477D02*
X149069419Y-69729144D01*
X149069419Y-69729144D02*
X148069419Y-69395811D01*
X148974180Y-68491049D02*
X149021800Y-68538668D01*
X149021800Y-68538668D02*
X149069419Y-68681525D01*
X149069419Y-68681525D02*
X149069419Y-68776763D01*
X149069419Y-68776763D02*
X149021800Y-68919620D01*
X149021800Y-68919620D02*
X148926561Y-69014858D01*
X148926561Y-69014858D02*
X148831323Y-69062477D01*
X148831323Y-69062477D02*
X148640847Y-69110096D01*
X148640847Y-69110096D02*
X148497990Y-69110096D01*
X148497990Y-69110096D02*
X148307514Y-69062477D01*
X148307514Y-69062477D02*
X148212276Y-69014858D01*
X148212276Y-69014858D02*
X148117038Y-68919620D01*
X148117038Y-68919620D02*
X148069419Y-68776763D01*
X148069419Y-68776763D02*
X148069419Y-68681525D01*
X148069419Y-68681525D02*
X148117038Y-68538668D01*
X148117038Y-68538668D02*
X148164657Y-68491049D01*
X148974180Y-67491049D02*
X149021800Y-67538668D01*
X149021800Y-67538668D02*
X149069419Y-67681525D01*
X149069419Y-67681525D02*
X149069419Y-67776763D01*
X149069419Y-67776763D02*
X149021800Y-67919620D01*
X149021800Y-67919620D02*
X148926561Y-68014858D01*
X148926561Y-68014858D02*
X148831323Y-68062477D01*
X148831323Y-68062477D02*
X148640847Y-68110096D01*
X148640847Y-68110096D02*
X148497990Y-68110096D01*
X148497990Y-68110096D02*
X148307514Y-68062477D01*
X148307514Y-68062477D02*
X148212276Y-68014858D01*
X148212276Y-68014858D02*
X148117038Y-67919620D01*
X148117038Y-67919620D02*
X148069419Y-67776763D01*
X148069419Y-67776763D02*
X148069419Y-67681525D01*
X148069419Y-67681525D02*
X148117038Y-67538668D01*
X148117038Y-67538668D02*
X148164657Y-67491049D01*
X145513588Y-66925819D02*
X144942160Y-66925819D01*
X145227874Y-66925819D02*
X145227874Y-65925819D01*
X145227874Y-65925819D02*
X145132636Y-66068676D01*
X145132636Y-66068676D02*
X145037398Y-66163914D01*
X145037398Y-66163914D02*
X144942160Y-66211533D01*
X152650819Y-89566592D02*
X152174628Y-89899925D01*
X152650819Y-90138020D02*
X151650819Y-90138020D01*
X151650819Y-90138020D02*
X151650819Y-89757068D01*
X151650819Y-89757068D02*
X151698438Y-89661830D01*
X151698438Y-89661830D02*
X151746057Y-89614211D01*
X151746057Y-89614211D02*
X151841295Y-89566592D01*
X151841295Y-89566592D02*
X151984152Y-89566592D01*
X151984152Y-89566592D02*
X152079390Y-89614211D01*
X152079390Y-89614211D02*
X152127009Y-89661830D01*
X152127009Y-89661830D02*
X152174628Y-89757068D01*
X152174628Y-89757068D02*
X152174628Y-90138020D01*
X152650819Y-89233258D02*
X151984152Y-88709449D01*
X151984152Y-89233258D02*
X152650819Y-88709449D01*
X152650819Y-88328496D02*
X151650819Y-88328496D01*
X151650819Y-88328496D02*
X151650819Y-88090401D01*
X151650819Y-88090401D02*
X151698438Y-87947544D01*
X151698438Y-87947544D02*
X151793676Y-87852306D01*
X151793676Y-87852306D02*
X151888914Y-87804687D01*
X151888914Y-87804687D02*
X152079390Y-87757068D01*
X152079390Y-87757068D02*
X152222247Y-87757068D01*
X152222247Y-87757068D02*
X152412723Y-87804687D01*
X152412723Y-87804687D02*
X152507961Y-87852306D01*
X152507961Y-87852306D02*
X152603200Y-87947544D01*
X152603200Y-87947544D02*
X152650819Y-88090401D01*
X152650819Y-88090401D02*
X152650819Y-88328496D01*
X145831160Y-83693000D02*
X145974017Y-83740619D01*
X145974017Y-83740619D02*
X146212112Y-83740619D01*
X146212112Y-83740619D02*
X146307350Y-83693000D01*
X146307350Y-83693000D02*
X146354969Y-83645380D01*
X146354969Y-83645380D02*
X146402588Y-83550142D01*
X146402588Y-83550142D02*
X146402588Y-83454904D01*
X146402588Y-83454904D02*
X146354969Y-83359666D01*
X146354969Y-83359666D02*
X146307350Y-83312047D01*
X146307350Y-83312047D02*
X146212112Y-83264428D01*
X146212112Y-83264428D02*
X146021636Y-83216809D01*
X146021636Y-83216809D02*
X145926398Y-83169190D01*
X145926398Y-83169190D02*
X145878779Y-83121571D01*
X145878779Y-83121571D02*
X145831160Y-83026333D01*
X145831160Y-83026333D02*
X145831160Y-82931095D01*
X145831160Y-82931095D02*
X145878779Y-82835857D01*
X145878779Y-82835857D02*
X145926398Y-82788238D01*
X145926398Y-82788238D02*
X146021636Y-82740619D01*
X146021636Y-82740619D02*
X146259731Y-82740619D01*
X146259731Y-82740619D02*
X146402588Y-82788238D01*
X147212112Y-83693000D02*
X147116874Y-83740619D01*
X147116874Y-83740619D02*
X146926398Y-83740619D01*
X146926398Y-83740619D02*
X146831160Y-83693000D01*
X146831160Y-83693000D02*
X146783541Y-83597761D01*
X146783541Y-83597761D02*
X146783541Y-83216809D01*
X146783541Y-83216809D02*
X146831160Y-83121571D01*
X146831160Y-83121571D02*
X146926398Y-83073952D01*
X146926398Y-83073952D02*
X147116874Y-83073952D01*
X147116874Y-83073952D02*
X147212112Y-83121571D01*
X147212112Y-83121571D02*
X147259731Y-83216809D01*
X147259731Y-83216809D02*
X147259731Y-83312047D01*
X147259731Y-83312047D02*
X146783541Y-83407285D01*
X147688303Y-83740619D02*
X147688303Y-83073952D01*
X147688303Y-83264428D02*
X147735922Y-83169190D01*
X147735922Y-83169190D02*
X147783541Y-83121571D01*
X147783541Y-83121571D02*
X147878779Y-83073952D01*
X147878779Y-83073952D02*
X147974017Y-83073952D01*
X148307351Y-83740619D02*
X148307351Y-83073952D01*
X148307351Y-82740619D02*
X148259732Y-82788238D01*
X148259732Y-82788238D02*
X148307351Y-82835857D01*
X148307351Y-82835857D02*
X148354970Y-82788238D01*
X148354970Y-82788238D02*
X148307351Y-82740619D01*
X148307351Y-82740619D02*
X148307351Y-82835857D01*
X149212112Y-83740619D02*
X149212112Y-83216809D01*
X149212112Y-83216809D02*
X149164493Y-83121571D01*
X149164493Y-83121571D02*
X149069255Y-83073952D01*
X149069255Y-83073952D02*
X148878779Y-83073952D01*
X148878779Y-83073952D02*
X148783541Y-83121571D01*
X149212112Y-83693000D02*
X149116874Y-83740619D01*
X149116874Y-83740619D02*
X148878779Y-83740619D01*
X148878779Y-83740619D02*
X148783541Y-83693000D01*
X148783541Y-83693000D02*
X148735922Y-83597761D01*
X148735922Y-83597761D02*
X148735922Y-83502523D01*
X148735922Y-83502523D02*
X148783541Y-83407285D01*
X148783541Y-83407285D02*
X148878779Y-83359666D01*
X148878779Y-83359666D02*
X149116874Y-83359666D01*
X149116874Y-83359666D02*
X149212112Y-83312047D01*
X149831160Y-83740619D02*
X149735922Y-83693000D01*
X149735922Y-83693000D02*
X149688303Y-83597761D01*
X149688303Y-83597761D02*
X149688303Y-82740619D01*
X150974018Y-83740619D02*
X150974018Y-82740619D01*
X150974018Y-82740619D02*
X151212113Y-82740619D01*
X151212113Y-82740619D02*
X151354970Y-82788238D01*
X151354970Y-82788238D02*
X151450208Y-82883476D01*
X151450208Y-82883476D02*
X151497827Y-82978714D01*
X151497827Y-82978714D02*
X151545446Y-83169190D01*
X151545446Y-83169190D02*
X151545446Y-83312047D01*
X151545446Y-83312047D02*
X151497827Y-83502523D01*
X151497827Y-83502523D02*
X151450208Y-83597761D01*
X151450208Y-83597761D02*
X151354970Y-83693000D01*
X151354970Y-83693000D02*
X151212113Y-83740619D01*
X151212113Y-83740619D02*
X150974018Y-83740619D01*
X151974018Y-83740619D02*
X151974018Y-82740619D01*
X151974018Y-83121571D02*
X152069256Y-83073952D01*
X152069256Y-83073952D02*
X152259732Y-83073952D01*
X152259732Y-83073952D02*
X152354970Y-83121571D01*
X152354970Y-83121571D02*
X152402589Y-83169190D01*
X152402589Y-83169190D02*
X152450208Y-83264428D01*
X152450208Y-83264428D02*
X152450208Y-83550142D01*
X152450208Y-83550142D02*
X152402589Y-83645380D01*
X152402589Y-83645380D02*
X152354970Y-83693000D01*
X152354970Y-83693000D02*
X152259732Y-83740619D01*
X152259732Y-83740619D02*
X152069256Y-83740619D01*
X152069256Y-83740619D02*
X151974018Y-83693000D01*
X153307351Y-83073952D02*
X153307351Y-83883476D01*
X153307351Y-83883476D02*
X153259732Y-83978714D01*
X153259732Y-83978714D02*
X153212113Y-84026333D01*
X153212113Y-84026333D02*
X153116875Y-84073952D01*
X153116875Y-84073952D02*
X152974018Y-84073952D01*
X152974018Y-84073952D02*
X152878780Y-84026333D01*
X153307351Y-83693000D02*
X153212113Y-83740619D01*
X153212113Y-83740619D02*
X153021637Y-83740619D01*
X153021637Y-83740619D02*
X152926399Y-83693000D01*
X152926399Y-83693000D02*
X152878780Y-83645380D01*
X152878780Y-83645380D02*
X152831161Y-83550142D01*
X152831161Y-83550142D02*
X152831161Y-83264428D01*
X152831161Y-83264428D02*
X152878780Y-83169190D01*
X152878780Y-83169190D02*
X152926399Y-83121571D01*
X152926399Y-83121571D02*
X153021637Y-83073952D01*
X153021637Y-83073952D02*
X153212113Y-83073952D01*
X153212113Y-83073952D02*
X153307351Y-83121571D01*
X149069419Y-80232020D02*
X148069419Y-80232020D01*
X148069419Y-80232020D02*
X148783704Y-79898687D01*
X148783704Y-79898687D02*
X148069419Y-79565354D01*
X148069419Y-79565354D02*
X149069419Y-79565354D01*
X149069419Y-79089163D02*
X148069419Y-79089163D01*
X149021800Y-78660592D02*
X149069419Y-78517735D01*
X149069419Y-78517735D02*
X149069419Y-78279640D01*
X149069419Y-78279640D02*
X149021800Y-78184402D01*
X149021800Y-78184402D02*
X148974180Y-78136783D01*
X148974180Y-78136783D02*
X148878942Y-78089164D01*
X148878942Y-78089164D02*
X148783704Y-78089164D01*
X148783704Y-78089164D02*
X148688466Y-78136783D01*
X148688466Y-78136783D02*
X148640847Y-78184402D01*
X148640847Y-78184402D02*
X148593228Y-78279640D01*
X148593228Y-78279640D02*
X148545609Y-78470116D01*
X148545609Y-78470116D02*
X148497990Y-78565354D01*
X148497990Y-78565354D02*
X148450371Y-78612973D01*
X148450371Y-78612973D02*
X148355133Y-78660592D01*
X148355133Y-78660592D02*
X148259895Y-78660592D01*
X148259895Y-78660592D02*
X148164657Y-78612973D01*
X148164657Y-78612973D02*
X148117038Y-78565354D01*
X148117038Y-78565354D02*
X148069419Y-78470116D01*
X148069419Y-78470116D02*
X148069419Y-78232021D01*
X148069419Y-78232021D02*
X148117038Y-78089164D01*
X148069419Y-77470116D02*
X148069419Y-77279640D01*
X148069419Y-77279640D02*
X148117038Y-77184402D01*
X148117038Y-77184402D02*
X148212276Y-77089164D01*
X148212276Y-77089164D02*
X148402752Y-77041545D01*
X148402752Y-77041545D02*
X148736085Y-77041545D01*
X148736085Y-77041545D02*
X148926561Y-77089164D01*
X148926561Y-77089164D02*
X149021800Y-77184402D01*
X149021800Y-77184402D02*
X149069419Y-77279640D01*
X149069419Y-77279640D02*
X149069419Y-77470116D01*
X149069419Y-77470116D02*
X149021800Y-77565354D01*
X149021800Y-77565354D02*
X148926561Y-77660592D01*
X148926561Y-77660592D02*
X148736085Y-77708211D01*
X148736085Y-77708211D02*
X148402752Y-77708211D01*
X148402752Y-77708211D02*
X148212276Y-77660592D01*
X148212276Y-77660592D02*
X148117038Y-77565354D01*
X148117038Y-77565354D02*
X148069419Y-77470116D01*
D12*
X145453808Y-107606694D02*
X145453808Y-106940027D01*
X145453808Y-107035265D02*
X145491903Y-106987646D01*
X145491903Y-106987646D02*
X145568093Y-106940027D01*
X145568093Y-106940027D02*
X145682379Y-106940027D01*
X145682379Y-106940027D02*
X145758570Y-106987646D01*
X145758570Y-106987646D02*
X145796665Y-107082884D01*
X145796665Y-107082884D02*
X145796665Y-107606694D01*
X145796665Y-107082884D02*
X145834760Y-106987646D01*
X145834760Y-106987646D02*
X145910951Y-106940027D01*
X145910951Y-106940027D02*
X146025236Y-106940027D01*
X146025236Y-106940027D02*
X146101427Y-106987646D01*
X146101427Y-106987646D02*
X146139522Y-107082884D01*
X146139522Y-107082884D02*
X146139522Y-107606694D01*
X146672856Y-106606694D02*
X146749046Y-106606694D01*
X146749046Y-106606694D02*
X146825237Y-106654313D01*
X146825237Y-106654313D02*
X146863332Y-106701932D01*
X146863332Y-106701932D02*
X146901427Y-106797170D01*
X146901427Y-106797170D02*
X146939522Y-106987646D01*
X146939522Y-106987646D02*
X146939522Y-107225741D01*
X146939522Y-107225741D02*
X146901427Y-107416217D01*
X146901427Y-107416217D02*
X146863332Y-107511455D01*
X146863332Y-107511455D02*
X146825237Y-107559075D01*
X146825237Y-107559075D02*
X146749046Y-107606694D01*
X146749046Y-107606694D02*
X146672856Y-107606694D01*
X146672856Y-107606694D02*
X146596665Y-107559075D01*
X146596665Y-107559075D02*
X146558570Y-107511455D01*
X146558570Y-107511455D02*
X146520475Y-107416217D01*
X146520475Y-107416217D02*
X146482379Y-107225741D01*
X146482379Y-107225741D02*
X146482379Y-106987646D01*
X146482379Y-106987646D02*
X146520475Y-106797170D01*
X146520475Y-106797170D02*
X146558570Y-106701932D01*
X146558570Y-106701932D02*
X146596665Y-106654313D01*
X146596665Y-106654313D02*
X146672856Y-106606694D01*
X147701427Y-107606694D02*
X147244284Y-107606694D01*
X147472856Y-107606694D02*
X147472856Y-106606694D01*
X147472856Y-106606694D02*
X147396665Y-106749551D01*
X147396665Y-106749551D02*
X147320475Y-106844789D01*
X147320475Y-106844789D02*
X147244284Y-106892408D01*
X148463332Y-107606694D02*
X148006189Y-107606694D01*
X148234761Y-107606694D02*
X148234761Y-106606694D01*
X148234761Y-106606694D02*
X148158570Y-106749551D01*
X148158570Y-106749551D02*
X148082380Y-106844789D01*
X148082380Y-106844789D02*
X148006189Y-106892408D01*
X148958571Y-106606694D02*
X149034761Y-106606694D01*
X149034761Y-106606694D02*
X149110952Y-106654313D01*
X149110952Y-106654313D02*
X149149047Y-106701932D01*
X149149047Y-106701932D02*
X149187142Y-106797170D01*
X149187142Y-106797170D02*
X149225237Y-106987646D01*
X149225237Y-106987646D02*
X149225237Y-107225741D01*
X149225237Y-107225741D02*
X149187142Y-107416217D01*
X149187142Y-107416217D02*
X149149047Y-107511455D01*
X149149047Y-107511455D02*
X149110952Y-107559075D01*
X149110952Y-107559075D02*
X149034761Y-107606694D01*
X149034761Y-107606694D02*
X148958571Y-107606694D01*
X148958571Y-107606694D02*
X148882380Y-107559075D01*
X148882380Y-107559075D02*
X148844285Y-107511455D01*
X148844285Y-107511455D02*
X148806190Y-107416217D01*
X148806190Y-107416217D02*
X148768094Y-107225741D01*
X148768094Y-107225741D02*
X148768094Y-106987646D01*
X148768094Y-106987646D02*
X148806190Y-106797170D01*
X148806190Y-106797170D02*
X148844285Y-106701932D01*
X148844285Y-106701932D02*
X148882380Y-106654313D01*
X148882380Y-106654313D02*
X148958571Y-106606694D01*
X149910952Y-107606694D02*
X149910952Y-107082884D01*
X149910952Y-107082884D02*
X149872857Y-106987646D01*
X149872857Y-106987646D02*
X149796666Y-106940027D01*
X149796666Y-106940027D02*
X149644285Y-106940027D01*
X149644285Y-106940027D02*
X149568095Y-106987646D01*
X149910952Y-107559075D02*
X149834761Y-107606694D01*
X149834761Y-107606694D02*
X149644285Y-107606694D01*
X149644285Y-107606694D02*
X149568095Y-107559075D01*
X149568095Y-107559075D02*
X149529999Y-107463836D01*
X149529999Y-107463836D02*
X149529999Y-107368598D01*
X149529999Y-107368598D02*
X149568095Y-107273360D01*
X149568095Y-107273360D02*
X149644285Y-107225741D01*
X149644285Y-107225741D02*
X149834761Y-107225741D01*
X149834761Y-107225741D02*
X149910952Y-107178122D01*
X150291905Y-107225741D02*
X150901429Y-107225741D01*
X151625238Y-107606694D02*
X151625238Y-107082884D01*
X151625238Y-107082884D02*
X151587143Y-106987646D01*
X151587143Y-106987646D02*
X151510952Y-106940027D01*
X151510952Y-106940027D02*
X151358571Y-106940027D01*
X151358571Y-106940027D02*
X151282381Y-106987646D01*
X151625238Y-107559075D02*
X151549047Y-107606694D01*
X151549047Y-107606694D02*
X151358571Y-107606694D01*
X151358571Y-107606694D02*
X151282381Y-107559075D01*
X151282381Y-107559075D02*
X151244285Y-107463836D01*
X151244285Y-107463836D02*
X151244285Y-107368598D01*
X151244285Y-107368598D02*
X151282381Y-107273360D01*
X151282381Y-107273360D02*
X151358571Y-107225741D01*
X151358571Y-107225741D02*
X151549047Y-107225741D01*
X151549047Y-107225741D02*
X151625238Y-107178122D01*
X151891905Y-106940027D02*
X152196667Y-106940027D01*
X152006191Y-106606694D02*
X152006191Y-107463836D01*
X152006191Y-107463836D02*
X152044286Y-107559075D01*
X152044286Y-107559075D02*
X152120476Y-107606694D01*
X152120476Y-107606694D02*
X152196667Y-107606694D01*
X152463334Y-107606694D02*
X152463334Y-106940027D01*
X152463334Y-107035265D02*
X152501429Y-106987646D01*
X152501429Y-106987646D02*
X152577619Y-106940027D01*
X152577619Y-106940027D02*
X152691905Y-106940027D01*
X152691905Y-106940027D02*
X152768096Y-106987646D01*
X152768096Y-106987646D02*
X152806191Y-107082884D01*
X152806191Y-107082884D02*
X152806191Y-107606694D01*
X152806191Y-107082884D02*
X152844286Y-106987646D01*
X152844286Y-106987646D02*
X152920477Y-106940027D01*
X152920477Y-106940027D02*
X153034762Y-106940027D01*
X153034762Y-106940027D02*
X153110953Y-106987646D01*
X153110953Y-106987646D02*
X153149048Y-107082884D01*
X153149048Y-107082884D02*
X153149048Y-107606694D01*
X153834763Y-107559075D02*
X153758572Y-107606694D01*
X153758572Y-107606694D02*
X153606191Y-107606694D01*
X153606191Y-107606694D02*
X153530001Y-107559075D01*
X153530001Y-107559075D02*
X153491905Y-107463836D01*
X153491905Y-107463836D02*
X153491905Y-107082884D01*
X153491905Y-107082884D02*
X153530001Y-106987646D01*
X153530001Y-106987646D02*
X153606191Y-106940027D01*
X153606191Y-106940027D02*
X153758572Y-106940027D01*
X153758572Y-106940027D02*
X153834763Y-106987646D01*
X153834763Y-106987646D02*
X153872858Y-107082884D01*
X153872858Y-107082884D02*
X153872858Y-107178122D01*
X153872858Y-107178122D02*
X153491905Y-107273360D01*
X154558572Y-106940027D02*
X154558572Y-107749551D01*
X154558572Y-107749551D02*
X154520477Y-107844789D01*
X154520477Y-107844789D02*
X154482381Y-107892408D01*
X154482381Y-107892408D02*
X154406191Y-107940027D01*
X154406191Y-107940027D02*
X154291905Y-107940027D01*
X154291905Y-107940027D02*
X154215715Y-107892408D01*
X154558572Y-107559075D02*
X154482381Y-107606694D01*
X154482381Y-107606694D02*
X154330000Y-107606694D01*
X154330000Y-107606694D02*
X154253810Y-107559075D01*
X154253810Y-107559075D02*
X154215715Y-107511455D01*
X154215715Y-107511455D02*
X154177619Y-107416217D01*
X154177619Y-107416217D02*
X154177619Y-107130503D01*
X154177619Y-107130503D02*
X154215715Y-107035265D01*
X154215715Y-107035265D02*
X154253810Y-106987646D01*
X154253810Y-106987646D02*
X154330000Y-106940027D01*
X154330000Y-106940027D02*
X154482381Y-106940027D01*
X154482381Y-106940027D02*
X154558572Y-106987646D01*
X155282382Y-107606694D02*
X155282382Y-107082884D01*
X155282382Y-107082884D02*
X155244287Y-106987646D01*
X155244287Y-106987646D02*
X155168096Y-106940027D01*
X155168096Y-106940027D02*
X155015715Y-106940027D01*
X155015715Y-106940027D02*
X154939525Y-106987646D01*
X155282382Y-107559075D02*
X155206191Y-107606694D01*
X155206191Y-107606694D02*
X155015715Y-107606694D01*
X155015715Y-107606694D02*
X154939525Y-107559075D01*
X154939525Y-107559075D02*
X154901429Y-107463836D01*
X154901429Y-107463836D02*
X154901429Y-107368598D01*
X154901429Y-107368598D02*
X154939525Y-107273360D01*
X154939525Y-107273360D02*
X155015715Y-107225741D01*
X155015715Y-107225741D02*
X155206191Y-107225741D01*
X155206191Y-107225741D02*
X155282382Y-107178122D01*
X155587144Y-106606694D02*
X156082382Y-106606694D01*
X156082382Y-106606694D02*
X155815716Y-106987646D01*
X155815716Y-106987646D02*
X155930001Y-106987646D01*
X155930001Y-106987646D02*
X156006192Y-107035265D01*
X156006192Y-107035265D02*
X156044287Y-107082884D01*
X156044287Y-107082884D02*
X156082382Y-107178122D01*
X156082382Y-107178122D02*
X156082382Y-107416217D01*
X156082382Y-107416217D02*
X156044287Y-107511455D01*
X156044287Y-107511455D02*
X156006192Y-107559075D01*
X156006192Y-107559075D02*
X155930001Y-107606694D01*
X155930001Y-107606694D02*
X155701430Y-107606694D01*
X155701430Y-107606694D02*
X155625239Y-107559075D01*
X155625239Y-107559075D02*
X155587144Y-107511455D01*
X156387144Y-106701932D02*
X156425240Y-106654313D01*
X156425240Y-106654313D02*
X156501430Y-106606694D01*
X156501430Y-106606694D02*
X156691906Y-106606694D01*
X156691906Y-106606694D02*
X156768097Y-106654313D01*
X156768097Y-106654313D02*
X156806192Y-106701932D01*
X156806192Y-106701932D02*
X156844287Y-106797170D01*
X156844287Y-106797170D02*
X156844287Y-106892408D01*
X156844287Y-106892408D02*
X156806192Y-107035265D01*
X156806192Y-107035265D02*
X156349049Y-107606694D01*
X156349049Y-107606694D02*
X156844287Y-107606694D01*
X147777619Y-108216694D02*
X148044286Y-109216694D01*
X148044286Y-109216694D02*
X148310952Y-108216694D01*
X148882381Y-109169075D02*
X148806190Y-109216694D01*
X148806190Y-109216694D02*
X148653809Y-109216694D01*
X148653809Y-109216694D02*
X148577619Y-109169075D01*
X148577619Y-109169075D02*
X148539523Y-109073836D01*
X148539523Y-109073836D02*
X148539523Y-108692884D01*
X148539523Y-108692884D02*
X148577619Y-108597646D01*
X148577619Y-108597646D02*
X148653809Y-108550027D01*
X148653809Y-108550027D02*
X148806190Y-108550027D01*
X148806190Y-108550027D02*
X148882381Y-108597646D01*
X148882381Y-108597646D02*
X148920476Y-108692884D01*
X148920476Y-108692884D02*
X148920476Y-108788122D01*
X148920476Y-108788122D02*
X148539523Y-108883360D01*
X149263333Y-109216694D02*
X149263333Y-108550027D01*
X149263333Y-108740503D02*
X149301428Y-108645265D01*
X149301428Y-108645265D02*
X149339523Y-108597646D01*
X149339523Y-108597646D02*
X149415714Y-108550027D01*
X149415714Y-108550027D02*
X149491904Y-108550027D01*
X149720475Y-109169075D02*
X149796666Y-109216694D01*
X149796666Y-109216694D02*
X149949047Y-109216694D01*
X149949047Y-109216694D02*
X150025237Y-109169075D01*
X150025237Y-109169075D02*
X150063333Y-109073836D01*
X150063333Y-109073836D02*
X150063333Y-109026217D01*
X150063333Y-109026217D02*
X150025237Y-108930979D01*
X150025237Y-108930979D02*
X149949047Y-108883360D01*
X149949047Y-108883360D02*
X149834761Y-108883360D01*
X149834761Y-108883360D02*
X149758571Y-108835741D01*
X149758571Y-108835741D02*
X149720475Y-108740503D01*
X149720475Y-108740503D02*
X149720475Y-108692884D01*
X149720475Y-108692884D02*
X149758571Y-108597646D01*
X149758571Y-108597646D02*
X149834761Y-108550027D01*
X149834761Y-108550027D02*
X149949047Y-108550027D01*
X149949047Y-108550027D02*
X150025237Y-108597646D01*
X150406190Y-109216694D02*
X150406190Y-108550027D01*
X150406190Y-108216694D02*
X150368094Y-108264313D01*
X150368094Y-108264313D02*
X150406190Y-108311932D01*
X150406190Y-108311932D02*
X150444285Y-108264313D01*
X150444285Y-108264313D02*
X150406190Y-108216694D01*
X150406190Y-108216694D02*
X150406190Y-108311932D01*
X150901427Y-109216694D02*
X150825237Y-109169075D01*
X150825237Y-109169075D02*
X150787142Y-109121455D01*
X150787142Y-109121455D02*
X150749046Y-109026217D01*
X150749046Y-109026217D02*
X150749046Y-108740503D01*
X150749046Y-108740503D02*
X150787142Y-108645265D01*
X150787142Y-108645265D02*
X150825237Y-108597646D01*
X150825237Y-108597646D02*
X150901427Y-108550027D01*
X150901427Y-108550027D02*
X151015713Y-108550027D01*
X151015713Y-108550027D02*
X151091904Y-108597646D01*
X151091904Y-108597646D02*
X151129999Y-108645265D01*
X151129999Y-108645265D02*
X151168094Y-108740503D01*
X151168094Y-108740503D02*
X151168094Y-109026217D01*
X151168094Y-109026217D02*
X151129999Y-109121455D01*
X151129999Y-109121455D02*
X151091904Y-109169075D01*
X151091904Y-109169075D02*
X151015713Y-109216694D01*
X151015713Y-109216694D02*
X150901427Y-109216694D01*
X151510952Y-108550027D02*
X151510952Y-109216694D01*
X151510952Y-108645265D02*
X151549047Y-108597646D01*
X151549047Y-108597646D02*
X151625237Y-108550027D01*
X151625237Y-108550027D02*
X151739523Y-108550027D01*
X151739523Y-108550027D02*
X151815714Y-108597646D01*
X151815714Y-108597646D02*
X151853809Y-108692884D01*
X151853809Y-108692884D02*
X151853809Y-109216694D01*
X152806190Y-108311932D02*
X152844286Y-108264313D01*
X152844286Y-108264313D02*
X152920476Y-108216694D01*
X152920476Y-108216694D02*
X153110952Y-108216694D01*
X153110952Y-108216694D02*
X153187143Y-108264313D01*
X153187143Y-108264313D02*
X153225238Y-108311932D01*
X153225238Y-108311932D02*
X153263333Y-108407170D01*
X153263333Y-108407170D02*
X153263333Y-108502408D01*
X153263333Y-108502408D02*
X153225238Y-108645265D01*
X153225238Y-108645265D02*
X152768095Y-109216694D01*
X152768095Y-109216694D02*
X153263333Y-109216694D01*
X153606191Y-109121455D02*
X153644286Y-109169075D01*
X153644286Y-109169075D02*
X153606191Y-109216694D01*
X153606191Y-109216694D02*
X153568095Y-109169075D01*
X153568095Y-109169075D02*
X153606191Y-109121455D01*
X153606191Y-109121455D02*
X153606191Y-109216694D01*
X154406190Y-109216694D02*
X153949047Y-109216694D01*
X154177619Y-109216694D02*
X154177619Y-108216694D01*
X154177619Y-108216694D02*
X154101428Y-108359551D01*
X154101428Y-108359551D02*
X154025238Y-108454789D01*
X154025238Y-108454789D02*
X153949047Y-108502408D01*
D11*
X151561800Y-79619239D02*
X151609419Y-79476382D01*
X151609419Y-79476382D02*
X151609419Y-79238287D01*
X151609419Y-79238287D02*
X151561800Y-79143049D01*
X151561800Y-79143049D02*
X151514180Y-79095430D01*
X151514180Y-79095430D02*
X151418942Y-79047811D01*
X151418942Y-79047811D02*
X151323704Y-79047811D01*
X151323704Y-79047811D02*
X151228466Y-79095430D01*
X151228466Y-79095430D02*
X151180847Y-79143049D01*
X151180847Y-79143049D02*
X151133228Y-79238287D01*
X151133228Y-79238287D02*
X151085609Y-79428763D01*
X151085609Y-79428763D02*
X151037990Y-79524001D01*
X151037990Y-79524001D02*
X150990371Y-79571620D01*
X150990371Y-79571620D02*
X150895133Y-79619239D01*
X150895133Y-79619239D02*
X150799895Y-79619239D01*
X150799895Y-79619239D02*
X150704657Y-79571620D01*
X150704657Y-79571620D02*
X150657038Y-79524001D01*
X150657038Y-79524001D02*
X150609419Y-79428763D01*
X150609419Y-79428763D02*
X150609419Y-79190668D01*
X150609419Y-79190668D02*
X150657038Y-79047811D01*
X151514180Y-78047811D02*
X151561800Y-78095430D01*
X151561800Y-78095430D02*
X151609419Y-78238287D01*
X151609419Y-78238287D02*
X151609419Y-78333525D01*
X151609419Y-78333525D02*
X151561800Y-78476382D01*
X151561800Y-78476382D02*
X151466561Y-78571620D01*
X151466561Y-78571620D02*
X151371323Y-78619239D01*
X151371323Y-78619239D02*
X151180847Y-78666858D01*
X151180847Y-78666858D02*
X151037990Y-78666858D01*
X151037990Y-78666858D02*
X150847514Y-78619239D01*
X150847514Y-78619239D02*
X150752276Y-78571620D01*
X150752276Y-78571620D02*
X150657038Y-78476382D01*
X150657038Y-78476382D02*
X150609419Y-78333525D01*
X150609419Y-78333525D02*
X150609419Y-78238287D01*
X150609419Y-78238287D02*
X150657038Y-78095430D01*
X150657038Y-78095430D02*
X150704657Y-78047811D01*
X151609419Y-77619239D02*
X150609419Y-77619239D01*
X151609419Y-77047811D02*
X151037990Y-77476382D01*
X150609419Y-77047811D02*
X151180847Y-77619239D01*
X154200219Y-78746192D02*
X153724028Y-79079525D01*
X154200219Y-79317620D02*
X153200219Y-79317620D01*
X153200219Y-79317620D02*
X153200219Y-78936668D01*
X153200219Y-78936668D02*
X153247838Y-78841430D01*
X153247838Y-78841430D02*
X153295457Y-78793811D01*
X153295457Y-78793811D02*
X153390695Y-78746192D01*
X153390695Y-78746192D02*
X153533552Y-78746192D01*
X153533552Y-78746192D02*
X153628790Y-78793811D01*
X153628790Y-78793811D02*
X153676409Y-78841430D01*
X153676409Y-78841430D02*
X153724028Y-78936668D01*
X153724028Y-78936668D02*
X153724028Y-79317620D01*
X154152600Y-78365239D02*
X154200219Y-78222382D01*
X154200219Y-78222382D02*
X154200219Y-77984287D01*
X154200219Y-77984287D02*
X154152600Y-77889049D01*
X154152600Y-77889049D02*
X154104980Y-77841430D01*
X154104980Y-77841430D02*
X154009742Y-77793811D01*
X154009742Y-77793811D02*
X153914504Y-77793811D01*
X153914504Y-77793811D02*
X153819266Y-77841430D01*
X153819266Y-77841430D02*
X153771647Y-77889049D01*
X153771647Y-77889049D02*
X153724028Y-77984287D01*
X153724028Y-77984287D02*
X153676409Y-78174763D01*
X153676409Y-78174763D02*
X153628790Y-78270001D01*
X153628790Y-78270001D02*
X153581171Y-78317620D01*
X153581171Y-78317620D02*
X153485933Y-78365239D01*
X153485933Y-78365239D02*
X153390695Y-78365239D01*
X153390695Y-78365239D02*
X153295457Y-78317620D01*
X153295457Y-78317620D02*
X153247838Y-78270001D01*
X153247838Y-78270001D02*
X153200219Y-78174763D01*
X153200219Y-78174763D02*
X153200219Y-77936668D01*
X153200219Y-77936668D02*
X153247838Y-77793811D01*
X153200219Y-77508096D02*
X153200219Y-76936668D01*
X154200219Y-77222382D02*
X153200219Y-77222382D01*
X151711019Y-70072020D02*
X150711019Y-70072020D01*
X150711019Y-70072020D02*
X151425304Y-69738687D01*
X151425304Y-69738687D02*
X150711019Y-69405354D01*
X150711019Y-69405354D02*
X151711019Y-69405354D01*
X150711019Y-68738687D02*
X150711019Y-68548211D01*
X150711019Y-68548211D02*
X150758638Y-68452973D01*
X150758638Y-68452973D02*
X150853876Y-68357735D01*
X150853876Y-68357735D02*
X151044352Y-68310116D01*
X151044352Y-68310116D02*
X151377685Y-68310116D01*
X151377685Y-68310116D02*
X151568161Y-68357735D01*
X151568161Y-68357735D02*
X151663400Y-68452973D01*
X151663400Y-68452973D02*
X151711019Y-68548211D01*
X151711019Y-68548211D02*
X151711019Y-68738687D01*
X151711019Y-68738687D02*
X151663400Y-68833925D01*
X151663400Y-68833925D02*
X151568161Y-68929163D01*
X151568161Y-68929163D02*
X151377685Y-68976782D01*
X151377685Y-68976782D02*
X151044352Y-68976782D01*
X151044352Y-68976782D02*
X150853876Y-68929163D01*
X150853876Y-68929163D02*
X150758638Y-68833925D01*
X150758638Y-68833925D02*
X150711019Y-68738687D01*
X151663400Y-67929163D02*
X151711019Y-67786306D01*
X151711019Y-67786306D02*
X151711019Y-67548211D01*
X151711019Y-67548211D02*
X151663400Y-67452973D01*
X151663400Y-67452973D02*
X151615780Y-67405354D01*
X151615780Y-67405354D02*
X151520542Y-67357735D01*
X151520542Y-67357735D02*
X151425304Y-67357735D01*
X151425304Y-67357735D02*
X151330066Y-67405354D01*
X151330066Y-67405354D02*
X151282447Y-67452973D01*
X151282447Y-67452973D02*
X151234828Y-67548211D01*
X151234828Y-67548211D02*
X151187209Y-67738687D01*
X151187209Y-67738687D02*
X151139590Y-67833925D01*
X151139590Y-67833925D02*
X151091971Y-67881544D01*
X151091971Y-67881544D02*
X150996733Y-67929163D01*
X150996733Y-67929163D02*
X150901495Y-67929163D01*
X150901495Y-67929163D02*
X150806257Y-67881544D01*
X150806257Y-67881544D02*
X150758638Y-67833925D01*
X150758638Y-67833925D02*
X150711019Y-67738687D01*
X150711019Y-67738687D02*
X150711019Y-67500592D01*
X150711019Y-67500592D02*
X150758638Y-67357735D01*
X151711019Y-66929163D02*
X150711019Y-66929163D01*
X153247838Y-69548211D02*
X153200219Y-69643449D01*
X153200219Y-69643449D02*
X153200219Y-69786306D01*
X153200219Y-69786306D02*
X153247838Y-69929163D01*
X153247838Y-69929163D02*
X153343076Y-70024401D01*
X153343076Y-70024401D02*
X153438314Y-70072020D01*
X153438314Y-70072020D02*
X153628790Y-70119639D01*
X153628790Y-70119639D02*
X153771647Y-70119639D01*
X153771647Y-70119639D02*
X153962123Y-70072020D01*
X153962123Y-70072020D02*
X154057361Y-70024401D01*
X154057361Y-70024401D02*
X154152600Y-69929163D01*
X154152600Y-69929163D02*
X154200219Y-69786306D01*
X154200219Y-69786306D02*
X154200219Y-69691068D01*
X154200219Y-69691068D02*
X154152600Y-69548211D01*
X154152600Y-69548211D02*
X154104980Y-69500592D01*
X154104980Y-69500592D02*
X153771647Y-69500592D01*
X153771647Y-69500592D02*
X153771647Y-69691068D01*
X154200219Y-69072020D02*
X153200219Y-69072020D01*
X153200219Y-69072020D02*
X154200219Y-68500592D01*
X154200219Y-68500592D02*
X153200219Y-68500592D01*
X154200219Y-68024401D02*
X153200219Y-68024401D01*
X153200219Y-68024401D02*
X153200219Y-67786306D01*
X153200219Y-67786306D02*
X153247838Y-67643449D01*
X153247838Y-67643449D02*
X153343076Y-67548211D01*
X153343076Y-67548211D02*
X153438314Y-67500592D01*
X153438314Y-67500592D02*
X153628790Y-67452973D01*
X153628790Y-67452973D02*
X153771647Y-67452973D01*
X153771647Y-67452973D02*
X153962123Y-67500592D01*
X153962123Y-67500592D02*
X154057361Y-67548211D01*
X154057361Y-67548211D02*
X154152600Y-67643449D01*
X154152600Y-67643449D02*
X154200219Y-67786306D01*
X154200219Y-67786306D02*
X154200219Y-68024401D01*
X151650819Y-86724877D02*
X151650819Y-86153449D01*
X152650819Y-86439163D02*
X151650819Y-86439163D01*
X152650819Y-85915353D02*
X151984152Y-85391544D01*
X151984152Y-85915353D02*
X152650819Y-85391544D01*
X152650819Y-85010591D02*
X151650819Y-85010591D01*
X151650819Y-85010591D02*
X151650819Y-84772496D01*
X151650819Y-84772496D02*
X151698438Y-84629639D01*
X151698438Y-84629639D02*
X151793676Y-84534401D01*
X151793676Y-84534401D02*
X151888914Y-84486782D01*
X151888914Y-84486782D02*
X152079390Y-84439163D01*
X152079390Y-84439163D02*
X152222247Y-84439163D01*
X152222247Y-84439163D02*
X152412723Y-84486782D01*
X152412723Y-84486782D02*
X152507961Y-84534401D01*
X152507961Y-84534401D02*
X152603200Y-84629639D01*
X152603200Y-84629639D02*
X152650819Y-84772496D01*
X152650819Y-84772496D02*
X152650819Y-85010591D01*
X145540619Y-73886733D02*
X146254904Y-73886733D01*
X146254904Y-73886733D02*
X146397761Y-73934352D01*
X146397761Y-73934352D02*
X146493000Y-74029590D01*
X146493000Y-74029590D02*
X146540619Y-74172447D01*
X146540619Y-74172447D02*
X146540619Y-74267685D01*
X145635857Y-73458161D02*
X145588238Y-73410542D01*
X145588238Y-73410542D02*
X145540619Y-73315304D01*
X145540619Y-73315304D02*
X145540619Y-73077209D01*
X145540619Y-73077209D02*
X145588238Y-72981971D01*
X145588238Y-72981971D02*
X145635857Y-72934352D01*
X145635857Y-72934352D02*
X145731095Y-72886733D01*
X145731095Y-72886733D02*
X145826333Y-72886733D01*
X145826333Y-72886733D02*
X145969190Y-72934352D01*
X145969190Y-72934352D02*
X146540619Y-73505780D01*
X146540619Y-73505780D02*
X146540619Y-72886733D01*
X155359819Y-98511904D02*
X156169342Y-98511904D01*
X156169342Y-98511904D02*
X156264580Y-98464285D01*
X156264580Y-98464285D02*
X156312200Y-98416666D01*
X156312200Y-98416666D02*
X156359819Y-98321428D01*
X156359819Y-98321428D02*
X156359819Y-98130952D01*
X156359819Y-98130952D02*
X156312200Y-98035714D01*
X156312200Y-98035714D02*
X156264580Y-97988095D01*
X156264580Y-97988095D02*
X156169342Y-97940476D01*
X156169342Y-97940476D02*
X155359819Y-97940476D01*
X155455057Y-97511904D02*
X155407438Y-97464285D01*
X155407438Y-97464285D02*
X155359819Y-97369047D01*
X155359819Y-97369047D02*
X155359819Y-97130952D01*
X155359819Y-97130952D02*
X155407438Y-97035714D01*
X155407438Y-97035714D02*
X155455057Y-96988095D01*
X155455057Y-96988095D02*
X155550295Y-96940476D01*
X155550295Y-96940476D02*
X155645533Y-96940476D01*
X155645533Y-96940476D02*
X155788390Y-96988095D01*
X155788390Y-96988095D02*
X156359819Y-97559523D01*
X156359819Y-97559523D02*
X156359819Y-96940476D01*
X146520819Y-87658533D02*
X147235104Y-87658533D01*
X147235104Y-87658533D02*
X147377961Y-87706152D01*
X147377961Y-87706152D02*
X147473200Y-87801390D01*
X147473200Y-87801390D02*
X147520819Y-87944247D01*
X147520819Y-87944247D02*
X147520819Y-88039485D01*
X146520819Y-87277580D02*
X146520819Y-86658533D01*
X146520819Y-86658533D02*
X146901771Y-86991866D01*
X146901771Y-86991866D02*
X146901771Y-86849009D01*
X146901771Y-86849009D02*
X146949390Y-86753771D01*
X146949390Y-86753771D02*
X146997009Y-86706152D01*
X146997009Y-86706152D02*
X147092247Y-86658533D01*
X147092247Y-86658533D02*
X147330342Y-86658533D01*
X147330342Y-86658533D02*
X147425580Y-86706152D01*
X147425580Y-86706152D02*
X147473200Y-86753771D01*
X147473200Y-86753771D02*
X147520819Y-86849009D01*
X147520819Y-86849009D02*
X147520819Y-87134723D01*
X147520819Y-87134723D02*
X147473200Y-87229961D01*
X147473200Y-87229961D02*
X147425580Y-87277580D01*
%TO.C,REF\u002A\u002A*%
D13*
X154573807Y-116047782D02*
X154597161Y-116057988D01*
X154652902Y-116102134D01*
X154700569Y-116165967D01*
X154730048Y-116234087D01*
X154734846Y-116267670D01*
X154718760Y-116314556D01*
X154683475Y-116339365D01*
X154645644Y-116354387D01*
X154628321Y-116357155D01*
X154619886Y-116337066D01*
X154603230Y-116293351D01*
X154595923Y-116273598D01*
X154554948Y-116205271D01*
X154495622Y-116171191D01*
X154419552Y-116172239D01*
X154413918Y-116173581D01*
X154373305Y-116192836D01*
X154343448Y-116230375D01*
X154323055Y-116290809D01*
X154310836Y-116378751D01*
X154305500Y-116498813D01*
X154305000Y-116562698D01*
X154304752Y-116663403D01*
X154303126Y-116732054D01*
X154298801Y-116775673D01*
X154290454Y-116801282D01*
X154276765Y-116815903D01*
X154256411Y-116826558D01*
X154255234Y-116827095D01*
X154216038Y-116843667D01*
X154196619Y-116849769D01*
X154193635Y-116831319D01*
X154191081Y-116780323D01*
X154189140Y-116703308D01*
X154187997Y-116606805D01*
X154187769Y-116536184D01*
X154188932Y-116399525D01*
X154193479Y-116295851D01*
X154202999Y-116219108D01*
X154219081Y-116163246D01*
X154243313Y-116122212D01*
X154277286Y-116089954D01*
X154310833Y-116067440D01*
X154391499Y-116037476D01*
X154485381Y-116030718D01*
X154573807Y-116047782D01*
G36*
X154573807Y-116047782D02*
G01*
X154597161Y-116057988D01*
X154652902Y-116102134D01*
X154700569Y-116165967D01*
X154730048Y-116234087D01*
X154734846Y-116267670D01*
X154718760Y-116314556D01*
X154683475Y-116339365D01*
X154645644Y-116354387D01*
X154628321Y-116357155D01*
X154619886Y-116337066D01*
X154603230Y-116293351D01*
X154595923Y-116273598D01*
X154554948Y-116205271D01*
X154495622Y-116171191D01*
X154419552Y-116172239D01*
X154413918Y-116173581D01*
X154373305Y-116192836D01*
X154343448Y-116230375D01*
X154323055Y-116290809D01*
X154310836Y-116378751D01*
X154305500Y-116498813D01*
X154305000Y-116562698D01*
X154304752Y-116663403D01*
X154303126Y-116732054D01*
X154298801Y-116775673D01*
X154290454Y-116801282D01*
X154276765Y-116815903D01*
X154256411Y-116826558D01*
X154255234Y-116827095D01*
X154216038Y-116843667D01*
X154196619Y-116849769D01*
X154193635Y-116831319D01*
X154191081Y-116780323D01*
X154189140Y-116703308D01*
X154187997Y-116606805D01*
X154187769Y-116536184D01*
X154188932Y-116399525D01*
X154193479Y-116295851D01*
X154202999Y-116219108D01*
X154219081Y-116163246D01*
X154243313Y-116122212D01*
X154277286Y-116089954D01*
X154310833Y-116067440D01*
X154391499Y-116037476D01*
X154485381Y-116030718D01*
X154573807Y-116047782D01*
G37*
X149274664Y-116006089D02*
X149337367Y-116042358D01*
X149380961Y-116078358D01*
X149412845Y-116116075D01*
X149434810Y-116162199D01*
X149448649Y-116223421D01*
X149456153Y-116306431D01*
X149459117Y-116417919D01*
X149459461Y-116498062D01*
X149459461Y-116793065D01*
X149293385Y-116867515D01*
X149283615Y-116544402D01*
X149279579Y-116423729D01*
X149275344Y-116336141D01*
X149270097Y-116275650D01*
X149263025Y-116236268D01*
X149253311Y-116212007D01*
X149240144Y-116196880D01*
X149235919Y-116193606D01*
X149171909Y-116168034D01*
X149107208Y-116178153D01*
X149068692Y-116205000D01*
X149053025Y-116224024D01*
X149042180Y-116248988D01*
X149035288Y-116286834D01*
X149031479Y-116344502D01*
X149029883Y-116428935D01*
X149029615Y-116516928D01*
X149029563Y-116627323D01*
X149027672Y-116705463D01*
X149021345Y-116758165D01*
X149007983Y-116792242D01*
X148984985Y-116814511D01*
X148949754Y-116831787D01*
X148902697Y-116849738D01*
X148851303Y-116869278D01*
X148857421Y-116522485D01*
X148859884Y-116397468D01*
X148862767Y-116305082D01*
X148866898Y-116238881D01*
X148873107Y-116192420D01*
X148882226Y-116159256D01*
X148895083Y-116132944D01*
X148910584Y-116109729D01*
X148985371Y-116035569D01*
X149076628Y-115992684D01*
X149175883Y-115982412D01*
X149274664Y-116006089D01*
G36*
X149274664Y-116006089D02*
G01*
X149337367Y-116042358D01*
X149380961Y-116078358D01*
X149412845Y-116116075D01*
X149434810Y-116162199D01*
X149448649Y-116223421D01*
X149456153Y-116306431D01*
X149459117Y-116417919D01*
X149459461Y-116498062D01*
X149459461Y-116793065D01*
X149293385Y-116867515D01*
X149283615Y-116544402D01*
X149279579Y-116423729D01*
X149275344Y-116336141D01*
X149270097Y-116275650D01*
X149263025Y-116236268D01*
X149253311Y-116212007D01*
X149240144Y-116196880D01*
X149235919Y-116193606D01*
X149171909Y-116168034D01*
X149107208Y-116178153D01*
X149068692Y-116205000D01*
X149053025Y-116224024D01*
X149042180Y-116248988D01*
X149035288Y-116286834D01*
X149031479Y-116344502D01*
X149029883Y-116428935D01*
X149029615Y-116516928D01*
X149029563Y-116627323D01*
X149027672Y-116705463D01*
X149021345Y-116758165D01*
X149007983Y-116792242D01*
X148984985Y-116814511D01*
X148949754Y-116831787D01*
X148902697Y-116849738D01*
X148851303Y-116869278D01*
X148857421Y-116522485D01*
X148859884Y-116397468D01*
X148862767Y-116305082D01*
X148866898Y-116238881D01*
X148873107Y-116192420D01*
X148882226Y-116159256D01*
X148895083Y-116132944D01*
X148910584Y-116109729D01*
X148985371Y-116035569D01*
X149076628Y-115992684D01*
X149175883Y-115982412D01*
X149274664Y-116006089D01*
G37*
X151716362Y-116035670D02*
X151805117Y-116068421D01*
X151877022Y-116126350D01*
X151905144Y-116167128D01*
X151935802Y-116241954D01*
X151935165Y-116296058D01*
X151902987Y-116332446D01*
X151891081Y-116338633D01*
X151839675Y-116357925D01*
X151813422Y-116352982D01*
X151804530Y-116320587D01*
X151804077Y-116302692D01*
X151787797Y-116236859D01*
X151745365Y-116190807D01*
X151686388Y-116168564D01*
X151620475Y-116174161D01*
X151566895Y-116203229D01*
X151548798Y-116219810D01*
X151535971Y-116239925D01*
X151527306Y-116270332D01*
X151521696Y-116317788D01*
X151518035Y-116389050D01*
X151515215Y-116490875D01*
X151514484Y-116523115D01*
X151511820Y-116633410D01*
X151508792Y-116711036D01*
X151504250Y-116762396D01*
X151497046Y-116793890D01*
X151486033Y-116811920D01*
X151470060Y-116822888D01*
X151459834Y-116827733D01*
X151416406Y-116844301D01*
X151390842Y-116849769D01*
X151382395Y-116831507D01*
X151377239Y-116776296D01*
X151375346Y-116683499D01*
X151376689Y-116552478D01*
X151377107Y-116532269D01*
X151380058Y-116412733D01*
X151383548Y-116325449D01*
X151388514Y-116263591D01*
X151395893Y-116220336D01*
X151406624Y-116188860D01*
X151421645Y-116162339D01*
X151429502Y-116150975D01*
X151474553Y-116100692D01*
X151524940Y-116061581D01*
X151531108Y-116058167D01*
X151621458Y-116031212D01*
X151716362Y-116035670D01*
G36*
X151716362Y-116035670D02*
G01*
X151805117Y-116068421D01*
X151877022Y-116126350D01*
X151905144Y-116167128D01*
X151935802Y-116241954D01*
X151935165Y-116296058D01*
X151902987Y-116332446D01*
X151891081Y-116338633D01*
X151839675Y-116357925D01*
X151813422Y-116352982D01*
X151804530Y-116320587D01*
X151804077Y-116302692D01*
X151787797Y-116236859D01*
X151745365Y-116190807D01*
X151686388Y-116168564D01*
X151620475Y-116174161D01*
X151566895Y-116203229D01*
X151548798Y-116219810D01*
X151535971Y-116239925D01*
X151527306Y-116270332D01*
X151521696Y-116317788D01*
X151518035Y-116389050D01*
X151515215Y-116490875D01*
X151514484Y-116523115D01*
X151511820Y-116633410D01*
X151508792Y-116711036D01*
X151504250Y-116762396D01*
X151497046Y-116793890D01*
X151486033Y-116811920D01*
X151470060Y-116822888D01*
X151459834Y-116827733D01*
X151416406Y-116844301D01*
X151390842Y-116849769D01*
X151382395Y-116831507D01*
X151377239Y-116776296D01*
X151375346Y-116683499D01*
X151376689Y-116552478D01*
X151377107Y-116532269D01*
X151380058Y-116412733D01*
X151383548Y-116325449D01*
X151388514Y-116263591D01*
X151395893Y-116220336D01*
X151406624Y-116188860D01*
X151421645Y-116162339D01*
X151429502Y-116150975D01*
X151474553Y-116100692D01*
X151524940Y-116061581D01*
X151531108Y-116058167D01*
X151621458Y-116031212D01*
X151716362Y-116035670D01*
G37*
X150162846Y-115903120D02*
X150168572Y-115982980D01*
X150175149Y-116030039D01*
X150184262Y-116050566D01*
X150197598Y-116050829D01*
X150201923Y-116048378D01*
X150259444Y-116030636D01*
X150334268Y-116031672D01*
X150410339Y-116049910D01*
X150457918Y-116073505D01*
X150506702Y-116111198D01*
X150542364Y-116153855D01*
X150566845Y-116208057D01*
X150582087Y-116280384D01*
X150590030Y-116377419D01*
X150592616Y-116505742D01*
X150592662Y-116530358D01*
X150592692Y-116806870D01*
X150531161Y-116828320D01*
X150487459Y-116842912D01*
X150463482Y-116849706D01*
X150462777Y-116849769D01*
X150460415Y-116831345D01*
X150458406Y-116780526D01*
X150456901Y-116703993D01*
X150456053Y-116608430D01*
X150455923Y-116550329D01*
X150455651Y-116435771D01*
X150454252Y-116353667D01*
X150450849Y-116297393D01*
X150444567Y-116260326D01*
X150434529Y-116235844D01*
X150419861Y-116217325D01*
X150410702Y-116208406D01*
X150347789Y-116172466D01*
X150279136Y-116169775D01*
X150216848Y-116200170D01*
X150205329Y-116211144D01*
X150188433Y-116231779D01*
X150176714Y-116256256D01*
X150169233Y-116291647D01*
X150165054Y-116345026D01*
X150163237Y-116423466D01*
X150162846Y-116531617D01*
X150162846Y-116806870D01*
X150101315Y-116828320D01*
X150057613Y-116842912D01*
X150033636Y-116849706D01*
X150032930Y-116849769D01*
X150031126Y-116831069D01*
X150029500Y-116778322D01*
X150028117Y-116696557D01*
X150027042Y-116590805D01*
X150026340Y-116466094D01*
X150026077Y-116327455D01*
X150026077Y-115792806D01*
X150153077Y-115739236D01*
X150162846Y-115903120D01*
G36*
X150162846Y-115903120D02*
G01*
X150168572Y-115982980D01*
X150175149Y-116030039D01*
X150184262Y-116050566D01*
X150197598Y-116050829D01*
X150201923Y-116048378D01*
X150259444Y-116030636D01*
X150334268Y-116031672D01*
X150410339Y-116049910D01*
X150457918Y-116073505D01*
X150506702Y-116111198D01*
X150542364Y-116153855D01*
X150566845Y-116208057D01*
X150582087Y-116280384D01*
X150590030Y-116377419D01*
X150592616Y-116505742D01*
X150592662Y-116530358D01*
X150592692Y-116806870D01*
X150531161Y-116828320D01*
X150487459Y-116842912D01*
X150463482Y-116849706D01*
X150462777Y-116849769D01*
X150460415Y-116831345D01*
X150458406Y-116780526D01*
X150456901Y-116703993D01*
X150456053Y-116608430D01*
X150455923Y-116550329D01*
X150455651Y-116435771D01*
X150454252Y-116353667D01*
X150450849Y-116297393D01*
X150444567Y-116260326D01*
X150434529Y-116235844D01*
X150419861Y-116217325D01*
X150410702Y-116208406D01*
X150347789Y-116172466D01*
X150279136Y-116169775D01*
X150216848Y-116200170D01*
X150205329Y-116211144D01*
X150188433Y-116231779D01*
X150176714Y-116256256D01*
X150169233Y-116291647D01*
X150165054Y-116345026D01*
X150163237Y-116423466D01*
X150162846Y-116531617D01*
X150162846Y-116806870D01*
X150101315Y-116828320D01*
X150057613Y-116842912D01*
X150033636Y-116849706D01*
X150032930Y-116849769D01*
X150031126Y-116831069D01*
X150029500Y-116778322D01*
X150028117Y-116696557D01*
X150027042Y-116590805D01*
X150026340Y-116466094D01*
X150026077Y-116327455D01*
X150026077Y-115792806D01*
X150153077Y-115739236D01*
X150162846Y-115903120D01*
G37*
X153398929Y-116047662D02*
X153401911Y-116099068D01*
X153404247Y-116177192D01*
X153405749Y-116275857D01*
X153406231Y-116379343D01*
X153406231Y-116729533D01*
X153344401Y-116791363D01*
X153301793Y-116829462D01*
X153264390Y-116844895D01*
X153213270Y-116843918D01*
X153192978Y-116841433D01*
X153129554Y-116834200D01*
X153077095Y-116830055D01*
X153064308Y-116829672D01*
X153021199Y-116832176D01*
X152959544Y-116838462D01*
X152935638Y-116841433D01*
X152876922Y-116846028D01*
X152837464Y-116836046D01*
X152798338Y-116805228D01*
X152784215Y-116791363D01*
X152722385Y-116729533D01*
X152722385Y-116074503D01*
X152772150Y-116051829D01*
X152815002Y-116035034D01*
X152840073Y-116029154D01*
X152846501Y-116047736D01*
X152852509Y-116099655D01*
X152857697Y-116179172D01*
X152861664Y-116280546D01*
X152863577Y-116366192D01*
X152868923Y-116703231D01*
X152915560Y-116709825D01*
X152957976Y-116705214D01*
X152978760Y-116690287D01*
X152984570Y-116662377D01*
X152989530Y-116602925D01*
X152993246Y-116519466D01*
X152995324Y-116419532D01*
X152995624Y-116368104D01*
X152995923Y-116072054D01*
X153057454Y-116050604D01*
X153101004Y-116036020D01*
X153124694Y-116029219D01*
X153125377Y-116029154D01*
X153127754Y-116047642D01*
X153130366Y-116098906D01*
X153132995Y-116176649D01*
X153135421Y-116274574D01*
X153137115Y-116366192D01*
X153142461Y-116703231D01*
X153259692Y-116703231D01*
X153265072Y-116395746D01*
X153270451Y-116088261D01*
X153327601Y-116058707D01*
X153369797Y-116038413D01*
X153394770Y-116029204D01*
X153395491Y-116029154D01*
X153398929Y-116047662D01*
G36*
X153398929Y-116047662D02*
G01*
X153401911Y-116099068D01*
X153404247Y-116177192D01*
X153405749Y-116275857D01*
X153406231Y-116379343D01*
X153406231Y-116729533D01*
X153344401Y-116791363D01*
X153301793Y-116829462D01*
X153264390Y-116844895D01*
X153213270Y-116843918D01*
X153192978Y-116841433D01*
X153129554Y-116834200D01*
X153077095Y-116830055D01*
X153064308Y-116829672D01*
X153021199Y-116832176D01*
X152959544Y-116838462D01*
X152935638Y-116841433D01*
X152876922Y-116846028D01*
X152837464Y-116836046D01*
X152798338Y-116805228D01*
X152784215Y-116791363D01*
X152722385Y-116729533D01*
X152722385Y-116074503D01*
X152772150Y-116051829D01*
X152815002Y-116035034D01*
X152840073Y-116029154D01*
X152846501Y-116047736D01*
X152852509Y-116099655D01*
X152857697Y-116179172D01*
X152861664Y-116280546D01*
X152863577Y-116366192D01*
X152868923Y-116703231D01*
X152915560Y-116709825D01*
X152957976Y-116705214D01*
X152978760Y-116690287D01*
X152984570Y-116662377D01*
X152989530Y-116602925D01*
X152993246Y-116519466D01*
X152995324Y-116419532D01*
X152995624Y-116368104D01*
X152995923Y-116072054D01*
X153057454Y-116050604D01*
X153101004Y-116036020D01*
X153124694Y-116029219D01*
X153125377Y-116029154D01*
X153127754Y-116047642D01*
X153130366Y-116098906D01*
X153132995Y-116176649D01*
X153135421Y-116274574D01*
X153137115Y-116366192D01*
X153142461Y-116703231D01*
X153259692Y-116703231D01*
X153265072Y-116395746D01*
X153270451Y-116088261D01*
X153327601Y-116058707D01*
X153369797Y-116038413D01*
X153394770Y-116029204D01*
X153395491Y-116029154D01*
X153398929Y-116047662D01*
G37*
X147019886Y-115998256D02*
X147111464Y-116046409D01*
X147179049Y-116123905D01*
X147203057Y-116173727D01*
X147221738Y-116248533D01*
X147231301Y-116343052D01*
X147232208Y-116446210D01*
X147224921Y-116546935D01*
X147209903Y-116634153D01*
X147187615Y-116696791D01*
X147180765Y-116707579D01*
X147099632Y-116788105D01*
X147003266Y-116836336D01*
X146898701Y-116850450D01*
X146792968Y-116828629D01*
X146763543Y-116815547D01*
X146706241Y-116775231D01*
X146655950Y-116721775D01*
X146651197Y-116714995D01*
X146631878Y-116682321D01*
X146619108Y-116647394D01*
X146611564Y-116601414D01*
X146607924Y-116535584D01*
X146606865Y-116441105D01*
X146606846Y-116419923D01*
X146606894Y-116413182D01*
X146802231Y-116413182D01*
X146803368Y-116502349D01*
X146807841Y-116561520D01*
X146817246Y-116599741D01*
X146833176Y-116626053D01*
X146841308Y-116634846D01*
X146888058Y-116668261D01*
X146933447Y-116666737D01*
X146979340Y-116637752D01*
X147006712Y-116606809D01*
X147022923Y-116561643D01*
X147032026Y-116490420D01*
X147032651Y-116482114D01*
X147034204Y-116353037D01*
X147017965Y-116257172D01*
X146984152Y-116195107D01*
X146932984Y-116167432D01*
X146914720Y-116165923D01*
X146866760Y-116173513D01*
X146833953Y-116199808D01*
X146813895Y-116250095D01*
X146804178Y-116329664D01*
X146802231Y-116413182D01*
X146606894Y-116413182D01*
X146607574Y-116319249D01*
X146610629Y-116248906D01*
X146617322Y-116200163D01*
X146628960Y-116164288D01*
X146646853Y-116132548D01*
X146650808Y-116126648D01*
X146717267Y-116047104D01*
X146789685Y-116000929D01*
X146877849Y-115982599D01*
X146907787Y-115981703D01*
X147019886Y-115998256D01*
G36*
X147019886Y-115998256D02*
G01*
X147111464Y-116046409D01*
X147179049Y-116123905D01*
X147203057Y-116173727D01*
X147221738Y-116248533D01*
X147231301Y-116343052D01*
X147232208Y-116446210D01*
X147224921Y-116546935D01*
X147209903Y-116634153D01*
X147187615Y-116696791D01*
X147180765Y-116707579D01*
X147099632Y-116788105D01*
X147003266Y-116836336D01*
X146898701Y-116850450D01*
X146792968Y-116828629D01*
X146763543Y-116815547D01*
X146706241Y-116775231D01*
X146655950Y-116721775D01*
X146651197Y-116714995D01*
X146631878Y-116682321D01*
X146619108Y-116647394D01*
X146611564Y-116601414D01*
X146607924Y-116535584D01*
X146606865Y-116441105D01*
X146606846Y-116419923D01*
X146606894Y-116413182D01*
X146802231Y-116413182D01*
X146803368Y-116502349D01*
X146807841Y-116561520D01*
X146817246Y-116599741D01*
X146833176Y-116626053D01*
X146841308Y-116634846D01*
X146888058Y-116668261D01*
X146933447Y-116666737D01*
X146979340Y-116637752D01*
X147006712Y-116606809D01*
X147022923Y-116561643D01*
X147032026Y-116490420D01*
X147032651Y-116482114D01*
X147034204Y-116353037D01*
X147017965Y-116257172D01*
X146984152Y-116195107D01*
X146932984Y-116167432D01*
X146914720Y-116165923D01*
X146866760Y-116173513D01*
X146833953Y-116199808D01*
X146813895Y-116250095D01*
X146804178Y-116329664D01*
X146802231Y-116413182D01*
X146606894Y-116413182D01*
X146607574Y-116319249D01*
X146610629Y-116248906D01*
X146617322Y-116200163D01*
X146628960Y-116164288D01*
X146646853Y-116132548D01*
X146650808Y-116126648D01*
X146717267Y-116047104D01*
X146789685Y-116000929D01*
X146877849Y-115982599D01*
X146907787Y-115981703D01*
X147019886Y-115998256D01*
G37*
X155248224Y-116058838D02*
X155325528Y-116109361D01*
X155362814Y-116154590D01*
X155392353Y-116236663D01*
X155394699Y-116301607D01*
X155389385Y-116388445D01*
X155189115Y-116476103D01*
X155091739Y-116520887D01*
X155028113Y-116556913D01*
X154995029Y-116588117D01*
X154989280Y-116618436D01*
X155007658Y-116651805D01*
X155027923Y-116673923D01*
X155086889Y-116709393D01*
X155151024Y-116711879D01*
X155209926Y-116684235D01*
X155253197Y-116629320D01*
X155260936Y-116609928D01*
X155298006Y-116549364D01*
X155340654Y-116523552D01*
X155399154Y-116501471D01*
X155399154Y-116585184D01*
X155393982Y-116642150D01*
X155373723Y-116690189D01*
X155331262Y-116745346D01*
X155324951Y-116752514D01*
X155277720Y-116801585D01*
X155237121Y-116827920D01*
X155186328Y-116840035D01*
X155144220Y-116844003D01*
X155068902Y-116844991D01*
X155015286Y-116832466D01*
X154981838Y-116813869D01*
X154929268Y-116772975D01*
X154892879Y-116728748D01*
X154869850Y-116673126D01*
X154857359Y-116598047D01*
X154852587Y-116495449D01*
X154852206Y-116443376D01*
X154853501Y-116380948D01*
X154971471Y-116380948D01*
X154972839Y-116414438D01*
X154976249Y-116419923D01*
X154998753Y-116412472D01*
X155047182Y-116392753D01*
X155111908Y-116364718D01*
X155125443Y-116358692D01*
X155207244Y-116317096D01*
X155252312Y-116280538D01*
X155262217Y-116246296D01*
X155238526Y-116211648D01*
X155218960Y-116196339D01*
X155148360Y-116165721D01*
X155082280Y-116170780D01*
X155026959Y-116208151D01*
X154988636Y-116274473D01*
X154976349Y-116327116D01*
X154971471Y-116380948D01*
X154853501Y-116380948D01*
X154854730Y-116321720D01*
X154864032Y-116231710D01*
X154882460Y-116166167D01*
X154912360Y-116117912D01*
X154956080Y-116079767D01*
X154975141Y-116067440D01*
X155061726Y-116035336D01*
X155156522Y-116033316D01*
X155248224Y-116058838D01*
G36*
X155248224Y-116058838D02*
G01*
X155325528Y-116109361D01*
X155362814Y-116154590D01*
X155392353Y-116236663D01*
X155394699Y-116301607D01*
X155389385Y-116388445D01*
X155189115Y-116476103D01*
X155091739Y-116520887D01*
X155028113Y-116556913D01*
X154995029Y-116588117D01*
X154989280Y-116618436D01*
X155007658Y-116651805D01*
X155027923Y-116673923D01*
X155086889Y-116709393D01*
X155151024Y-116711879D01*
X155209926Y-116684235D01*
X155253197Y-116629320D01*
X155260936Y-116609928D01*
X155298006Y-116549364D01*
X155340654Y-116523552D01*
X155399154Y-116501471D01*
X155399154Y-116585184D01*
X155393982Y-116642150D01*
X155373723Y-116690189D01*
X155331262Y-116745346D01*
X155324951Y-116752514D01*
X155277720Y-116801585D01*
X155237121Y-116827920D01*
X155186328Y-116840035D01*
X155144220Y-116844003D01*
X155068902Y-116844991D01*
X155015286Y-116832466D01*
X154981838Y-116813869D01*
X154929268Y-116772975D01*
X154892879Y-116728748D01*
X154869850Y-116673126D01*
X154857359Y-116598047D01*
X154852587Y-116495449D01*
X154852206Y-116443376D01*
X154853501Y-116380948D01*
X154971471Y-116380948D01*
X154972839Y-116414438D01*
X154976249Y-116419923D01*
X154998753Y-116412472D01*
X155047182Y-116392753D01*
X155111908Y-116364718D01*
X155125443Y-116358692D01*
X155207244Y-116317096D01*
X155252312Y-116280538D01*
X155262217Y-116246296D01*
X155238526Y-116211648D01*
X155218960Y-116196339D01*
X155148360Y-116165721D01*
X155082280Y-116170780D01*
X155026959Y-116208151D01*
X154988636Y-116274473D01*
X154976349Y-116327116D01*
X154971471Y-116380948D01*
X154853501Y-116380948D01*
X154854730Y-116321720D01*
X154864032Y-116231710D01*
X154882460Y-116166167D01*
X154912360Y-116117912D01*
X154956080Y-116079767D01*
X154975141Y-116067440D01*
X155061726Y-116035336D01*
X155156522Y-116033316D01*
X155248224Y-116058838D01*
G37*
X152605081Y-116191289D02*
X152604833Y-116337320D01*
X152603872Y-116449655D01*
X152601794Y-116533678D01*
X152598193Y-116594769D01*
X152592665Y-116638309D01*
X152584804Y-116669679D01*
X152574207Y-116694262D01*
X152566182Y-116708294D01*
X152499728Y-116784388D01*
X152415470Y-116832084D01*
X152322249Y-116849199D01*
X152228900Y-116833546D01*
X152173312Y-116805418D01*
X152114957Y-116756760D01*
X152075186Y-116697333D01*
X152051190Y-116619507D01*
X152040161Y-116515652D01*
X152038599Y-116439462D01*
X152038809Y-116433986D01*
X152175308Y-116433986D01*
X152176141Y-116521355D01*
X152179961Y-116579192D01*
X152188746Y-116617029D01*
X152204474Y-116644398D01*
X152223266Y-116665042D01*
X152286375Y-116704890D01*
X152354137Y-116708295D01*
X152418179Y-116675025D01*
X152423164Y-116670517D01*
X152444439Y-116647067D01*
X152457779Y-116619166D01*
X152465001Y-116577641D01*
X152467923Y-116513316D01*
X152468385Y-116442200D01*
X152467383Y-116352858D01*
X152463238Y-116293258D01*
X152454236Y-116254089D01*
X152438667Y-116226040D01*
X152425902Y-116211144D01*
X152366600Y-116173575D01*
X152298301Y-116169057D01*
X152233110Y-116197753D01*
X152220528Y-116208406D01*
X152199111Y-116232063D01*
X152185744Y-116260251D01*
X152178566Y-116302245D01*
X152175719Y-116367319D01*
X152175308Y-116433986D01*
X152038809Y-116433986D01*
X152043322Y-116316765D01*
X152059362Y-116224577D01*
X152089528Y-116155269D01*
X152136629Y-116101211D01*
X152173312Y-116073505D01*
X152239990Y-116043572D01*
X152317272Y-116029678D01*
X152389110Y-116033397D01*
X152429308Y-116048400D01*
X152445082Y-116052670D01*
X152455550Y-116036750D01*
X152462856Y-115994089D01*
X152468385Y-115929106D01*
X152474437Y-115856732D01*
X152482844Y-115813187D01*
X152498141Y-115788287D01*
X152524864Y-115771845D01*
X152541654Y-115764564D01*
X152605154Y-115737963D01*
X152605081Y-116191289D01*
G36*
X152605081Y-116191289D02*
G01*
X152604833Y-116337320D01*
X152603872Y-116449655D01*
X152601794Y-116533678D01*
X152598193Y-116594769D01*
X152592665Y-116638309D01*
X152584804Y-116669679D01*
X152574207Y-116694262D01*
X152566182Y-116708294D01*
X152499728Y-116784388D01*
X152415470Y-116832084D01*
X152322249Y-116849199D01*
X152228900Y-116833546D01*
X152173312Y-116805418D01*
X152114957Y-116756760D01*
X152075186Y-116697333D01*
X152051190Y-116619507D01*
X152040161Y-116515652D01*
X152038599Y-116439462D01*
X152038809Y-116433986D01*
X152175308Y-116433986D01*
X152176141Y-116521355D01*
X152179961Y-116579192D01*
X152188746Y-116617029D01*
X152204474Y-116644398D01*
X152223266Y-116665042D01*
X152286375Y-116704890D01*
X152354137Y-116708295D01*
X152418179Y-116675025D01*
X152423164Y-116670517D01*
X152444439Y-116647067D01*
X152457779Y-116619166D01*
X152465001Y-116577641D01*
X152467923Y-116513316D01*
X152468385Y-116442200D01*
X152467383Y-116352858D01*
X152463238Y-116293258D01*
X152454236Y-116254089D01*
X152438667Y-116226040D01*
X152425902Y-116211144D01*
X152366600Y-116173575D01*
X152298301Y-116169057D01*
X152233110Y-116197753D01*
X152220528Y-116208406D01*
X152199111Y-116232063D01*
X152185744Y-116260251D01*
X152178566Y-116302245D01*
X152175719Y-116367319D01*
X152175308Y-116433986D01*
X152038809Y-116433986D01*
X152043322Y-116316765D01*
X152059362Y-116224577D01*
X152089528Y-116155269D01*
X152136629Y-116101211D01*
X152173312Y-116073505D01*
X152239990Y-116043572D01*
X152317272Y-116029678D01*
X152389110Y-116033397D01*
X152429308Y-116048400D01*
X152445082Y-116052670D01*
X152455550Y-116036750D01*
X152462856Y-115994089D01*
X152468385Y-115929106D01*
X152474437Y-115856732D01*
X152482844Y-115813187D01*
X152498141Y-115788287D01*
X152524864Y-115771845D01*
X152541654Y-115764564D01*
X152605154Y-115737963D01*
X152605081Y-116191289D01*
G37*
X148537254Y-116010745D02*
X148614286Y-116062567D01*
X148673816Y-116137412D01*
X148709378Y-116232654D01*
X148716571Y-116302756D01*
X148715754Y-116332009D01*
X148708914Y-116354407D01*
X148690112Y-116374474D01*
X148653408Y-116396733D01*
X148592862Y-116425709D01*
X148502534Y-116465927D01*
X148502077Y-116466129D01*
X148418933Y-116504210D01*
X148350753Y-116538025D01*
X148304505Y-116563933D01*
X148287158Y-116578295D01*
X148287154Y-116578411D01*
X148302443Y-116609685D01*
X148338196Y-116644157D01*
X148379242Y-116668990D01*
X148400037Y-116673923D01*
X148456770Y-116656862D01*
X148505627Y-116614133D01*
X148529465Y-116567155D01*
X148552397Y-116532522D01*
X148597318Y-116493081D01*
X148650123Y-116459009D01*
X148696710Y-116440480D01*
X148706452Y-116439462D01*
X148717418Y-116456215D01*
X148718079Y-116499039D01*
X148710020Y-116556781D01*
X148694827Y-116618289D01*
X148674086Y-116672409D01*
X148673038Y-116674510D01*
X148610621Y-116761660D01*
X148529726Y-116820939D01*
X148437856Y-116850034D01*
X148342513Y-116846634D01*
X148251198Y-116808428D01*
X148247138Y-116805741D01*
X148175306Y-116740642D01*
X148128073Y-116655705D01*
X148101934Y-116544021D01*
X148098426Y-116512643D01*
X148092213Y-116364536D01*
X148099661Y-116295468D01*
X148287154Y-116295468D01*
X148289590Y-116338552D01*
X148302914Y-116351126D01*
X148336132Y-116341719D01*
X148388494Y-116319483D01*
X148447024Y-116291610D01*
X148448479Y-116290872D01*
X148498089Y-116264777D01*
X148518000Y-116247363D01*
X148513090Y-116229107D01*
X148492416Y-116205120D01*
X148439819Y-116170406D01*
X148383177Y-116167856D01*
X148332369Y-116193119D01*
X148297276Y-116241847D01*
X148287154Y-116295468D01*
X148099661Y-116295468D01*
X148104992Y-116246036D01*
X148137778Y-116152055D01*
X148183421Y-116086215D01*
X148265802Y-116019681D01*
X148356546Y-115986676D01*
X148449185Y-115984573D01*
X148537254Y-116010745D01*
G36*
X148537254Y-116010745D02*
G01*
X148614286Y-116062567D01*
X148673816Y-116137412D01*
X148709378Y-116232654D01*
X148716571Y-116302756D01*
X148715754Y-116332009D01*
X148708914Y-116354407D01*
X148690112Y-116374474D01*
X148653408Y-116396733D01*
X148592862Y-116425709D01*
X148502534Y-116465927D01*
X148502077Y-116466129D01*
X148418933Y-116504210D01*
X148350753Y-116538025D01*
X148304505Y-116563933D01*
X148287158Y-116578295D01*
X148287154Y-116578411D01*
X148302443Y-116609685D01*
X148338196Y-116644157D01*
X148379242Y-116668990D01*
X148400037Y-116673923D01*
X148456770Y-116656862D01*
X148505627Y-116614133D01*
X148529465Y-116567155D01*
X148552397Y-116532522D01*
X148597318Y-116493081D01*
X148650123Y-116459009D01*
X148696710Y-116440480D01*
X148706452Y-116439462D01*
X148717418Y-116456215D01*
X148718079Y-116499039D01*
X148710020Y-116556781D01*
X148694827Y-116618289D01*
X148674086Y-116672409D01*
X148673038Y-116674510D01*
X148610621Y-116761660D01*
X148529726Y-116820939D01*
X148437856Y-116850034D01*
X148342513Y-116846634D01*
X148251198Y-116808428D01*
X148247138Y-116805741D01*
X148175306Y-116740642D01*
X148128073Y-116655705D01*
X148101934Y-116544021D01*
X148098426Y-116512643D01*
X148092213Y-116364536D01*
X148099661Y-116295468D01*
X148287154Y-116295468D01*
X148289590Y-116338552D01*
X148302914Y-116351126D01*
X148336132Y-116341719D01*
X148388494Y-116319483D01*
X148447024Y-116291610D01*
X148448479Y-116290872D01*
X148498089Y-116264777D01*
X148518000Y-116247363D01*
X148513090Y-116229107D01*
X148492416Y-116205120D01*
X148439819Y-116170406D01*
X148383177Y-116167856D01*
X148332369Y-116193119D01*
X148297276Y-116241847D01*
X148287154Y-116295468D01*
X148099661Y-116295468D01*
X148104992Y-116246036D01*
X148137778Y-116152055D01*
X148183421Y-116086215D01*
X148265802Y-116019681D01*
X148356546Y-115986676D01*
X148449185Y-115984573D01*
X148537254Y-116010745D01*
G37*
X151056501Y-116037303D02*
X151133060Y-116065733D01*
X151133936Y-116066279D01*
X151181285Y-116101127D01*
X151216241Y-116141852D01*
X151240825Y-116194925D01*
X151257062Y-116266814D01*
X151266975Y-116363992D01*
X151272586Y-116492928D01*
X151273077Y-116511298D01*
X151280141Y-116788287D01*
X151220695Y-116819028D01*
X151177681Y-116839802D01*
X151151710Y-116849646D01*
X151150509Y-116849769D01*
X151146014Y-116831606D01*
X151142444Y-116782612D01*
X151140248Y-116711031D01*
X151139769Y-116653068D01*
X151139758Y-116559170D01*
X151135466Y-116500203D01*
X151120503Y-116472079D01*
X151088482Y-116470706D01*
X151033014Y-116491998D01*
X150949269Y-116531136D01*
X150887689Y-116563643D01*
X150856017Y-116591845D01*
X150846706Y-116622582D01*
X150846692Y-116624104D01*
X150862057Y-116677054D01*
X150907547Y-116705660D01*
X150977166Y-116709803D01*
X151027313Y-116709084D01*
X151053754Y-116723527D01*
X151070243Y-116758218D01*
X151079733Y-116802416D01*
X151066057Y-116827493D01*
X151060907Y-116831082D01*
X151012425Y-116845496D01*
X150944531Y-116847537D01*
X150874612Y-116837983D01*
X150825068Y-116820522D01*
X150756570Y-116762364D01*
X150717634Y-116681408D01*
X150709923Y-116618160D01*
X150715807Y-116561111D01*
X150737101Y-116514542D01*
X150779265Y-116473181D01*
X150847759Y-116431755D01*
X150948044Y-116384993D01*
X150954154Y-116382350D01*
X151044490Y-116340617D01*
X151100235Y-116306391D01*
X151124129Y-116275635D01*
X151118913Y-116244311D01*
X151087328Y-116208383D01*
X151077883Y-116200116D01*
X151014617Y-116168058D01*
X150949064Y-116169407D01*
X150891972Y-116200838D01*
X150854093Y-116259024D01*
X150850574Y-116270446D01*
X150816300Y-116325837D01*
X150772809Y-116352518D01*
X150709923Y-116378960D01*
X150709923Y-116310548D01*
X150729052Y-116211110D01*
X150785831Y-116119902D01*
X150815378Y-116089389D01*
X150882542Y-116050228D01*
X150967956Y-116032500D01*
X151056501Y-116037303D01*
G36*
X151056501Y-116037303D02*
G01*
X151133060Y-116065733D01*
X151133936Y-116066279D01*
X151181285Y-116101127D01*
X151216241Y-116141852D01*
X151240825Y-116194925D01*
X151257062Y-116266814D01*
X151266975Y-116363992D01*
X151272586Y-116492928D01*
X151273077Y-116511298D01*
X151280141Y-116788287D01*
X151220695Y-116819028D01*
X151177681Y-116839802D01*
X151151710Y-116849646D01*
X151150509Y-116849769D01*
X151146014Y-116831606D01*
X151142444Y-116782612D01*
X151140248Y-116711031D01*
X151139769Y-116653068D01*
X151139758Y-116559170D01*
X151135466Y-116500203D01*
X151120503Y-116472079D01*
X151088482Y-116470706D01*
X151033014Y-116491998D01*
X150949269Y-116531136D01*
X150887689Y-116563643D01*
X150856017Y-116591845D01*
X150846706Y-116622582D01*
X150846692Y-116624104D01*
X150862057Y-116677054D01*
X150907547Y-116705660D01*
X150977166Y-116709803D01*
X151027313Y-116709084D01*
X151053754Y-116723527D01*
X151070243Y-116758218D01*
X151079733Y-116802416D01*
X151066057Y-116827493D01*
X151060907Y-116831082D01*
X151012425Y-116845496D01*
X150944531Y-116847537D01*
X150874612Y-116837983D01*
X150825068Y-116820522D01*
X150756570Y-116762364D01*
X150717634Y-116681408D01*
X150709923Y-116618160D01*
X150715807Y-116561111D01*
X150737101Y-116514542D01*
X150779265Y-116473181D01*
X150847759Y-116431755D01*
X150948044Y-116384993D01*
X150954154Y-116382350D01*
X151044490Y-116340617D01*
X151100235Y-116306391D01*
X151124129Y-116275635D01*
X151118913Y-116244311D01*
X151087328Y-116208383D01*
X151077883Y-116200116D01*
X151014617Y-116168058D01*
X150949064Y-116169407D01*
X150891972Y-116200838D01*
X150854093Y-116259024D01*
X150850574Y-116270446D01*
X150816300Y-116325837D01*
X150772809Y-116352518D01*
X150709923Y-116378960D01*
X150709923Y-116310548D01*
X150729052Y-116211110D01*
X150785831Y-116119902D01*
X150815378Y-116089389D01*
X150882542Y-116050228D01*
X150967956Y-116032500D01*
X151056501Y-116037303D01*
G37*
X147771886Y-115995505D02*
X147846539Y-116032727D01*
X147912431Y-116101261D01*
X147930577Y-116126648D01*
X147950345Y-116159866D01*
X147963172Y-116195945D01*
X147970510Y-116244098D01*
X147973813Y-116313536D01*
X147974538Y-116405206D01*
X147971263Y-116530830D01*
X147959877Y-116625154D01*
X147938041Y-116695523D01*
X147903419Y-116749286D01*
X147853670Y-116793788D01*
X147850014Y-116796423D01*
X147800985Y-116823377D01*
X147741945Y-116836712D01*
X147666859Y-116840000D01*
X147544795Y-116840000D01*
X147544744Y-116958497D01*
X147543608Y-117024492D01*
X147536686Y-117063202D01*
X147518598Y-117086419D01*
X147483962Y-117105933D01*
X147475645Y-117109920D01*
X147436720Y-117128603D01*
X147406583Y-117140403D01*
X147384174Y-117141422D01*
X147368433Y-117127761D01*
X147358302Y-117095522D01*
X147352723Y-117040804D01*
X147350635Y-116959711D01*
X147350981Y-116848344D01*
X147352700Y-116702802D01*
X147353237Y-116659269D01*
X147355172Y-116509205D01*
X147356904Y-116411042D01*
X147544692Y-116411042D01*
X147545748Y-116494364D01*
X147550438Y-116548880D01*
X147561051Y-116584837D01*
X147579872Y-116612482D01*
X147592650Y-116625965D01*
X147644890Y-116665417D01*
X147691142Y-116668628D01*
X147738867Y-116636049D01*
X147740077Y-116634846D01*
X147759494Y-116609668D01*
X147771307Y-116575447D01*
X147777265Y-116522748D01*
X147779120Y-116442131D01*
X147779154Y-116424271D01*
X147774670Y-116313175D01*
X147760074Y-116236161D01*
X147733650Y-116189147D01*
X147693683Y-116168050D01*
X147670584Y-116165923D01*
X147615762Y-116175900D01*
X147578158Y-116208752D01*
X147555523Y-116268857D01*
X147545606Y-116360598D01*
X147544692Y-116411042D01*
X147356904Y-116411042D01*
X147357222Y-116393060D01*
X147359873Y-116305679D01*
X147363606Y-116241905D01*
X147368907Y-116196582D01*
X147376258Y-116164555D01*
X147386143Y-116140668D01*
X147399046Y-116119764D01*
X147404579Y-116111898D01*
X147477969Y-116037595D01*
X147570760Y-115995467D01*
X147678096Y-115983722D01*
X147771886Y-115995505D01*
G36*
X147771886Y-115995505D02*
G01*
X147846539Y-116032727D01*
X147912431Y-116101261D01*
X147930577Y-116126648D01*
X147950345Y-116159866D01*
X147963172Y-116195945D01*
X147970510Y-116244098D01*
X147973813Y-116313536D01*
X147974538Y-116405206D01*
X147971263Y-116530830D01*
X147959877Y-116625154D01*
X147938041Y-116695523D01*
X147903419Y-116749286D01*
X147853670Y-116793788D01*
X147850014Y-116796423D01*
X147800985Y-116823377D01*
X147741945Y-116836712D01*
X147666859Y-116840000D01*
X147544795Y-116840000D01*
X147544744Y-116958497D01*
X147543608Y-117024492D01*
X147536686Y-117063202D01*
X147518598Y-117086419D01*
X147483962Y-117105933D01*
X147475645Y-117109920D01*
X147436720Y-117128603D01*
X147406583Y-117140403D01*
X147384174Y-117141422D01*
X147368433Y-117127761D01*
X147358302Y-117095522D01*
X147352723Y-117040804D01*
X147350635Y-116959711D01*
X147350981Y-116848344D01*
X147352700Y-116702802D01*
X147353237Y-116659269D01*
X147355172Y-116509205D01*
X147356904Y-116411042D01*
X147544692Y-116411042D01*
X147545748Y-116494364D01*
X147550438Y-116548880D01*
X147561051Y-116584837D01*
X147579872Y-116612482D01*
X147592650Y-116625965D01*
X147644890Y-116665417D01*
X147691142Y-116668628D01*
X147738867Y-116636049D01*
X147740077Y-116634846D01*
X147759494Y-116609668D01*
X147771307Y-116575447D01*
X147777265Y-116522748D01*
X147779120Y-116442131D01*
X147779154Y-116424271D01*
X147774670Y-116313175D01*
X147760074Y-116236161D01*
X147733650Y-116189147D01*
X147693683Y-116168050D01*
X147670584Y-116165923D01*
X147615762Y-116175900D01*
X147578158Y-116208752D01*
X147555523Y-116268857D01*
X147545606Y-116360598D01*
X147544692Y-116411042D01*
X147356904Y-116411042D01*
X147357222Y-116393060D01*
X147359873Y-116305679D01*
X147363606Y-116241905D01*
X147368907Y-116196582D01*
X147376258Y-116164555D01*
X147386143Y-116140668D01*
X147399046Y-116119764D01*
X147404579Y-116111898D01*
X147477969Y-116037595D01*
X147570760Y-115995467D01*
X147678096Y-115983722D01*
X147771886Y-115995505D01*
G37*
X153890333Y-116044528D02*
X153946590Y-116070117D01*
X153990747Y-116101124D01*
X154023101Y-116135795D01*
X154045438Y-116180520D01*
X154059546Y-116241692D01*
X154067211Y-116325701D01*
X154070220Y-116438940D01*
X154070538Y-116513509D01*
X154070538Y-116804420D01*
X154020773Y-116827095D01*
X153981576Y-116843667D01*
X153962157Y-116849769D01*
X153958442Y-116831610D01*
X153955495Y-116782648D01*
X153953691Y-116711153D01*
X153953308Y-116654385D01*
X153951661Y-116572371D01*
X153947222Y-116507309D01*
X153940740Y-116467467D01*
X153935590Y-116459000D01*
X153900977Y-116467646D01*
X153846640Y-116489823D01*
X153783722Y-116519886D01*
X153723368Y-116552192D01*
X153676721Y-116581098D01*
X153654926Y-116600961D01*
X153654839Y-116601175D01*
X153656714Y-116637935D01*
X153673525Y-116673026D01*
X153703039Y-116701528D01*
X153746116Y-116711061D01*
X153782932Y-116709950D01*
X153835074Y-116709133D01*
X153862444Y-116721349D01*
X153878882Y-116753624D01*
X153880955Y-116759710D01*
X153888081Y-116805739D01*
X153869024Y-116833687D01*
X153819353Y-116847007D01*
X153765697Y-116849470D01*
X153669142Y-116831210D01*
X153619159Y-116805131D01*
X153557429Y-116743868D01*
X153524690Y-116668670D01*
X153521753Y-116589211D01*
X153549424Y-116515167D01*
X153591047Y-116468769D01*
X153632604Y-116442793D01*
X153697922Y-116409907D01*
X153774038Y-116376557D01*
X153786726Y-116371461D01*
X153870333Y-116334565D01*
X153918530Y-116302046D01*
X153934030Y-116269718D01*
X153919550Y-116233394D01*
X153894692Y-116205000D01*
X153835939Y-116170039D01*
X153771293Y-116167417D01*
X153712008Y-116194358D01*
X153669339Y-116248088D01*
X153663739Y-116261950D01*
X153631133Y-116312936D01*
X153583530Y-116350787D01*
X153523461Y-116381850D01*
X153523461Y-116293768D01*
X153526997Y-116239951D01*
X153542156Y-116197534D01*
X153575768Y-116152279D01*
X153608035Y-116117420D01*
X153658209Y-116068062D01*
X153697193Y-116041547D01*
X153739064Y-116030911D01*
X153786460Y-116029154D01*
X153890333Y-116044528D01*
G36*
X153890333Y-116044528D02*
G01*
X153946590Y-116070117D01*
X153990747Y-116101124D01*
X154023101Y-116135795D01*
X154045438Y-116180520D01*
X154059546Y-116241692D01*
X154067211Y-116325701D01*
X154070220Y-116438940D01*
X154070538Y-116513509D01*
X154070538Y-116804420D01*
X154020773Y-116827095D01*
X153981576Y-116843667D01*
X153962157Y-116849769D01*
X153958442Y-116831610D01*
X153955495Y-116782648D01*
X153953691Y-116711153D01*
X153953308Y-116654385D01*
X153951661Y-116572371D01*
X153947222Y-116507309D01*
X153940740Y-116467467D01*
X153935590Y-116459000D01*
X153900977Y-116467646D01*
X153846640Y-116489823D01*
X153783722Y-116519886D01*
X153723368Y-116552192D01*
X153676721Y-116581098D01*
X153654926Y-116600961D01*
X153654839Y-116601175D01*
X153656714Y-116637935D01*
X153673525Y-116673026D01*
X153703039Y-116701528D01*
X153746116Y-116711061D01*
X153782932Y-116709950D01*
X153835074Y-116709133D01*
X153862444Y-116721349D01*
X153878882Y-116753624D01*
X153880955Y-116759710D01*
X153888081Y-116805739D01*
X153869024Y-116833687D01*
X153819353Y-116847007D01*
X153765697Y-116849470D01*
X153669142Y-116831210D01*
X153619159Y-116805131D01*
X153557429Y-116743868D01*
X153524690Y-116668670D01*
X153521753Y-116589211D01*
X153549424Y-116515167D01*
X153591047Y-116468769D01*
X153632604Y-116442793D01*
X153697922Y-116409907D01*
X153774038Y-116376557D01*
X153786726Y-116371461D01*
X153870333Y-116334565D01*
X153918530Y-116302046D01*
X153934030Y-116269718D01*
X153919550Y-116233394D01*
X153894692Y-116205000D01*
X153835939Y-116170039D01*
X153771293Y-116167417D01*
X153712008Y-116194358D01*
X153669339Y-116248088D01*
X153663739Y-116261950D01*
X153631133Y-116312936D01*
X153583530Y-116350787D01*
X153523461Y-116381850D01*
X153523461Y-116293768D01*
X153526997Y-116239951D01*
X153542156Y-116197534D01*
X153575768Y-116152279D01*
X153608035Y-116117420D01*
X153658209Y-116068062D01*
X153697193Y-116041547D01*
X153739064Y-116030911D01*
X153786460Y-116029154D01*
X153890333Y-116044528D01*
G37*
X151142878Y-109698776D02*
X151248612Y-109699355D01*
X151325132Y-109700922D01*
X151377372Y-109703972D01*
X151410263Y-109708996D01*
X151428737Y-109716489D01*
X151437727Y-109726944D01*
X151442163Y-109740853D01*
X151442594Y-109742654D01*
X151449333Y-109775145D01*
X151461808Y-109839252D01*
X151478719Y-109928151D01*
X151498771Y-110035019D01*
X151520664Y-110153033D01*
X151521429Y-110157178D01*
X151543359Y-110272831D01*
X151563877Y-110375014D01*
X151581659Y-110457598D01*
X151595381Y-110514456D01*
X151603718Y-110539458D01*
X151604116Y-110539901D01*
X151628677Y-110552110D01*
X151679315Y-110572456D01*
X151745095Y-110596545D01*
X151745461Y-110596674D01*
X151828317Y-110627818D01*
X151926000Y-110667491D01*
X152018077Y-110707381D01*
X152022434Y-110709353D01*
X152172407Y-110777420D01*
X152504498Y-110550639D01*
X152606374Y-110481504D01*
X152698657Y-110419697D01*
X152776003Y-110368733D01*
X152833064Y-110332127D01*
X152864495Y-110313394D01*
X152867479Y-110312004D01*
X152890321Y-110318190D01*
X152932982Y-110348035D01*
X152997128Y-110402947D01*
X153084421Y-110484334D01*
X153173535Y-110570922D01*
X153259441Y-110656247D01*
X153336327Y-110734108D01*
X153399564Y-110799697D01*
X153444523Y-110848205D01*
X153466576Y-110874825D01*
X153467396Y-110876195D01*
X153469834Y-110894463D01*
X153460650Y-110924295D01*
X153437574Y-110969721D01*
X153398337Y-111034770D01*
X153340670Y-111123470D01*
X153263795Y-111237657D01*
X153195570Y-111338162D01*
X153134582Y-111428303D01*
X153084356Y-111502849D01*
X153048416Y-111556565D01*
X153030287Y-111584218D01*
X153029146Y-111586095D01*
X153031359Y-111612590D01*
X153048138Y-111664086D01*
X153076142Y-111730851D01*
X153086122Y-111752172D01*
X153129672Y-111847159D01*
X153176134Y-111954937D01*
X153213877Y-112048192D01*
X153241073Y-112117406D01*
X153262675Y-112170006D01*
X153275158Y-112197497D01*
X153276709Y-112199616D01*
X153299668Y-112203124D01*
X153353786Y-112212738D01*
X153431868Y-112227089D01*
X153526719Y-112244807D01*
X153631143Y-112264525D01*
X153737944Y-112284874D01*
X153839926Y-112304486D01*
X153929894Y-112321991D01*
X154000653Y-112336022D01*
X154045006Y-112345209D01*
X154055885Y-112347807D01*
X154067122Y-112354218D01*
X154075605Y-112368697D01*
X154081714Y-112396133D01*
X154085832Y-112441411D01*
X154088341Y-112509420D01*
X154089621Y-112605047D01*
X154090054Y-112733180D01*
X154090077Y-112785701D01*
X154090077Y-113212845D01*
X153987500Y-113233091D01*
X153930431Y-113244070D01*
X153845269Y-113260095D01*
X153742372Y-113279233D01*
X153632096Y-113299551D01*
X153601615Y-113305132D01*
X153499855Y-113324917D01*
X153411205Y-113344373D01*
X153343108Y-113361697D01*
X153303004Y-113375088D01*
X153296323Y-113379079D01*
X153279919Y-113407342D01*
X153256399Y-113462109D01*
X153230316Y-113532588D01*
X153225142Y-113547769D01*
X153190956Y-113641896D01*
X153148523Y-113748101D01*
X153106997Y-113843473D01*
X153106792Y-113843916D01*
X153037640Y-113993525D01*
X153492512Y-114662617D01*
X153200500Y-114955116D01*
X153112180Y-115042170D01*
X153031625Y-115118909D01*
X152963360Y-115181237D01*
X152911908Y-115225056D01*
X152881794Y-115246270D01*
X152877474Y-115247616D01*
X152852111Y-115237016D01*
X152800358Y-115207547D01*
X152727868Y-115162705D01*
X152640294Y-115105984D01*
X152545612Y-115042462D01*
X152449516Y-114977668D01*
X152363837Y-114921287D01*
X152294016Y-114876788D01*
X152245494Y-114847639D01*
X152223782Y-114837308D01*
X152197293Y-114846050D01*
X152147062Y-114869087D01*
X152083451Y-114901631D01*
X152076708Y-114905249D01*
X151991046Y-114948210D01*
X151932306Y-114969279D01*
X151895772Y-114969503D01*
X151876731Y-114949928D01*
X151876620Y-114949654D01*
X151867102Y-114926472D01*
X151844403Y-114871441D01*
X151810282Y-114788822D01*
X151766500Y-114682872D01*
X151714816Y-114557852D01*
X151656992Y-114418020D01*
X151600991Y-114282637D01*
X151539447Y-114133234D01*
X151482939Y-113994832D01*
X151433161Y-113871673D01*
X151391806Y-113768002D01*
X151360568Y-113688059D01*
X151341141Y-113636088D01*
X151335154Y-113616692D01*
X151350168Y-113594443D01*
X151389439Y-113558982D01*
X151441807Y-113519887D01*
X151590941Y-113396245D01*
X151707511Y-113254522D01*
X151790118Y-113097704D01*
X151837366Y-112928775D01*
X151847857Y-112750722D01*
X151840231Y-112668539D01*
X151798682Y-112498031D01*
X151727123Y-112347459D01*
X151629995Y-112218309D01*
X151511734Y-112112064D01*
X151376780Y-112030210D01*
X151229571Y-111974232D01*
X151074544Y-111945615D01*
X150916139Y-111945844D01*
X150758794Y-111976405D01*
X150606946Y-112038782D01*
X150465035Y-112134460D01*
X150405803Y-112188572D01*
X150292203Y-112327520D01*
X150213106Y-112479361D01*
X150167986Y-112639667D01*
X150156316Y-112804012D01*
X150177569Y-112967971D01*
X150231220Y-113127118D01*
X150316740Y-113277025D01*
X150433605Y-113413267D01*
X150564193Y-113519887D01*
X150618588Y-113560642D01*
X150657014Y-113595718D01*
X150670846Y-113616726D01*
X150663603Y-113639635D01*
X150643005Y-113694365D01*
X150610746Y-113776672D01*
X150568521Y-113882315D01*
X150518023Y-114007050D01*
X150460948Y-114146636D01*
X150404854Y-114282670D01*
X150342967Y-114432201D01*
X150285644Y-114570767D01*
X150234644Y-114694107D01*
X150191727Y-114797964D01*
X150158653Y-114878080D01*
X150137181Y-114930195D01*
X150129225Y-114949654D01*
X150110429Y-114969423D01*
X150074074Y-114969365D01*
X150015479Y-114948441D01*
X149929968Y-114905613D01*
X149929292Y-114905249D01*
X149864907Y-114872012D01*
X149812861Y-114847802D01*
X149783512Y-114837404D01*
X149782217Y-114837308D01*
X149760124Y-114847855D01*
X149711348Y-114877184D01*
X149641331Y-114921827D01*
X149555514Y-114978314D01*
X149460388Y-115042462D01*
X149363540Y-115107411D01*
X149276253Y-115163896D01*
X149204181Y-115208421D01*
X149152977Y-115237490D01*
X149128526Y-115247616D01*
X149106010Y-115234307D01*
X149060742Y-115197112D01*
X148997244Y-115140128D01*
X148920039Y-115067449D01*
X148833651Y-114983171D01*
X148805399Y-114955016D01*
X148513287Y-114662416D01*
X148735631Y-114336104D01*
X148803202Y-114235897D01*
X148862507Y-114145963D01*
X148910217Y-114071510D01*
X148943007Y-114017751D01*
X148957548Y-113989894D01*
X148957974Y-113987912D01*
X148950308Y-113961655D01*
X148929689Y-113908837D01*
X148899685Y-113838310D01*
X148878625Y-113791093D01*
X148839248Y-113700694D01*
X148802165Y-113609366D01*
X148773415Y-113532200D01*
X148765605Y-113508692D01*
X148743417Y-113445916D01*
X148721727Y-113397411D01*
X148709813Y-113379079D01*
X148683523Y-113367859D01*
X148626142Y-113351954D01*
X148545118Y-113333167D01*
X148447895Y-113313299D01*
X148404385Y-113305132D01*
X148293896Y-113284829D01*
X148187916Y-113265170D01*
X148096801Y-113248088D01*
X148030908Y-113235518D01*
X148018500Y-113233091D01*
X147915923Y-113212845D01*
X147915923Y-112785701D01*
X147916153Y-112645246D01*
X147917099Y-112538979D01*
X147919141Y-112462013D01*
X147922662Y-112409460D01*
X147928043Y-112376433D01*
X147935666Y-112358045D01*
X147945912Y-112349408D01*
X147950115Y-112347807D01*
X147975470Y-112342127D01*
X148031484Y-112330795D01*
X148110964Y-112315179D01*
X148206712Y-112296647D01*
X148311533Y-112276569D01*
X148418232Y-112256312D01*
X148519613Y-112237246D01*
X148608479Y-112220739D01*
X148677637Y-112208159D01*
X148719889Y-112200875D01*
X148729290Y-112199616D01*
X148737807Y-112182763D01*
X148756660Y-112137870D01*
X148782324Y-112073430D01*
X148792123Y-112048192D01*
X148831648Y-111950686D01*
X148878192Y-111842959D01*
X148919877Y-111752172D01*
X148950550Y-111682753D01*
X148970956Y-111625710D01*
X148977768Y-111590777D01*
X148976682Y-111586095D01*
X148962285Y-111563991D01*
X148929412Y-111514831D01*
X148881590Y-111443848D01*
X148822348Y-111356278D01*
X148755215Y-111257357D01*
X148741941Y-111237830D01*
X148664046Y-111122140D01*
X148606787Y-111034044D01*
X148567881Y-110969486D01*
X148545044Y-110924411D01*
X148535994Y-110894763D01*
X148538448Y-110876485D01*
X148538511Y-110876369D01*
X148557827Y-110852361D01*
X148600551Y-110805947D01*
X148662051Y-110741937D01*
X148737698Y-110665145D01*
X148822861Y-110580382D01*
X148832465Y-110570922D01*
X148939790Y-110466989D01*
X149022615Y-110390675D01*
X149082605Y-110340571D01*
X149121423Y-110315270D01*
X149138520Y-110312004D01*
X149163473Y-110326250D01*
X149215255Y-110359156D01*
X149288520Y-110407208D01*
X149377920Y-110466890D01*
X149478111Y-110534688D01*
X149501501Y-110550639D01*
X149833593Y-110777420D01*
X149983565Y-110709353D01*
X150074770Y-110669685D01*
X150172669Y-110629791D01*
X150256831Y-110597983D01*
X150260538Y-110596674D01*
X150326369Y-110572576D01*
X150377116Y-110552200D01*
X150401842Y-110539936D01*
X150401884Y-110539901D01*
X150409729Y-110517734D01*
X150423066Y-110463217D01*
X150440570Y-110382480D01*
X150460917Y-110281650D01*
X150482782Y-110166856D01*
X150484571Y-110157178D01*
X150506504Y-110038904D01*
X150526640Y-109931542D01*
X150543680Y-109841917D01*
X150556328Y-109776851D01*
X150563284Y-109743168D01*
X150563406Y-109742654D01*
X150567639Y-109728325D01*
X150575871Y-109717507D01*
X150593033Y-109709706D01*
X150624058Y-109704429D01*
X150673878Y-109701182D01*
X150747424Y-109699472D01*
X150849629Y-109698807D01*
X150985425Y-109698693D01*
X151003000Y-109698692D01*
X151142878Y-109698776D01*
G36*
X151142878Y-109698776D02*
G01*
X151248612Y-109699355D01*
X151325132Y-109700922D01*
X151377372Y-109703972D01*
X151410263Y-109708996D01*
X151428737Y-109716489D01*
X151437727Y-109726944D01*
X151442163Y-109740853D01*
X151442594Y-109742654D01*
X151449333Y-109775145D01*
X151461808Y-109839252D01*
X151478719Y-109928151D01*
X151498771Y-110035019D01*
X151520664Y-110153033D01*
X151521429Y-110157178D01*
X151543359Y-110272831D01*
X151563877Y-110375014D01*
X151581659Y-110457598D01*
X151595381Y-110514456D01*
X151603718Y-110539458D01*
X151604116Y-110539901D01*
X151628677Y-110552110D01*
X151679315Y-110572456D01*
X151745095Y-110596545D01*
X151745461Y-110596674D01*
X151828317Y-110627818D01*
X151926000Y-110667491D01*
X152018077Y-110707381D01*
X152022434Y-110709353D01*
X152172407Y-110777420D01*
X152504498Y-110550639D01*
X152606374Y-110481504D01*
X152698657Y-110419697D01*
X152776003Y-110368733D01*
X152833064Y-110332127D01*
X152864495Y-110313394D01*
X152867479Y-110312004D01*
X152890321Y-110318190D01*
X152932982Y-110348035D01*
X152997128Y-110402947D01*
X153084421Y-110484334D01*
X153173535Y-110570922D01*
X153259441Y-110656247D01*
X153336327Y-110734108D01*
X153399564Y-110799697D01*
X153444523Y-110848205D01*
X153466576Y-110874825D01*
X153467396Y-110876195D01*
X153469834Y-110894463D01*
X153460650Y-110924295D01*
X153437574Y-110969721D01*
X153398337Y-111034770D01*
X153340670Y-111123470D01*
X153263795Y-111237657D01*
X153195570Y-111338162D01*
X153134582Y-111428303D01*
X153084356Y-111502849D01*
X153048416Y-111556565D01*
X153030287Y-111584218D01*
X153029146Y-111586095D01*
X153031359Y-111612590D01*
X153048138Y-111664086D01*
X153076142Y-111730851D01*
X153086122Y-111752172D01*
X153129672Y-111847159D01*
X153176134Y-111954937D01*
X153213877Y-112048192D01*
X153241073Y-112117406D01*
X153262675Y-112170006D01*
X153275158Y-112197497D01*
X153276709Y-112199616D01*
X153299668Y-112203124D01*
X153353786Y-112212738D01*
X153431868Y-112227089D01*
X153526719Y-112244807D01*
X153631143Y-112264525D01*
X153737944Y-112284874D01*
X153839926Y-112304486D01*
X153929894Y-112321991D01*
X154000653Y-112336022D01*
X154045006Y-112345209D01*
X154055885Y-112347807D01*
X154067122Y-112354218D01*
X154075605Y-112368697D01*
X154081714Y-112396133D01*
X154085832Y-112441411D01*
X154088341Y-112509420D01*
X154089621Y-112605047D01*
X154090054Y-112733180D01*
X154090077Y-112785701D01*
X154090077Y-113212845D01*
X153987500Y-113233091D01*
X153930431Y-113244070D01*
X153845269Y-113260095D01*
X153742372Y-113279233D01*
X153632096Y-113299551D01*
X153601615Y-113305132D01*
X153499855Y-113324917D01*
X153411205Y-113344373D01*
X153343108Y-113361697D01*
X153303004Y-113375088D01*
X153296323Y-113379079D01*
X153279919Y-113407342D01*
X153256399Y-113462109D01*
X153230316Y-113532588D01*
X153225142Y-113547769D01*
X153190956Y-113641896D01*
X153148523Y-113748101D01*
X153106997Y-113843473D01*
X153106792Y-113843916D01*
X153037640Y-113993525D01*
X153492512Y-114662617D01*
X153200500Y-114955116D01*
X153112180Y-115042170D01*
X153031625Y-115118909D01*
X152963360Y-115181237D01*
X152911908Y-115225056D01*
X152881794Y-115246270D01*
X152877474Y-115247616D01*
X152852111Y-115237016D01*
X152800358Y-115207547D01*
X152727868Y-115162705D01*
X152640294Y-115105984D01*
X152545612Y-115042462D01*
X152449516Y-114977668D01*
X152363837Y-114921287D01*
X152294016Y-114876788D01*
X152245494Y-114847639D01*
X152223782Y-114837308D01*
X152197293Y-114846050D01*
X152147062Y-114869087D01*
X152083451Y-114901631D01*
X152076708Y-114905249D01*
X151991046Y-114948210D01*
X151932306Y-114969279D01*
X151895772Y-114969503D01*
X151876731Y-114949928D01*
X151876620Y-114949654D01*
X151867102Y-114926472D01*
X151844403Y-114871441D01*
X151810282Y-114788822D01*
X151766500Y-114682872D01*
X151714816Y-114557852D01*
X151656992Y-114418020D01*
X151600991Y-114282637D01*
X151539447Y-114133234D01*
X151482939Y-113994832D01*
X151433161Y-113871673D01*
X151391806Y-113768002D01*
X151360568Y-113688059D01*
X151341141Y-113636088D01*
X151335154Y-113616692D01*
X151350168Y-113594443D01*
X151389439Y-113558982D01*
X151441807Y-113519887D01*
X151590941Y-113396245D01*
X151707511Y-113254522D01*
X151790118Y-113097704D01*
X151837366Y-112928775D01*
X151847857Y-112750722D01*
X151840231Y-112668539D01*
X151798682Y-112498031D01*
X151727123Y-112347459D01*
X151629995Y-112218309D01*
X151511734Y-112112064D01*
X151376780Y-112030210D01*
X151229571Y-111974232D01*
X151074544Y-111945615D01*
X150916139Y-111945844D01*
X150758794Y-111976405D01*
X150606946Y-112038782D01*
X150465035Y-112134460D01*
X150405803Y-112188572D01*
X150292203Y-112327520D01*
X150213106Y-112479361D01*
X150167986Y-112639667D01*
X150156316Y-112804012D01*
X150177569Y-112967971D01*
X150231220Y-113127118D01*
X150316740Y-113277025D01*
X150433605Y-113413267D01*
X150564193Y-113519887D01*
X150618588Y-113560642D01*
X150657014Y-113595718D01*
X150670846Y-113616726D01*
X150663603Y-113639635D01*
X150643005Y-113694365D01*
X150610746Y-113776672D01*
X150568521Y-113882315D01*
X150518023Y-114007050D01*
X150460948Y-114146636D01*
X150404854Y-114282670D01*
X150342967Y-114432201D01*
X150285644Y-114570767D01*
X150234644Y-114694107D01*
X150191727Y-114797964D01*
X150158653Y-114878080D01*
X150137181Y-114930195D01*
X150129225Y-114949654D01*
X150110429Y-114969423D01*
X150074074Y-114969365D01*
X150015479Y-114948441D01*
X149929968Y-114905613D01*
X149929292Y-114905249D01*
X149864907Y-114872012D01*
X149812861Y-114847802D01*
X149783512Y-114837404D01*
X149782217Y-114837308D01*
X149760124Y-114847855D01*
X149711348Y-114877184D01*
X149641331Y-114921827D01*
X149555514Y-114978314D01*
X149460388Y-115042462D01*
X149363540Y-115107411D01*
X149276253Y-115163896D01*
X149204181Y-115208421D01*
X149152977Y-115237490D01*
X149128526Y-115247616D01*
X149106010Y-115234307D01*
X149060742Y-115197112D01*
X148997244Y-115140128D01*
X148920039Y-115067449D01*
X148833651Y-114983171D01*
X148805399Y-114955016D01*
X148513287Y-114662416D01*
X148735631Y-114336104D01*
X148803202Y-114235897D01*
X148862507Y-114145963D01*
X148910217Y-114071510D01*
X148943007Y-114017751D01*
X148957548Y-113989894D01*
X148957974Y-113987912D01*
X148950308Y-113961655D01*
X148929689Y-113908837D01*
X148899685Y-113838310D01*
X148878625Y-113791093D01*
X148839248Y-113700694D01*
X148802165Y-113609366D01*
X148773415Y-113532200D01*
X148765605Y-113508692D01*
X148743417Y-113445916D01*
X148721727Y-113397411D01*
X148709813Y-113379079D01*
X148683523Y-113367859D01*
X148626142Y-113351954D01*
X148545118Y-113333167D01*
X148447895Y-113313299D01*
X148404385Y-113305132D01*
X148293896Y-113284829D01*
X148187916Y-113265170D01*
X148096801Y-113248088D01*
X148030908Y-113235518D01*
X148018500Y-113233091D01*
X147915923Y-113212845D01*
X147915923Y-112785701D01*
X147916153Y-112645246D01*
X147917099Y-112538979D01*
X147919141Y-112462013D01*
X147922662Y-112409460D01*
X147928043Y-112376433D01*
X147935666Y-112358045D01*
X147945912Y-112349408D01*
X147950115Y-112347807D01*
X147975470Y-112342127D01*
X148031484Y-112330795D01*
X148110964Y-112315179D01*
X148206712Y-112296647D01*
X148311533Y-112276569D01*
X148418232Y-112256312D01*
X148519613Y-112237246D01*
X148608479Y-112220739D01*
X148677637Y-112208159D01*
X148719889Y-112200875D01*
X148729290Y-112199616D01*
X148737807Y-112182763D01*
X148756660Y-112137870D01*
X148782324Y-112073430D01*
X148792123Y-112048192D01*
X148831648Y-111950686D01*
X148878192Y-111842959D01*
X148919877Y-111752172D01*
X148950550Y-111682753D01*
X148970956Y-111625710D01*
X148977768Y-111590777D01*
X148976682Y-111586095D01*
X148962285Y-111563991D01*
X148929412Y-111514831D01*
X148881590Y-111443848D01*
X148822348Y-111356278D01*
X148755215Y-111257357D01*
X148741941Y-111237830D01*
X148664046Y-111122140D01*
X148606787Y-111034044D01*
X148567881Y-110969486D01*
X148545044Y-110924411D01*
X148535994Y-110894763D01*
X148538448Y-110876485D01*
X148538511Y-110876369D01*
X148557827Y-110852361D01*
X148600551Y-110805947D01*
X148662051Y-110741937D01*
X148737698Y-110665145D01*
X148822861Y-110580382D01*
X148832465Y-110570922D01*
X148939790Y-110466989D01*
X149022615Y-110390675D01*
X149082605Y-110340571D01*
X149121423Y-110315270D01*
X149138520Y-110312004D01*
X149163473Y-110326250D01*
X149215255Y-110359156D01*
X149288520Y-110407208D01*
X149377920Y-110466890D01*
X149478111Y-110534688D01*
X149501501Y-110550639D01*
X149833593Y-110777420D01*
X149983565Y-110709353D01*
X150074770Y-110669685D01*
X150172669Y-110629791D01*
X150256831Y-110597983D01*
X150260538Y-110596674D01*
X150326369Y-110572576D01*
X150377116Y-110552200D01*
X150401842Y-110539936D01*
X150401884Y-110539901D01*
X150409729Y-110517734D01*
X150423066Y-110463217D01*
X150440570Y-110382480D01*
X150460917Y-110281650D01*
X150482782Y-110166856D01*
X150484571Y-110157178D01*
X150506504Y-110038904D01*
X150526640Y-109931542D01*
X150543680Y-109841917D01*
X150556328Y-109776851D01*
X150563284Y-109743168D01*
X150563406Y-109742654D01*
X150567639Y-109728325D01*
X150575871Y-109717507D01*
X150593033Y-109709706D01*
X150624058Y-109704429D01*
X150673878Y-109701182D01*
X150747424Y-109699472D01*
X150849629Y-109698807D01*
X150985425Y-109698693D01*
X151003000Y-109698692D01*
X151142878Y-109698776D01*
G37*
D14*
%TO.C,J2*%
X147310800Y-76158400D02*
X147310800Y-74828400D01*
X148640800Y-76158400D02*
X147310800Y-76158400D01*
X149910800Y-76158400D02*
X155050800Y-76158400D01*
X149910800Y-76158400D02*
X149910800Y-73558400D01*
X155050800Y-76158400D02*
X155050800Y-70958400D01*
X147310800Y-73558400D02*
X147310800Y-70958400D01*
X149910800Y-73558400D02*
X147310800Y-73558400D01*
X147310800Y-70958400D02*
X155050800Y-70958400D01*
%TO.C,U2*%
X147475000Y-94140000D02*
X148200000Y-94140000D01*
X154695000Y-94865000D02*
X154695000Y-94140000D01*
X147475000Y-94865000D02*
X147475000Y-94140000D01*
X154695000Y-100635000D02*
X154695000Y-101360000D01*
X147475000Y-100635000D02*
X147475000Y-101360000D01*
X154695000Y-101360000D02*
X153970000Y-101360000D01*
X147475000Y-101360000D02*
X148200000Y-101360000D01*
%TO.C,J3*%
X148276000Y-84725200D02*
X149606000Y-84725200D01*
X148276000Y-86055200D02*
X148276000Y-84725200D01*
X148276000Y-87325200D02*
X148276000Y-89925200D01*
X148276000Y-87325200D02*
X150936000Y-87325200D01*
X148276000Y-89925200D02*
X150936000Y-89925200D01*
X150936000Y-87325200D02*
X150936000Y-89925200D01*
%TD*%
%LPC*%
D15*
%TO.C,J2*%
X148640800Y-74828400D03*
D16*
X148640800Y-72288400D03*
X151180800Y-74828400D03*
X151180800Y-72288400D03*
X153720800Y-74828400D03*
X153720800Y-72288400D03*
%TD*%
D17*
%TO.C,J1*%
X143510000Y-67310000D03*
D18*
X143510000Y-69850000D03*
X143510000Y-72390000D03*
X143510000Y-74930000D03*
X143510000Y-77470000D03*
X143510000Y-80010000D03*
X143510000Y-82550000D03*
X143510000Y-85090000D03*
X143510000Y-87630000D03*
X143510000Y-90170000D03*
X143510000Y-92710000D03*
X143510000Y-95250000D03*
X143510000Y-97790000D03*
X143510000Y-100330000D03*
X143510000Y-102870000D03*
X143510000Y-105410000D03*
X143510000Y-107950000D03*
X143510000Y-110490000D03*
X143510000Y-113030000D03*
X143510000Y-115570000D03*
X158750000Y-115570000D03*
X158750000Y-113030000D03*
X158750000Y-110490000D03*
X158750000Y-107950000D03*
X158750000Y-105410000D03*
X158750000Y-102870000D03*
X158750000Y-100330000D03*
X158750000Y-97790000D03*
X158750000Y-95250000D03*
X158750000Y-92710000D03*
X158750000Y-90170000D03*
X158750000Y-87630000D03*
X158750000Y-85090000D03*
X158750000Y-82550000D03*
X158750000Y-80010000D03*
X158750000Y-77470000D03*
X158750000Y-74930000D03*
X158750000Y-72390000D03*
X158750000Y-69850000D03*
X158750000Y-67310000D03*
%TD*%
D19*
%TO.C,U2*%
X153585000Y-94412500D03*
X153085000Y-94412500D03*
X152585000Y-94412500D03*
X152085000Y-94412500D03*
X151585000Y-94412500D03*
X151085000Y-94412500D03*
X150585000Y-94412500D03*
X150085000Y-94412500D03*
X149585000Y-94412500D03*
X149085000Y-94412500D03*
X148585000Y-94412500D03*
D20*
X147747500Y-95250000D03*
X147747500Y-95750000D03*
X147747500Y-96250000D03*
X147747500Y-96750000D03*
X147747500Y-97250000D03*
X147747500Y-97750000D03*
X147747500Y-98250000D03*
X147747500Y-98750000D03*
X147747500Y-99250000D03*
X147747500Y-99750000D03*
X147747500Y-100250000D03*
D19*
X148585000Y-101087500D03*
X149085000Y-101087500D03*
X149585000Y-101087500D03*
X150085000Y-101087500D03*
X150585000Y-101087500D03*
X151085000Y-101087500D03*
X151585000Y-101087500D03*
X152085000Y-101087500D03*
X152585000Y-101087500D03*
X153085000Y-101087500D03*
X153585000Y-101087500D03*
D20*
X154422500Y-100250000D03*
X154422500Y-99750000D03*
X154422500Y-99250000D03*
X154422500Y-98750000D03*
X154422500Y-98250000D03*
X154422500Y-97750000D03*
X154422500Y-97250000D03*
X154422500Y-96750000D03*
X154422500Y-96250000D03*
X154422500Y-95750000D03*
X154422500Y-95250000D03*
D21*
X151085000Y-97750000D03*
%TD*%
D15*
%TO.C,J3*%
X149606000Y-86055200D03*
D16*
X149606000Y-88595200D03*
%TD*%
%LPD*%
M02*
