%TF.GenerationSoftware,KiCad,Pcbnew,7.0.7*%
%TF.CreationDate,2024-02-09T17:04:24-05:00*%
%TF.ProjectId,m0110a_atmega32_pcb,6d303131-3061-45f6-9174-6d6567613332,rev?*%
%TF.SameCoordinates,Original*%
%TF.FileFunction,Copper,L1,Top*%
%TF.FilePolarity,Positive*%
%FSLAX46Y46*%
G04 Gerber Fmt 4.6, Leading zero omitted, Abs format (unit mm)*
G04 Created by KiCad (PCBNEW 7.0.7) date 2024-02-09 17:04:24*
%MOMM*%
%LPD*%
G01*
G04 APERTURE LIST*
G04 Aperture macros list*
%AMRoundRect*
0 Rectangle with rounded corners*
0 $1 Rounding radius*
0 $2 $3 $4 $5 $6 $7 $8 $9 X,Y pos of 4 corners*
0 Add a 4 corners polygon primitive as box body*
4,1,4,$2,$3,$4,$5,$6,$7,$8,$9,$2,$3,0*
0 Add four circle primitives for the rounded corners*
1,1,$1+$1,$2,$3*
1,1,$1+$1,$4,$5*
1,1,$1+$1,$6,$7*
1,1,$1+$1,$8,$9*
0 Add four rect primitives between the rounded corners*
20,1,$1+$1,$2,$3,$4,$5,0*
20,1,$1+$1,$4,$5,$6,$7,0*
20,1,$1+$1,$6,$7,$8,$9,0*
20,1,$1+$1,$8,$9,$2,$3,0*%
G04 Aperture macros list end*
%TA.AperFunction,ComponentPad*%
%ADD10R,1.700000X1.700000*%
%TD*%
%TA.AperFunction,ComponentPad*%
%ADD11O,1.700000X1.700000*%
%TD*%
%TA.AperFunction,ComponentPad*%
%ADD12R,1.600000X1.600000*%
%TD*%
%TA.AperFunction,ComponentPad*%
%ADD13O,1.600000X1.600000*%
%TD*%
%TA.AperFunction,SMDPad,CuDef*%
%ADD14RoundRect,0.062500X-0.062500X0.475000X-0.062500X-0.475000X0.062500X-0.475000X0.062500X0.475000X0*%
%TD*%
%TA.AperFunction,SMDPad,CuDef*%
%ADD15RoundRect,0.062500X-0.475000X0.062500X-0.475000X-0.062500X0.475000X-0.062500X0.475000X0.062500X0*%
%TD*%
%TA.AperFunction,SMDPad,CuDef*%
%ADD16R,5.200000X5.200000*%
%TD*%
%TA.AperFunction,ViaPad*%
%ADD17C,0.800000*%
%TD*%
%TA.AperFunction,Conductor*%
%ADD18C,0.250000*%
%TD*%
G04 APERTURE END LIST*
D10*
%TO.P,J2,1,Pin_1*%
%TO.N,/ROW6*%
X148640800Y-74828400D03*
D11*
%TO.P,J2,2,Pin_2*%
%TO.N,+5V*%
X148640800Y-72288400D03*
%TO.P,J2,3,Pin_3*%
%TO.N,/ROW7*%
X151180800Y-74828400D03*
%TO.P,J2,4,Pin_4*%
%TO.N,/ROW5*%
X151180800Y-72288400D03*
%TO.P,J2,5,Pin_5*%
%TO.N,RESET*%
X153720800Y-74828400D03*
%TO.P,J2,6,Pin_6*%
%TO.N,GNDREF*%
X153720800Y-72288400D03*
%TD*%
D12*
%TO.P,J1,1,Pin_1*%
%TO.N,unconnected-(J1-Pin_1-Pad1)*%
X143510000Y-67310000D03*
D13*
%TO.P,J1,2,Pin_2*%
%TO.N,unconnected-(J1-Pin_2-Pad2)*%
X143510000Y-69850000D03*
%TO.P,J1,3,Pin_3*%
%TO.N,unconnected-(J1-Pin_3-Pad3)*%
X143510000Y-72390000D03*
%TO.P,J1,4,Pin_4*%
%TO.N,RESET*%
X143510000Y-74930000D03*
%TO.P,J1,5,Pin_5*%
%TO.N,+5V*%
X143510000Y-77470000D03*
%TO.P,J1,6,Pin_6*%
%TO.N,unconnected-(J1-Pin_6-Pad6)*%
X143510000Y-80010000D03*
%TO.P,J1,7,Pin_7*%
%TO.N,GNDREF*%
X143510000Y-82550000D03*
%TO.P,J1,8,Pin_8*%
%TO.N,unconnected-(J1-Pin_8-Pad8)*%
X143510000Y-85090000D03*
%TO.P,J1,9,Pin_9*%
%TO.N,unconnected-(J1-Pin_9-Pad9)*%
X143510000Y-87630000D03*
%TO.P,J1,10,Pin_10*%
%TO.N,unconnected-(J1-Pin_10-Pad10)*%
X143510000Y-90170000D03*
%TO.P,J1,11,Pin_11*%
%TO.N,unconnected-(J1-Pin_11-Pad11)*%
X143510000Y-92710000D03*
%TO.P,J1,12,Pin_12*%
%TO.N,/COL7*%
X143510000Y-95250000D03*
%TO.P,J1,13,Pin_13*%
%TO.N,/COL6*%
X143510000Y-97790000D03*
%TO.P,J1,14,Pin_14*%
%TO.N,/COL5*%
X143510000Y-100330000D03*
%TO.P,J1,15,Pin_15*%
%TO.N,/COL4*%
X143510000Y-102870000D03*
%TO.P,J1,16,Pin_16*%
%TO.N,/COL3*%
X143510000Y-105410000D03*
%TO.P,J1,17,Pin_17*%
%TO.N,/COL2*%
X143510000Y-107950000D03*
%TO.P,J1,18,Pin_18*%
%TO.N,/COL1*%
X143510000Y-110490000D03*
%TO.P,J1,19,Pin_19*%
%TO.N,/COL0*%
X143510000Y-113030000D03*
%TO.P,J1,20,Pin_20*%
%TO.N,GNDREF*%
X143510000Y-115570000D03*
%TO.P,J1,21,Pin_21*%
%TO.N,/ROW0*%
X158750000Y-115570000D03*
%TO.P,J1,22,Pin_22*%
%TO.N,/ROW1*%
X158750000Y-113030000D03*
%TO.P,J1,23,Pin_23*%
%TO.N,/SHIFT*%
X158750000Y-110490000D03*
%TO.P,J1,24,Pin_24*%
%TO.N,/LOCK*%
X158750000Y-107950000D03*
%TO.P,J1,25,Pin_25*%
%TO.N,unconnected-(J1-Pin_25-Pad25)*%
X158750000Y-105410000D03*
%TO.P,J1,26,Pin_26*%
%TO.N,+5V*%
X158750000Y-102870000D03*
%TO.P,J1,27,Pin_27*%
%TO.N,/ROW2*%
X158750000Y-100330000D03*
%TO.P,J1,28,Pin_28*%
%TO.N,/ROW3*%
X158750000Y-97790000D03*
%TO.P,J1,29,Pin_29*%
%TO.N,/ROW4*%
X158750000Y-95250000D03*
%TO.P,J1,30,Pin_30*%
%TO.N,/ROW5*%
X158750000Y-92710000D03*
%TO.P,J1,31,Pin_31*%
%TO.N,/ROW6*%
X158750000Y-90170000D03*
%TO.P,J1,32,Pin_32*%
%TO.N,/ROW7*%
X158750000Y-87630000D03*
%TO.P,J1,33,Pin_33*%
%TO.N,/ROW8*%
X158750000Y-85090000D03*
%TO.P,J1,34,Pin_34*%
%TO.N,/ROW9*%
X158750000Y-82550000D03*
%TO.P,J1,35,Pin_35*%
%TO.N,/OPT*%
X158750000Y-80010000D03*
%TO.P,J1,36,Pin_36*%
%TO.N,/CMD*%
X158750000Y-77470000D03*
%TO.P,J1,37,Pin_37*%
%TO.N,/KB_CLK*%
X158750000Y-74930000D03*
%TO.P,J1,38,Pin_38*%
%TO.N,/KB_DATA*%
X158750000Y-72390000D03*
%TO.P,J1,39,Pin_39*%
%TO.N,unconnected-(J1-Pin_39-Pad39)*%
X158750000Y-69850000D03*
%TO.P,J1,40,Pin_40*%
%TO.N,+5V*%
X158750000Y-67310000D03*
%TD*%
D14*
%TO.P,U2,1,PB5*%
%TO.N,/ROW5*%
X153585000Y-94412500D03*
%TO.P,U2,2,PB6*%
%TO.N,/ROW6*%
X153085000Y-94412500D03*
%TO.P,U2,3,PB7*%
%TO.N,/ROW7*%
X152585000Y-94412500D03*
%TO.P,U2,4,~{RESET}*%
%TO.N,RESET*%
X152085000Y-94412500D03*
%TO.P,U2,5,VCC*%
%TO.N,+5V*%
X151585000Y-94412500D03*
%TO.P,U2,6,GND*%
%TO.N,GNDREF*%
X151085000Y-94412500D03*
%TO.P,U2,7,XTAL2*%
%TO.N,unconnected-(U2-XTAL2-Pad7)*%
X150585000Y-94412500D03*
%TO.P,U2,8,XTAL1*%
%TO.N,unconnected-(U2-XTAL1-Pad8)*%
X150085000Y-94412500D03*
%TO.P,U2,9,PD0*%
%TO.N,/RXD*%
X149585000Y-94412500D03*
%TO.P,U2,10,PD1*%
%TO.N,/TXD*%
X149085000Y-94412500D03*
%TO.P,U2,11,PD2*%
%TO.N,/KB_CLK*%
X148585000Y-94412500D03*
D15*
%TO.P,U2,12,PD3*%
%TO.N,/KB_DATA*%
X147747500Y-95250000D03*
%TO.P,U2,13,PD4*%
%TO.N,unconnected-(U2-PD4-Pad13)*%
X147747500Y-95750000D03*
%TO.P,U2,14,PD5*%
%TO.N,unconnected-(U2-PD5-Pad14)*%
X147747500Y-96250000D03*
%TO.P,U2,15,PD6*%
%TO.N,unconnected-(U2-PD6-Pad15)*%
X147747500Y-96750000D03*
%TO.P,U2,16,PD7*%
%TO.N,unconnected-(U2-PD7-Pad16)*%
X147747500Y-97250000D03*
%TO.P,U2,17,VCC*%
%TO.N,+5V*%
X147747500Y-97750000D03*
%TO.P,U2,18,GND*%
%TO.N,GNDREF*%
X147747500Y-98250000D03*
%TO.P,U2,19,PC0*%
%TO.N,/COL7*%
X147747500Y-98750000D03*
%TO.P,U2,20,PC1*%
%TO.N,/COL6*%
X147747500Y-99250000D03*
%TO.P,U2,21,PC2*%
%TO.N,/COL5*%
X147747500Y-99750000D03*
%TO.P,U2,22,PC3*%
%TO.N,/COL4*%
X147747500Y-100250000D03*
D14*
%TO.P,U2,23,PC4*%
%TO.N,/COL3*%
X148585000Y-101087500D03*
%TO.P,U2,24,PC5*%
%TO.N,/COL2*%
X149085000Y-101087500D03*
%TO.P,U2,25,PC6*%
%TO.N,/COL1*%
X149585000Y-101087500D03*
%TO.P,U2,26,PC7*%
%TO.N,/COL0*%
X150085000Y-101087500D03*
%TO.P,U2,27,AVCC*%
%TO.N,unconnected-(U2-AVCC-Pad27)*%
X150585000Y-101087500D03*
%TO.P,U2,28,GND*%
%TO.N,GNDREF*%
X151085000Y-101087500D03*
%TO.P,U2,29,AREF*%
%TO.N,unconnected-(U2-AREF-Pad29)*%
X151585000Y-101087500D03*
%TO.P,U2,30,PA7*%
%TO.N,unconnected-(U2-PA7-Pad30)*%
X152085000Y-101087500D03*
%TO.P,U2,31,PA6*%
%TO.N,unconnected-(U2-PA6-Pad31)*%
X152585000Y-101087500D03*
%TO.P,U2,32,PA5*%
%TO.N,/CMD*%
X153085000Y-101087500D03*
%TO.P,U2,33,PA4*%
%TO.N,/OPT*%
X153585000Y-101087500D03*
D15*
%TO.P,U2,34,PA3*%
%TO.N,/SHIFT*%
X154422500Y-100250000D03*
%TO.P,U2,35,PA2*%
%TO.N,/LOCK*%
X154422500Y-99750000D03*
%TO.P,U2,36,PA1*%
%TO.N,/ROW9*%
X154422500Y-99250000D03*
%TO.P,U2,37,PA0*%
%TO.N,/ROW8*%
X154422500Y-98750000D03*
%TO.P,U2,38,VCC*%
%TO.N,+5V*%
X154422500Y-98250000D03*
%TO.P,U2,39,GND*%
%TO.N,GNDREF*%
X154422500Y-97750000D03*
%TO.P,U2,40,PB0*%
%TO.N,/ROW0*%
X154422500Y-97250000D03*
%TO.P,U2,41,PB1*%
%TO.N,/ROW1*%
X154422500Y-96750000D03*
%TO.P,U2,42,PB2*%
%TO.N,/ROW2*%
X154422500Y-96250000D03*
%TO.P,U2,43,PB3*%
%TO.N,/ROW3*%
X154422500Y-95750000D03*
%TO.P,U2,44,PB4*%
%TO.N,/ROW4*%
X154422500Y-95250000D03*
D16*
%TO.P,U2,45,GND*%
%TO.N,GNDREF*%
X151085000Y-97750000D03*
%TD*%
D10*
%TO.P,J3,1,Pin_1*%
%TO.N,/TXD*%
X149606000Y-86055200D03*
D11*
%TO.P,J3,2,Pin_2*%
%TO.N,/RXD*%
X149606000Y-88595200D03*
%TD*%
D17*
%TO.N,RESET*%
X153720800Y-80228200D03*
%TO.N,+5V*%
X146431000Y-96999866D03*
X151370500Y-92456000D03*
X156210000Y-106045000D03*
%TO.N,/ROW0*%
X155788790Y-97510440D03*
%TO.N,/ROW1*%
X156629260Y-96969500D03*
%TO.N,/ROW5*%
X154860500Y-92151200D03*
%TO.N,/ROW6*%
X154146000Y-91005428D03*
%TO.N,/ROW7*%
X153797000Y-87630000D03*
%TO.N,/ROW8*%
X156305500Y-104787548D03*
%TO.N,/ROW9*%
X155210692Y-104775000D03*
%TO.N,/OPT*%
X153289000Y-102870000D03*
%TO.N,/CMD*%
X152273000Y-102870000D03*
%TD*%
D18*
%TO.N,RESET*%
X143510000Y-74930000D02*
X144830800Y-74930000D01*
X152450800Y-73558400D02*
X153720800Y-74828400D01*
X152085000Y-81864000D02*
X152085000Y-94407500D01*
X146202400Y-73558400D02*
X152450800Y-73558400D01*
X144830800Y-74930000D02*
X146202400Y-73558400D01*
X153720800Y-80228200D02*
X152085000Y-81864000D01*
%TO.N,+5V*%
X157099000Y-99872800D02*
X157099000Y-102489000D01*
X149148800Y-67310000D02*
X148640800Y-67818000D01*
X151370500Y-92456000D02*
X151384000Y-92469500D01*
X151384000Y-93097373D02*
X151585000Y-93298373D01*
X151585000Y-93298373D02*
X151585000Y-94407500D01*
X151384000Y-92469500D02*
X151384000Y-93097373D01*
X158750000Y-67310000D02*
X149148800Y-67310000D01*
X158750000Y-102870000D02*
X158115000Y-102870000D01*
X156210000Y-106045000D02*
X156527500Y-105727500D01*
X147176134Y-97750000D02*
X146431000Y-97004866D01*
X148640800Y-67818000D02*
X148640800Y-72288400D01*
X154422500Y-98245000D02*
X155471200Y-98245000D01*
X155471200Y-98245000D02*
X157099000Y-99872800D01*
X157099000Y-103251000D02*
X157099000Y-105156000D01*
X157480000Y-102870000D02*
X157099000Y-103251000D01*
X158115000Y-102870000D02*
X157480000Y-102870000D01*
X157099000Y-105156000D02*
X156210000Y-106045000D01*
X147747500Y-97750000D02*
X147176134Y-97750000D01*
X157099000Y-102489000D02*
X157480000Y-102870000D01*
X146431000Y-97004866D02*
X146431000Y-96999866D01*
%TO.N,GNDREF*%
X145542000Y-97917000D02*
X145870000Y-98245000D01*
X146701492Y-78215600D02*
X145542000Y-79375092D01*
X155854400Y-76657200D02*
X154296000Y-78215600D01*
X151085000Y-102280000D02*
X146130000Y-107235000D01*
X151085000Y-97745000D02*
X151085000Y-102280000D01*
X154422500Y-97745000D02*
X151085000Y-97745000D01*
X150585000Y-98245000D02*
X151085000Y-97745000D01*
X144780000Y-82550000D02*
X143510000Y-82550000D01*
X151085000Y-94407500D02*
X151085000Y-97745000D01*
X145870000Y-98245000D02*
X150585000Y-98245000D01*
X146130000Y-112950000D02*
X143510000Y-115570000D01*
X145542000Y-79375092D02*
X145542000Y-81788000D01*
X146130000Y-107235000D02*
X146130000Y-112950000D01*
X144780000Y-82550000D02*
X145542000Y-83312000D01*
X153720800Y-72288400D02*
X155295600Y-72288400D01*
X154296000Y-78215600D02*
X146701492Y-78215600D01*
X153670000Y-72085200D02*
X153685000Y-72070200D01*
X145542000Y-81788000D02*
X144780000Y-82550000D01*
X155295600Y-72288400D02*
X155854400Y-72847200D01*
X145542000Y-83312000D02*
X145542000Y-97917000D01*
X155854400Y-72847200D02*
X155854400Y-76657200D01*
%TO.N,/COL7*%
X145481000Y-98745000D02*
X147747500Y-98745000D01*
X143510000Y-95250000D02*
X144907000Y-96647000D01*
X144907000Y-96647000D02*
X144907000Y-98171000D01*
X144907000Y-98171000D02*
X145481000Y-98745000D01*
%TO.N,/COL6*%
X143510000Y-97790000D02*
X144965000Y-99245000D01*
X143510000Y-97790000D02*
X143510000Y-97155000D01*
X144965000Y-99245000D02*
X147747500Y-99245000D01*
%TO.N,/COL5*%
X145365000Y-99745000D02*
X147747500Y-99745000D01*
X144780000Y-100330000D02*
X145365000Y-99745000D01*
X143510000Y-100330000D02*
X144780000Y-100330000D01*
%TO.N,/COL4*%
X146135000Y-100245000D02*
X147747500Y-100245000D01*
X143510000Y-102870000D02*
X146135000Y-100245000D01*
%TO.N,/COL3*%
X148585000Y-102252746D02*
X148585000Y-101082500D01*
X145427746Y-105410000D02*
X148585000Y-102252746D01*
X143510000Y-105410000D02*
X145427746Y-105410000D01*
%TO.N,/COL2*%
X149083604Y-102376396D02*
X149083604Y-101741396D01*
X144145000Y-107950000D02*
X144780000Y-107315000D01*
X144780000Y-106680000D02*
X149083604Y-102376396D01*
X143510000Y-107316396D02*
X143510000Y-107950000D01*
X149085000Y-101082500D02*
X149085000Y-101741396D01*
X144780000Y-107315000D02*
X144780000Y-106680000D01*
X143510000Y-107950000D02*
X144145000Y-107950000D01*
%TO.N,/COL1*%
X145230000Y-106865000D02*
X149585000Y-102510000D01*
X149585000Y-102510000D02*
X149585000Y-101082500D01*
X143510000Y-110490000D02*
X145230000Y-108770000D01*
X145230000Y-108770000D02*
X145230000Y-106865000D01*
%TO.N,/COL0*%
X145680000Y-107050000D02*
X145680000Y-110860000D01*
X150085000Y-101082500D02*
X150085000Y-102645000D01*
X145680000Y-110860000D02*
X143510000Y-113030000D01*
X150085000Y-102645000D02*
X145680000Y-107050000D01*
%TO.N,/ROW0*%
X155785537Y-97510440D02*
X155520097Y-97245000D01*
X155520097Y-97245000D02*
X154422500Y-97245000D01*
X155788790Y-97510440D02*
X155785537Y-97510440D01*
%TO.N,/ROW1*%
X156629260Y-96969500D02*
X156404760Y-96745000D01*
X156404760Y-96745000D02*
X154422500Y-96745000D01*
%TO.N,/ROW2*%
X158750000Y-100330000D02*
X157353000Y-98933000D01*
X157078000Y-96245000D02*
X154422500Y-96245000D01*
X157353000Y-98933000D02*
X157353000Y-96520000D01*
X157353000Y-96520000D02*
X157078000Y-96245000D01*
%TO.N,/ROW3*%
X158750000Y-97790000D02*
X158750000Y-97155000D01*
X158750000Y-97155000D02*
X157340000Y-95745000D01*
X157340000Y-95745000D02*
X154422500Y-95745000D01*
%TO.N,/ROW4*%
X154427500Y-95250000D02*
X154422500Y-95245000D01*
X158750000Y-95250000D02*
X154427500Y-95250000D01*
%TO.N,/ROW5*%
X154178000Y-92151200D02*
X153585000Y-92744200D01*
X154860500Y-92151200D02*
X154178000Y-92151200D01*
X153585000Y-92744200D02*
X153585000Y-94407500D01*
X155419300Y-92710000D02*
X158750000Y-92710000D01*
X154860500Y-92151200D02*
X155419300Y-92710000D01*
%TO.N,/ROW6*%
X153085000Y-92066428D02*
X153085000Y-94407500D01*
X154981428Y-90170000D02*
X158750000Y-90170000D01*
X154146000Y-91005428D02*
X154981428Y-90170000D01*
X154146000Y-91005428D02*
X153085000Y-92066428D01*
%TO.N,/ROW7*%
X152585000Y-88842000D02*
X153797000Y-87630000D01*
X158750000Y-87630000D02*
X158750000Y-88265000D01*
X153797000Y-87630000D02*
X158750000Y-87630000D01*
X152585000Y-94407500D02*
X152585000Y-88842000D01*
%TO.N,/ROW8*%
X156335000Y-99799200D02*
X155280800Y-98745000D01*
X156305500Y-104787548D02*
X156335000Y-104758048D01*
X155280800Y-98745000D02*
X154422500Y-98745000D01*
X156335000Y-104758048D02*
X156335000Y-99799200D01*
%TO.N,/ROW9*%
X155144404Y-99245000D02*
X154422500Y-99245000D01*
X155485000Y-104487243D02*
X155885000Y-104087243D01*
X155885000Y-104087243D02*
X155885000Y-99985596D01*
X155885000Y-99985596D02*
X155144404Y-99245000D01*
X155485000Y-104500692D02*
X155485000Y-104487243D01*
X155210692Y-104775000D02*
X155485000Y-104500692D01*
%TO.N,/KB_DATA*%
X156294400Y-72864400D02*
X156768800Y-72390000D01*
X156294400Y-76839454D02*
X156294400Y-72864400D01*
X156768800Y-72390000D02*
X158750000Y-72390000D01*
X145991000Y-94632200D02*
X145991000Y-79548346D01*
X146603800Y-95245000D02*
X145991000Y-94632200D01*
X147747500Y-95245000D02*
X146603800Y-95245000D01*
X146883746Y-78655600D02*
X154478254Y-78655600D01*
X154478254Y-78655600D02*
X156294400Y-76839454D01*
X145991000Y-79548346D02*
X146883746Y-78655600D01*
%TO.N,/KB_CLK*%
X156734400Y-75421600D02*
X157226000Y-74930000D01*
X157226000Y-74930000D02*
X158750000Y-74930000D01*
X147066000Y-79095600D02*
X154660508Y-79095600D01*
X146431000Y-92684600D02*
X146431000Y-79730600D01*
X146964400Y-93218000D02*
X146431000Y-92684600D01*
X148585000Y-94407500D02*
X148585000Y-93594000D01*
X148585000Y-93594000D02*
X148209000Y-93218000D01*
X154660508Y-79095600D02*
X156734400Y-77021708D01*
X148209000Y-93218000D02*
X146964400Y-93218000D01*
X146431000Y-79730600D02*
X147066000Y-79095600D01*
X156734400Y-77021708D02*
X156734400Y-75421600D01*
%TO.N,/TXD*%
X147370800Y-86055200D02*
X149606000Y-86055200D01*
X146871000Y-86555000D02*
X147370800Y-86055200D01*
X149085000Y-94407500D02*
X149085000Y-93471746D01*
X147286400Y-92778000D02*
X146871000Y-92362600D01*
X148391254Y-92778000D02*
X147286400Y-92778000D01*
X146871000Y-92362600D02*
X146871000Y-86555000D01*
X149085000Y-93471746D02*
X148391254Y-92778000D01*
%TO.N,/RXD*%
X149585000Y-88616200D02*
X149585000Y-94407500D01*
X149606000Y-88595200D02*
X149585000Y-88616200D01*
%TO.N,/OPT*%
X153289000Y-102870000D02*
X153585000Y-102574000D01*
X153585000Y-102574000D02*
X153585000Y-101082500D01*
%TO.N,/CMD*%
X152273000Y-102870000D02*
X153085000Y-102058000D01*
X153085000Y-102058000D02*
X153085000Y-101082500D01*
%TO.N,/SHIFT*%
X154422500Y-100245000D02*
X154855000Y-100245000D01*
X156972000Y-110490000D02*
X158750000Y-110490000D01*
X153924000Y-107442000D02*
X156972000Y-110490000D01*
X154940000Y-102362000D02*
X153924000Y-103378000D01*
X154855000Y-100245000D02*
X154940000Y-100330000D01*
X154940000Y-100330000D02*
X154940000Y-102362000D01*
X153924000Y-103378000D02*
X153924000Y-107442000D01*
%TO.N,/LOCK*%
X154422500Y-99745000D02*
X155008008Y-99745000D01*
X154432000Y-103632000D02*
X154432000Y-107188000D01*
X154432000Y-107188000D02*
X155194000Y-107950000D01*
X155435000Y-100171992D02*
X155435000Y-102629000D01*
X155435000Y-102629000D02*
X154432000Y-103632000D01*
X155194000Y-107950000D02*
X158750000Y-107950000D01*
X155008008Y-99745000D02*
X155435000Y-100171992D01*
%TD*%
M02*
